<svg width="24" height="24" viewBox="0 0 37 37" fill="none" xmlns="http://www.w3.org/2000/svg">
<path d="M30.7806 17.3288H33.7806C33.7806 9.63376 27.9711 3.83026 20.2656 3.83026V6.83026C26.3586 6.83026 30.7806 11.2448 30.7806 17.3288Z" fill="white"/>
<path d="M20.2817 12.8301C23.4362 12.8301 24.7817 14.1756 24.7817 17.3301H27.7817C27.7817 12.4926 25.1192 9.83007 20.2817 9.83007V12.8301ZM25.4147 20.9946C25.1264 20.7326 24.7477 20.5929 24.3584 20.6049C23.9691 20.617 23.5997 20.7798 23.3282 21.0591L19.7387 24.7506C18.8747 24.5856 17.1377 24.0441 15.3497 22.2606C13.5617 20.4711 13.0202 18.7296 12.8597 17.8716L16.5482 14.2806C16.8278 14.0093 16.9909 13.6398 17.0029 13.2504C17.015 12.861 16.875 12.4821 16.6127 12.1941L11.0702 6.09957C10.8077 5.81061 10.443 5.63533 10.0534 5.61096C9.66381 5.58659 9.28007 5.71506 8.98367 5.96907L5.72867 8.76057C5.46934 9.02084 5.31455 9.36725 5.29367 9.73407C5.27117 10.1091 4.84217 18.9921 11.7302 25.8831C17.7392 31.8906 25.2662 32.3301 27.3392 32.3301C27.6422 32.3301 27.8282 32.3211 27.8777 32.3181C28.2444 32.2975 28.5907 32.1421 28.8497 31.8816L31.6397 28.6251C31.8939 28.3289 32.0226 27.9452 31.9985 27.5556C31.9744 27.1661 31.7994 26.8012 31.5107 26.5386L25.4147 20.9946Z" fill="white"/>
</svg>
