<svg width="88" height="148" viewBox="0 0 88 148" fill="none" xmlns="http://www.w3.org/2000/svg">
<path d="M1.55497 4.04663C1.0355 4.23416 0.766412 4.8073 0.953948 5.32677L4.01002 13.792C4.19755 14.3115 4.77069 14.5806 5.29016 14.393C5.80963 14.2055 6.07872 13.6324 5.89118 13.1129L3.17468 5.58823L10.6993 2.87172C11.2188 2.68419 11.4879 2.11104 11.3004 1.59158C11.1128 1.07211 10.5397 0.803024 10.0202 0.990555L1.55497 4.04663ZM43.7329 147.685C44.881 147.071 46.0182 146.442 47.1429 145.796L46.1469 144.061C45.0401 144.697 43.9208 145.317 42.7905 145.921L43.7329 147.685ZM53.7745 141.701C55.9586 140.251 58.0785 138.738 60.1212 137.163L58.9002 135.579C56.8964 137.124 54.815 138.61 52.6686 140.034L53.7745 141.701ZM66.1137 132.161C68.0693 130.389 69.9269 128.554 71.6713 126.659L70.1998 125.304C68.4987 127.152 66.6844 128.945 64.7709 130.678L66.1137 132.161ZM76.6737 120.632C78.2525 118.506 79.6886 116.316 80.9637 114.068L79.2241 113.082C77.9919 115.254 76.6012 117.375 75.0681 119.439L76.6737 120.632ZM84.3603 106.968C85.3222 104.512 86.09 101.996 86.6434 99.428L84.6883 99.0067C84.1586 101.465 83.4226 103.878 82.498 106.239L84.3603 106.968ZM87.6384 91.5956C87.7404 89.0121 87.622 86.3864 87.2659 83.7238L85.2835 83.9889C85.6244 86.5375 85.7374 89.048 85.6399 91.5167L87.6384 91.5956ZM85.5883 76.0263C84.8559 73.6025 83.9234 71.1554 82.7795 68.6882L80.965 69.5296C82.0711 71.9149 82.9696 74.2744 83.6738 76.6048L85.5883 76.0263ZM79.0384 61.7694C77.7246 59.644 76.2506 57.5065 74.6094 55.3589L73.0203 56.5732C74.6235 58.6713 76.0598 60.7546 77.3372 62.821L79.0384 61.7694ZM69.6165 49.3698C67.9373 47.5117 66.1301 45.6472 64.1904 43.7775L62.8024 45.2174C64.7108 47.057 66.4859 48.8885 68.1327 50.7108L69.6165 49.3698ZM58.4289 38.5463C56.5242 36.9126 54.516 35.2756 52.4011 33.636L51.1757 35.2166C53.2657 36.8369 55.2483 38.4531 57.1269 40.0644L58.4289 38.5463ZM46.1523 29.0063C44.0921 27.5453 41.9453 26.0827 39.7098 24.6192L38.6144 26.2925C40.8299 27.743 42.9562 29.1916 44.9954 30.6377L46.1523 29.0063ZM33.1312 20.4669C30.9918 19.1638 28.7806 17.8603 26.496 16.5567L25.5049 18.2938C27.7735 19.5883 29.9683 20.8821 32.0908 22.1749L33.1312 20.4669ZM19.7155 12.8045C17.4684 11.5977 15.157 10.3912 12.7803 9.18526L11.8753 10.9688C14.2387 12.1679 16.5362 13.3673 18.7693 14.5665L19.7155 12.8045ZM5.89463 5.78201C4.71771 5.21515 3.52605 4.64847 2.31952 4.08202L1.46955 5.89241C2.67018 6.4561 3.85587 7.01994 5.02674 7.58389L5.89463 5.78201Z" fill="#2E3B4E"/>
</svg>
