<svg width="454" height="84" viewBox="0 0 454 84" fill="none" xmlns="http://www.w3.org/2000/svg">
<path d="M0.558131 80.3245C0.44001 80.864 0.781615 81.3971 1.3211 81.5153L10.1128 83.4403C10.6523 83.5584 11.1855 83.2168 11.3036 82.6773C11.4217 82.1378 11.0801 81.6047 10.5406 81.4865L2.72575 79.7754L4.43687 71.9606C4.55499 71.4211 4.21338 70.8879 3.6739 70.7698C3.13439 70.6517 2.60126 70.9933 2.48314 71.5328L0.558131 80.3245ZM453.966 47.4079C452.862 46.7281 451.741 46.0517 450.603 45.379L449.586 47.1006C450.713 47.7673 451.824 48.4375 452.918 49.1109L453.966 47.4079ZM443.67 41.4403C441.373 40.1855 439.015 38.946 436.599 37.7239L435.696 39.5085C438.094 40.7214 440.433 41.9511 442.712 43.1956L443.67 41.4403ZM429.472 34.2493C427.112 33.1403 424.702 32.048 422.244 30.9742L421.443 32.8069C423.885 33.8736 426.278 34.9583 428.621 36.0594L429.472 34.2493ZM414.906 27.8824C412.47 26.8928 409.991 25.9213 407.471 24.9695L406.764 26.8405C409.269 27.7865 411.733 28.752 414.153 29.7353L414.906 27.8824ZM400.038 22.2625C397.564 21.3944 395.054 20.5453 392.508 19.7163L391.889 21.618C394.42 22.4423 396.916 23.2866 399.375 24.1497L400.038 22.2625ZM384.886 17.3282C382.386 16.5748 379.853 15.841 377.29 15.1278L376.754 17.0546C379.304 17.764 381.823 18.4939 384.31 19.2432L384.886 17.3282ZM369.609 13.0769C367.057 12.4239 364.477 11.7914 361.869 11.1803L361.413 13.1276C364.007 13.7355 366.574 14.3648 369.113 15.0145L369.609 13.0769ZM354.144 9.4513C351.566 8.90119 348.964 8.37213 346.337 7.86501L345.958 9.82876C348.572 10.3334 351.162 10.8599 353.726 11.4072L354.144 9.4513ZM338.533 6.43634C335.943 5.98779 333.331 5.56064 330.696 5.15569L330.393 7.13247C333.014 7.5355 335.614 7.96061 338.192 8.40701L338.533 6.43634ZM322.812 4.01934C320.212 3.66956 317.593 3.34147 314.955 3.03583L314.725 5.02255C317.351 5.32677 319.958 5.65332 322.545 6.00147L322.812 4.01934ZM307.025 2.19121C304.415 1.93732 301.786 1.7055 299.14 1.49644L298.983 3.49022C301.617 3.69834 304.233 3.9291 306.832 4.18182L307.025 2.19121ZM291.201 0.9412C288.576 0.781358 285.935 0.644009 283.278 0.529805L283.192 2.52796C285.837 2.64165 288.466 2.77838 291.08 2.9375L291.201 0.9412ZM275.337 0.259172C272.703 0.192794 270.054 0.149276 267.392 0.129241L267.377 2.12918C270.028 2.14913 272.664 2.19245 275.287 2.25853L275.337 0.259172ZM259.456 0.139213C256.818 0.165663 254.166 0.215293 251.502 0.288671L251.557 2.28791C254.209 2.21485 256.849 2.16545 259.476 2.13911L259.456 0.139213ZM243.579 0.575867C240.941 0.69444 238.291 0.836444 235.63 1.00242L235.754 2.99854C238.404 2.83328 241.042 2.6919 243.669 2.57384L243.579 0.575867ZM227.726 1.56384C225.092 1.77373 222.448 2.00726 219.793 2.26493L219.987 4.25557C222.629 3.99901 225.262 3.7665 227.885 3.55752L227.726 1.56384ZM211.916 3.09781C209.29 3.3981 206.656 3.72217 204.012 4.07051L204.274 6.05336C206.906 5.70652 209.529 5.38385 212.143 5.08485L211.916 3.09781ZM196.167 5.1722C193.554 5.56182 190.933 5.97532 188.304 6.41316L188.633 8.38598C191.251 7.95001 193.86 7.53828 196.462 7.15033L196.167 5.1722ZM180.498 7.78107C177.901 8.25878 175.297 8.76041 172.687 9.28641L173.082 11.247C175.681 10.7232 178.274 10.2237 180.86 9.74807L180.498 7.78107ZM164.926 10.9179C162.349 11.4823 159.765 12.0706 157.176 12.6833L157.636 14.6295C160.215 14.0195 162.787 13.4336 165.354 12.8716L164.926 10.9179ZM149.465 14.5757C146.912 15.2252 144.352 15.8985 141.788 16.596L142.313 18.5259C144.867 17.8312 147.415 17.1607 149.958 16.5141L149.465 14.5757ZM134.133 18.7468C131.606 19.4794 129.074 20.2358 126.538 21.0163L127.127 22.9279C129.652 22.1505 132.173 21.3973 134.69 20.6677L134.133 18.7468ZM118.942 23.4229C116.445 24.2366 113.944 25.074 111.44 25.9353L112.091 27.8265C114.585 26.9687 117.075 26.1348 119.562 25.3245L118.942 23.4229ZM103.917 28.5915C101.45 29.4852 98.9797 30.4023 96.5067 31.3433L97.2179 33.2125C99.6809 32.2754 102.141 31.362 104.598 30.4719L103.917 28.5915ZM89.0895 34.2339C86.6453 35.2091 84.1986 36.2078 81.7496 37.2303L82.5202 39.0759C84.9594 38.0575 87.3963 37.0628 89.8307 36.0915L89.0895 34.2339ZM74.4473 40.3473C72.0264 41.4033 69.6036 42.4828 67.179 43.5861L68.0074 45.4065C70.4224 44.3075 72.8356 43.2323 75.2469 42.1804L74.4473 40.3473ZM60 46.9206C57.6055 48.0554 55.2097 49.2137 52.8126 50.3958L53.6971 52.1895C56.0849 51.0121 58.4714 49.8583 60.8566 48.7279L60 46.9206ZM45.7559 53.9428C43.4057 55.1466 41.0546 56.3735 38.7028 57.6238L39.6416 59.3897C41.9845 58.1443 44.3265 56.9221 46.6677 55.7229L45.7559 53.9428ZM31.7216 61.4029C29.4181 62.6724 27.1142 63.9645 24.81 65.2795L25.8013 67.0165C28.0969 65.7064 30.3921 64.4192 32.6869 63.1546L31.7216 61.4029ZM17.902 69.2904C15.6475 70.6219 13.393 71.9756 11.1387 73.3517L12.1807 75.0588C14.4267 73.6878 16.673 72.3391 18.9191 71.0125L17.902 69.2904ZM4.37624 77.5475C3.24922 78.2581 2.1223 78.9744 0.995481 79.6964L2.07448 81.3804C3.19722 80.661 4.32005 79.9473 5.44296 79.2392L4.37624 77.5475Z" fill="#2E3B4E"/>
</svg>
