<svg width="353" height="99" viewBox="0 0 353 99" fill="none" xmlns="http://www.w3.org/2000/svg">
<path d="M8.29394e-05 2.05184C-0.00804158 1.49961 0.43304 1.04536 0.985265 1.03723L9.9843 0.904825C10.5365 0.8967 10.9908 1.33778 10.9989 1.89C11.007 2.44223 10.5659 2.89648 10.0137 2.90461L2.01459 3.0223L2.13229 11.0214C2.14042 11.5737 1.69934 12.0279 1.14711 12.036C0.594886 12.0442 0.140635 11.6031 0.13251 11.0509L8.29394e-05 2.05184ZM352.251 44.1327C351.264 45.0454 350.26 45.9527 349.237 46.854L347.915 45.3539C348.925 44.463 349.918 43.5663 350.893 42.6645L352.251 44.1327ZM342.977 52.1199C340.877 53.8064 338.713 55.4671 336.488 57.0981L335.305 55.485C337.507 53.8711 339.648 52.2283 341.725 50.5604L342.977 52.1199ZM329.789 61.7919C327.547 63.2939 325.25 64.7656 322.9 66.2036L321.856 64.4977C324.182 63.0739 326.456 61.617 328.676 60.1302L329.789 61.7919ZM315.836 70.3342C313.48 71.6495 311.077 72.9308 308.629 74.1752L307.722 72.3922C310.148 71.1596 312.528 69.8906 314.861 68.588L315.836 70.3342ZM301.283 77.7323C298.831 78.8625 296.337 79.9556 293.803 81.009L293.035 79.1622C295.546 78.1186 298.016 77.0356 300.446 75.9159L301.283 77.7323ZM286.2 84.0038C283.664 84.9483 281.092 85.8529 278.485 86.7151L277.857 84.8163C280.44 83.9618 282.989 83.0655 285.502 82.1296L286.2 84.0038ZM270.671 89.1399C268.078 89.8922 265.454 90.6026 262.799 91.2688L262.312 89.3289C264.944 88.6687 267.544 87.9647 270.113 87.2191L270.671 89.1399ZM254.847 93.1109C252.2 93.6735 249.525 94.1921 246.823 94.6646L246.478 92.6945C249.156 92.2262 251.808 91.7122 254.431 91.1546L254.847 93.1109ZM238.735 95.9283C236.06 96.2968 233.361 96.6199 230.639 96.8959L230.437 94.9061C233.136 94.6325 235.811 94.3122 238.462 93.947L238.735 95.9283ZM222.507 97.5736C219.806 97.7503 217.083 97.8803 214.34 97.9619L214.28 95.9627C217 95.8819 219.699 95.753 222.376 95.5779L222.507 97.5736ZM206.161 98.0604C203.464 98.0453 200.749 97.9831 198.016 97.8724L198.097 95.874C200.806 95.9838 203.498 96.0454 206.172 96.0604L206.161 98.0604ZM189.861 97.3999C187.157 97.1963 184.437 96.9448 181.702 96.6439L181.921 94.6559C184.633 94.9543 187.33 95.2037 190.011 95.4056L189.861 97.3999ZM173.63 95.6176C170.956 95.2318 168.269 94.7984 165.569 94.3163L165.92 92.3474C168.599 92.8257 171.264 93.2554 173.916 93.6381L173.63 95.6176ZM157.528 92.7427C154.898 92.1829 152.256 91.5763 149.603 90.9218L150.082 88.98C152.714 89.6294 155.335 90.2312 157.944 90.7866L157.528 92.7427ZM141.701 88.8377C139.099 88.1073 136.488 87.3304 133.867 86.5059L134.468 84.5982C137.068 85.4164 139.66 86.1874 142.241 86.9121L141.701 88.8377ZM126.142 83.9449C123.583 83.0533 121.015 82.1158 118.441 81.1316L119.155 79.2634C121.711 80.2406 124.259 81.1712 126.8 82.0562L126.142 83.9449ZM110.893 78.1197C108.4 77.0828 105.9 76.0015 103.395 74.8749L104.215 73.0508C106.703 74.1696 109.186 75.2434 111.661 76.273L110.893 78.1197ZM95.9978 71.4251C93.5748 70.2542 91.1467 69.0405 88.7141 67.7833L89.6323 66.0066C92.0492 67.2556 94.4612 68.4613 96.868 69.6244L95.9978 71.4251ZM81.488 63.9272C79.1379 62.6334 76.784 61.2985 74.4265 59.9218L75.4351 58.1948C77.7781 59.563 80.1173 60.8895 82.4525 62.1752L81.488 63.9272ZM67.3876 55.6927C65.1112 54.2864 62.8318 52.8407 60.5499 51.355L61.6412 49.6789C63.9099 51.1561 66.1758 52.5933 68.4387 53.9912L67.3876 55.6927ZM53.7116 46.7872C51.5077 45.2777 49.3017 43.7304 47.0939 42.1447L48.2606 40.5203C50.4564 42.0973 52.6502 43.6361 54.8418 45.1372L53.7116 46.7872ZM40.4666 37.2729C38.3327 35.668 36.1974 34.0269 34.0611 32.3491L35.2964 30.7762C37.4218 32.4455 39.5461 34.0781 41.6687 35.6745L40.4666 37.2729ZM27.652 27.2073C25.5845 25.5134 23.5161 23.7847 21.4472 22.0207L22.7449 20.4988C24.8038 22.2544 26.8622 23.9747 28.9195 25.6602L27.652 27.2073ZM15.2615 16.6421C13.2556 14.8639 11.2494 13.0521 9.24323 11.2063L10.5974 9.73447C12.5946 11.572 14.5916 13.3755 16.5882 15.1455L15.2615 16.6421ZM3.28318 5.62237C2.28985 4.67489 1.29656 3.71897 0.303349 2.75456L1.6966 1.31969C2.68558 2.27998 3.6746 3.23179 4.6636 4.17516L3.28318 5.62237Z" fill="#2E3B4E"/>
</svg>
