<svg width="1920" height="1045" viewBox="0 0 1920 1045" fill="none" xmlns="http://www.w3.org/2000/svg">
<path d="M986.321 281.934C986.321 573.382 749.446 809.65 457.243 809.65C165.041 809.65 -71.834 573.382 -71.834 281.934C-71.834 -9.51405 165.041 -245.782 457.243 -245.782C749.446 -245.782 986.321 -9.51405 986.321 281.934Z" stroke="#E3E3E3"/>
<path d="M2246.83 435.124C2246.83 771.672 1973.3 1044.5 1635.88 1044.5C1298.47 1044.5 1024.94 771.672 1024.94 435.124C1024.94 98.5764 1298.47 -174.252 1635.88 -174.252C1973.3 -174.252 2246.83 98.5764 2246.83 435.124Z" stroke="#E3E3E3"/>
<path d="M2062.44 435.123C2062.44 670.095 1871.47 860.58 1635.88 860.58C1400.3 860.58 1209.33 670.095 1209.33 435.123C1209.33 200.151 1400.3 9.66641 1635.88 9.66641C1871.47 9.66641 2062.44 200.151 2062.44 435.123Z" stroke="#E3E3E3"/>
</svg>
