<svg width="797" height="717" viewBox="0 0 797 717" fill="none" xmlns="http://www.w3.org/2000/svg">
<g opacity="0.4">
<path d="M228.864 5.23135L82.7721 -0.00012207L88.0686 143.578L112.422 142.741L108.696 42.4272L579.629 505.256L596.85 488.332L125.889 25.4772L227.986 29.1392L228.864 5.23135Z" fill="url(#paint0_linear_359_1265)" style="mix-blend-mode:screen"/>
<path d="M328.461 321.186L329.18 301.307L207.733 296.938L212.125 416.321L232.379 415.614L229.265 332.225L620.779 717L635.098 702.927L243.558 318.126L328.461 321.186Z" fill="url(#paint1_linear_359_1265)" style="mix-blend-mode:screen"/>
<path d="M162.114 371.67L162.46 362.018L103.507 359.899L105.636 417.864L115.457 417.524L113.967 377.033L304.028 563.822L310.975 556.995L120.914 370.205L162.114 371.67Z" fill="url(#paint2_linear_359_1265)" style="mix-blend-mode:screen"/>
<path d="M414.536 365.418L414.882 355.766L355.929 353.647L358.058 411.586L367.879 411.246L366.389 370.781L556.45 557.544L563.396 550.717L373.309 363.927L414.536 365.418Z" fill="url(#paint3_linear_359_1265)" style="mix-blend-mode:screen"/>
<path d="M520.331 57.2061L520.677 47.554L461.724 45.4353L463.88 103.374L473.701 103.034L472.184 62.5684L662.245 249.332L669.191 242.505L479.13 55.7152L520.331 57.2061Z" fill="url(#paint4_linear_359_1265)" style="mix-blend-mode:screen"/>
<path d="M111.067 189.772L111.253 184.88L81.3374 183.808L82.4286 213.209L87.4058 213.052L86.6339 192.492L183.088 287.286L186.602 283.808L90.1737 189.013L111.067 189.772Z" fill="url(#paint5_linear_359_1265)" style="mix-blend-mode:screen"/>
<path d="M455.549 276.745L455.709 271.854L425.793 270.781L426.884 300.182L431.862 300.025L431.116 279.465L527.544 374.26L531.084 370.781L434.63 276.013L455.549 276.745Z" fill="url(#paint6_linear_359_1265)" style="mix-blend-mode:screen"/>
<path d="M29.7544 351.921L29.9141 347.03L-0.00170135 345.957L1.08955 375.358L6.06662 375.201L5.3214 354.642L101.749 449.436L105.289 445.957L8.83466 351.189L29.7544 351.921Z" fill="url(#paint7_linear_359_1265)" style="mix-blend-mode:screen"/>
<path d="M319.147 9.88735L319.307 4.99591L289.391 3.92346L290.482 33.3244L295.459 33.1413L294.714 12.6077L391.142 107.376L394.682 103.923L298.227 9.12879L319.147 9.88735Z" fill="url(#paint8_linear_359_1265)" style="mix-blend-mode:screen"/>
<path d="M394.281 245.225L391.194 161.836L782.681 546.611L797 532.538L405.46 147.737L490.363 150.797L491.082 130.891L369.636 126.549L374.027 245.932L394.281 245.225Z" fill="url(#paint9_linear_359_1265)" style="mix-blend-mode:screen"/>
</g>
<defs>
<linearGradient id="paint0_linear_359_1265" x1="138.39" y1="-31.5547" x2="476.299" y2="563.902" gradientUnits="userSpaceOnUse">
<stop offset="0.47" stop-color="#FFCE45"/>
<stop offset="1" stop-color="#414347" stop-opacity="0.29"/>
</linearGradient>
<linearGradient id="paint1_linear_359_1265" x1="253.97" y1="270.704" x2="534.912" y2="765.74" gradientUnits="userSpaceOnUse">
<stop offset="0.215" stop-color="#FFCE45"/>
<stop offset="1" stop-color="#414347" stop-opacity="0.12"/>
</linearGradient>
<linearGradient id="paint2_linear_359_1265" x1="125.953" y1="347.164" x2="262.339" y2="587.483" gradientUnits="userSpaceOnUse">
<stop offset="0.215" stop-color="#FFCE45"/>
<stop offset="1" stop-color="#414347" stop-opacity="0.12"/>
</linearGradient>
<linearGradient id="paint3_linear_359_1265" x1="378.375" y1="340.914" x2="514.735" y2="581.217" gradientUnits="userSpaceOnUse">
<stop offset="0.215" stop-color="#FFCE45"/>
<stop offset="1" stop-color="#414347" stop-opacity="0.12"/>
</linearGradient>
<linearGradient id="paint4_linear_359_1265" x1="484.17" y1="32.7014" x2="620.53" y2="273.005" gradientUnits="userSpaceOnUse">
<stop offset="0.215" stop-color="#FFCE45"/>
<stop offset="1" stop-color="#414347" stop-opacity="0.12"/>
</linearGradient>
<linearGradient id="paint5_linear_359_1265" x1="92.7259" y1="177.345" x2="161.938" y2="299.286" gradientUnits="userSpaceOnUse">
<stop offset="0.215" stop-color="#FFCE45"/>
<stop offset="1" stop-color="#414347" stop-opacity="0.12"/>
</linearGradient>
<linearGradient id="paint6_linear_359_1265" x1="437.185" y1="264.319" x2="506.388" y2="386.274" gradientUnits="userSpaceOnUse">
<stop offset="0.215" stop-color="#FFCE45"/>
<stop offset="1" stop-color="#414347" stop-opacity="0.12"/>
</linearGradient>
<linearGradient id="paint7_linear_359_1265" x1="11.3897" y1="339.495" x2="80.593" y2="461.45" gradientUnits="userSpaceOnUse">
<stop offset="0.215" stop-color="#FFCE45"/>
<stop offset="1" stop-color="#414347" stop-opacity="0.12"/>
</linearGradient>
<linearGradient id="paint8_linear_359_1265" x1="300.782" y1="-2.53741" x2="369.959" y2="119.402" gradientUnits="userSpaceOnUse">
<stop offset="0.215" stop-color="#FFCE45"/>
<stop offset="1" stop-color="#414347" stop-opacity="0.12"/>
</linearGradient>
<linearGradient id="paint9_linear_359_1265" x1="415.872" y1="100.315" x2="696.814" y2="595.351" gradientUnits="userSpaceOnUse">
<stop offset="0.215" stop-color="#FFCE45"/>
<stop offset="1" stop-color="#414347" stop-opacity="0.12"/>
</linearGradient>
</defs>
</svg>
