<svg width="278" height="398" viewBox="0 0 278 398" fill="none" xmlns="http://www.w3.org/2000/svg">
<path opacity="0.5" d="M129.758 372.662C69.6023 372.662 20.8367 344.513 20.8367 309.79C20.8367 275.067 69.6023 246.918 129.758 246.918C189.913 246.918 238.679 275.067 238.679 309.79C238.679 344.513 189.913 372.662 129.758 372.662Z" fill="#13247A"/>
<path d="M60.4285 65.4399L171.898 0.869003C173.767 -0.150538 175.297 -0.320462 176.656 0.359232L184.303 4.77724L179.375 7.83587V269.178C179.375 274.616 176.146 280.903 172.068 283.282L61.7878 347.003L63.3172 352.611L55.6706 348.193C54.1413 347.343 53.1218 345.304 53.1218 342.245V79.3737C53.1218 73.9361 56.3503 67.6489 60.4285 65.4399Z" fill="url(#paint0_linear_92_7708)"/>
<path d="M68.075 352.271L179.715 287.87C183.793 285.491 187.021 279.204 187.021 273.766V10.8945C187.021 5.45691 183.793 3.07798 179.715 5.28698L68.075 69.688C63.9968 72.0669 60.7683 78.3541 60.7683 83.7917V346.663C60.7683 352.101 64.1668 354.65 68.075 352.271Z" fill="url(#paint1_linear_92_7708)"/>
<path d="M60.7683 346.833L187.021 273.936V10.7246L60.7683 83.7917V346.833Z" fill="#0F65B2"/>
<path opacity="0.4" d="M80.989 351.931L193.648 286.85C197.896 284.471 200.445 279.883 200.445 274.956V27.547C200.445 24.1485 196.707 21.9395 193.648 23.6388L80.989 88.7195C76.741 91.0984 74.1921 95.6863 74.1921 100.614V348.193C74.1921 351.591 77.9304 353.63 80.989 351.931Z" fill="white"/>
<path d="M78.78 353.12C79.6297 353.12 80.4793 352.95 81.3289 352.441L193.988 287.36C198.406 284.811 201.125 280.053 201.125 275.126V27.5469C201.125 25.6778 200.275 24.1485 198.576 23.2988C197.047 22.4492 195.178 22.4492 193.648 23.2988L80.8191 88.3795C76.4011 90.9284 73.6823 95.6863 73.6823 100.614V348.193C73.6823 350.062 74.532 351.591 76.2312 352.441C77.0808 352.781 77.9304 353.12 78.78 353.12ZM196.027 23.4688C196.707 23.4688 197.387 23.6387 198.066 23.9785C199.256 24.6582 200.105 26.0176 200.105 27.377V274.956C200.105 279.713 197.557 283.962 193.478 286.34L80.8191 351.421C79.6297 352.101 78.1004 352.101 76.741 351.421C75.5515 350.741 74.7019 349.382 74.7019 348.023V100.614C74.7019 95.8562 77.2507 91.6081 81.3289 89.2292L193.988 24.1485C194.668 23.6387 195.348 23.4688 196.027 23.4688Z" fill="white"/>
<path d="M115.653 48.6174L132.306 38.9318C132.815 38.5919 133.325 37.7423 133.325 36.8927C133.325 36.213 132.815 35.8731 132.306 36.0431L115.653 45.7287C115.143 46.0685 114.634 46.9182 114.634 47.7678C114.634 48.6174 114.973 48.9572 115.653 48.6174Z" fill="#35658E"/>
<path opacity="0.2" d="M108.687 197.98C106.478 199.34 104.608 197.98 104.608 194.922V103.503C104.608 100.444 106.478 96.8758 108.687 95.5164L200.105 42.6702C200.275 43.6897 200.445 44.8792 200.445 45.8987V144.794L108.687 197.98Z" fill="#13247A"/>
<path d="M177.336 164.166V166.375C179.205 165.525 181.754 165.015 184.642 165.355C195.008 166.035 207.072 174.361 211.49 183.707C212.68 186.256 213.359 188.635 213.189 190.844L215.229 190.164L213.02 193.562C211.15 196.451 207.412 198.15 202.144 197.64C191.779 196.961 179.714 188.635 175.296 179.289C173.087 174.701 173.087 170.623 174.957 167.734L177.336 164.166Z" fill="#F4A856"/>
<path d="M177.675 175.72C182.263 185.066 194.158 193.222 204.523 194.072C214.889 194.752 219.647 187.955 215.059 178.609C210.471 169.263 198.576 161.107 188.211 160.257C177.845 159.408 173.257 166.374 177.675 175.72Z" fill="#FCE586"/>
<path d="M177.675 175.72C182.263 185.066 194.158 193.222 204.523 194.072C214.889 194.752 219.647 187.955 215.059 178.609C210.471 169.263 198.576 161.107 188.211 160.257C177.845 159.408 173.257 166.374 177.675 175.72Z" fill="url(#paint2_radial_92_7708)"/>
<path d="M189.91 186.426C193.988 189.314 198.916 191.183 203.334 191.523C207.582 191.863 210.98 190.674 212.68 188.125C214.379 185.576 214.379 182.008 212.51 178.269C208.771 170.453 198.576 163.486 189.74 162.806C185.492 162.466 182.093 163.656 180.394 166.205C178.695 168.753 178.695 172.322 180.564 176.06C182.433 179.968 185.832 183.537 189.91 186.426ZM202.654 168.074C206.732 170.793 210.131 174.361 212 178.269C213.869 182.008 213.869 185.406 212.34 187.785C210.641 190.164 207.582 191.353 203.334 191.013C194.668 190.334 184.642 183.537 180.904 175.72C179.035 171.982 179.035 168.584 180.564 166.205C182.263 163.826 185.322 162.636 189.57 162.976C193.818 163.486 198.576 165.355 202.654 168.074Z" fill="#F4A856"/>
<path d="M180.734 175.89C184.472 183.707 194.668 190.673 203.334 191.183C212 191.863 215.908 185.916 212.17 178.099C208.431 170.283 198.236 163.316 189.57 162.806C180.904 162.296 176.996 168.074 180.734 175.89Z" fill="url(#paint3_radial_92_7708)"/>
<path d="M211.66 178.949C207.921 171.132 197.726 164.165 189.06 163.656C184.982 163.316 181.923 164.505 180.224 166.544C181.753 163.995 184.982 162.466 189.57 162.806C198.236 163.486 208.431 170.283 212.169 178.099C214.209 182.177 214.039 185.746 212.169 188.125C213.529 185.916 213.359 182.687 211.66 178.949Z" fill="#F4A856"/>
<path d="M178.185 175.041C182.773 184.386 194.668 192.543 205.033 193.392C209.961 193.732 213.699 192.373 215.568 189.824C213.699 192.883 209.961 194.582 204.523 194.242C194.158 193.562 182.093 185.236 177.675 175.89C175.296 170.962 175.466 166.884 177.675 163.996C175.976 166.544 175.976 170.453 178.185 175.041Z" fill="#C9AA74"/>
<path d="M180.904 186.765C178.525 184.386 176.656 181.838 175.466 179.119C173.257 174.531 173.257 170.453 175.127 167.564L177.506 164.165C177.506 164.165 177.506 163.996 177.675 163.996L177.845 163.826C179.885 161.277 183.453 159.747 188.551 160.087C194.328 160.597 200.785 163.316 206.053 167.394L187.361 186.765H180.904Z" fill="#F4A856"/>
<path d="M120.582 103.163L253.292 26.5274C254.311 25.8477 255.331 25.8477 256.011 26.3575L258.05 27.547C258.05 27.547 257.54 27.547 257.2 27.7169C257.37 28.2267 257.54 28.9064 257.54 29.756V121.175C257.54 124.233 255.671 127.802 253.462 129.161L120.582 205.627C120.412 205.797 120.072 205.797 119.902 205.967V206.986L117.863 205.797C117.013 205.287 116.503 204.098 116.503 202.398V111.149C116.503 108.091 118.203 104.522 120.582 103.163Z" fill="white"/>
<path d="M122.451 206.646L255.161 130.181C257.37 128.821 259.239 125.253 259.239 122.194V30.7755C259.239 27.7169 257.37 26.3575 255.161 27.7169L122.451 104.352C120.242 105.712 118.373 109.28 118.373 112.339V203.758C118.373 206.646 120.242 208.006 122.451 206.646Z" fill="url(#paint4_linear_92_7708)"/>
<path d="M162.043 109.11V96.0261L159.324 97.5554C158.814 97.8953 158.305 98.2351 157.965 98.575C157.625 98.9148 157.285 99.2547 156.945 99.7644C156.605 100.104 156.435 100.614 156.266 101.124C156.096 101.634 156.096 102.313 156.096 102.823C156.096 104.352 156.605 105.032 157.795 104.522C157.115 105.032 156.605 105.712 156.266 106.391C155.926 107.071 155.756 107.921 155.756 108.94C155.756 110.13 156.096 110.979 156.605 111.319C157.115 111.659 157.965 111.489 158.984 110.979L162.043 109.11ZM160.004 102.483L159.324 102.823C158.645 103.163 158.305 103.333 158.135 103.163C157.965 102.993 157.795 102.483 157.795 101.804C157.795 101.464 157.795 101.124 157.965 100.784C157.965 100.444 158.135 100.274 158.305 100.104C158.475 99.9344 158.644 99.7644 158.814 99.5945C158.984 99.4246 159.324 99.2547 159.664 99.0847L160.004 98.9148V102.483ZM160.004 108.6L159.324 109.11C158.645 109.45 158.305 109.62 157.965 109.28C157.795 109.11 157.625 108.6 157.625 107.921C157.625 107.071 157.795 106.561 157.965 106.052C158.305 105.542 158.645 105.032 159.324 104.692L160.004 104.352V108.6Z" fill="white"/>
<path d="M154.906 113.188L152.527 101.464L150.318 102.653L148.109 117.097L149.978 115.907L150.488 112.679L152.527 111.489L153.037 114.208L154.906 113.188ZM152.187 110.13L150.658 110.979L151.338 105.202L152.187 110.13Z" fill="white"/>
<path d="M147.09 117.606V104.522L145.73 105.372L143.012 114.378V107.071L141.312 108.091V121.175L142.672 120.325L145.391 110.979V118.796L147.09 117.606Z" fill="white"/>
<path d="M139.443 122.024V108.94L137.404 110.13V115.737L135.195 111.319L133.156 112.509L135.365 117.097L132.986 125.763L135.025 124.573L136.895 117.266L137.234 117.946V123.214L139.443 122.024Z" fill="white"/>
<path d="M222.706 130.011L247.854 115.397V111.999L222.706 126.612V130.011Z" fill="white"/>
<path d="M191.78 147.853L216.929 133.24V129.841L191.78 144.454V147.853Z" fill="white"/>
<path d="M160.683 165.695L186.002 151.081V147.683L160.683 162.296V165.695Z" fill="white"/>
<path d="M129.758 183.537L154.906 168.923V165.695L129.758 180.138V183.537Z" fill="white"/>
<path opacity="0.2" d="M122.451 104.352L255.161 27.7169C257.37 26.3575 259.239 27.7169 259.239 30.7755V122.194C259.239 122.704 259.239 123.384 259.069 123.894C251.933 118.796 223.385 102.993 168.5 133.239C148.619 144.284 131.797 142.755 118.373 135.618V112.169C118.373 109.11 120.242 105.542 122.451 104.352Z" fill="white"/>
<path opacity="0.2" d="M204.354 99.5945C185.662 97.2156 170.199 91.4382 157.285 84.3014L255.161 27.7169C257.37 26.3575 259.239 27.7169 259.239 30.7755V118.286C249.554 110.64 232.731 103.333 204.354 99.5945Z" fill="white"/>
<path d="M174.108 320.835L175.297 322.704C176.317 320.835 178.186 319.136 180.735 317.606C189.741 312.339 204.184 312.339 213.19 317.436C215.739 318.796 217.438 320.495 218.628 322.364L219.987 320.665V324.743C220.157 328.142 217.948 331.71 213.36 334.429C204.354 339.696 189.911 339.696 180.905 334.599C176.487 332.05 174.108 328.651 174.108 325.253V320.835Z" fill="#F4A856"/>
<path d="M180.904 330.181C189.91 335.278 204.524 335.278 213.36 330.011C222.366 324.743 222.196 316.417 213.36 311.149C204.354 306.052 189.741 306.052 180.904 311.319C171.899 316.587 171.899 325.083 180.904 330.181Z" fill="#FCE586"/>
<path d="M180.904 330.181C189.91 335.278 204.524 335.278 213.36 330.011C222.366 324.743 222.196 316.417 213.36 311.149C204.354 306.052 189.741 306.052 180.904 311.319C171.899 316.587 171.899 325.083 180.904 330.181Z" fill="url(#paint5_radial_92_7708)"/>
<path d="M197.048 332.05C202.145 332.05 207.073 330.86 210.981 328.651C214.72 326.442 216.759 323.554 216.759 320.495C216.759 317.436 214.72 314.548 210.981 312.509C203.335 308.091 191.1 308.26 183.454 312.679C179.715 314.888 177.676 317.776 177.676 320.835C177.676 323.893 179.715 326.782 183.454 328.821C187.192 331.03 192.12 332.05 197.048 332.05ZM197.218 309.79C202.145 309.79 206.903 310.809 210.642 313.018C214.21 315.057 216.249 317.776 216.249 320.665C216.249 323.554 214.38 326.272 210.811 328.481C203.335 332.899 191.27 332.899 183.624 328.651C180.055 326.612 178.016 323.893 178.016 321.005C178.016 318.116 179.885 315.397 183.454 313.188C187.362 310.809 192.29 309.79 197.218 309.79Z" fill="#F4A856"/>
<path d="M183.624 328.651C191.1 332.899 203.335 332.899 210.981 328.481C218.458 324.063 218.458 317.097 210.981 312.679C203.505 308.43 191.27 308.43 183.624 312.848C175.977 317.267 175.977 324.403 183.624 328.651Z" fill="url(#paint6_radial_92_7708)"/>
<path d="M210.811 313.698C203.334 309.45 191.1 309.45 183.453 313.868C179.885 315.907 178.016 318.626 177.846 321.345C177.676 318.286 179.545 315.227 183.453 313.018C190.93 308.6 203.164 308.6 210.811 312.848C214.719 315.058 216.758 318.116 216.418 321.175C216.249 318.456 214.379 315.737 210.811 313.698Z" fill="#F4A856"/>
<path d="M180.905 329.331C189.911 334.429 204.524 334.429 213.36 329.161C217.608 326.612 219.817 323.384 219.987 320.155C220.157 323.724 217.948 327.292 213.36 330.011C204.354 335.278 189.911 335.278 180.905 330.181C176.147 327.462 173.938 323.894 174.108 320.325C174.447 323.554 176.656 326.782 180.905 329.331Z" fill="#C9AA74"/>
<path d="M170.199 315.227L171.389 317.097C172.408 315.227 174.278 313.528 176.826 311.999C185.832 306.731 200.276 306.731 209.282 311.829C211.831 313.188 213.53 314.888 214.719 316.757L216.079 315.057V319.136C216.249 322.534 214.04 326.102 209.452 328.821C200.446 334.089 186.002 334.089 176.996 328.991C172.578 326.442 170.199 323.044 170.199 319.645V315.227Z" fill="#F4A856"/>
<path d="M176.996 324.573C186.002 329.671 200.616 329.671 209.452 324.403C218.458 319.136 218.288 310.809 209.452 305.542C200.446 300.444 185.832 300.444 176.996 305.712C167.99 310.979 167.99 319.306 176.996 324.573Z" fill="#FCE586"/>
<path d="M176.996 324.573C186.002 329.671 200.616 329.671 209.452 324.403C218.458 319.136 218.288 310.809 209.452 305.542C200.446 300.444 185.832 300.444 176.996 305.712C167.99 310.979 167.99 319.306 176.996 324.573Z" fill="url(#paint7_radial_92_7708)"/>
<path d="M193.139 326.442C198.237 326.442 203.165 325.253 207.073 323.044C210.812 320.835 212.851 317.946 212.851 314.888C212.851 311.829 210.812 308.94 207.073 306.901C199.427 302.483 187.192 302.653 179.546 307.071C175.807 309.28 173.768 312.169 173.768 315.227C173.768 318.286 175.807 321.175 179.546 323.214C183.284 325.253 188.212 326.442 193.139 326.442ZM193.309 304.182C198.237 304.182 202.995 305.202 206.733 307.411C210.302 309.45 212.341 312.169 212.341 315.057C212.341 317.946 210.472 320.665 206.903 322.874C199.427 327.292 187.362 327.292 179.715 323.044C176.147 321.005 174.108 318.286 174.108 315.397C174.108 312.509 175.977 309.79 179.546 307.581C183.454 305.202 188.382 304.182 193.309 304.182Z" fill="#F4A856"/>
<path d="M179.546 323.044C187.022 327.292 199.257 327.292 206.903 322.874C214.38 318.456 214.38 311.489 206.903 307.071C199.427 302.823 187.192 302.823 179.546 307.241C172.069 311.659 172.069 318.626 179.546 323.044Z" fill="url(#paint8_radial_92_7708)"/>
<path d="M206.903 308.091C199.426 303.843 187.192 303.843 179.545 308.261C175.977 310.3 174.108 313.018 173.938 315.737C173.768 312.679 175.637 309.62 179.545 307.411C187.022 302.993 199.256 302.993 206.903 307.241C210.811 309.45 212.85 312.509 212.51 315.567C212.34 312.679 210.471 310.13 206.903 308.091Z" fill="#F4A856"/>
<path d="M176.996 323.724C186.002 328.821 200.616 328.821 209.452 323.554C213.7 321.005 215.909 317.776 216.079 314.548C216.249 318.116 214.04 321.685 209.452 324.403C200.446 329.671 186.002 329.671 176.996 324.573C172.239 321.855 170.03 318.286 170.199 314.718C170.369 317.946 172.748 321.175 176.996 323.724Z" fill="#C9AA74"/>
<path d="M139.952 343.095L141.142 344.964C142.161 343.095 144.031 341.396 146.579 339.867C155.585 334.599 170.029 334.599 179.035 339.697C181.584 341.056 183.283 342.755 184.472 344.624L185.832 342.925V347.003C186.002 350.402 183.793 353.97 179.205 356.689C170.199 361.957 155.755 361.957 146.749 356.859C142.331 354.31 139.952 350.912 139.952 347.513V343.095Z" fill="#F4A856"/>
<path d="M139.951 343.151C139.918 335.831 150.162 329.851 162.831 329.794C175.5 329.737 185.797 335.625 185.83 342.945C185.863 350.265 175.619 356.245 162.95 356.302C150.281 356.359 139.984 350.471 139.951 343.151Z" fill="#FCE586"/>
<path d="M146.749 352.611C155.755 357.708 170.369 357.708 179.205 352.441C188.211 347.173 188.041 338.847 179.205 333.579C170.199 328.481 155.585 328.481 146.749 333.749C137.573 339.017 137.743 347.343 146.749 352.611Z" fill="url(#paint9_radial_92_7708)"/>
<path d="M162.892 354.48C167.99 354.48 172.918 353.29 176.826 351.081C180.564 348.872 182.604 345.984 182.604 342.925C182.604 339.866 180.564 336.978 176.826 334.939C169.18 330.521 156.945 330.69 149.298 335.108C145.56 337.317 143.521 340.206 143.521 343.265C143.521 346.323 145.56 349.212 149.298 351.251C153.037 353.29 157.965 354.48 162.892 354.48ZM163.062 332.05C167.99 332.05 172.748 333.069 176.486 335.278C180.055 337.317 182.094 340.036 182.094 342.925C182.094 345.814 180.225 348.532 176.656 350.741C169.18 355.159 157.115 355.159 149.468 350.911C145.9 348.872 143.861 346.153 143.861 343.265C143.861 340.376 145.73 337.657 149.298 335.448C153.037 333.239 158.135 332.05 163.062 332.05Z" fill="#F4A856"/>
<path d="M149.298 351.081C156.775 355.329 169.01 355.329 176.656 350.911C184.133 346.493 184.133 339.527 176.656 335.108C169.18 330.86 156.945 330.86 149.298 335.278C141.652 339.696 141.822 346.663 149.298 351.081Z" fill="url(#paint10_radial_92_7708)"/>
<path d="M176.486 336.128C169.009 331.88 156.775 331.88 149.128 336.298C145.56 338.337 143.691 341.056 143.521 343.775C143.351 340.716 145.22 337.657 149.128 335.448C156.605 331.03 168.839 331.03 176.486 335.278C180.394 337.487 182.433 340.546 182.093 343.605C181.923 340.716 180.054 338.167 176.486 336.128Z" fill="#F4A856"/>
<path d="M146.749 351.591C155.755 356.689 170.369 356.689 179.205 351.421C183.453 348.872 185.662 345.644 185.832 342.415C186.002 345.984 183.793 349.552 179.205 352.271C170.199 357.538 155.755 357.538 146.749 352.441C141.991 349.722 139.782 346.154 139.952 342.585C140.122 345.984 142.331 349.212 146.749 351.591Z" fill="#C9AA74"/>
<path d="M185.832 351.081L187.022 352.951C188.041 351.081 189.91 349.382 192.459 347.853C201.465 342.585 215.909 342.585 224.915 347.683C227.464 349.042 229.163 350.742 230.352 352.611L231.712 350.911V354.99C231.882 358.388 229.673 361.957 225.085 364.675C216.079 369.943 201.635 369.943 192.629 364.845C188.211 362.296 185.832 358.898 185.832 355.499V351.081Z" fill="#F4A856"/>
<path d="M185.932 351.187C185.899 343.867 196.143 337.887 208.812 337.83C221.482 337.774 231.779 343.662 231.812 350.982C231.844 358.302 221.601 364.282 208.931 364.339C196.262 364.395 185.965 358.507 185.932 351.187Z" fill="#FCE586"/>
<path d="M192.629 360.427C201.635 365.525 216.248 365.525 225.084 360.257C234.09 354.99 233.921 346.663 225.084 341.396C216.079 336.298 201.465 336.298 192.629 341.566C183.623 347.003 183.623 355.33 192.629 360.427Z" fill="url(#paint11_radial_92_7708)"/>
<path d="M208.772 362.466C213.87 362.466 218.798 361.277 222.706 359.068C226.444 356.859 228.483 353.97 228.483 350.911C228.483 347.853 226.444 344.964 222.706 342.925C215.059 338.507 202.825 338.677 195.178 343.095C191.44 345.304 189.401 348.193 189.401 351.251C189.401 354.31 191.44 357.199 195.178 359.238C198.917 361.277 203.844 362.466 208.772 362.466ZM208.942 340.036C213.87 340.036 218.628 341.056 222.366 343.265C225.935 345.304 227.974 348.023 227.974 350.911C227.974 353.8 226.104 356.519 222.536 358.728C215.059 363.146 202.995 363.146 195.348 358.898C191.78 356.859 189.741 354.14 189.741 351.251C189.741 348.363 191.61 345.644 195.348 343.435C199.087 341.226 204.014 340.036 208.942 340.036Z" fill="#F4A856"/>
<path d="M195.348 359.068C202.825 363.316 215.059 363.316 222.706 358.898C230.183 354.48 230.183 347.513 222.706 343.095C215.229 338.847 202.995 338.847 195.348 343.265C187.702 347.683 187.702 354.65 195.348 359.068Z" fill="url(#paint12_radial_92_7708)"/>
<path d="M222.536 344.115C215.059 339.867 202.824 339.867 195.178 344.285C191.61 346.324 189.74 349.042 189.57 351.761C189.401 348.703 191.27 345.644 195.178 343.435C202.655 339.017 214.889 339.017 222.536 343.265C226.444 345.474 228.483 348.533 228.143 351.591C227.973 348.703 226.104 346.154 222.536 344.115Z" fill="#F4A856"/>
<path d="M192.629 359.578C201.635 364.675 216.249 364.675 225.085 359.408C229.333 356.859 231.542 353.63 231.712 350.402C231.882 353.97 229.673 357.539 225.085 360.257C216.079 365.525 201.635 365.525 192.629 360.427C187.871 357.709 185.662 354.14 185.832 350.572C186.172 353.97 188.381 357.199 192.629 359.578Z" fill="#C9AA74"/>
<path d="M164.081 342.755L165.271 344.624C166.29 342.755 168.159 341.056 170.708 339.526C179.714 334.259 194.158 334.259 203.164 339.356C205.713 340.716 207.412 342.415 208.601 344.284L209.961 342.585V346.663C210.131 350.062 207.922 353.63 203.334 356.349C194.328 361.616 179.884 361.616 170.878 356.519C166.46 353.97 164.081 350.571 164.081 347.173V342.755Z" fill="#F4A856"/>
<path d="M164.213 342.739C164.18 335.419 174.424 329.439 187.093 329.382C199.762 329.325 210.059 335.213 210.092 342.533C210.125 349.853 199.881 355.833 187.212 355.89C174.542 355.947 164.245 350.059 164.213 342.739Z" fill="#FCE586"/>
<path d="M170.878 352.101C179.884 357.199 194.497 357.199 203.333 351.931C212.339 346.663 212.339 338.337 203.333 333.069C194.327 327.972 179.714 327.972 170.878 333.239C161.872 338.507 161.872 346.833 170.878 352.101Z" fill="url(#paint13_radial_92_7708)"/>
<path d="M187.021 353.97C192.119 353.97 197.047 352.78 200.955 350.571C204.693 348.362 206.732 345.474 206.732 342.415C206.732 339.357 204.693 336.468 200.955 334.429C193.308 330.011 181.074 330.181 173.427 334.599C169.689 336.808 167.65 339.696 167.65 342.755C167.65 345.814 169.689 348.702 173.427 350.741C177.166 352.78 182.094 353.97 187.021 353.97ZM187.191 331.71C192.119 331.71 196.877 332.73 200.615 334.939C204.184 336.978 206.223 339.696 206.223 342.585C206.223 345.474 204.353 348.193 200.785 350.402C193.308 354.82 181.244 354.82 173.597 350.571C170.029 348.532 167.99 345.814 167.99 342.925C167.99 340.036 169.859 337.317 173.427 335.108C177.336 332.73 182.263 331.71 187.191 331.71Z" fill="#F4A856"/>
<path d="M173.597 350.572C181.074 354.82 193.308 354.82 200.955 350.402C208.432 345.984 208.432 339.017 200.955 334.599C193.478 330.351 181.244 330.351 173.597 334.769C165.951 339.187 165.951 346.154 173.597 350.572Z" fill="url(#paint14_radial_92_7708)"/>
<path d="M200.785 335.618C193.308 331.37 181.074 331.37 173.427 335.788C169.859 337.827 167.989 340.546 167.819 343.265C167.65 340.206 169.519 337.148 173.427 334.939C180.904 330.521 193.138 330.521 200.785 334.769C204.693 336.978 206.732 340.036 206.392 343.095C206.222 340.206 204.353 337.657 200.785 335.618Z" fill="#F4A856"/>
<path d="M170.878 351.251C179.884 356.349 194.498 356.349 203.334 351.081C207.582 348.533 209.791 345.304 209.961 342.075C210.131 345.644 207.922 349.212 203.334 351.931C194.328 357.199 179.884 357.199 170.878 352.101C166.12 349.382 163.911 345.814 164.081 342.245C164.421 345.474 166.63 348.702 170.878 351.251Z" fill="#C9AA74"/>
<path d="M158.135 338.167L159.324 340.036C160.344 338.167 162.213 336.468 164.762 334.939C173.768 329.671 188.211 329.671 197.217 334.769C199.766 336.128 201.465 337.827 202.655 339.696L204.014 337.997V342.075C204.184 345.474 201.975 349.042 197.387 351.761C188.381 357.029 173.938 357.029 164.932 351.931C160.514 349.382 158.135 345.984 158.135 342.585V338.167Z" fill="#F4A856"/>
<path d="M164.932 347.513C173.938 352.611 188.551 352.611 197.387 347.343C206.393 342.075 206.393 333.749 197.387 328.482C188.381 323.384 173.768 323.384 164.932 328.651C155.926 333.919 155.926 342.245 164.932 347.513Z" fill="#FCE586"/>
<path d="M164.932 347.513C173.938 352.611 188.551 352.611 197.387 347.343C206.393 342.075 206.393 333.749 197.387 328.482C188.381 323.384 173.768 323.384 164.932 328.651C155.926 333.919 155.926 342.245 164.932 347.513Z" fill="url(#paint15_radial_92_7708)"/>
<path d="M181.074 349.382C186.172 349.382 191.1 348.193 195.008 345.984C198.746 343.775 200.785 340.886 200.785 337.827C200.785 334.769 198.746 331.88 195.008 329.841C187.361 325.423 175.127 325.593 167.48 330.011C163.742 332.22 161.703 335.108 161.703 338.167C161.703 341.226 163.742 344.114 167.48 346.154C171.218 348.193 176.146 349.382 181.074 349.382ZM181.244 327.122C186.172 327.122 190.93 328.142 194.668 330.351C198.236 332.39 200.275 335.108 200.275 337.997C200.275 340.886 198.406 343.605 194.838 345.814C187.361 350.232 175.297 350.232 167.65 345.984C164.082 343.945 162.043 341.226 162.043 338.337C162.043 335.448 163.912 332.73 167.48 330.521C171.388 328.142 176.316 327.122 181.244 327.122Z" fill="#F4A856"/>
<path d="M167.65 345.984C175.127 350.232 187.361 350.232 195.008 345.814C202.484 341.396 202.484 334.429 195.008 330.011C187.531 325.763 175.297 325.763 167.65 330.181C160.004 334.599 160.004 341.566 167.65 345.984Z" fill="url(#paint16_radial_92_7708)"/>
<path d="M194.838 331.03C187.362 326.782 175.127 326.782 167.481 331.2C163.912 333.239 162.043 335.958 161.873 338.677C161.703 335.618 163.572 332.56 167.481 330.351C174.957 325.933 187.192 325.933 194.838 330.181C198.747 332.39 200.786 335.448 200.446 338.507C200.276 335.618 198.407 333.069 194.838 331.03Z" fill="#F4A856"/>
<path d="M164.932 346.663C173.938 351.761 188.551 351.761 197.387 346.493C201.635 343.945 203.844 340.716 204.014 337.488C204.184 341.056 201.975 344.624 197.387 347.343C188.381 352.611 173.938 352.611 164.932 347.513C160.174 344.794 157.965 341.226 158.135 337.657C158.475 340.886 160.684 344.115 164.932 346.663Z" fill="#C9AA74"/>
<path d="M155.076 329.331L156.266 331.2C157.285 329.331 159.155 327.632 161.703 326.103C170.709 320.835 185.153 320.835 194.159 325.933C196.708 327.292 198.407 328.991 199.596 330.86L200.956 329.161V333.239C201.126 336.638 198.917 340.206 194.329 342.925C185.323 348.193 170.879 348.193 161.873 343.095C157.455 340.546 155.076 337.148 155.076 333.749V329.331Z" fill="#F4A856"/>
<path d="M155.101 329.224C155.068 321.904 165.312 315.924 177.981 315.867C190.651 315.811 200.948 321.698 200.981 329.018C201.013 336.338 190.77 342.319 178.1 342.375C165.431 342.432 155.134 336.544 155.101 329.224Z" fill="#FCE586"/>
<path d="M161.873 338.677C170.879 343.774 185.493 343.774 194.329 338.507C203.335 333.239 203.165 324.913 194.329 319.645C185.323 314.548 170.709 314.548 161.873 319.815C152.867 325.083 152.867 333.409 161.873 338.677Z" fill="url(#paint17_radial_92_7708)"/>
<path d="M178.015 340.546C183.113 340.546 188.041 339.357 191.949 337.148C195.687 334.939 197.727 332.05 197.727 328.991C197.727 325.933 195.687 323.044 191.949 321.005C184.303 316.587 172.068 316.757 164.422 321.175C160.683 323.384 158.644 326.273 158.644 329.331C158.644 332.39 160.683 335.278 164.422 337.318C168.16 339.357 173.088 340.546 178.015 340.546ZM178.185 318.286C183.113 318.286 187.871 319.306 191.609 321.515C195.178 323.554 197.217 326.273 197.217 329.161C197.217 332.05 195.348 334.769 191.779 336.978C184.303 341.396 172.238 341.396 164.591 337.148C161.023 335.109 158.984 332.39 158.984 329.501C158.984 326.612 160.853 323.894 164.422 321.685C168.16 319.306 173.258 318.286 178.185 318.286Z" fill="#F4A856"/>
<path d="M164.422 337.147C171.898 341.396 184.133 341.396 191.779 336.978C199.256 332.56 199.256 325.593 191.779 321.175C184.303 316.927 172.068 316.927 164.422 321.345C156.775 325.763 156.945 332.729 164.422 337.147Z" fill="url(#paint18_radial_92_7708)"/>
<path d="M191.61 322.194C184.133 317.946 171.899 317.946 164.252 322.364C160.684 324.403 158.815 327.122 158.645 329.841C158.475 326.782 160.344 323.724 164.252 321.514C171.729 317.096 183.963 317.097 191.61 321.345C195.518 323.554 197.557 326.612 197.217 329.671C197.217 326.782 195.178 324.233 191.61 322.194Z" fill="#F4A856"/>
<path d="M161.873 337.827C170.879 342.925 185.493 342.925 194.329 337.657C198.577 335.108 200.786 331.88 200.956 328.651C201.126 332.22 198.917 335.788 194.329 338.507C185.323 343.775 170.879 343.775 161.873 338.677C157.115 335.958 154.906 332.39 155.076 328.821C155.246 332.05 157.455 335.278 161.873 337.827Z" fill="#C9AA74"/>
<path d="M139.103 332.9L140.802 334.429C141.482 332.39 142.841 330.351 145.05 328.312C152.697 321.345 166.97 318.286 176.826 321.515C179.545 322.364 181.584 323.724 183.113 325.253L184.133 323.214L184.982 327.122C185.832 330.521 184.303 334.429 180.394 337.827C172.748 344.794 158.474 347.853 148.619 344.624C143.691 343.095 140.802 340.206 140.123 336.808L139.103 332.9Z" fill="#F4A856"/>
<path d="M147.77 340.716C157.625 343.945 171.899 340.886 179.545 333.919C187.192 326.952 185.493 318.796 175.637 315.567C165.781 312.339 151.508 315.398 143.861 322.364C136.045 329.331 137.914 337.488 147.77 340.716Z" fill="#FCE586"/>
<path d="M147.77 340.716C157.625 343.945 171.899 340.886 179.545 333.919C187.192 326.952 185.493 318.796 175.637 315.567C165.781 312.339 151.508 315.398 143.861 322.364C136.045 329.331 137.914 337.488 147.77 340.716Z" fill="url(#paint19_radial_92_7708)"/>
<path d="M163.912 339.187C168.84 338.167 173.598 335.958 176.826 333.07C180.055 330.181 181.414 326.952 180.735 324.064C180.055 321.005 177.506 318.796 173.428 317.437C165.102 314.718 153.037 317.267 146.58 323.214C143.351 326.103 141.992 329.331 142.672 332.22C143.351 335.279 145.9 337.488 149.978 338.847C154.057 340.206 158.984 340.206 163.912 339.187ZM159.494 317.437C164.252 316.417 169.18 316.417 173.258 317.776C177.166 318.966 179.715 321.345 180.225 324.234C180.904 327.122 179.545 330.181 176.486 332.9C170.029 338.677 158.135 341.226 149.978 338.507C146.07 337.318 143.521 334.939 143.012 332.05C142.332 329.161 143.691 326.103 146.75 323.384C149.978 320.495 154.736 318.456 159.494 317.437Z" fill="#F4A856"/>
<path d="M149.978 338.677C158.304 341.396 170.199 338.847 176.656 332.9C183.113 327.122 181.584 320.155 173.427 317.437C165.101 314.718 153.206 317.267 146.749 323.214C140.122 329.161 141.652 335.958 149.978 338.677Z" fill="url(#paint20_radial_92_7708)"/>
<path d="M173.598 318.456C165.271 315.737 153.377 318.286 146.92 324.234C143.861 326.952 142.502 330.011 143.011 332.73C142.162 329.841 143.351 326.443 146.75 323.384C153.207 317.607 165.101 315.058 173.428 317.607C177.846 318.966 180.225 321.685 180.734 324.573C179.885 321.855 177.506 319.646 173.598 318.456Z" fill="#F4A856"/>
<path d="M147.599 339.867C157.455 343.095 171.728 340.037 179.375 333.07C183.113 329.671 184.642 326.103 184.133 322.874C185.152 326.273 183.623 330.181 179.545 333.919C171.898 340.886 157.625 343.945 147.769 340.716C142.671 339.017 139.613 335.958 139.103 332.56C139.952 335.619 142.841 338.337 147.599 339.867Z" fill="#C9AA74"/>
<path d="M174.277 236.213L176.316 237.233C176.316 235.024 177.166 232.645 178.525 230.096C183.793 221.09 196.367 213.953 206.733 213.953C209.621 213.953 212 214.463 213.869 215.482L214.209 213.273L216.248 216.842C218.118 219.731 217.778 223.979 215.229 228.567C209.961 237.573 197.387 244.709 187.022 244.709C181.754 244.709 178.186 242.84 176.486 239.951L174.277 236.213Z" fill="#F4A856"/>
<path d="M174.295 236.041C170.662 229.685 176.633 219.436 187.633 213.148C198.632 206.861 210.494 206.915 214.127 213.271C217.76 219.626 211.788 229.875 200.789 236.163C189.789 242.451 177.928 242.396 174.295 236.041Z" fill="#FCE586"/>
<path d="M184.812 240.971C195.177 240.971 207.752 233.834 213.019 224.828C218.287 215.822 214.039 208.516 203.673 208.516C193.308 208.516 180.734 215.652 175.466 224.658C170.198 233.664 174.277 240.971 184.812 240.971Z" fill="url(#paint21_radial_92_7708)"/>
<path d="M199.766 234.684C204.184 232.135 207.922 228.736 210.131 224.998C212.34 221.26 212.68 217.861 211.15 215.143C209.621 212.424 206.393 211.064 202.144 211.064C193.308 211.064 182.603 217.182 178.355 224.658C176.146 228.397 175.806 231.795 177.336 234.514C178.865 237.233 182.093 238.592 186.342 238.592C190.59 238.592 195.348 237.063 199.766 234.684ZM188.89 215.143C193.139 212.764 197.896 211.234 202.144 211.234C206.223 211.234 209.281 212.594 210.811 215.143C212.17 217.691 211.83 221.09 209.791 224.658C205.373 232.135 194.838 238.082 186.172 238.082C182.093 238.082 179.035 236.723 177.506 234.174C176.146 231.625 176.486 228.227 178.525 224.658C180.734 220.92 184.642 217.522 188.89 215.143Z" fill="#F4A856"/>
<path d="M186.172 238.252C194.838 238.252 205.543 232.305 209.961 224.658C214.379 217.182 210.811 211.064 202.145 210.895C193.479 210.895 182.773 216.842 178.355 224.488C174.107 232.135 177.506 238.252 186.172 238.252Z" fill="url(#paint22_radial_92_7708)"/>
<path d="M202.654 211.914C193.988 211.914 183.283 217.861 178.865 225.508C176.826 229.076 176.486 232.305 177.675 234.684C175.976 232.135 176.146 228.567 178.355 224.658C182.773 217.182 193.308 211.064 202.144 211.064C206.732 211.064 209.791 212.764 211.15 215.482C209.621 213.273 206.732 211.914 202.654 211.914Z" fill="#F4A856"/>
<path d="M184.302 240.121C194.667 240.121 207.242 232.985 212.509 223.979C215.058 219.731 215.398 215.822 213.869 212.934C215.738 215.992 215.568 220.07 212.849 224.828C207.581 233.834 195.007 240.971 184.642 240.971C179.204 240.971 175.466 238.932 173.937 235.703C175.806 238.422 179.374 240.121 184.302 240.121Z" fill="#C9AA74"/>
<path d="M178.695 276.315L178.865 278.524C180.734 277.504 183.113 276.825 186.172 276.825C196.537 276.655 209.281 283.792 214.549 292.798C216.078 295.346 216.758 297.555 216.928 299.764L218.967 298.915L216.928 302.483C215.228 305.542 211.66 307.411 206.392 307.581C196.027 307.751 183.283 300.614 178.015 291.608C175.296 287.19 175.127 283.112 176.656 280.053L178.695 276.315Z" fill="#F4A856"/>
<path d="M179.885 287.87C185.152 296.706 197.897 303.843 208.262 303.843C218.627 303.673 222.705 296.366 217.438 287.53C212.17 278.694 199.426 271.557 189.061 271.557C178.695 271.557 174.617 278.864 179.885 287.87Z" fill="#FCE586"/>
<path d="M179.885 287.87C185.152 296.706 197.897 303.843 208.262 303.843C218.627 303.673 222.705 296.366 217.438 287.53C212.17 278.694 199.426 271.557 189.061 271.557C178.695 271.557 174.617 278.864 179.885 287.87Z" fill="url(#paint23_radial_92_7708)"/>
<path d="M192.969 297.386C197.387 299.934 202.314 301.294 206.732 301.294C210.98 301.294 214.209 299.764 215.738 297.046C217.268 294.327 216.928 290.928 214.719 287.19C210.301 279.713 199.426 273.596 190.76 273.766C186.511 273.766 183.283 275.295 181.754 278.014C180.224 280.733 180.564 284.131 182.773 287.87C184.982 291.608 188.72 295.007 192.969 297.386ZM204.184 278.184C208.432 280.563 212.17 283.962 214.209 287.53C216.248 291.098 216.758 294.497 215.229 297.046C213.869 299.595 210.811 300.954 206.562 301.124C197.896 301.294 187.361 295.346 182.943 287.87C180.904 284.301 180.394 280.903 181.924 278.354C183.283 275.805 186.342 274.446 190.59 274.276C195.008 274.276 199.935 275.635 204.184 278.184Z" fill="#F4A856"/>
<path d="M182.943 287.87C187.361 295.346 198.066 301.294 206.733 301.294C215.399 301.124 218.967 295.007 214.379 287.53C209.961 280.053 199.256 274.106 190.59 274.106C181.924 274.106 178.525 280.393 182.943 287.87Z" fill="url(#paint24_radial_92_7708)"/>
<path d="M214.039 288.21C209.621 280.733 198.916 274.786 190.25 274.786C186.172 274.786 183.113 276.315 181.754 278.524C183.113 275.805 186.172 274.106 190.76 273.936C199.426 273.766 210.131 279.883 214.549 287.36C216.928 291.268 217.098 294.837 215.399 297.386C216.418 295.007 216.079 291.778 214.039 288.21Z" fill="#F4A856"/>
<path d="M180.394 287.02C185.662 295.856 198.406 302.993 208.771 302.993C213.699 302.993 217.268 301.294 218.967 298.405C217.437 301.634 213.699 303.673 208.262 303.673C197.896 303.843 185.152 296.706 179.884 287.7C177.166 283.112 176.996 278.864 178.865 275.805C177.505 278.864 177.845 282.772 180.394 287.02Z" fill="#C9AA74"/>
<path d="M48.7038 225.848L104.099 166.375L159.664 161.787C159.664 161.787 168.5 236.893 104.269 316.587C39.8677 311.149 48.7038 225.848 48.7038 225.848Z" fill="url(#paint25_linear_92_7708)"/>
<path d="M159.664 161.787L172.068 168.923L116.673 173.511L104.099 166.205L159.664 161.787Z" fill="url(#paint26_linear_92_7708)"/>
<path d="M61.278 232.985L116.673 173.511L139.443 171.132L172.068 168.923C172.068 168.923 180.904 244.03 116.673 323.724C52.272 318.456 61.278 232.985 61.278 232.985Z" fill="url(#paint27_linear_92_7708)"/>
<path d="M61.2782 232.985L116.673 173.511L172.068 169.093C170.539 168.244 170.539 168.244 170.539 168.244L114.294 172.832L58.8993 232.305C58.8993 232.305 51.4226 303.673 99.3411 320.155C53.9715 302.143 61.2782 232.985 61.2782 232.985Z" fill="white"/>
<path opacity="0.2" d="M67.9047 233.834L117.692 180.308L138.253 178.269L167.65 176.23C167.65 176.23 175.636 243.86 117.862 315.398C59.9182 310.64 67.9047 233.834 67.9047 233.834Z" fill="white"/>
<defs>
<linearGradient id="paint0_linear_92_7708" x1="184.26" y1="176.318" x2="-156.413" y2="176.318" gradientUnits="userSpaceOnUse">
<stop stop-color="#C9AA74"/>
<stop offset="0.522" stop-color="#3088C8"/>
<stop offset="1" stop-color="#297BBF"/>
</linearGradient>
<linearGradient id="paint1_linear_92_7708" x1="212.101" y1="65.9822" x2="-18.0744" y2="183.826" gradientUnits="userSpaceOnUse">
<stop stop-color="#35658E"/>
<stop offset="1" stop-color="#C9AA74"/>
</linearGradient>
<radialGradient id="paint2_radial_92_7708" cx="0" cy="0" r="1" gradientUnits="userSpaceOnUse" gradientTransform="translate(211.703 178.365) rotate(-128.484) scale(32.843 32.843)">
<stop stop-color="#FCE586"/>
<stop offset="0.2273" stop-color="#FCDB7B"/>
<stop offset="0.6161" stop-color="#FCD06F"/>
<stop offset="1" stop-color="#FCCC6B"/>
</radialGradient>
<radialGradient id="paint3_radial_92_7708" cx="0" cy="0" r="1" gradientUnits="userSpaceOnUse" gradientTransform="translate(178.78 184.192) rotate(-128.484) scale(78.1275 78.1275)">
<stop stop-color="#FCE586"/>
<stop offset="0.2273" stop-color="#FCDB7B"/>
<stop offset="0.6161" stop-color="#FCD06F"/>
<stop offset="1" stop-color="#FCCC6B"/>
</radialGradient>
<linearGradient id="paint4_linear_92_7708" x1="259.27" y1="117.206" x2="118.35" y2="117.206" gradientUnits="userSpaceOnUse">
<stop stop-color="#3C5FB0"/>
<stop offset="1" stop-color="#C9AA74" stop-opacity="0.46"/>
</linearGradient>
<radialGradient id="paint5_radial_92_7708" cx="0" cy="0" r="1" gradientUnits="userSpaceOnUse" gradientTransform="translate(210.479 313.113) rotate(-162.926) scale(32.8428 32.8428)">
<stop stop-color="#FCE586"/>
<stop offset="0.2273" stop-color="#FCDB7B"/>
<stop offset="0.6161" stop-color="#FCD06F"/>
<stop offset="1" stop-color="#FCCC6B"/>
</radialGradient>
<radialGradient id="paint6_radial_92_7708" cx="0" cy="0" r="1" gradientUnits="userSpaceOnUse" gradientTransform="translate(186.624 336.538) rotate(-162.926) scale(78.1279 78.1278)">
<stop stop-color="#FCE586"/>
<stop offset="0.2273" stop-color="#FCDB7B"/>
<stop offset="0.6161" stop-color="#FCD06F"/>
<stop offset="1" stop-color="#FCCC6B"/>
</radialGradient>
<radialGradient id="paint7_radial_92_7708" cx="0" cy="0" r="1" gradientUnits="userSpaceOnUse" gradientTransform="translate(206.531 307.478) rotate(-162.926) scale(32.843 32.8429)">
<stop stop-color="#C9AA74"/>
<stop offset="0.2273" stop-color="#FCDB7B"/>
<stop offset="0.6161" stop-color="#FCD06F"/>
<stop offset="1" stop-color="#FCCC6B"/>
</radialGradient>
<radialGradient id="paint8_radial_92_7708" cx="0" cy="0" r="1" gradientUnits="userSpaceOnUse" gradientTransform="translate(182.676 330.903) rotate(-162.926) scale(78.1279 78.1279)">
<stop stop-color="#FCE586"/>
<stop offset="0.2273" stop-color="#FCDB7B"/>
<stop offset="0.6161" stop-color="#FCD06F"/>
<stop offset="1" stop-color="#FCCC6B"/>
</radialGradient>
<radialGradient id="paint9_radial_92_7708" cx="0" cy="0" r="1" gradientUnits="userSpaceOnUse" gradientTransform="translate(176.224 335.483) rotate(-162.926) scale(32.8428 32.8428)">
<stop stop-color="#FCE586"/>
<stop offset="0.2273" stop-color="#FCDB7B"/>
<stop offset="0.6161" stop-color="#FCD06F"/>
<stop offset="1" stop-color="#FCCC6B"/>
</radialGradient>
<radialGradient id="paint10_radial_92_7708" cx="0" cy="0" r="1" gradientUnits="userSpaceOnUse" gradientTransform="translate(152.369 358.908) rotate(-162.926) scale(78.1279 78.1279)">
<stop stop-color="#FCE586"/>
<stop offset="0.2273" stop-color="#FCDB7B"/>
<stop offset="0.6161" stop-color="#FCD06F"/>
<stop offset="1" stop-color="#FCCC6B"/>
</radialGradient>
<radialGradient id="paint11_radial_92_7708" cx="0" cy="0" r="1" gradientUnits="userSpaceOnUse" gradientTransform="translate(222.215 343.46) rotate(-162.926) scale(32.8428 32.8428)">
<stop stop-color="#FCE586"/>
<stop offset="0.2273" stop-color="#FCDB7B"/>
<stop offset="0.6161" stop-color="#FCD06F"/>
<stop offset="1" stop-color="#FCCC6B"/>
</radialGradient>
<radialGradient id="paint12_radial_92_7708" cx="0" cy="0" r="1" gradientUnits="userSpaceOnUse" gradientTransform="translate(198.36 366.885) rotate(-162.926) scale(78.1279 78.1279)">
<stop stop-color="#FCE586"/>
<stop offset="0.2273" stop-color="#FCDB7B"/>
<stop offset="0.6161" stop-color="#FCD06F"/>
<stop offset="1" stop-color="#FCCC6B"/>
</radialGradient>
<radialGradient id="paint13_radial_92_7708" cx="0" cy="0" r="1" gradientUnits="userSpaceOnUse" gradientTransform="translate(200.455 335.004) rotate(-162.926) scale(32.8428 32.8428)">
<stop stop-color="#FCE586"/>
<stop offset="0.2273" stop-color="#FCDB7B"/>
<stop offset="0.6161" stop-color="#FCD06F"/>
<stop offset="1" stop-color="#FCCC6B"/>
</radialGradient>
<radialGradient id="paint14_radial_92_7708" cx="0" cy="0" r="1" gradientUnits="userSpaceOnUse" gradientTransform="translate(176.6 358.428) rotate(-162.926) scale(78.1281 78.1281)">
<stop stop-color="#FCE586"/>
<stop offset="0.2273" stop-color="#FCDB7B"/>
<stop offset="0.6161" stop-color="#FCD06F"/>
<stop offset="1" stop-color="#FCCC6B"/>
</radialGradient>
<radialGradient id="paint15_radial_92_7708" cx="0" cy="0" r="1" gradientUnits="userSpaceOnUse" gradientTransform="translate(194.509 330.407) rotate(-162.926) scale(32.8428 32.8428)">
<stop stop-color="#FCE586"/>
<stop offset="0.2273" stop-color="#FCDB7B"/>
<stop offset="0.6161" stop-color="#FCD06F"/>
<stop offset="1" stop-color="#FCCC6B"/>
</radialGradient>
<radialGradient id="paint16_radial_92_7708" cx="0" cy="0" r="1" gradientUnits="userSpaceOnUse" gradientTransform="translate(170.652 353.832) rotate(-162.926) scale(78.1281 78.1281)">
<stop stop-color="#FCE586"/>
<stop offset="0.2273" stop-color="#FCDB7B"/>
<stop offset="0.6161" stop-color="#FCD06F"/>
<stop offset="1" stop-color="#FCCC6B"/>
</radialGradient>
<radialGradient id="paint17_radial_92_7708" cx="0" cy="0" r="1" gradientUnits="userSpaceOnUse" gradientTransform="translate(191.358 321.566) rotate(-162.926) scale(32.8428 32.8428)">
<stop stop-color="#FCE586"/>
<stop offset="0.2273" stop-color="#FCDB7B"/>
<stop offset="0.6161" stop-color="#FCD06F"/>
<stop offset="1" stop-color="#FCCC6B"/>
</radialGradient>
<radialGradient id="paint18_radial_92_7708" cx="0" cy="0" r="1" gradientUnits="userSpaceOnUse" gradientTransform="translate(167.502 344.991) rotate(-162.926) scale(78.1279 78.1278)">
<stop stop-color="#FCE586"/>
<stop offset="0.2273" stop-color="#FCDB7B"/>
<stop offset="0.6161" stop-color="#FCD06F"/>
<stop offset="1" stop-color="#FCCC6B"/>
</radialGradient>
<radialGradient id="paint19_radial_92_7708" cx="0" cy="0" r="1" gradientUnits="userSpaceOnUse" gradientTransform="translate(173.124 317.956) rotate(-174.739) scale(32.8427 32.8428)">
<stop stop-color="#FCE586"/>
<stop offset="0.2273" stop-color="#FCDB7B"/>
<stop offset="0.6161" stop-color="#FCD06F"/>
<stop offset="1" stop-color="#FCCC6B"/>
</radialGradient>
<radialGradient id="paint20_radial_92_7708" cx="0" cy="0" r="1" gradientUnits="userSpaceOnUse" gradientTransform="translate(154.568 345.768) rotate(-174.739) scale(78.128 78.128)">
<stop stop-color="#FCE586"/>
<stop offset="0.2273" stop-color="#FCDB7B"/>
<stop offset="0.6161" stop-color="#FCD06F"/>
<stop offset="1" stop-color="#FCCC6B"/>
</radialGradient>
<radialGradient id="paint21_radial_92_7708" cx="0" cy="0" r="1" gradientUnits="userSpaceOnUse" gradientTransform="translate(202.035 211.556) rotate(167.579) scale(32.8429 32.8429)">
<stop stop-color="#FCE586"/>
<stop offset="0.2273" stop-color="#FCDB7B"/>
<stop offset="0.6161" stop-color="#FCD06F"/>
<stop offset="1" stop-color="#FCCC6B"/>
</radialGradient>
<radialGradient id="paint22_radial_92_7708" cx="0" cy="0" r="1" gradientUnits="userSpaceOnUse" gradientTransform="translate(192.805 243.691) rotate(167.579) scale(78.1277 78.1277)">
<stop stop-color="#C9AA74"/>
<stop offset="0.2273" stop-color="#FCDB7B"/>
<stop offset="0.6161" stop-color="#FCD06F"/>
<stop offset="1" stop-color="#FCCC6B"/>
</radialGradient>
<radialGradient id="paint23_radial_92_7708" cx="0" cy="0" r="1" gradientUnits="userSpaceOnUse" gradientTransform="translate(214.044 287.57) rotate(-133.383) scale(32.8429)">
<stop stop-color="#FCE586"/>
<stop offset="0.2273" stop-color="#FCDB7B"/>
<stop offset="0.6161" stop-color="#FCD06F"/>
<stop offset="1" stop-color="#FCCC6B"/>
</radialGradient>
<radialGradient id="paint24_radial_92_7708" cx="0" cy="0" r="1" gradientUnits="userSpaceOnUse" gradientTransform="translate(181.739 296.187) rotate(-133.383) scale(78.1276 78.1276)">
<stop stop-color="#FCE586"/>
<stop offset="0.2273" stop-color="#FCDB7B"/>
<stop offset="0.6161" stop-color="#FCD06F"/>
<stop offset="1" stop-color="#FCCC6B"/>
</radialGradient>
<linearGradient id="paint25_linear_92_7708" x1="120.208" y1="224.764" x2="-46.4341" y2="275.9" gradientUnits="userSpaceOnUse">
<stop stop-color="#2573BA"/>
<stop offset="0.907" stop-color="#0364AE"/>
<stop offset="1" stop-color="#0063AD"/>
</linearGradient>
<linearGradient id="paint26_linear_92_7708" x1="104.175" y1="167.635" x2="172.073" y2="167.635" gradientUnits="userSpaceOnUse">
<stop stop-color="#0063AD"/>
<stop offset="1" stop-color="#2573BA"/>
</linearGradient>
<linearGradient id="paint27_linear_92_7708" x1="172.492" y1="216.407" x2="60.7995" y2="216.407" gradientUnits="userSpaceOnUse">
<stop stop-color="#3C5FB0"/>
<stop offset="1" stop-color="#C9AA74" stop-opacity="0.49"/>
</linearGradient>
</defs>
</svg>
