<svg width="378" height="398" viewBox="0 0 378 398" fill="none" xmlns="http://www.w3.org/2000/svg">
<path opacity="0.5" d="M129.759 372.662C69.6033 372.662 20.8377 344.513 20.8377 309.79C20.8377 275.067 69.6033 246.918 129.759 246.918C189.914 246.918 238.68 275.067 238.68 309.79C238.68 344.513 189.914 372.662 129.759 372.662Z" fill="#13247A"/>
<path d="M60.4304 65.4399L171.9 0.869003C173.769 -0.150538 175.299 -0.320462 176.658 0.359232L184.305 4.77724L179.377 7.83587V269.178C179.377 274.616 176.148 280.903 172.07 283.282L61.7898 347.003L63.3191 352.611L55.6726 348.193C54.1433 347.343 53.1237 345.304 53.1237 342.245V79.3737C53.1237 73.9361 56.3523 67.6489 60.4304 65.4399Z" fill="url(#paint0_linear_103_538)"/>
<path d="M68.077 352.271L179.717 287.87C183.795 285.491 187.023 279.204 187.023 273.766V10.8945C187.023 5.45691 183.795 3.07798 179.717 5.28698L68.077 69.688C63.9988 72.0669 60.7702 78.3541 60.7702 83.7917V346.663C60.7702 352.101 64.1687 354.65 68.077 352.271Z" fill="url(#paint1_linear_103_538)"/>
<path d="M60.7702 346.833L187.023 273.936V10.7246L60.7702 83.7917V346.833Z" fill="#2E3B4E"/>
<path opacity="0.4" d="M80.991 351.931L193.65 286.85C197.898 284.471 200.447 279.883 200.447 274.956V27.547C200.447 24.1485 196.709 21.9395 193.65 23.6388L80.991 88.7195C76.7429 91.0984 74.1941 95.6863 74.1941 100.614V348.193C74.1941 351.591 77.9324 353.63 80.991 351.931Z" fill="white"/>
<path d="M78.782 353.12C79.6316 353.12 80.4812 352.95 81.3308 352.441L193.99 287.36C198.408 284.811 201.127 280.053 201.127 275.126V27.5469C201.127 25.6778 200.277 24.1485 198.578 23.2988C197.049 22.4492 195.18 22.4492 193.65 23.2988L80.8211 88.3795C76.4031 90.9284 73.6843 95.6863 73.6843 100.614V348.193C73.6843 350.062 74.5339 351.591 76.2331 352.441C77.0828 352.781 77.9324 353.12 78.782 353.12ZM196.029 23.4688C196.709 23.4688 197.389 23.6387 198.068 23.9785C199.258 24.6582 200.107 26.0176 200.107 27.377V274.956C200.107 279.713 197.559 283.962 193.48 286.34L80.8211 351.421C79.6316 352.101 78.1023 352.101 76.7429 351.421C75.5535 350.741 74.7038 349.382 74.7038 348.023V100.614C74.7038 95.8562 77.2527 91.6081 81.3308 89.2292L193.99 24.1485C194.67 23.6387 195.35 23.4688 196.029 23.4688Z" fill="white"/>
<path d="M115.656 48.6174L132.309 38.9318C132.818 38.5919 133.328 37.7423 133.328 36.8927C133.328 36.213 132.818 35.8731 132.309 36.0431L115.656 45.7287C115.146 46.0685 114.637 46.9182 114.637 47.7678C114.637 48.6174 114.976 48.9572 115.656 48.6174Z" fill="#35658E"/>
<path opacity="0.2" d="M108.689 197.98C106.48 199.34 104.61 197.98 104.61 194.922V103.503C104.61 100.444 106.48 96.8758 108.689 95.5164L200.107 42.6702C200.277 43.6897 200.447 44.8792 200.447 45.8987V144.794L108.689 197.98Z" fill="#13247A"/>
<path d="M177.338 164.166V166.375C179.207 165.525 181.756 165.015 184.644 165.355C195.01 166.035 207.074 174.361 211.492 183.707C212.682 186.256 213.361 188.635 213.191 190.844L215.23 190.164L213.021 193.562C211.152 196.451 207.414 198.15 202.146 197.64C191.781 196.961 179.716 188.635 175.298 179.289C173.089 174.701 173.089 170.623 174.959 167.734L177.338 164.166Z" fill="#F4A856"/>
<path d="M177.676 175.72C182.264 185.066 194.159 193.222 204.524 194.072C214.89 194.752 219.648 187.955 215.06 178.609C210.472 169.263 198.577 161.107 188.212 160.257C177.846 159.408 173.258 166.374 177.676 175.72Z" fill="#FCE586"/>
<path d="M177.676 175.72C182.264 185.066 194.159 193.222 204.524 194.072C214.89 194.752 219.648 187.955 215.06 178.609C210.472 169.263 198.577 161.107 188.212 160.257C177.846 159.408 173.258 166.374 177.676 175.72Z" fill="url(#paint2_radial_103_538)"/>
<path d="M189.912 186.426C193.99 189.314 198.918 191.183 203.336 191.523C207.584 191.863 210.982 190.674 212.682 188.125C214.381 185.576 214.381 182.008 212.512 178.269C208.773 170.453 198.578 163.486 189.742 162.806C185.494 162.466 182.095 163.656 180.396 166.205C178.697 168.753 178.697 172.322 180.566 176.06C182.435 179.968 185.834 183.537 189.912 186.426ZM202.656 168.074C206.734 170.793 210.133 174.361 212.002 178.269C213.871 182.008 213.871 185.406 212.342 187.785C210.643 190.164 207.584 191.353 203.336 191.013C194.67 190.334 184.644 183.537 180.906 175.72C179.037 171.982 179.037 168.584 180.566 166.205C182.265 163.826 185.324 162.636 189.572 162.976C193.82 163.486 198.578 165.355 202.656 168.074Z" fill="#F4A856"/>
<path d="M180.736 175.89C184.474 183.707 194.67 190.673 203.336 191.183C212.002 191.863 215.91 185.916 212.172 178.099C208.433 170.283 198.238 163.316 189.572 162.806C180.906 162.296 176.998 168.074 180.736 175.89Z" fill="url(#paint3_radial_103_538)"/>
<path d="M211.661 178.949C207.922 171.132 197.727 164.165 189.061 163.656C184.983 163.316 181.924 164.505 180.225 166.544C181.754 163.995 184.983 162.466 189.571 162.806C198.237 163.486 208.432 170.283 212.17 178.099C214.21 182.177 214.04 185.746 212.17 188.125C213.53 185.916 213.36 182.687 211.661 178.949Z" fill="#F4A856"/>
<path d="M178.187 175.041C182.775 184.386 194.67 192.543 205.035 193.392C209.963 193.732 213.701 192.373 215.57 189.824C213.701 192.883 209.963 194.582 204.525 194.242C194.16 193.562 182.095 185.236 177.677 175.89C175.298 170.962 175.468 166.884 177.677 163.996C175.978 166.544 175.978 170.453 178.187 175.041Z" fill="#C9AA74"/>
<path d="M180.906 186.765C178.527 184.386 176.658 181.838 175.468 179.119C173.259 174.531 173.259 170.453 175.129 167.564L177.508 164.165C177.508 164.165 177.508 163.996 177.677 163.996L177.847 163.826C179.886 161.277 183.455 159.747 188.553 160.087C194.33 160.597 200.787 163.316 206.055 167.394L187.363 186.765H180.906Z" fill="#F4A856"/>
<path d="M120.583 103.163L253.293 26.5274C254.312 25.8477 255.332 25.8477 256.012 26.3575L258.051 27.547C258.051 27.547 257.541 27.547 257.201 27.7169C257.371 28.2267 257.541 28.9064 257.541 29.756V121.175C257.541 124.233 255.672 127.802 253.463 129.161L120.583 205.627C120.413 205.797 120.073 205.797 119.903 205.967V206.986L117.864 205.797C117.014 205.287 116.504 204.098 116.504 202.398V111.149C116.504 108.091 118.204 104.522 120.583 103.163Z" fill="white"/>
<path d="M122.452 206.646L255.162 130.181C257.371 128.821 259.24 125.253 259.24 122.194V30.7755C259.24 27.7169 257.371 26.3575 255.162 27.7169L122.452 104.352C120.243 105.712 118.374 109.28 118.374 112.339V203.758C118.374 206.646 120.243 208.006 122.452 206.646Z" fill="url(#paint4_linear_103_538)"/>
<path d="M162.045 109.11V96.0261L159.326 97.5554C158.816 97.8953 158.307 98.2351 157.967 98.575C157.627 98.9148 157.287 99.2547 156.947 99.7644C156.607 100.104 156.437 100.614 156.268 101.124C156.098 101.634 156.098 102.313 156.098 102.823C156.098 104.352 156.607 105.032 157.797 104.522C157.117 105.032 156.607 105.712 156.268 106.391C155.928 107.071 155.758 107.921 155.758 108.94C155.758 110.13 156.098 110.979 156.607 111.319C157.117 111.659 157.967 111.489 158.986 110.979L162.045 109.11ZM160.006 102.483L159.326 102.823C158.646 103.163 158.307 103.333 158.137 103.163C157.967 102.993 157.797 102.483 157.797 101.804C157.797 101.464 157.797 101.124 157.967 100.784C157.967 100.444 158.137 100.274 158.307 100.104C158.477 99.9344 158.646 99.7644 158.816 99.5945C158.986 99.4246 159.326 99.2547 159.666 99.0847L160.006 98.9148V102.483ZM160.006 108.6L159.326 109.11C158.646 109.45 158.307 109.62 157.967 109.28C157.797 109.11 157.627 108.6 157.627 107.921C157.627 107.071 157.797 106.561 157.967 106.052C158.307 105.542 158.646 105.032 159.326 104.692L160.006 104.352V108.6Z" fill="white"/>
<path d="M154.908 113.188L152.529 101.464L150.32 102.653L148.111 117.097L149.98 115.907L150.49 112.679L152.529 111.489L153.039 114.208L154.908 113.188ZM152.189 110.13L150.66 110.979L151.34 105.202L152.189 110.13Z" fill="white"/>
<path d="M147.092 117.606V104.522L145.732 105.372L143.014 114.378V107.071L141.314 108.091V121.175L142.674 120.325L145.393 110.979V118.796L147.092 117.606Z" fill="white"/>
<path d="M139.445 122.024V108.94L137.406 110.13V115.737L135.197 111.319L133.158 112.509L135.367 117.097L132.988 125.763L135.027 124.573L136.896 117.266L137.236 117.946V123.214L139.445 122.024Z" fill="white"/>
<path d="M222.707 130.011L247.855 115.397V111.999L222.707 126.612V130.011Z" fill="white"/>
<path d="M191.781 147.853L216.93 133.24V129.841L191.781 144.454V147.853Z" fill="white"/>
<path d="M160.685 165.695L186.004 151.081V147.683L160.685 162.296V165.695Z" fill="white"/>
<path d="M129.76 183.537L154.908 168.923V165.695L129.76 180.138V183.537Z" fill="white"/>
<path opacity="0.2" d="M122.452 104.352L255.162 27.7169C257.371 26.3575 259.24 27.7169 259.24 30.7755V122.194C259.24 122.704 259.24 123.384 259.07 123.894C251.934 118.796 223.386 102.993 168.501 133.239C148.62 144.284 131.798 142.755 118.374 135.618V112.169C118.374 109.11 120.243 105.542 122.452 104.352Z" fill="white"/>
<path opacity="0.2" d="M204.355 99.5945C185.663 97.2156 170.2 91.4382 157.286 84.3014L255.162 27.7169C257.371 26.3575 259.24 27.7169 259.24 30.7755V118.286C249.555 110.64 232.732 103.333 204.355 99.5945Z" fill="white"/>
<path d="M174.108 320.835L175.297 322.704C176.317 320.835 178.186 319.136 180.735 317.606C189.741 312.339 204.184 312.339 213.19 317.436C215.739 318.796 217.438 320.495 218.628 322.364L219.987 320.665V324.743C220.157 328.142 217.948 331.71 213.36 334.429C204.354 339.696 189.911 339.696 180.905 334.599C176.487 332.05 174.108 328.651 174.108 325.253V320.835Z" fill="#F4A856"/>
<path d="M180.904 330.181C189.91 335.278 204.524 335.278 213.36 330.011C222.366 324.743 222.196 316.417 213.36 311.149C204.354 306.052 189.741 306.052 180.904 311.319C171.899 316.587 171.899 325.083 180.904 330.181Z" fill="#FCE586"/>
<path d="M180.904 330.181C189.91 335.278 204.524 335.278 213.36 330.011C222.366 324.743 222.196 316.417 213.36 311.149C204.354 306.052 189.741 306.052 180.904 311.319C171.899 316.587 171.899 325.083 180.904 330.181Z" fill="url(#paint5_radial_103_538)"/>
<path d="M197.047 332.05C202.144 332.05 207.072 330.86 210.98 328.651C214.719 326.442 216.758 323.554 216.758 320.495C216.758 317.436 214.719 314.548 210.98 312.509C203.334 308.091 191.099 308.26 183.453 312.679C179.714 314.888 177.675 317.776 177.675 320.835C177.675 323.893 179.714 326.782 183.453 328.821C187.191 331.03 192.119 332.05 197.047 332.05ZM197.217 309.79C202.144 309.79 206.902 310.809 210.641 313.018C214.209 315.057 216.248 317.776 216.248 320.665C216.248 323.554 214.379 326.272 210.81 328.481C203.334 332.899 191.269 332.899 183.623 328.651C180.054 326.612 178.015 323.893 178.015 321.005C178.015 318.116 179.884 315.397 183.453 313.188C187.361 310.809 192.289 309.79 197.217 309.79Z" fill="#F4A856"/>
<path d="M183.623 328.651C191.099 332.899 203.334 332.899 210.98 328.481C218.457 324.063 218.457 317.097 210.98 312.679C203.504 308.43 191.269 308.43 183.623 312.848C175.976 317.267 175.976 324.403 183.623 328.651Z" fill="url(#paint6_radial_103_538)"/>
<path d="M210.811 313.698C203.334 309.45 191.1 309.45 183.453 313.868C179.885 315.907 178.016 318.626 177.846 321.345C177.676 318.286 179.545 315.227 183.453 313.018C190.93 308.6 203.164 308.6 210.811 312.848C214.719 315.058 216.758 318.116 216.418 321.175C216.249 318.456 214.379 315.737 210.811 313.698Z" fill="#F4A856"/>
<path d="M180.905 329.331C189.911 334.429 204.524 334.429 213.36 329.161C217.608 326.612 219.817 323.384 219.987 320.155C220.157 323.724 217.948 327.292 213.36 330.011C204.354 335.278 189.911 335.278 180.905 330.181C176.147 327.462 173.938 323.894 174.108 320.325C174.447 323.554 176.656 326.782 180.905 329.331Z" fill="#C9AA74"/>
<path d="M170.199 315.227L171.389 317.097C172.408 315.227 174.278 313.528 176.826 311.999C185.832 306.731 200.276 306.731 209.282 311.829C211.831 313.188 213.53 314.888 214.719 316.757L216.079 315.057V319.136C216.249 322.534 214.04 326.102 209.452 328.821C200.446 334.089 186.002 334.089 176.996 328.991C172.578 326.442 170.199 323.044 170.199 319.645V315.227Z" fill="#F4A856"/>
<path d="M176.996 324.573C186.002 329.671 200.616 329.671 209.452 324.403C218.458 319.136 218.288 310.809 209.452 305.542C200.446 300.444 185.832 300.444 176.996 305.712C167.99 310.979 167.99 319.306 176.996 324.573Z" fill="#FCE586"/>
<path d="M176.996 324.573C186.002 329.671 200.616 329.671 209.452 324.403C218.458 319.136 218.288 310.809 209.452 305.542C200.446 300.444 185.832 300.444 176.996 305.712C167.99 310.979 167.99 319.306 176.996 324.573Z" fill="url(#paint7_radial_103_538)"/>
<path d="M193.138 326.442C198.236 326.442 203.164 325.253 207.072 323.044C210.811 320.835 212.85 317.946 212.85 314.888C212.85 311.829 210.811 308.94 207.072 306.901C199.426 302.483 187.191 302.653 179.545 307.071C175.806 309.28 173.767 312.169 173.767 315.227C173.767 318.286 175.806 321.175 179.545 323.214C183.283 325.253 188.211 326.442 193.138 326.442ZM193.308 304.182C198.236 304.182 202.994 305.202 206.732 307.411C210.301 309.45 212.34 312.169 212.34 315.057C212.34 317.946 210.471 320.665 206.902 322.874C199.426 327.292 187.361 327.292 179.715 323.044C176.146 321.005 174.107 318.286 174.107 315.397C174.107 312.509 175.976 309.79 179.545 307.581C183.453 305.202 188.381 304.182 193.308 304.182Z" fill="#F4A856"/>
<path d="M179.545 323.044C187.021 327.292 199.256 327.292 206.902 322.874C214.379 318.456 214.379 311.489 206.902 307.071C199.426 302.823 187.191 302.823 179.545 307.241C172.068 311.659 172.068 318.626 179.545 323.044Z" fill="url(#paint8_radial_103_538)"/>
<path d="M206.903 308.091C199.426 303.843 187.192 303.843 179.545 308.261C175.977 310.3 174.108 313.018 173.938 315.737C173.768 312.679 175.637 309.62 179.545 307.411C187.022 302.993 199.256 302.993 206.903 307.241C210.811 309.45 212.85 312.509 212.51 315.567C212.34 312.679 210.471 310.13 206.903 308.091Z" fill="#F4A856"/>
<path d="M176.996 323.724C186.002 328.821 200.616 328.821 209.452 323.554C213.7 321.005 215.909 317.776 216.079 314.548C216.249 318.116 214.04 321.685 209.452 324.403C200.446 329.671 186.002 329.671 176.996 324.573C172.239 321.855 170.03 318.286 170.199 314.718C170.369 317.946 172.748 321.175 176.996 323.724Z" fill="#C9AA74"/>
<path d="M139.953 343.095L141.143 344.964C142.162 343.095 144.032 341.396 146.58 339.867C155.586 334.599 170.03 334.599 179.036 339.697C181.585 341.056 183.284 342.755 184.473 344.624L185.833 342.925V347.003C186.003 350.402 183.794 353.97 179.206 356.689C170.2 361.957 155.756 361.957 146.75 356.859C142.332 354.31 139.953 350.912 139.953 347.513V343.095Z" fill="#F4A856"/>
<path d="M139.952 343.151C139.919 335.831 150.163 329.851 162.832 329.794C175.501 329.737 185.798 335.625 185.831 342.945C185.864 350.265 175.62 356.245 162.951 356.302C150.282 356.359 139.985 350.471 139.952 343.151Z" fill="#FCE586"/>
<path d="M146.75 352.611C155.756 357.708 170.37 357.708 179.206 352.441C188.212 347.173 188.042 338.847 179.206 333.579C170.2 328.481 155.586 328.481 146.75 333.749C137.574 339.017 137.744 347.343 146.75 352.611Z" fill="url(#paint9_radial_103_538)"/>
<path d="M162.892 354.48C167.99 354.48 172.918 353.29 176.826 351.081C180.564 348.872 182.604 345.984 182.604 342.925C182.604 339.866 180.564 336.978 176.826 334.939C169.18 330.521 156.945 330.69 149.298 335.108C145.56 337.317 143.521 340.206 143.521 343.265C143.521 346.323 145.56 349.212 149.298 351.251C153.037 353.29 157.965 354.48 162.892 354.48ZM163.062 332.05C167.99 332.05 172.748 333.069 176.486 335.278C180.055 337.317 182.094 340.036 182.094 342.925C182.094 345.814 180.225 348.532 176.656 350.741C169.18 355.159 157.115 355.159 149.468 350.911C145.9 348.872 143.861 346.153 143.861 343.265C143.861 340.376 145.73 337.657 149.298 335.448C153.037 333.239 158.135 332.05 163.062 332.05Z" fill="#F4A856"/>
<path d="M149.298 351.081C156.775 355.329 169.01 355.329 176.656 350.911C184.133 346.493 184.133 339.527 176.656 335.108C169.18 330.86 156.945 330.86 149.298 335.278C141.652 339.696 141.822 346.663 149.298 351.081Z" fill="url(#paint10_radial_103_538)"/>
<path d="M176.487 336.128C169.01 331.88 156.776 331.88 149.129 336.298C145.561 338.337 143.692 341.056 143.522 343.775C143.352 340.716 145.221 337.657 149.129 335.448C156.606 331.03 168.84 331.03 176.487 335.278C180.395 337.487 182.434 340.546 182.094 343.605C181.924 340.716 180.055 338.167 176.487 336.128Z" fill="#F4A856"/>
<path d="M146.75 351.591C155.756 356.689 170.37 356.689 179.206 351.421C183.454 348.872 185.663 345.644 185.833 342.415C186.003 345.984 183.794 349.552 179.206 352.271C170.2 357.538 155.756 357.538 146.75 352.441C141.992 349.722 139.783 346.154 139.953 342.585C140.123 345.984 142.332 349.212 146.75 351.591Z" fill="#C9AA74"/>
<path d="M185.832 351.081L187.022 352.951C188.041 351.081 189.91 349.382 192.459 347.853C201.465 342.585 215.909 342.585 224.915 347.683C227.464 349.042 229.163 350.742 230.352 352.611L231.712 350.911V354.99C231.882 358.388 229.673 361.957 225.085 364.675C216.079 369.943 201.635 369.943 192.629 364.845C188.211 362.296 185.832 358.898 185.832 355.499V351.081Z" fill="#F4A856"/>
<path d="M185.932 351.187C185.899 343.867 196.143 337.887 208.812 337.83C221.482 337.774 231.779 343.662 231.812 350.982C231.844 358.302 221.601 364.282 208.931 364.339C196.262 364.395 185.965 358.507 185.932 351.187Z" fill="#FCE586"/>
<path d="M192.629 360.427C201.635 365.525 216.248 365.525 225.084 360.257C234.09 354.99 233.921 346.663 225.084 341.396C216.079 336.298 201.465 336.298 192.629 341.566C183.623 347.003 183.623 355.33 192.629 360.427Z" fill="url(#paint11_radial_103_538)"/>
<path d="M208.771 362.466C213.869 362.466 218.797 361.277 222.705 359.068C226.443 356.859 228.482 353.97 228.482 350.911C228.482 347.853 226.443 344.964 222.705 342.925C215.058 338.507 202.824 338.677 195.177 343.095C191.439 345.304 189.4 348.193 189.4 351.251C189.4 354.31 191.439 357.199 195.177 359.238C198.916 361.277 203.844 362.466 208.771 362.466ZM208.941 340.036C213.869 340.036 218.627 341.056 222.365 343.265C225.934 345.304 227.973 348.023 227.973 350.911C227.973 353.8 226.103 356.519 222.535 358.728C215.058 363.146 202.994 363.146 195.347 358.898C191.779 356.859 189.74 354.14 189.74 351.251C189.74 348.363 191.609 345.644 195.347 343.435C199.086 341.226 204.013 340.036 208.941 340.036Z" fill="#F4A856"/>
<path d="M195.347 359.068C202.824 363.316 215.058 363.316 222.705 358.898C230.182 354.48 230.182 347.513 222.705 343.095C215.228 338.847 202.994 338.847 195.347 343.265C187.701 347.683 187.701 354.65 195.347 359.068Z" fill="url(#paint12_radial_103_538)"/>
<path d="M222.536 344.115C215.059 339.867 202.824 339.867 195.178 344.285C191.61 346.324 189.74 349.042 189.57 351.761C189.401 348.703 191.27 345.644 195.178 343.435C202.655 339.017 214.889 339.017 222.536 343.265C226.444 345.474 228.483 348.533 228.143 351.591C227.973 348.703 226.104 346.154 222.536 344.115Z" fill="#F4A856"/>
<path d="M192.629 359.578C201.635 364.675 216.249 364.675 225.085 359.408C229.333 356.859 231.542 353.63 231.712 350.402C231.882 353.97 229.673 357.539 225.085 360.257C216.079 365.525 201.635 365.525 192.629 360.427C187.871 357.709 185.662 354.14 185.832 350.572C186.172 353.97 188.381 357.199 192.629 359.578Z" fill="#C9AA74"/>
<path d="M164.082 342.755L165.272 344.624C166.291 342.755 168.16 341.056 170.709 339.526C179.715 334.259 194.159 334.259 203.165 339.356C205.714 340.716 207.413 342.415 208.602 344.284L209.962 342.585V346.663C210.132 350.062 207.923 353.63 203.335 356.349C194.329 361.616 179.885 361.616 170.879 356.519C166.461 353.97 164.082 350.571 164.082 347.173V342.755Z" fill="#F4A856"/>
<path d="M164.214 342.739C164.181 335.419 174.424 329.439 187.094 329.382C199.763 329.325 210.06 335.213 210.093 342.533C210.126 349.853 199.882 355.833 187.213 355.89C174.543 355.947 164.246 350.059 164.214 342.739Z" fill="#FCE586"/>
<path d="M170.88 352.101C179.886 357.199 194.499 357.199 203.335 351.931C212.341 346.663 212.341 338.337 203.335 333.069C194.329 327.972 179.716 327.972 170.88 333.239C161.874 338.507 161.874 346.833 170.88 352.101Z" fill="url(#paint13_radial_103_538)"/>
<path d="M187.021 353.97C192.119 353.97 197.047 352.78 200.955 350.571C204.693 348.362 206.732 345.474 206.732 342.415C206.732 339.357 204.693 336.468 200.955 334.429C193.308 330.011 181.074 330.181 173.427 334.599C169.689 336.808 167.65 339.696 167.65 342.755C167.65 345.814 169.689 348.702 173.427 350.741C177.166 352.78 182.094 353.97 187.021 353.97ZM187.191 331.71C192.119 331.71 196.877 332.73 200.615 334.939C204.184 336.978 206.223 339.696 206.223 342.585C206.223 345.474 204.353 348.193 200.785 350.402C193.308 354.82 181.244 354.82 173.597 350.571C170.029 348.532 167.99 345.814 167.99 342.925C167.99 340.036 169.859 337.317 173.427 335.108C177.336 332.73 182.263 331.71 187.191 331.71Z" fill="#F4A856"/>
<path d="M173.597 350.572C181.074 354.82 193.308 354.82 200.955 350.402C208.432 345.984 208.432 339.017 200.955 334.599C193.478 330.351 181.244 330.351 173.597 334.769C165.951 339.187 165.951 346.154 173.597 350.572Z" fill="url(#paint14_radial_103_538)"/>
<path d="M200.786 335.618C193.309 331.37 181.074 331.37 173.428 335.788C169.86 337.827 167.99 340.546 167.82 343.265C167.651 340.206 169.52 337.148 173.428 334.939C180.905 330.521 193.139 330.521 200.786 334.769C204.694 336.978 206.733 340.036 206.393 343.095C206.223 340.206 204.354 337.657 200.786 335.618Z" fill="#F4A856"/>
<path d="M170.879 351.251C179.885 356.349 194.499 356.349 203.335 351.081C207.583 348.533 209.792 345.304 209.962 342.075C210.132 345.644 207.923 349.212 203.335 351.931C194.329 357.199 179.885 357.199 170.879 352.101C166.121 349.382 163.912 345.814 164.082 342.245C164.422 345.474 166.631 348.702 170.879 351.251Z" fill="#C9AA74"/>
<path d="M158.135 338.167L159.324 340.036C160.344 338.167 162.213 336.468 164.762 334.939C173.768 329.671 188.211 329.671 197.217 334.769C199.766 336.128 201.465 337.827 202.655 339.696L204.014 337.997V342.075C204.184 345.474 201.975 349.042 197.387 351.761C188.381 357.029 173.938 357.029 164.932 351.931C160.514 349.382 158.135 345.984 158.135 342.585V338.167Z" fill="#F4A856"/>
<path d="M164.933 347.513C173.939 352.611 188.552 352.611 197.388 347.343C206.394 342.075 206.394 333.749 197.388 328.482C188.382 323.384 173.769 323.384 164.933 328.651C155.927 333.919 155.927 342.245 164.933 347.513Z" fill="#FCE586"/>
<path d="M164.933 347.513C173.939 352.611 188.552 352.611 197.388 347.343C206.394 342.075 206.394 333.749 197.388 328.482C188.382 323.384 173.769 323.384 164.933 328.651C155.927 333.919 155.927 342.245 164.933 347.513Z" fill="url(#paint15_radial_103_538)"/>
<path d="M181.076 349.382C186.174 349.382 191.101 348.193 195.01 345.984C198.748 343.775 200.787 340.886 200.787 337.827C200.787 334.769 198.748 331.88 195.01 329.841C187.363 325.423 175.129 325.593 167.482 330.011C163.744 332.22 161.705 335.108 161.705 338.167C161.705 341.226 163.744 344.114 167.482 346.154C171.22 348.193 176.148 349.382 181.076 349.382ZM181.246 327.122C186.174 327.122 190.932 328.142 194.67 330.351C198.238 332.39 200.277 335.108 200.277 337.997C200.277 340.886 198.408 343.605 194.84 345.814C187.363 350.232 175.299 350.232 167.652 345.984C164.084 343.945 162.045 341.226 162.045 338.337C162.045 335.448 163.914 332.73 167.482 330.521C171.39 328.142 176.318 327.122 181.246 327.122Z" fill="#F4A856"/>
<path d="M167.652 345.984C175.129 350.232 187.363 350.232 195.01 345.814C202.486 341.396 202.486 334.429 195.01 330.011C187.533 325.763 175.299 325.763 167.652 330.181C160.005 334.599 160.005 341.566 167.652 345.984Z" fill="url(#paint16_radial_103_538)"/>
<path d="M194.838 331.03C187.362 326.782 175.127 326.782 167.481 331.2C163.912 333.239 162.043 335.958 161.873 338.677C161.703 335.618 163.572 332.56 167.481 330.351C174.957 325.933 187.192 325.933 194.838 330.181C198.747 332.39 200.786 335.448 200.446 338.507C200.276 335.618 198.407 333.069 194.838 331.03Z" fill="#F4A856"/>
<path d="M164.932 346.663C173.938 351.761 188.551 351.761 197.387 346.493C201.635 343.945 203.844 340.716 204.014 337.488C204.184 341.056 201.975 344.624 197.387 347.343C188.381 352.611 173.938 352.611 164.932 347.513C160.174 344.794 157.965 341.226 158.135 337.657C158.475 340.886 160.684 344.115 164.932 346.663Z" fill="#C9AA74"/>
<path d="M155.076 329.331L156.266 331.2C157.285 329.331 159.155 327.632 161.703 326.103C170.709 320.835 185.153 320.835 194.159 325.933C196.708 327.292 198.407 328.991 199.596 330.86L200.956 329.161V333.239C201.126 336.638 198.917 340.206 194.329 342.925C185.323 348.193 170.879 348.193 161.873 343.095C157.455 340.546 155.076 337.148 155.076 333.749V329.331Z" fill="#F4A856"/>
<path d="M155.102 329.224C155.069 321.904 165.313 315.924 177.982 315.867C190.652 315.811 200.949 321.698 200.981 329.018C201.014 336.338 190.771 342.319 178.101 342.375C165.432 342.432 155.135 336.544 155.102 329.224Z" fill="#FCE586"/>
<path d="M161.873 338.677C170.879 343.774 185.493 343.774 194.329 338.507C203.335 333.239 203.165 324.913 194.329 319.645C185.323 314.548 170.709 314.548 161.873 319.815C152.867 325.083 152.867 333.409 161.873 338.677Z" fill="url(#paint17_radial_103_538)"/>
<path d="M178.017 340.546C183.115 340.546 188.043 339.357 191.951 337.148C195.689 334.939 197.729 332.05 197.729 328.991C197.729 325.933 195.689 323.044 191.951 321.005C184.305 316.587 172.07 316.757 164.424 321.175C160.685 323.384 158.646 326.273 158.646 329.331C158.646 332.39 160.685 335.278 164.424 337.318C168.162 339.357 173.09 340.546 178.017 340.546ZM178.187 318.286C183.115 318.286 187.873 319.306 191.611 321.515C195.18 323.554 197.219 326.273 197.219 329.161C197.219 332.05 195.35 334.769 191.781 336.978C184.305 341.396 172.24 341.396 164.593 337.148C161.025 335.109 158.986 332.39 158.986 329.501C158.986 326.612 160.855 323.894 164.424 321.685C168.162 319.306 173.26 318.286 178.187 318.286Z" fill="#F4A856"/>
<path d="M164.424 337.147C171.9 341.396 184.135 341.396 191.781 336.978C199.258 332.56 199.258 325.593 191.781 321.175C184.305 316.927 172.07 316.927 164.424 321.345C156.777 325.763 156.947 332.729 164.424 337.147Z" fill="url(#paint18_radial_103_538)"/>
<path d="M191.61 322.194C184.133 317.946 171.899 317.946 164.252 322.364C160.684 324.403 158.815 327.122 158.645 329.841C158.475 326.782 160.344 323.724 164.252 321.514C171.729 317.096 183.963 317.097 191.61 321.345C195.518 323.554 197.557 326.612 197.217 329.671C197.217 326.782 195.178 324.233 191.61 322.194Z" fill="#F4A856"/>
<path d="M161.873 337.827C170.879 342.925 185.493 342.925 194.329 337.657C198.577 335.108 200.786 331.88 200.956 328.651C201.126 332.22 198.917 335.788 194.329 338.507C185.323 343.775 170.879 343.775 161.873 338.677C157.115 335.958 154.906 332.39 155.076 328.821C155.246 332.05 157.455 335.278 161.873 337.827Z" fill="#C9AA74"/>
<path d="M139.104 332.9L140.803 334.429C141.483 332.39 142.842 330.351 145.051 328.312C152.698 321.345 166.971 318.286 176.827 321.515C179.546 322.364 181.585 323.724 183.114 325.253L184.134 323.214L184.983 327.122C185.833 330.521 184.304 334.429 180.395 337.827C172.749 344.794 158.475 347.853 148.62 344.624C143.692 343.095 140.803 340.206 140.124 336.808L139.104 332.9Z" fill="#F4A856"/>
<path d="M147.77 340.716C157.625 343.945 171.899 340.886 179.545 333.919C187.192 326.952 185.493 318.796 175.637 315.567C165.781 312.339 151.508 315.398 143.861 322.364C136.045 329.331 137.914 337.488 147.77 340.716Z" fill="#FCE586"/>
<path d="M147.77 340.716C157.625 343.945 171.899 340.886 179.545 333.919C187.192 326.952 185.493 318.796 175.637 315.567C165.781 312.339 151.508 315.398 143.861 322.364C136.045 329.331 137.914 337.488 147.77 340.716Z" fill="url(#paint19_radial_103_538)"/>
<path d="M163.913 339.187C168.841 338.167 173.599 335.958 176.827 333.07C180.056 330.181 181.415 326.952 180.736 324.064C180.056 321.005 177.507 318.796 173.429 317.437C165.103 314.718 153.038 317.267 146.581 323.214C143.352 326.103 141.993 329.331 142.673 332.22C143.352 335.279 145.901 337.488 149.979 338.847C154.058 340.206 158.985 340.206 163.913 339.187ZM159.495 317.437C164.253 316.417 169.181 316.417 173.259 317.776C177.167 318.966 179.716 321.345 180.226 324.234C180.905 327.122 179.546 330.181 176.487 332.9C170.03 338.677 158.136 341.226 149.979 338.507C146.071 337.318 143.522 334.939 143.012 332.05C142.333 329.161 143.692 326.103 146.751 323.384C149.979 320.495 154.737 318.456 159.495 317.437Z" fill="#F4A856"/>
<path d="M149.98 338.677C158.306 341.396 170.201 338.847 176.658 332.9C183.115 327.122 181.585 320.155 173.429 317.437C165.103 314.718 153.208 317.267 146.751 323.214C140.124 329.161 141.653 335.958 149.98 338.677Z" fill="url(#paint20_radial_103_538)"/>
<path d="M173.598 318.456C165.271 315.737 153.377 318.286 146.92 324.234C143.861 326.952 142.502 330.011 143.011 332.73C142.162 329.841 143.351 326.443 146.75 323.384C153.207 317.607 165.101 315.058 173.428 317.607C177.846 318.966 180.225 321.685 180.734 324.573C179.885 321.855 177.506 319.646 173.598 318.456Z" fill="#F4A856"/>
<path d="M147.6 339.867C157.456 343.095 171.729 340.037 179.376 333.07C183.114 329.671 184.643 326.103 184.134 322.874C185.153 326.273 183.624 330.181 179.546 333.919C171.899 340.886 157.626 343.945 147.77 340.716C142.672 339.017 139.614 335.958 139.104 332.56C139.953 335.619 142.842 338.337 147.6 339.867Z" fill="#C9AA74"/>
<path d="M174.278 236.213L176.317 237.233C176.317 235.024 177.167 232.645 178.526 230.096C183.794 221.09 196.368 213.953 206.734 213.953C209.622 213.953 212.001 214.463 213.87 215.482L214.21 213.273L216.249 216.842C218.119 219.731 217.779 223.979 215.23 228.567C209.962 237.573 197.388 244.709 187.022 244.709C181.755 244.709 178.186 242.84 176.487 239.951L174.278 236.213Z" fill="#F4A856"/>
<path d="M174.297 236.041C170.664 229.685 176.635 219.436 187.635 213.148C198.634 206.861 210.496 206.915 214.129 213.271C217.762 219.626 211.79 229.875 200.791 236.163C189.791 242.451 177.93 242.396 174.297 236.041Z" fill="#FCE586"/>
<path d="M184.815 240.971C195.18 240.971 207.754 233.834 213.022 224.828C218.29 215.822 214.042 208.516 203.676 208.516C193.311 208.516 180.737 215.652 175.469 224.658C170.201 233.664 174.28 240.971 184.815 240.971Z" fill="url(#paint21_radial_103_538)"/>
<path d="M199.767 234.684C204.185 232.135 207.923 228.736 210.132 224.998C212.341 221.26 212.681 217.861 211.151 215.143C209.622 212.424 206.394 211.064 202.145 211.064C193.309 211.064 182.604 217.182 178.356 224.658C176.147 228.397 175.807 231.795 177.337 234.514C178.866 237.233 182.094 238.592 186.343 238.592C190.591 238.592 195.349 237.063 199.767 234.684ZM188.891 215.143C193.14 212.764 197.897 211.234 202.145 211.234C206.224 211.234 209.282 212.594 210.812 215.143C212.171 217.691 211.831 221.09 209.792 224.658C205.374 232.135 194.839 238.082 186.173 238.082C182.094 238.082 179.036 236.723 177.507 234.174C176.147 231.625 176.487 228.227 178.526 224.658C180.735 220.92 184.643 217.522 188.891 215.143Z" fill="#F4A856"/>
<path d="M186.173 238.252C194.839 238.252 205.544 232.305 209.962 224.658C214.38 217.182 210.812 211.064 202.146 210.895C193.48 210.895 182.774 216.842 178.356 224.488C174.108 232.135 177.507 238.252 186.173 238.252Z" fill="url(#paint22_radial_103_538)"/>
<path d="M202.656 211.914C193.99 211.914 183.285 217.861 178.867 225.508C176.828 229.076 176.488 232.305 177.677 234.684C175.978 232.135 176.148 228.567 178.357 224.658C182.775 217.182 193.31 211.064 202.146 211.064C206.734 211.064 209.793 212.764 211.152 215.482C209.623 213.273 206.734 211.914 202.656 211.914Z" fill="#F4A856"/>
<path d="M184.305 240.121C194.67 240.121 207.245 232.985 212.512 223.979C215.061 219.731 215.401 215.822 213.872 212.934C215.741 215.992 215.571 220.07 212.852 224.828C207.584 233.834 195.01 240.971 184.645 240.971C179.207 240.971 175.469 238.932 173.94 235.703C175.809 238.422 179.377 240.121 184.305 240.121Z" fill="#C9AA74"/>
<path d="M178.697 276.315L178.867 278.524C180.736 277.504 183.115 276.825 186.174 276.825C196.539 276.655 209.283 283.792 214.551 292.798C216.08 295.346 216.76 297.555 216.93 299.764L218.969 298.915L216.93 302.483C215.23 305.542 211.662 307.411 206.394 307.581C196.029 307.751 183.285 300.614 178.017 291.608C175.298 287.19 175.128 283.112 176.658 280.053L178.697 276.315Z" fill="#F4A856"/>
<path d="M179.887 287.87C185.154 296.706 197.899 303.843 208.264 303.843C218.629 303.673 222.707 296.366 217.44 287.53C212.172 278.694 199.428 271.557 189.063 271.557C178.697 271.557 174.619 278.864 179.887 287.87Z" fill="#FCE586"/>
<path d="M179.887 287.87C185.154 296.706 197.899 303.843 208.264 303.843C218.629 303.673 222.707 296.366 217.44 287.53C212.172 278.694 199.428 271.557 189.063 271.557C178.697 271.557 174.619 278.864 179.887 287.87Z" fill="url(#paint23_radial_103_538)"/>
<path d="M192.971 297.386C197.389 299.934 202.317 301.294 206.735 301.294C210.983 301.294 214.212 299.764 215.741 297.046C217.271 294.327 216.931 290.928 214.722 287.19C210.304 279.713 199.429 273.596 190.762 273.766C186.514 273.766 183.286 275.295 181.757 278.014C180.227 280.733 180.567 284.131 182.776 287.87C184.985 291.608 188.723 295.007 192.971 297.386ZM204.186 278.184C208.435 280.563 212.173 283.962 214.212 287.53C216.251 291.098 216.761 294.497 215.231 297.046C213.872 299.595 210.813 300.954 206.565 301.124C197.899 301.294 187.364 295.346 182.946 287.87C180.907 284.301 180.397 280.903 181.926 278.354C183.286 275.805 186.344 274.446 190.593 274.276C195.011 274.276 199.938 275.635 204.186 278.184Z" fill="#F4A856"/>
<path d="M182.945 287.87C187.363 295.346 198.068 301.294 206.734 301.294C215.401 301.124 218.969 295.007 214.381 287.53C209.963 280.053 199.258 274.106 190.592 274.106C181.926 274.106 178.527 280.393 182.945 287.87Z" fill="url(#paint24_radial_103_538)"/>
<path d="M214.041 288.21C209.623 280.733 198.918 274.786 190.252 274.786C186.174 274.786 183.115 276.315 181.756 278.524C183.115 275.805 186.174 274.106 190.762 273.936C199.428 273.766 210.133 279.883 214.551 287.36C216.93 291.268 217.1 294.837 215.401 297.386C216.42 295.007 216.081 291.778 214.041 288.21Z" fill="#F4A856"/>
<path d="M180.396 287.02C185.664 295.856 198.408 302.993 208.773 302.993C213.701 302.993 217.27 301.294 218.969 298.405C217.439 301.634 213.701 303.673 208.264 303.673C197.898 303.843 185.154 296.706 179.886 287.7C177.168 283.112 176.998 278.864 178.867 275.805C177.507 278.864 177.847 282.772 180.396 287.02Z" fill="#C9AA74"/>
<path d="M48.7047 225.848L104.1 166.375L159.665 161.787C159.665 161.787 168.501 236.893 104.27 316.587C39.8687 311.149 48.7047 225.848 48.7047 225.848Z" fill="url(#paint25_linear_103_538)"/>
<path d="M159.664 161.787L172.068 168.923L116.673 173.511L104.099 166.205L159.664 161.787Z" fill="url(#paint26_linear_103_538)"/>
<path d="M61.279 232.985L116.674 173.511L139.444 171.132L172.069 168.923C172.069 168.923 180.905 244.03 116.674 323.724C52.273 318.456 61.279 232.985 61.279 232.985Z" fill="url(#paint27_linear_103_538)"/>
<path d="M61.2782 232.985L116.673 173.511L172.068 169.093C170.539 168.244 170.539 168.244 170.539 168.244L114.294 172.832L58.8993 232.305C58.8993 232.305 51.4226 303.673 99.3411 320.155C53.9715 302.143 61.2782 232.985 61.2782 232.985Z" fill="white"/>
<path opacity="0.2" d="M67.9056 233.834L117.693 180.308L138.254 178.269L167.651 176.23C167.651 176.23 175.637 243.86 117.863 315.398C59.9192 310.64 67.9056 233.834 67.9056 233.834Z" fill="white"/>
<defs>
<linearGradient id="paint0_linear_103_538" x1="184.262" y1="176.318" x2="-156.411" y2="176.318" gradientUnits="userSpaceOnUse">
<stop stop-color="#C9AA74"/>
<stop offset="1" stop-color="#2E3B4E"/>
</linearGradient>
<linearGradient id="paint1_linear_103_538" x1="212.103" y1="65.9822" x2="-18.0724" y2="183.826" gradientUnits="userSpaceOnUse">
<stop stop-color="#35658E"/>
<stop offset="1" stop-color="#C9AA74"/>
</linearGradient>
<radialGradient id="paint2_radial_103_538" cx="0" cy="0" r="1" gradientUnits="userSpaceOnUse" gradientTransform="translate(211.704 178.365) rotate(-128.484) scale(32.843 32.843)">
<stop stop-color="#FCE586"/>
<stop offset="0.2273" stop-color="#FCDB7B"/>
<stop offset="0.6161" stop-color="#FCD06F"/>
<stop offset="1" stop-color="#FCCC6B"/>
</radialGradient>
<radialGradient id="paint3_radial_103_538" cx="0" cy="0" r="1" gradientUnits="userSpaceOnUse" gradientTransform="translate(178.782 184.192) rotate(-128.484) scale(78.1275 78.1275)">
<stop stop-color="#FCE586"/>
<stop offset="0.2273" stop-color="#FCDB7B"/>
<stop offset="0.6161" stop-color="#FCD06F"/>
<stop offset="1" stop-color="#FCCC6B"/>
</radialGradient>
<linearGradient id="paint4_linear_103_538" x1="259.271" y1="117.206" x2="118.351" y2="117.206" gradientUnits="userSpaceOnUse">
<stop stop-color="#2E3B4E"/>
<stop offset="1" stop-color="#C9AA74" stop-opacity="0.46"/>
</linearGradient>
<radialGradient id="paint5_radial_103_538" cx="0" cy="0" r="1" gradientUnits="userSpaceOnUse" gradientTransform="translate(210.479 313.113) rotate(-162.926) scale(32.8428 32.8428)">
<stop stop-color="#FCE586"/>
<stop offset="0.2273" stop-color="#FCDB7B"/>
<stop offset="0.6161" stop-color="#FCD06F"/>
<stop offset="1" stop-color="#FCCC6B"/>
</radialGradient>
<radialGradient id="paint6_radial_103_538" cx="0" cy="0" r="1" gradientUnits="userSpaceOnUse" gradientTransform="translate(186.623 336.538) rotate(-162.926) scale(78.1279 78.1278)">
<stop stop-color="#FCE586"/>
<stop offset="0.2273" stop-color="#FCDB7B"/>
<stop offset="0.6161" stop-color="#FCD06F"/>
<stop offset="1" stop-color="#FCCC6B"/>
</radialGradient>
<radialGradient id="paint7_radial_103_538" cx="0" cy="0" r="1" gradientUnits="userSpaceOnUse" gradientTransform="translate(206.531 307.478) rotate(-162.926) scale(32.843 32.8429)">
<stop stop-color="#C9AA74"/>
<stop offset="0.2273" stop-color="#FCDB7B"/>
<stop offset="0.6161" stop-color="#FCD06F"/>
<stop offset="1" stop-color="#FCCC6B"/>
</radialGradient>
<radialGradient id="paint8_radial_103_538" cx="0" cy="0" r="1" gradientUnits="userSpaceOnUse" gradientTransform="translate(182.675 330.903) rotate(-162.926) scale(78.1279 78.1279)">
<stop stop-color="#FCE586"/>
<stop offset="0.2273" stop-color="#FCDB7B"/>
<stop offset="0.6161" stop-color="#FCD06F"/>
<stop offset="1" stop-color="#FCCC6B"/>
</radialGradient>
<radialGradient id="paint9_radial_103_538" cx="0" cy="0" r="1" gradientUnits="userSpaceOnUse" gradientTransform="translate(176.225 335.483) rotate(-162.926) scale(32.8428 32.8428)">
<stop stop-color="#FCE586"/>
<stop offset="0.2273" stop-color="#FCDB7B"/>
<stop offset="0.6161" stop-color="#FCD06F"/>
<stop offset="1" stop-color="#FCCC6B"/>
</radialGradient>
<radialGradient id="paint10_radial_103_538" cx="0" cy="0" r="1" gradientUnits="userSpaceOnUse" gradientTransform="translate(152.369 358.908) rotate(-162.926) scale(78.1279 78.1279)">
<stop stop-color="#FCE586"/>
<stop offset="0.2273" stop-color="#FCDB7B"/>
<stop offset="0.6161" stop-color="#FCD06F"/>
<stop offset="1" stop-color="#FCCC6B"/>
</radialGradient>
<radialGradient id="paint11_radial_103_538" cx="0" cy="0" r="1" gradientUnits="userSpaceOnUse" gradientTransform="translate(222.215 343.46) rotate(-162.926) scale(32.8428 32.8428)">
<stop stop-color="#FCE586"/>
<stop offset="0.2273" stop-color="#FCDB7B"/>
<stop offset="0.6161" stop-color="#FCD06F"/>
<stop offset="1" stop-color="#FCCC6B"/>
</radialGradient>
<radialGradient id="paint12_radial_103_538" cx="0" cy="0" r="1" gradientUnits="userSpaceOnUse" gradientTransform="translate(198.359 366.885) rotate(-162.926) scale(78.1279 78.1279)">
<stop stop-color="#FCE586"/>
<stop offset="0.2273" stop-color="#FCDB7B"/>
<stop offset="0.6161" stop-color="#FCD06F"/>
<stop offset="1" stop-color="#FCCC6B"/>
</radialGradient>
<radialGradient id="paint13_radial_103_538" cx="0" cy="0" r="1" gradientUnits="userSpaceOnUse" gradientTransform="translate(200.457 335.004) rotate(-162.926) scale(32.8428 32.8428)">
<stop stop-color="#FCE586"/>
<stop offset="0.2273" stop-color="#FCDB7B"/>
<stop offset="0.6161" stop-color="#FCD06F"/>
<stop offset="1" stop-color="#FCCC6B"/>
</radialGradient>
<radialGradient id="paint14_radial_103_538" cx="0" cy="0" r="1" gradientUnits="userSpaceOnUse" gradientTransform="translate(176.6 358.428) rotate(-162.926) scale(78.1281 78.1281)">
<stop stop-color="#FCE586"/>
<stop offset="0.2273" stop-color="#FCDB7B"/>
<stop offset="0.6161" stop-color="#FCD06F"/>
<stop offset="1" stop-color="#FCCC6B"/>
</radialGradient>
<radialGradient id="paint15_radial_103_538" cx="0" cy="0" r="1" gradientUnits="userSpaceOnUse" gradientTransform="translate(194.51 330.407) rotate(-162.926) scale(32.8428 32.8428)">
<stop stop-color="#FCE586"/>
<stop offset="0.2273" stop-color="#FCDB7B"/>
<stop offset="0.6161" stop-color="#FCD06F"/>
<stop offset="1" stop-color="#FCCC6B"/>
</radialGradient>
<radialGradient id="paint16_radial_103_538" cx="0" cy="0" r="1" gradientUnits="userSpaceOnUse" gradientTransform="translate(170.654 353.832) rotate(-162.926) scale(78.1281 78.1281)">
<stop stop-color="#FCE586"/>
<stop offset="0.2273" stop-color="#FCDB7B"/>
<stop offset="0.6161" stop-color="#FCD06F"/>
<stop offset="1" stop-color="#FCCC6B"/>
</radialGradient>
<radialGradient id="paint17_radial_103_538" cx="0" cy="0" r="1" gradientUnits="userSpaceOnUse" gradientTransform="translate(191.358 321.566) rotate(-162.926) scale(32.8428 32.8428)">
<stop stop-color="#FCE586"/>
<stop offset="0.2273" stop-color="#FCDB7B"/>
<stop offset="0.6161" stop-color="#FCD06F"/>
<stop offset="1" stop-color="#FCCC6B"/>
</radialGradient>
<radialGradient id="paint18_radial_103_538" cx="0" cy="0" r="1" gradientUnits="userSpaceOnUse" gradientTransform="translate(167.504 344.991) rotate(-162.926) scale(78.1279 78.1278)">
<stop stop-color="#FCE586"/>
<stop offset="0.2273" stop-color="#FCDB7B"/>
<stop offset="0.6161" stop-color="#FCD06F"/>
<stop offset="1" stop-color="#FCCC6B"/>
</radialGradient>
<radialGradient id="paint19_radial_103_538" cx="0" cy="0" r="1" gradientUnits="userSpaceOnUse" gradientTransform="translate(173.124 317.956) rotate(-174.739) scale(32.8427 32.8428)">
<stop stop-color="#FCE586"/>
<stop offset="0.2273" stop-color="#FCDB7B"/>
<stop offset="0.6161" stop-color="#FCD06F"/>
<stop offset="1" stop-color="#FCCC6B"/>
</radialGradient>
<radialGradient id="paint20_radial_103_538" cx="0" cy="0" r="1" gradientUnits="userSpaceOnUse" gradientTransform="translate(154.57 345.768) rotate(-174.739) scale(78.128 78.128)">
<stop stop-color="#FCE586"/>
<stop offset="0.2273" stop-color="#FCDB7B"/>
<stop offset="0.6161" stop-color="#FCD06F"/>
<stop offset="1" stop-color="#FCCC6B"/>
</radialGradient>
<radialGradient id="paint21_radial_103_538" cx="0" cy="0" r="1" gradientUnits="userSpaceOnUse" gradientTransform="translate(202.038 211.556) rotate(167.579) scale(32.8429 32.8429)">
<stop stop-color="#FCE586"/>
<stop offset="0.2273" stop-color="#FCDB7B"/>
<stop offset="0.6161" stop-color="#FCD06F"/>
<stop offset="1" stop-color="#FCCC6B"/>
</radialGradient>
<radialGradient id="paint22_radial_103_538" cx="0" cy="0" r="1" gradientUnits="userSpaceOnUse" gradientTransform="translate(192.806 243.691) rotate(167.579) scale(78.1277 78.1277)">
<stop stop-color="#C9AA74"/>
<stop offset="0.2273" stop-color="#FCDB7B"/>
<stop offset="0.6161" stop-color="#FCD06F"/>
<stop offset="1" stop-color="#FCCC6B"/>
</radialGradient>
<radialGradient id="paint23_radial_103_538" cx="0" cy="0" r="1" gradientUnits="userSpaceOnUse" gradientTransform="translate(214.046 287.57) rotate(-133.383) scale(32.8429)">
<stop stop-color="#FCE586"/>
<stop offset="0.2273" stop-color="#FCDB7B"/>
<stop offset="0.6161" stop-color="#FCD06F"/>
<stop offset="1" stop-color="#FCCC6B"/>
</radialGradient>
<radialGradient id="paint24_radial_103_538" cx="0" cy="0" r="1" gradientUnits="userSpaceOnUse" gradientTransform="translate(181.741 296.187) rotate(-133.383) scale(78.1276 78.1276)">
<stop stop-color="#FCE586"/>
<stop offset="0.2273" stop-color="#FCDB7B"/>
<stop offset="0.6161" stop-color="#FCD06F"/>
<stop offset="1" stop-color="#FCCC6B"/>
</radialGradient>
<linearGradient id="paint25_linear_103_538" x1="120.209" y1="224.764" x2="-46.4331" y2="275.9" gradientUnits="userSpaceOnUse">
<stop stop-color="#2E3B4E"/>
<stop offset="0.907" stop-color="#0364AE"/>
<stop offset="1" stop-color="#0063AD"/>
</linearGradient>
<linearGradient id="paint26_linear_103_538" x1="104.175" y1="167.635" x2="172.073" y2="167.635" gradientUnits="userSpaceOnUse">
<stop stop-color="#2E3B4E"/>
<stop offset="1" stop-color="#2E3B4E"/>
</linearGradient>
<linearGradient id="paint27_linear_103_538" x1="172.493" y1="216.407" x2="60.8004" y2="216.407" gradientUnits="userSpaceOnUse">
<stop stop-color="#3C5FB0"/>
<stop offset="1" stop-color="#C9AA74" stop-opacity="0.87"/>
</linearGradient>
</defs>
</svg>
