<svg width="952" height="750" viewBox="0 0 952 750" fill="none" xmlns="http://www.w3.org/2000/svg">
<path opacity="0.4" d="M441.298 359.819C429.131 352.69 411.949 350.365 396.312 352.642C380.689 350.365 363.48 352.697 351.229 359.826L190.993 453.144C172.42 463.959 172.323 481.513 190.779 492.328L559.608 706.83C569.082 712.381 581.575 715.02 594.013 714.846H615.142L618.805 463.059L441.298 359.819Z" fill="#50197C"/>
<path d="M781.313 587.936L603.218 691.609C599.984 693.494 595.995 693.494 592.754 691.609L211.86 469.88C204.887 465.824 196.189 456.056 206.847 443.948L370.434 347.412C382.899 339.843 401.099 335.144 415.531 337.001C421.923 337.825 429.921 339.403 433.55 341.519L790.545 548.822C805.572 557.563 796.334 579.194 781.313 587.936Z" fill="url(#paint0_linear_104_707)"/>
<path d="M823.919 576.953C823.94 584.089 819.265 591.239 809.916 596.685L649.681 690.003C631.107 700.818 601.073 700.839 582.589 690.017L213.76 475.508C204.591 470.139 199.999 463.108 199.979 456.056L200.055 472.939C200.075 479.984 204.667 487.022 213.836 492.391L582.672 706.893C601.156 717.715 631.19 717.694 649.764 706.879L809.999 613.561C819.348 608.115 824.023 600.972 824.002 593.829L823.919 576.953Z" fill="url(#paint1_linear_104_707)"/>
<path d="M810.128 557.501L441.299 342.999C422.843 332.19 392.781 332.197 374.207 343.006L213.972 436.324C195.399 447.139 195.302 464.693 213.757 475.508L582.594 690.01C601.077 700.832 631.112 700.811 649.685 689.996L809.921 596.685C828.494 585.87 828.619 568.33 810.128 557.501ZM576.825 679.83L210.842 466.871C202.081 461.774 202.081 449.031 210.835 443.934L252.158 419.874C252.864 419.462 253.646 419.203 254.457 419.105L286.209 415.363C286.811 415.293 287.393 415.098 287.919 414.791L337.864 385.695C338.598 385.269 339.201 384.648 339.616 383.908L351.583 362.486C351.867 361.97 352.289 361.544 352.795 361.251L378.196 346.462C396.853 335.598 419.845 335.598 438.501 346.455L791.728 551.999C794.734 553.751 794.734 558.122 791.728 559.875L585.745 679.837C582.996 681.443 579.588 681.443 576.825 679.83Z" fill="#353131"/>
<path d="M735.684 620.103L726.238 614.608C721.522 611.864 713.62 612.165 708.253 615.293L687.207 627.546C685.413 628.594 684.036 629.892 683.225 631.31C681.397 634.508 682.533 638.027 686.044 640.073L695.497 645.568C700.213 648.312 708.108 648.011 713.475 644.89L734.52 632.636C736.314 631.589 737.692 630.29 738.502 628.873C740.33 625.675 739.202 622.149 735.684 620.103Z" fill="#262424"/>
<path d="M735.796 622.359L726.301 616.836C721.564 614.078 713.628 614.378 708.233 617.52L687.09 629.837C685.29 630.884 683.905 632.197 683.088 633.621C682.721 634.263 682.561 634.913 682.43 635.569C682.783 637.363 683.912 639.032 685.927 640.198L695.421 645.721C700.158 648.479 708.095 648.179 713.489 645.037L734.632 632.72C736.433 631.673 737.817 630.36 738.635 628.936C739.002 628.293 739.161 627.637 739.3 626.988C738.939 625.193 737.811 623.525 735.796 622.359Z" fill="#353131"/>
<path d="M322.952 379.739L289.566 399.178C287.724 400.253 287.53 401.866 289.122 402.795C290.715 403.723 293.499 403.605 295.334 402.537L328.721 383.098C330.563 382.03 330.757 380.41 329.164 379.481C327.571 378.552 324.787 378.671 322.952 379.739Z" fill="#191414"/>
<path d="M279.901 521.382C279.583 520.439 279.098 519.51 278.509 518.693C277.838 517.765 277.02 516.983 276.148 516.473L245.497 498.633C244.347 497.97 243.308 497.907 242.561 498.34L239.527 500.1C240.282 499.667 241.314 499.729 242.464 500.393L273.115 518.233C273.987 518.735 274.797 519.524 275.469 520.453C276.065 521.27 276.543 522.198 276.861 523.141C277.131 523.937 277.284 524.747 277.284 525.515V526.856C277.284 528.203 276.813 529.153 276.044 529.593L279.077 527.833C279.846 527.393 280.317 526.444 280.317 525.096V523.755C280.317 522.994 280.171 522.184 279.901 521.382Z" fill="#F9F7FB"/>
<path d="M273.117 518.233L242.466 500.393C240.146 499.052 238.297 500.149 238.297 502.851V504.191C238.297 506.865 240.153 510.133 242.466 511.474L273.117 529.313C275.409 530.64 277.286 529.53 277.286 526.856V525.515C277.286 522.806 275.409 519.559 273.117 518.233Z" fill="#C0B9C8"/>
<path d="M326.666 548.605C326.347 547.663 325.869 546.734 325.274 545.917C324.602 544.989 323.785 544.206 322.919 543.697L292.268 525.857C291.119 525.194 290.08 525.131 289.332 525.564L286.299 527.323C287.047 526.89 288.086 526.953 289.235 527.617L319.886 545.456C320.759 545.959 321.569 546.748 322.241 547.677C322.836 548.494 323.314 549.422 323.633 550.372C323.903 551.168 324.055 551.978 324.055 552.746V554.086C324.055 555.434 323.584 556.383 322.816 556.823L325.849 555.071C326.617 554.631 327.088 553.681 327.088 552.334V550.993C327.088 550.211 326.936 549.401 326.666 548.605Z" fill="#F9F7FB"/>
<path d="M319.888 545.449L289.237 527.61C286.917 526.269 285.068 527.365 285.068 530.067V531.408C285.068 534.089 286.924 537.35 289.237 538.691L319.888 556.53C322.181 557.857 324.057 556.747 324.057 554.072V552.732C324.057 550.03 322.174 546.776 319.888 545.449Z" fill="#C0B9C8"/>
<path d="M283.235 410.978C280.977 412.291 277.328 412.291 275.084 410.978C272.84 409.665 272.847 407.536 275.105 406.216C277.362 404.904 281.019 404.904 283.263 406.216C285.506 407.529 285.492 409.665 283.235 410.978Z" fill="#191414"/>
<path opacity="0.1" d="M276.266 410.406C277.963 411.334 280.657 411.265 282.291 410.245C283.926 409.233 283.877 407.655 282.187 406.726C280.491 405.797 277.79 405.867 276.155 406.88C274.521 407.899 274.569 409.477 276.266 410.406Z" fill="#CFD5D5"/>
<path opacity="0.1" d="M277.52 409.456C278.441 409.959 279.909 409.924 280.796 409.372C281.682 408.821 281.655 407.962 280.74 407.459C279.819 406.956 278.351 406.991 277.465 407.543C276.578 408.094 276.599 408.946 277.52 409.456Z" fill="#CFD5D5"/>
<path opacity="0.2" d="M278.55 408.828C278.889 409.016 279.429 409.002 279.761 408.793C280.087 408.59 280.08 408.269 279.741 408.087C279.401 407.899 278.854 407.913 278.529 408.115C278.196 408.318 278.21 408.639 278.55 408.828Z" fill="#CFD5D5"/>
<path d="M740.342 650.693L718.597 663.317C716.069 664.783 714.02 663.91 714.02 661.362C714.02 658.806 716.076 655.538 718.611 654.065L740.356 641.441C742.884 639.975 744.934 640.848 744.934 643.396C744.934 645.952 742.877 649.219 740.342 650.693Z" fill="#262424"/>
<mask id="mask0_104_707" style="mask-type:luminance" maskUnits="userSpaceOnUse" x="714" y="640" width="31" height="25">
<path d="M740.334 650.693L718.589 663.317C716.062 664.783 714.012 663.91 714.012 661.362C714.012 658.806 716.068 655.538 718.603 654.065L740.348 641.441C742.876 639.975 744.926 640.848 744.926 643.396C744.926 645.952 742.869 649.219 740.334 650.693Z" fill="white"/>
</mask>
<g mask="url(#mask0_104_707)">
<path d="M710.317 654.163L707.291 655.922L718.025 662.172L721.051 660.412L710.317 654.163ZM716.973 650.295L713.946 652.054L724.687 658.303L727.713 656.544L716.973 650.295ZM723.628 646.419L720.601 648.179L731.342 654.428L734.369 652.669L723.628 646.419ZM730.283 642.544L727.256 644.304L737.998 650.553L741.024 648.793L730.283 642.544Z" fill="#9E6512"/>
</g>
<path opacity="0.7" d="M798.2 489.863L582.459 615.453L225.215 407.494L440.963 281.904L798.2 489.863Z" fill="#CFE9FF"/>
<path d="M442.332 282.7L226.591 408.29L199.908 392.761L415.649 267.172L442.332 282.7Z" fill="#788EFF"/>
<path d="M260.507 418.875L256.311 421.319L258.492 422.589L260.673 421.319L293.083 440.185L290.895 441.456L293.077 442.726L295.265 441.456L327.668 460.322L325.486 461.593L327.668 462.863L331.865 460.419L260.507 418.875Z" fill="white"/>
<path opacity="0.9" d="M438.236 154.387L424.794 166.425L409.579 184.544L395.113 187.874L377.433 189.718L351.248 208.018L332.523 232.037L309.351 249.046L289.517 270.768L272.557 270.747L260.016 301.008V419.112L464.932 299.863V149.053L447.384 150.61L438.236 154.387Z" fill="#297BBF"/>
<path d="M447.606 149.681L437.46 153.906L424.489 165.524L409.018 184.048L395.085 187.26L377.356 189.152L351.096 207.487L332.301 231.59L309.261 248.508L289.386 270.265L272.204 270.432L260.002 299.688V303.033L272.876 271.71L289.808 271.584L309.635 249.877L333.132 232.456L351.38 208.898L377.495 190.416L395.127 188.489L409.406 185.2C409.503 185.179 424.739 167.046 424.739 167.046L437.952 155.079L447.779 151.043L464.926 149.64V148.467L447.606 149.681Z" fill="#C9AA74"/>
<path opacity="0.9" d="M454.854 203.172L441.419 207.473L426.197 217.179L411.738 220.509L394.058 238.496L373.51 247.587L349.141 280.815L325.969 297.831L306.142 319.545L289.182 333.726L276.641 363.988V428.797L481.55 309.547V197.831L463.995 208.025L454.854 203.172Z" fill="#DFFFDF" fill-opacity="0.49"/>
<path d="M464.217 207.306L455.131 202.474L441.467 206.845L426.274 216.536L411.717 219.888L393.988 237.923L373.372 247.049L348.94 280.368L325.9 297.286L306.024 319.043L288.843 333.405L276.641 362.661V364.951L289.528 334.027L306.377 319.936L326.135 298.298L349.231 281.346L373.663 248.11L393.995 239.11C394.134 239.047 411.765 221.117 411.765 221.117L426.045 217.828C426.135 217.807 441.377 208.081 441.377 208.081L454.591 203.857L463.781 208.737L481.564 198.411V197.238L464.217 207.306Z" fill="#35658E"/>
<path opacity="0.9" d="M475.307 243.181L459.296 249.367L444.857 262.207L426.809 272.716L409.31 293.013L389.303 306.81L367.8 330.284L340.085 354.506L321.927 378.12L306.879 391.051L295.293 404.841V439.591L500.21 320.397V228.686L475.307 243.181Z" fill="#7934E5"/>
<path d="M475.397 242.545L459.393 248.732C459.268 248.78 444.78 261.663 444.78 261.663L426.809 272.122L409.15 292.524L389.247 306.251L367.661 329.789L339.954 354.01L321.713 377.694L306.747 390.555L295.293 404.52V405.86L307.08 391.477L322.066 378.601L340.314 354.911L368.028 330.675L389.448 307.292L409.365 293.558L426.948 273.218L444.864 262.787L459.33 249.947L475.314 243.76L500.217 229.265V228.092L475.397 242.545Z" fill="#9252FF"/>
<path opacity="0.9" d="M492.403 291.931L476.398 296.56L461.952 314.965L440.325 333.475L426.405 333.615L407.832 350.1L392.306 376.493L359.813 395.408L333.054 423.735L321.35 440.234L312.389 445.449V449.625L517.306 330.347V277.436L492.403 291.931Z" fill="#6780FF"/>
<path d="M492.465 291.302L476.302 295.974L461.731 314.546L440.381 332.812L426.461 332.951L407.542 349.744L392.071 376.039L359.806 394.821L332.722 423.455L321.163 439.752L312.348 444.877V446.057L321.524 440.715L333.262 424.147L359.917 395.924L392.521 376.947L408.109 350.456L426.614 333.929L440.526 333.789L462.078 315.461L476.475 297.14L492.258 292.58L517.299 278.022V276.849L492.465 291.302Z" fill="#7DDDFF"/>
<path opacity="0.9" d="M511.324 319.776L495.313 323.295L480.874 338.195L459.24 355.008L445.327 357.962L426.754 374.44L400.383 388.216L380.237 408.339L357.806 424.517L340.272 447.747L331.311 452.962V460.643L536.227 341.372V305.281L511.324 319.776Z" fill="#FFC41D"/>
<path d="M511.387 319.154L495.224 322.708L480.653 337.776L459.303 354.345L445.376 357.299L426.464 374.084L400.148 387.755L380.231 407.752L357.474 424.237L340.085 447.265L331.27 452.397V453.57L340.445 448.228L358.015 424.929L380.349 408.863L400.605 388.67L427.031 374.803L445.605 358.269L459.517 355.323L481 338.691L495.397 323.875L511.179 320.425L536.221 305.867V304.694L511.387 319.154Z" fill="#FFD91F"/>
<path d="M268.497 228.078L269.986 227.212C270.187 227.324 270.187 227.806 270.187 227.806C270.187 227.952 270.118 228.064 269.986 228.141L268.497 229.007V230.655C268.497 230.808 268.428 230.92 268.289 231.004L267.818 231.276C267.618 231.164 267.618 229.509 267.618 229.509L266.115 230.382C265.914 230.277 265.914 229.803 265.914 229.803C265.914 229.649 265.983 229.537 266.115 229.461L267.618 228.588V226.947C267.618 226.793 267.687 226.682 267.818 226.605L268.289 226.333C268.497 226.444 268.497 228.078 268.497 228.078Z" fill="#A82EDB"/>
<path d="M271.466 230.284V229.237C271.466 228.769 271.653 228.267 272.021 227.736L273.994 224.831C274.327 224.35 274.493 223.924 274.493 223.54V223.163C274.493 222.618 274.23 222.499 273.71 222.8L273.198 223.1C272.935 223.253 272.741 223.428 272.623 223.623C272.505 223.819 272.443 224.063 272.443 224.35V224.769C272.443 224.908 272.388 225.006 272.263 225.076L271.598 225.467C271.418 225.362 271.418 224.922 271.418 224.922C271.418 224.371 271.563 223.854 271.847 223.386C272.131 222.918 272.533 222.534 273.045 222.234L273.856 221.759C274.361 221.466 274.756 221.389 275.04 221.522C275.324 221.661 275.469 222.011 275.469 222.562V223.03C275.469 223.623 275.255 224.231 274.832 224.859L272.831 227.813C272.672 228.05 272.588 228.267 272.588 228.462V228.825L275.296 227.247C275.483 227.331 275.483 227.932 275.483 227.932C275.483 228.057 275.421 228.162 275.296 228.232L271.64 230.361C271.529 230.438 271.466 230.41 271.466 230.284Z" fill="#A82EDB"/>
<path d="M277.552 225.348V226.235C277.552 226.416 277.482 226.682 277.351 227.031L276.797 228.455C276.492 228.553 276.492 225.955 276.492 225.955C276.492 225.837 276.548 225.739 276.665 225.669L277.372 225.257C277.496 225.194 277.552 225.229 277.552 225.348Z" fill="#A82EDB"/>
<path d="M281.336 224.727L280.297 225.334C279.785 225.634 279.383 225.711 279.099 225.564C278.815 225.418 278.67 225.069 278.67 224.517V220.726C278.67 220.167 278.815 219.644 279.099 219.176C279.383 218.708 279.785 218.317 280.297 218.017L281.336 217.409C281.842 217.116 282.236 217.039 282.527 217.179C282.811 217.318 282.957 217.675 282.957 218.233V222.024C282.957 222.576 282.811 223.093 282.527 223.568C282.243 224.042 281.849 224.433 281.336 224.727ZM280.457 224.273L281.198 223.84C281.696 223.547 281.946 223.121 281.946 222.562V218.868C281.946 218.303 281.696 218.17 281.198 218.464L280.457 218.896C279.958 219.19 279.709 219.616 279.709 220.174V223.868C279.702 224.433 279.951 224.566 280.457 224.273Z" fill="#A82EDB"/>
<path d="M283.863 217.73V217.06C283.863 216.934 283.912 216.816 284.009 216.704L285.096 215.356C285.228 215.196 285.338 215.091 285.428 215.035L286.052 214.672C286.225 214.763 286.225 221.696 286.225 221.696C286.225 221.822 286.169 221.92 286.059 221.99L285.38 222.381C285.2 222.29 285.2 216.355 285.2 216.355L284.064 217.73C283.933 217.87 283.863 217.87 283.863 217.73Z" fill="#A82EDB"/>
<path d="M289.849 215.901L289.205 216.278C289.074 216.355 288.963 216.446 288.88 216.55C288.63 217.039 288.54 217.186 288.423 217.249L287.765 217.633C287.585 217.542 287.585 213.967 287.585 213.967C287.585 213.841 287.64 213.737 287.765 213.674L291.297 211.614C291.484 211.698 291.484 212.347 291.484 212.347C291.484 212.48 291.421 212.578 291.297 212.647L288.61 214.211V216.285C288.727 215.845 289.018 215.489 289.482 215.217L290.099 214.861C290.597 214.567 290.985 214.491 291.248 214.616C291.511 214.749 291.643 215.091 291.643 215.643V216.962C291.643 217.514 291.497 218.031 291.213 218.505C290.93 218.98 290.535 219.371 290.029 219.664L289.143 220.181C288.63 220.481 288.229 220.558 287.952 220.412C287.668 220.265 287.529 219.916 287.529 219.364C287.529 218.931 287.592 218.834 287.709 218.764L288.367 218.38C288.547 219.322 288.797 219.448 289.295 219.162L289.891 218.82C290.403 218.519 290.66 218.093 290.66 217.542V216.39C290.66 216.048 290.597 215.845 290.48 215.768C290.348 215.685 290.14 215.733 289.849 215.901Z" fill="#A82EDB"/>
<path d="M260.402 230.333L256.607 239.724L264.197 235.305L260.402 230.333Z" fill="#6FAF00"/>
<path d="M312.064 202.719L313.552 201.853C313.753 201.964 313.753 202.446 313.753 202.446C313.753 202.593 313.684 202.705 313.552 202.781L312.064 203.647V205.295C312.064 205.449 311.994 205.56 311.856 205.644L311.385 205.916C311.184 205.805 311.184 204.157 311.184 204.157L309.681 205.03C309.48 204.932 309.48 204.45 309.48 204.45C309.48 204.296 309.55 204.185 309.681 204.108L311.184 203.235V201.594C311.184 201.441 311.253 201.329 311.385 201.252L311.856 200.98C312.064 201.078 312.064 202.719 312.064 202.719Z" fill="#C9AA74"/>
<path d="M317.359 199.891L316.715 200.268C316.583 200.345 316.473 200.435 316.39 200.54C316.14 201.029 316.05 201.175 315.939 201.238L315.281 201.622C315.101 201.532 315.101 197.957 315.101 197.957C315.101 197.831 315.157 197.726 315.281 197.663L318.813 195.604C319 195.687 319 196.337 319 196.337C319 196.469 318.938 196.567 318.813 196.644L316.126 198.208V200.282C316.244 199.842 316.535 199.486 316.999 199.213L317.615 198.857C318.114 198.564 318.495 198.487 318.765 198.613C319.028 198.746 319.16 199.088 319.16 199.639V200.959C319.16 201.511 319.014 202.027 318.73 202.502C318.446 202.977 318.052 203.368 317.539 203.661L316.653 204.178C316.14 204.478 315.739 204.555 315.462 204.408C315.178 204.262 315.039 203.913 315.039 203.361C315.039 202.928 315.101 202.83 315.219 202.76L315.877 202.376C316.057 203.319 316.306 203.445 316.805 203.158L317.401 202.816C317.913 202.516 318.169 202.09 318.169 201.539V200.386C318.169 200.044 318.107 199.842 317.989 199.765C317.858 199.674 317.65 199.716 317.359 199.891Z" fill="#C9AA74"/>
<path d="M321.226 199.926V200.812C321.226 200.994 321.156 201.259 321.025 201.608L320.471 203.033C320.166 203.13 320.166 200.533 320.166 200.533C320.166 200.414 320.228 200.317 320.346 200.247L321.052 199.835C321.17 199.779 321.226 199.807 321.226 199.926Z" fill="#C9AA74"/>
<path d="M325.977 198.746L325.361 199.102C325.181 199.011 325.181 197.817 325.181 197.817L322.432 199.416C322.231 199.535 322.127 199.479 322.127 199.262V198.906C322.127 198.739 322.162 198.571 322.224 198.411L324.551 192.538C324.606 192.392 324.662 192.287 324.703 192.217C324.925 192.036 325.839 191.498 325.839 191.498C326.04 191.379 326.143 191.428 326.143 191.652V196.274L326.905 195.827C327.085 195.918 327.085 196.49 327.085 196.49C327.085 196.637 327.023 196.742 326.905 196.812L326.143 197.251V198.445C326.143 198.578 326.088 198.676 325.977 198.746ZM325.188 196.832V192.804L323.138 198.026L325.188 196.832Z" fill="#C9AA74"/>
<path d="M330.17 192.434L329.526 192.811C329.394 192.888 329.283 192.978 329.2 193.083C328.951 193.572 328.861 193.718 328.75 193.781L328.092 194.165C327.912 194.075 327.912 190.5 327.912 190.5C327.912 190.374 327.967 190.269 328.092 190.206L331.624 188.147C331.811 188.23 331.811 188.88 331.811 188.88C331.811 189.005 331.748 189.11 331.624 189.18L328.937 190.744V192.811C329.055 192.371 329.345 192.015 329.809 191.742L330.426 191.386C330.924 191.093 331.312 191.016 331.575 191.142C331.839 191.275 331.97 191.617 331.97 192.168V193.488C331.97 194.04 331.825 194.556 331.541 195.031C331.257 195.506 330.862 195.897 330.35 196.19L329.463 196.707C328.951 197.007 328.549 197.084 328.272 196.937C327.988 196.791 327.85 196.442 327.85 195.883C327.85 195.45 327.912 195.352 328.03 195.282L328.688 194.898C328.868 195.841 329.117 195.967 329.616 195.674L330.211 195.331C330.724 195.031 330.987 194.605 330.987 194.054V192.902C330.987 192.559 330.924 192.357 330.807 192.28C330.668 192.217 330.46 192.266 330.17 192.434Z" fill="#C9AA74"/>
<path d="M335.804 193.02L334.696 193.663C334.183 193.963 333.782 194.047 333.498 193.928C333.214 193.802 333.068 193.467 333.068 192.915V192.301C333.068 191.603 333.311 191.009 333.789 190.513C333.311 190.583 333.068 190.262 333.068 189.557V188.977C333.068 188.433 333.214 187.93 333.498 187.476C333.782 187.022 334.183 186.645 334.696 186.345L335.797 185.703C336.309 185.403 336.711 185.319 336.988 185.437C337.272 185.563 337.411 185.898 337.411 186.443V187.022C337.411 187.371 337.348 187.707 337.217 188.021C337.092 188.335 336.919 188.6 336.704 188.81C337.175 188.74 337.411 189.061 337.411 189.773V190.381C337.411 190.932 337.272 191.435 336.988 191.889C336.718 192.35 336.316 192.72 335.804 193.02ZM334.834 189.459L335.658 188.977C336.157 188.684 336.406 188.258 336.406 187.686V187.127C336.406 186.848 336.344 186.68 336.226 186.617C336.102 186.562 335.915 186.603 335.658 186.757L334.834 187.239C334.578 187.385 334.391 187.56 334.266 187.763C334.142 187.965 334.086 188.202 334.086 188.482V189.04C334.086 189.606 334.336 189.745 334.834 189.459ZM334.834 192.622L335.658 192.14C335.915 191.994 336.102 191.812 336.226 191.617C336.351 191.414 336.406 191.177 336.406 190.898V190.283C336.406 189.718 336.157 189.578 335.658 189.864L334.834 190.346C334.336 190.639 334.086 191.065 334.086 191.638V192.252C334.086 192.531 334.149 192.699 334.266 192.762C334.391 192.818 334.578 192.769 334.834 192.622Z" fill="#C9AA74"/>
<path d="M303.962 204.974L300.16 214.365L307.757 209.945L303.962 204.974Z" fill="#6FAF00"/>
<path d="M354.98 178.679L352.916 179.88C352.736 179.775 352.736 179.279 352.736 179.279C352.736 179.139 352.799 179.042 352.916 178.972L354.98 177.771C355.16 177.869 355.16 178.371 355.16 178.371C355.153 178.511 355.098 178.616 354.98 178.679Z" fill="#7934E5"/>
<path d="M355.861 175.809V175.139C355.861 175.013 355.91 174.894 356.007 174.783L357.094 173.435C357.226 173.274 357.336 173.17 357.426 173.114L358.05 172.751C358.23 172.842 358.23 179.775 358.23 179.775C358.23 179.901 358.174 179.998 358.063 180.061L357.385 180.459C357.205 180.368 357.205 174.426 357.205 174.426L356.069 175.802C355.931 175.956 355.861 175.956 355.861 175.809Z" fill="#7934E5"/>
<path d="M360.537 177.038V177.925C360.537 178.106 360.468 178.371 360.336 178.721L359.782 180.145C359.477 180.243 359.484 177.645 359.484 177.645C359.484 177.527 359.54 177.429 359.657 177.359L360.364 176.947C360.482 176.884 360.537 176.912 360.537 177.038Z" fill="#7934E5"/>
<path d="M364.317 176.416L363.278 177.024C362.765 177.324 362.364 177.401 362.08 177.254C361.796 177.108 361.65 176.759 361.65 176.207V172.416C361.65 171.857 361.796 171.333 362.08 170.866C362.364 170.398 362.765 170.007 363.278 169.707L364.317 169.099C364.822 168.806 365.217 168.729 365.508 168.869C365.792 169.008 365.937 169.364 365.937 169.923V173.714C365.937 174.266 365.792 174.783 365.508 175.257C365.224 175.732 364.829 176.123 364.317 176.416ZM363.437 175.963L364.178 175.53C364.677 175.236 364.926 174.811 364.926 174.252V170.551C364.926 169.986 364.677 169.853 364.178 170.146L363.437 170.579C362.938 170.873 362.689 171.298 362.689 171.857V175.551C362.682 176.123 362.932 176.256 363.437 175.963Z" fill="#7934E5"/>
<path d="M369.836 173.212L368.797 173.819C368.285 174.119 367.883 174.196 367.599 174.05C367.315 173.903 367.17 173.554 367.17 173.002V169.211C367.17 168.652 367.308 168.129 367.599 167.661C367.883 167.186 368.285 166.802 368.797 166.502L369.836 165.894C370.342 165.601 370.736 165.524 371.027 165.664C371.311 165.803 371.457 166.16 371.457 166.718V170.51C371.457 171.061 371.311 171.578 371.027 172.053C370.736 172.534 370.342 172.918 369.836 173.212ZM368.95 172.758L369.691 172.325C370.189 172.032 370.439 171.606 370.439 171.047V167.347C370.439 166.781 370.189 166.648 369.691 166.942L368.95 167.374C368.451 167.668 368.202 168.094 368.202 168.652V172.346C368.202 172.918 368.451 173.051 368.95 172.758Z" fill="#7934E5"/>
<path d="M374.36 166.446L374.935 166.111C375.448 165.81 375.711 165.384 375.711 164.826V164.232C375.711 163.688 375.455 163.562 374.935 163.862L374.319 164.218C374.063 164.365 373.876 164.54 373.751 164.742C373.626 164.945 373.571 165.182 373.571 165.475C373.571 165.936 373.509 166.034 373.391 166.104L372.726 166.495C372.553 166.404 372.553 166.048 372.553 166.048C372.553 165.496 372.692 164.979 372.982 164.512C373.266 164.044 373.668 163.66 374.18 163.36L375.088 162.829C375.6 162.529 376.002 162.452 376.286 162.585C376.57 162.724 376.708 163.073 376.708 163.625V164.253C376.708 164.924 376.431 165.503 375.877 166.013C376.431 165.831 376.708 166.097 376.708 166.802V167.458C376.708 168.01 376.57 168.526 376.279 168.994C375.995 169.462 375.593 169.846 375.081 170.146L374.174 170.677C373.661 170.977 373.259 171.054 372.975 170.921C372.692 170.782 372.546 170.44 372.553 169.888V169.49C372.553 169.35 372.608 169.253 372.726 169.183L373.391 168.792C373.571 168.89 373.571 169.267 373.571 169.267C373.571 169.546 373.633 169.72 373.751 169.783C373.876 169.846 374.063 169.804 374.319 169.651L374.935 169.295C375.448 168.994 375.711 168.575 375.711 168.024V167.395C375.711 166.844 375.455 166.711 374.935 167.011L374.36 167.347C374.18 167.256 374.18 166.746 374.18 166.746C374.18 166.613 374.236 166.509 374.36 166.446Z" fill="#7934E5"/>
<path d="M347.529 186.792L343.727 181.821L351.324 177.401L347.529 186.792Z" fill="#DB3E3E"/>
<path d="M399.196 151.999L400.685 151.134C400.886 151.245 400.886 151.727 400.886 151.727C400.886 151.874 400.824 151.986 400.685 152.062L399.196 152.928V154.576C399.196 154.73 399.127 154.841 398.989 154.925L398.518 155.197C398.317 155.086 398.317 153.438 398.317 153.438L396.814 154.311C396.613 154.213 396.613 153.731 396.613 153.731C396.613 153.577 396.682 153.466 396.814 153.389L398.317 152.516V150.868C398.317 150.715 398.386 150.603 398.518 150.526L398.989 150.254C399.196 150.359 399.196 151.999 399.196 151.999Z" fill="#6780FF"/>
<path d="M401.9 149.011V148.341C401.9 148.215 401.949 148.096 402.046 147.985L403.133 146.637C403.265 146.477 403.375 146.372 403.465 146.316L404.089 145.953C404.269 146.044 404.269 152.97 404.269 152.97C404.269 153.096 404.213 153.193 404.103 153.263L403.424 153.661C403.244 153.57 403.251 147.629 403.251 147.629L402.115 149.004C401.97 149.158 401.9 149.158 401.9 149.011Z" fill="#6780FF"/>
<path d="M406.587 150.24V151.127C406.587 151.308 406.518 151.574 406.386 151.923L405.832 153.347C405.527 153.445 405.527 150.847 405.527 150.847C405.527 150.729 405.59 150.631 405.707 150.561L406.414 150.149C406.531 150.086 406.587 150.114 406.587 150.24Z" fill="#6780FF"/>
<path d="M409.403 146.051L409.978 145.715C410.49 145.415 410.754 144.989 410.754 144.438V143.844C410.754 143.3 410.497 143.174 409.978 143.474L409.362 143.83C409.105 143.977 408.912 144.151 408.794 144.354C408.669 144.556 408.614 144.794 408.614 145.087C408.614 145.548 408.551 145.646 408.434 145.715L407.769 146.106C407.596 146.016 407.596 145.66 407.596 145.66C407.596 145.108 407.734 144.591 408.025 144.124C408.309 143.656 408.711 143.272 409.223 142.971L410.13 142.441C410.643 142.141 411.044 142.064 411.328 142.196C411.612 142.336 411.758 142.685 411.758 143.237V143.865C411.758 144.528 411.481 145.115 410.927 145.625C411.481 145.443 411.758 145.708 411.758 146.414V147.07C411.758 147.622 411.612 148.138 411.328 148.606C411.044 149.074 410.643 149.458 410.13 149.758L409.223 150.289C408.711 150.589 408.309 150.666 408.025 150.533C407.741 150.394 407.596 150.051 407.596 149.493V149.095C407.596 148.955 407.651 148.857 407.769 148.788L408.434 148.397C408.614 148.494 408.614 148.871 408.614 148.871C408.614 149.151 408.676 149.325 408.794 149.388C408.912 149.451 409.105 149.409 409.362 149.255L409.978 148.899C410.49 148.599 410.754 148.18 410.754 147.629V147C410.754 146.449 410.497 146.316 409.978 146.616L409.403 146.951C409.223 146.861 409.223 146.351 409.223 146.351C409.223 146.225 409.286 146.12 409.403 146.051Z" fill="#6780FF"/>
<path d="M415.682 146.525L414.58 147.168C414.068 147.468 413.666 147.559 413.382 147.433C413.098 147.307 412.953 146.972 412.953 146.421V145.806C412.953 145.108 413.188 144.515 413.673 144.026C413.195 144.089 412.953 143.774 412.953 143.069V142.49C412.953 141.945 413.098 141.442 413.382 140.988C413.666 140.535 414.068 140.158 414.58 139.857L415.682 139.215C416.194 138.915 416.596 138.831 416.873 138.95C417.157 139.075 417.295 139.41 417.295 139.955V140.535C417.295 140.884 417.233 141.219 417.101 141.54C416.977 141.854 416.803 142.12 416.589 142.329C417.06 142.259 417.295 142.58 417.295 143.293V143.886C417.295 144.438 417.157 144.94 416.873 145.394C416.596 145.848 416.201 146.225 415.682 146.525ZM414.712 142.957L415.536 142.476C416.035 142.182 416.284 141.757 416.284 141.184V140.625C416.284 140.346 416.222 140.179 416.104 140.116C415.979 140.06 415.792 140.102 415.536 140.255L414.712 140.737C414.456 140.884 414.269 141.065 414.144 141.261C414.02 141.463 413.964 141.701 413.964 141.98V142.539C413.964 143.111 414.213 143.251 414.712 142.957ZM414.712 146.12L415.536 145.639C415.792 145.492 415.979 145.317 416.104 145.115C416.222 144.912 416.284 144.675 416.284 144.396V143.781C416.284 143.216 416.035 143.076 415.536 143.362L414.712 143.844C414.213 144.137 413.964 144.563 413.964 145.136V145.75C413.964 146.03 414.027 146.197 414.144 146.26C414.269 146.316 414.456 146.274 414.712 146.12Z" fill="#6780FF"/>
<path d="M421.089 143.376L420.085 143.956C419.572 144.256 419.17 144.333 418.886 144.186C418.603 144.04 418.457 143.691 418.457 143.139V139.348C418.457 138.789 418.596 138.265 418.886 137.798C419.17 137.323 419.572 136.939 420.085 136.639L422.162 135.431C422.342 135.521 422.342 136.115 422.342 136.115C422.342 136.234 422.28 136.331 422.162 136.401L420.237 137.525C419.738 137.819 419.489 138.244 419.489 138.803V139.781L421.096 138.845C421.608 138.545 422.01 138.468 422.294 138.608C422.578 138.747 422.723 139.096 422.723 139.662V140.667C422.723 141.219 422.578 141.736 422.294 142.21C422.003 142.685 421.608 143.076 421.089 143.376ZM420.237 142.909L420.943 142.497C421.442 142.203 421.691 141.777 421.691 141.219V140.311C421.691 139.753 421.442 139.613 420.943 139.906L419.482 140.758V142.511C419.489 143.062 419.738 143.195 420.237 142.909Z" fill="#6780FF"/>
<path d="M391.088 154.248L387.293 163.646L394.89 159.226L391.088 154.248Z" fill="#6FAF00"/>
<path d="M442.111 127.96L440.047 129.161C439.867 129.056 439.867 128.56 439.867 128.56C439.867 128.42 439.923 128.323 440.047 128.253L442.111 127.052C442.291 127.15 442.291 127.652 442.291 127.652C442.291 127.792 442.229 127.897 442.111 127.96Z" fill="#FFC41D"/>
<path d="M445.016 125.32L445.591 124.985C446.104 124.685 446.36 124.259 446.36 123.7V123.107C446.36 122.562 446.104 122.437 445.591 122.737L444.975 123.093C444.719 123.24 444.532 123.414 444.407 123.617C444.282 123.819 444.227 124.057 444.227 124.35C444.227 124.811 444.165 124.908 444.047 124.978L443.382 125.369C443.209 125.278 443.209 124.929 443.209 124.929C443.209 124.378 443.348 123.861 443.638 123.393C443.922 122.925 444.324 122.541 444.836 122.241L445.744 121.711C446.256 121.41 446.658 121.333 446.942 121.466C447.226 121.606 447.371 121.955 447.371 122.507V123.135C447.371 123.805 447.094 124.385 446.54 124.894C447.094 124.713 447.371 124.978 447.371 125.683V126.34C447.371 126.891 447.226 127.408 446.942 127.876C446.658 128.344 446.256 128.728 445.744 129.028L444.836 129.559C444.324 129.859 443.922 129.936 443.638 129.803C443.354 129.663 443.209 129.321 443.209 128.77V128.372C443.209 128.232 443.264 128.134 443.382 128.064L444.047 127.673C444.227 127.771 444.227 128.148 444.227 128.148C444.227 128.427 444.289 128.602 444.407 128.665C444.525 128.728 444.719 128.686 444.975 128.532L445.591 128.176C446.104 127.876 446.36 127.457 446.36 126.905V126.277C446.36 125.725 446.104 125.593 445.591 125.893L445.016 126.228C444.836 126.137 444.836 125.628 444.836 125.628C444.836 125.488 444.899 125.39 445.016 125.32Z" fill="#FFC41D"/>
<path d="M449.515 125.244V126.13C449.515 126.312 449.445 126.577 449.314 126.926L448.76 128.351C448.455 128.448 448.455 125.851 448.455 125.851C448.455 125.732 448.517 125.635 448.635 125.565L449.341 125.153C449.459 125.09 449.515 125.125 449.515 125.244Z" fill="#FFC41D"/>
<path d="M453.157 124.706L451.045 125.935C450.844 125.858 450.844 125.264 450.844 125.264C450.844 125.146 450.906 125.041 451.045 124.964L453.011 123.819C453.51 123.526 453.759 123.1 453.759 122.541V121.62L452.153 122.555C451.64 122.856 451.239 122.932 450.955 122.793C450.671 122.653 450.525 122.304 450.525 121.752V120.684C450.525 120.126 450.671 119.602 450.955 119.134C451.239 118.659 451.64 118.275 452.153 117.975L453.15 117.395C453.662 117.095 454.064 117.018 454.348 117.158C454.632 117.298 454.777 117.654 454.777 118.212V122.004C454.777 122.555 454.632 123.072 454.348 123.547C454.071 124.022 453.676 124.406 453.157 124.706ZM452.312 121.487L453.773 120.635V118.841C453.773 118.275 453.517 118.15 453.011 118.443L452.312 118.848C451.813 119.141 451.564 119.567 451.564 120.126V121.096C451.564 121.648 451.813 121.78 452.312 121.487Z" fill="#FFC41D"/>
<path d="M458.269 117.863L457.625 118.24C457.494 118.317 457.383 118.408 457.3 118.513C457.05 119.001 456.96 119.148 456.85 119.211L456.192 119.595C456.012 119.504 456.019 115.929 456.019 115.929C456.019 115.804 456.074 115.699 456.192 115.636L459.723 113.576C459.91 113.66 459.91 114.309 459.91 114.309C459.91 114.435 459.848 114.54 459.723 114.61L457.036 116.174V118.247C457.154 117.807 457.445 117.451 457.909 117.179L458.525 116.823C459.024 116.53 459.412 116.453 459.675 116.579C459.938 116.711 460.07 117.053 460.07 117.605V118.925C460.07 119.476 459.924 119.993 459.64 120.468C459.356 120.942 458.962 121.333 458.449 121.627L457.563 122.143C457.05 122.444 456.649 122.52 456.372 122.374C456.088 122.227 455.949 121.878 455.949 121.326C455.949 120.894 456.012 120.789 456.129 120.726L456.787 120.342C456.967 121.285 457.217 121.41 457.715 121.124L458.311 120.782C458.823 120.482 459.079 120.056 459.079 119.504V118.352C459.079 118.01 459.017 117.8 458.899 117.731C458.768 117.64 458.56 117.689 458.269 117.863Z" fill="#FFC41D"/>
<path d="M462.875 114.917L463.45 114.582C463.962 114.281 464.218 113.855 464.218 113.304V112.71C464.218 112.166 463.962 112.04 463.45 112.34L462.833 112.696C462.577 112.843 462.39 113.018 462.265 113.22C462.141 113.423 462.085 113.66 462.085 113.953C462.085 114.414 462.023 114.512 461.905 114.582L461.241 114.973C461.061 114.882 461.061 114.526 461.061 114.526C461.061 113.974 461.206 113.457 461.49 112.99C461.774 112.522 462.175 112.138 462.688 111.838L463.595 111.307C464.108 111.007 464.509 110.93 464.793 111.063C465.077 111.202 465.222 111.544 465.222 112.103V112.731C465.222 113.402 464.946 113.981 464.391 114.491C464.946 114.309 465.222 114.575 465.222 115.28V115.936C465.222 116.488 465.077 117.004 464.793 117.472C464.509 117.94 464.108 118.324 463.595 118.624L462.688 119.155C462.175 119.455 461.774 119.532 461.49 119.399C461.206 119.267 461.061 118.918 461.061 118.366V117.968C461.061 117.828 461.123 117.731 461.241 117.661L461.905 117.27C462.085 117.368 462.085 117.745 462.085 117.745C462.085 118.024 462.148 118.198 462.265 118.261C462.39 118.324 462.577 118.282 462.833 118.129L463.45 117.773C463.962 117.472 464.218 117.053 464.218 116.502V115.873C464.218 115.322 463.962 115.189 463.45 115.489L462.875 115.825C462.695 115.734 462.695 115.224 462.695 115.224C462.702 115.091 462.757 114.987 462.875 114.917Z" fill="#FFC41D"/>
<path d="M434.656 136.073L430.861 131.102L438.458 126.682L434.656 136.073Z" fill="#DB3E3E"/>
<path d="M256.311 244.766V246.965L258.492 245.694V278.364L256.311 279.635V281.834L258.492 280.564V313.241L256.311 314.511V316.711L258.492 315.44V348.117L256.311 349.381V351.587L258.492 350.316V382.986L256.311 384.257V386.456L258.492 385.186V417.863L256.311 419.133V421.333L260.507 418.889V242.322L256.311 244.766Z" fill="#E4E2E8"/>
<path d="M383.039 452.599L352.832 470.181L344.992 465.621L375.207 448.033L383.039 452.599Z" fill="#FFD91F"/>
<path d="M363.176 472.68L363.931 472.24C364.603 471.849 364.61 471.458 363.945 471.067L363.232 470.655C362.574 470.271 361.909 470.278 361.237 470.669L360.427 471.137C360.087 471.333 359.914 471.521 359.914 471.71C359.907 471.891 360.081 472.08 360.434 472.289L360.828 472.52C360.988 472.61 360.988 472.701 360.828 472.792L359.956 473.302C359.804 473.392 359.644 473.392 359.485 473.302L359.063 473.057C358.398 472.666 358.072 472.261 358.072 471.828C358.086 471.402 358.425 470.99 359.104 470.592L360.295 469.901C360.967 469.51 361.68 469.308 362.414 469.301C363.155 469.294 363.855 469.489 364.527 469.873L365.281 470.313C366.085 470.781 366.223 471.291 365.718 471.842C366.618 471.521 367.497 471.605 368.342 472.094L369.139 472.554C369.804 472.945 370.136 473.35 370.122 473.783C370.115 474.216 369.769 474.628 369.097 475.019L367.906 475.71C367.234 476.101 366.528 476.304 365.787 476.304C365.053 476.311 364.346 476.123 363.682 475.731L363.197 475.452C363.031 475.354 363.031 475.264 363.19 475.173L364.063 474.663C364.222 474.572 364.374 474.572 364.54 474.67L364.99 474.935C365.33 475.131 365.655 475.229 365.974 475.229C366.293 475.229 366.618 475.131 366.957 474.935L367.768 474.468C368.439 474.077 368.453 473.686 367.795 473.309L367.04 472.869C366.376 472.485 365.704 472.485 365.032 472.876L364.277 473.316C364.118 473.406 363.966 473.406 363.806 473.316L363.19 472.96C363.024 472.862 363.017 472.771 363.176 472.68Z" fill="white"/>
<path d="M372.163 471.018L373.832 471.989C373.992 472.08 373.992 472.164 373.853 472.247L372.918 472.792C372.759 472.883 372.606 472.883 372.454 472.792L370.785 471.821C370.64 471.738 370.64 471.647 370.799 471.556L371.727 471.012C371.865 470.935 372.011 470.935 372.163 471.018Z" fill="white"/>
<path d="M373.86 466.822L373.015 467.318C372.842 467.416 372.731 467.52 372.683 467.625C372.773 468.058 372.752 468.191 372.607 468.275L371.748 468.777C371.596 468.868 371.436 468.868 371.284 468.777L366.99 466.278C366.838 466.187 366.838 466.096 366.997 466.005L371.637 463.303C371.803 463.205 371.963 463.205 372.115 463.296L372.898 463.75C373.05 463.841 373.05 463.939 372.884 464.029L369.352 466.082L371.838 467.527C371.547 467.178 371.706 466.822 372.316 466.466L373.126 465.998C373.784 465.614 374.456 465.426 375.141 465.419C375.834 465.412 376.506 465.607 377.177 465.998L378.763 466.92C379.428 467.311 379.767 467.716 379.767 468.149C379.76 468.589 379.435 469.001 378.763 469.385L377.6 470.062C376.921 470.453 376.215 470.649 375.474 470.649C374.733 470.649 374.026 470.453 373.362 470.062L373.008 469.852C372.842 469.755 372.835 469.664 372.995 469.573L373.853 469.07C374.006 468.98 374.165 468.987 374.331 469.078L374.67 469.28C375.335 469.671 376 469.671 376.651 469.287L377.434 468.833C378.105 468.442 378.112 468.051 377.447 467.667L376.069 466.864C375.661 466.627 375.287 466.501 374.954 466.494C374.601 466.494 374.241 466.599 373.86 466.822Z" fill="white"/>
<path d="M385.635 465.384L382.858 466.997C382.685 467.094 382.519 467.102 382.359 467.011L381.646 466.599C381.501 466.515 381.514 466.424 381.694 466.319L384.277 464.818C384.935 464.434 384.922 464.05 384.243 463.652L383.135 463.01L381.03 464.239C380.358 464.63 379.651 464.832 378.903 464.832C378.163 464.832 377.449 464.644 376.784 464.253L375.503 463.506C374.825 463.115 374.492 462.696 374.492 462.263C374.499 461.83 374.838 461.418 375.517 461.027L376.833 460.259C377.505 459.868 378.211 459.665 378.959 459.665C379.707 459.665 380.413 459.861 381.092 460.252L385.649 462.905C386.313 463.289 386.646 463.708 386.646 464.141C386.646 464.581 386.313 464.993 385.635 465.384ZM380.067 463.436L381.985 462.318L379.825 461.062C379.153 460.671 378.481 460.664 377.816 461.055L376.902 461.585C376.244 461.97 376.258 462.353 376.93 462.744L378.093 463.422C378.751 463.813 379.416 463.813 380.067 463.436Z" fill="white"/>
<path d="M390.635 462.472L389.693 463.017C389.52 463.114 389.388 463.094 389.305 462.94L384.928 456.984L381.48 458.995C381.327 459.086 381.168 459.079 381.002 458.988L380.247 458.548C380.095 458.457 380.095 458.367 380.247 458.283L384.887 455.581C385.053 455.483 385.212 455.483 385.365 455.574L386.21 456.069C386.355 456.153 386.494 456.3 386.639 456.488L390.794 462.13C390.898 462.235 390.843 462.353 390.635 462.472Z" fill="white"/>
<path d="M424.551 428.434L394.336 446.015L386.504 441.456L416.712 423.867L424.551 428.434Z" fill="#6780FF"/>
<path d="M410.287 451.035L408.84 451.88C408.161 452.271 407.468 452.474 406.741 452.495C406.021 452.509 405.328 452.32 404.664 451.936L403.93 451.51C403.092 451.021 402.856 450.519 403.23 450.002C402.351 450.218 401.478 450.079 400.633 449.583L399.934 449.178C399.276 448.794 398.964 448.396 398.992 447.977C399.02 447.558 399.373 447.153 400.051 446.755L401.499 445.91C402.178 445.519 402.87 445.31 403.59 445.296C404.304 445.282 404.989 445.471 405.647 445.848L406.346 446.252C406.769 446.497 407.039 446.755 407.164 447.021C407.288 447.293 407.261 447.53 407.074 447.754C407.932 447.537 408.798 447.677 409.657 448.18L410.377 448.598C411.042 448.989 411.367 449.388 411.346 449.806C411.312 450.232 410.959 450.637 410.287 451.035ZM404.047 448.885L405.128 448.256C405.786 447.872 405.772 447.481 405.093 447.083L404.421 446.692C404.082 446.497 403.756 446.399 403.445 446.399C403.126 446.399 402.801 446.504 402.468 446.699L401.388 447.328C401.049 447.523 400.876 447.719 400.876 447.9C400.869 448.082 401.035 448.27 401.374 448.473L402.046 448.864C402.718 449.255 403.389 449.269 404.047 448.885ZM407.856 451.098L408.937 450.47C409.276 450.274 409.442 450.079 409.449 449.897C409.456 449.716 409.29 449.527 408.95 449.325L408.209 448.892C407.524 448.494 406.859 448.487 406.194 448.871L405.114 449.499C404.456 449.883 404.47 450.274 405.148 450.672L405.896 451.105C406.236 451.301 406.561 451.398 406.88 451.398C407.185 451.391 407.517 451.294 407.856 451.098Z" fill="white"/>
<path d="M413.344 447.034L415.013 448.005C415.172 448.096 415.172 448.186 415.027 448.27L414.099 448.815C413.94 448.906 413.787 448.906 413.628 448.815L411.959 447.844C411.813 447.76 411.814 447.67 411.973 447.579L412.901 447.034C413.053 446.951 413.199 446.951 413.344 447.034Z" fill="white"/>
<path d="M413.974 443.103L414.729 442.663C415.401 442.272 415.408 441.881 414.743 441.49L414.03 441.079C413.372 440.694 412.707 440.702 412.028 441.093L411.218 441.56C410.879 441.756 410.705 441.944 410.705 442.133C410.699 442.314 410.872 442.503 411.225 442.712L411.62 442.943C411.779 443.034 411.779 443.124 411.62 443.215L410.747 443.725C410.595 443.816 410.435 443.816 410.276 443.725L409.854 443.48C409.189 443.089 408.856 442.684 408.863 442.252C408.877 441.826 409.216 441.414 409.895 441.016L411.086 440.324C411.758 439.933 412.465 439.731 413.206 439.724C413.947 439.717 414.646 439.912 415.318 440.297L416.073 440.737C416.876 441.204 417.014 441.714 416.509 442.266C417.416 441.944 418.289 442.028 419.133 442.517L419.93 442.978C420.595 443.369 420.927 443.774 420.913 444.207C420.906 444.639 420.56 445.051 419.888 445.442L418.697 446.134C418.026 446.525 417.319 446.727 416.578 446.727C415.844 446.734 415.138 446.546 414.473 446.155L413.995 445.875C413.829 445.778 413.829 445.687 413.988 445.596L414.861 445.086C415.02 444.996 415.172 444.996 415.338 445.093L415.796 445.359C416.135 445.554 416.46 445.652 416.779 445.652C417.097 445.652 417.423 445.554 417.762 445.359L418.573 444.884C419.244 444.493 419.258 444.102 418.6 443.725L417.845 443.285C417.181 442.901 416.509 442.901 415.837 443.292L415.082 443.732C414.923 443.823 414.771 443.823 414.618 443.732L414.002 443.376C413.822 443.285 413.822 443.194 413.974 443.103Z" fill="white"/>
<path d="M427.186 441.19L425.739 442.035C425.06 442.426 424.368 442.629 423.641 442.65C422.92 442.664 422.228 442.475 421.563 442.091L420.829 441.665C419.991 441.176 419.756 440.674 420.13 440.164C419.25 440.381 418.378 440.241 417.533 439.745L416.833 439.34C416.175 438.956 415.857 438.558 415.884 438.139C415.912 437.713 416.265 437.315 416.944 436.917L418.391 436.072C419.07 435.681 419.763 435.472 420.483 435.465C421.196 435.451 421.882 435.639 422.54 436.016L423.239 436.422C423.661 436.666 423.932 436.924 424.056 437.189C424.181 437.462 424.153 437.699 423.973 437.923C424.832 437.706 425.697 437.846 426.556 438.349L427.276 438.768C427.941 439.159 428.267 439.557 428.246 439.976C428.211 440.394 427.865 440.799 427.186 441.19ZM420.954 439.04L422.034 438.411C422.692 438.027 422.678 437.636 421.992 437.238L421.321 436.847C420.981 436.652 420.656 436.554 420.337 436.554C420.019 436.554 419.693 436.652 419.354 436.855L418.274 437.483C417.934 437.678 417.761 437.874 417.761 438.055C417.754 438.237 417.92 438.425 418.26 438.628L418.932 439.019C419.624 439.417 420.296 439.424 420.954 439.04ZM424.756 441.253L425.836 440.625C426.175 440.429 426.341 440.234 426.348 440.052C426.348 439.864 426.189 439.682 425.85 439.48L425.109 439.047C424.423 438.649 423.758 438.642 423.1 439.026L422.02 439.654C421.362 440.038 421.376 440.429 422.062 440.827L422.803 441.26C423.142 441.456 423.468 441.553 423.786 441.553C424.091 441.553 424.416 441.449 424.756 441.253Z" fill="white"/>
<path d="M434.216 437.106L431.439 438.719C431.266 438.816 431.1 438.823 430.94 438.733L430.227 438.321C430.082 438.237 430.095 438.146 430.275 438.041L432.858 436.54C433.516 436.156 433.503 435.772 432.824 435.374L431.716 434.732L429.611 435.961C428.939 436.352 428.232 436.554 427.485 436.554C426.744 436.554 426.03 436.366 425.365 435.975L424.084 435.228C423.406 434.837 423.073 434.418 423.08 433.985C423.08 433.552 423.426 433.14 424.098 432.749L425.414 431.981C426.086 431.59 426.792 431.387 427.54 431.387C428.281 431.387 428.994 431.583 429.673 431.974L434.23 434.627C434.894 435.011 435.227 435.43 435.227 435.863C435.227 436.296 434.888 436.715 434.216 437.106ZM428.648 435.151L430.559 434.033L428.399 432.777C427.727 432.386 427.055 432.379 426.39 432.77L425.476 433.307C424.818 433.691 424.832 434.075 425.504 434.466L426.667 435.144C427.332 435.535 427.99 435.535 428.648 435.151Z" fill="white"/>
<path d="M466.065 404.268L435.857 421.849L428.018 417.29L458.225 399.702L466.065 404.268Z" fill="#7934E5"/>
<path d="M443.103 424.189L442.299 423.721C442.154 423.637 442.106 423.539 442.161 423.421L442.722 422.094C442.791 421.933 442.888 421.822 443.006 421.752L443.83 421.27C443.982 421.179 444.135 421.179 444.287 421.27L452.618 426.123C452.777 426.213 452.777 426.304 452.639 426.388L451.752 426.905C451.593 426.995 451.441 426.995 451.281 426.905L444.141 422.75L443.511 424.119C443.408 424.266 443.276 424.293 443.103 424.189Z" fill="white"/>
<path d="M453.986 423.379L455.655 424.349C455.814 424.44 455.814 424.531 455.675 424.614L454.747 425.159C454.588 425.25 454.436 425.25 454.276 425.159L452.607 424.188C452.462 424.105 452.462 424.014 452.621 423.923L453.556 423.379C453.695 423.295 453.84 423.295 453.986 423.379Z" fill="white"/>
<path d="M457.033 423.546L455.772 422.813C455.204 422.485 454.976 422.066 455.073 421.563L455.551 418.833C455.648 418.379 455.461 418.016 455.004 417.751L454.554 417.486C453.896 417.101 453.224 417.108 452.538 417.513L451.867 417.904C451.52 418.107 451.347 418.295 451.347 418.477C451.347 418.659 451.52 418.847 451.873 419.05L452.379 419.343C452.545 419.44 452.545 419.531 452.386 419.622L451.513 420.132C451.354 420.223 451.202 420.222 451.035 420.125L450.502 419.811C449.837 419.427 449.505 419.015 449.512 418.582C449.526 418.156 449.865 417.744 450.544 417.346L451.61 416.724C452.275 416.333 452.975 416.138 453.716 416.131C454.457 416.124 455.156 416.319 455.821 416.704L456.382 417.032C457.095 417.444 457.4 417.946 457.296 418.533L456.818 421.312C456.783 421.535 456.88 421.71 457.116 421.849L457.559 422.108L461.119 420.034C461.285 419.936 461.437 419.936 461.59 420.027L462.317 420.453C462.476 420.544 462.469 420.634 462.31 420.732L457.51 423.525C457.351 423.637 457.192 423.637 457.033 423.546Z" fill="white"/>
<path d="M461.275 415.565L462.03 415.125C462.702 414.734 462.709 414.343 462.044 413.959L461.33 413.548C460.672 413.164 460.008 413.17 459.329 413.561L458.519 414.036C458.18 414.232 458.006 414.42 458.006 414.609C458 414.79 458.173 414.979 458.519 415.181L458.913 415.412C459.073 415.503 459.073 415.593 458.913 415.684L458.041 416.194C457.889 416.285 457.729 416.285 457.57 416.194L457.148 415.949C456.483 415.558 456.157 415.153 456.164 414.721C456.171 414.295 456.517 413.883 457.196 413.485L458.387 412.793C459.059 412.402 459.765 412.2 460.506 412.193C461.247 412.186 461.947 412.382 462.619 412.766L463.373 413.205C464.177 413.673 464.322 414.183 463.81 414.734C464.717 414.413 465.589 414.497 466.434 414.986L467.231 415.447C467.896 415.838 468.221 416.243 468.214 416.676C468.207 417.108 467.861 417.52 467.189 417.911L465.998 418.603C465.326 418.994 464.62 419.196 463.879 419.203C463.145 419.21 462.439 419.015 461.774 418.631L461.296 418.351C461.13 418.254 461.13 418.163 461.282 418.072L462.155 417.562C462.314 417.472 462.466 417.472 462.632 417.569L463.089 417.835C463.429 418.03 463.754 418.128 464.073 418.135C464.392 418.135 464.717 418.037 465.056 417.835L465.866 417.367C466.538 416.976 466.552 416.585 465.894 416.208L465.139 415.768C464.475 415.377 463.803 415.384 463.131 415.775L462.376 416.215C462.217 416.305 462.065 416.305 461.905 416.215L461.289 415.859C461.123 415.747 461.123 415.656 461.275 415.565Z" fill="white"/>
<path d="M474.301 413.771L472.992 414.532C472.313 414.923 471.607 415.119 470.859 415.119C470.111 415.119 469.404 414.923 468.74 414.539L464.183 411.886C463.504 411.495 463.172 411.076 463.172 410.643C463.179 410.21 463.518 409.798 464.197 409.407L466.918 407.822C467.078 407.731 467.23 407.731 467.382 407.822L468.096 408.234C468.241 408.318 468.241 408.409 468.082 408.5L465.554 409.973C464.896 410.357 464.903 410.748 465.575 411.139L466.752 411.823L468.857 410.594C469.536 410.203 470.242 410.001 470.99 410.001C471.731 409.994 472.438 410.196 473.117 410.587L474.321 411.285C474.986 411.676 475.326 412.081 475.326 412.521C475.312 412.961 474.979 413.373 474.301 413.771ZM472.022 413.743L472.957 413.199C473.615 412.815 473.601 412.43 472.922 412.032L471.828 411.397C471.157 411.006 470.492 410.999 469.834 411.383L467.916 412.5L470.021 413.729C470.699 414.12 471.364 414.127 472.022 413.743Z" fill="white"/>
<path d="M507.579 380.103L477.365 397.684L469.525 393.125L499.74 375.536L507.579 380.103Z" fill="#E952EB"/>
<path d="M494.358 402.09L493.547 402.557C493.395 402.648 493.243 402.648 493.083 402.557L491.65 401.72L488.035 403.821C487.772 403.975 487.508 403.975 487.245 403.821L486.823 403.577C486.622 403.458 486.49 403.332 486.414 403.193L484.039 398.256C484.191 397.775 485.396 397.069 485.396 397.069C485.659 396.916 485.923 396.916 486.186 397.069L491.74 400.302L492.744 399.723C492.896 399.632 493.049 399.632 493.208 399.723L493.894 400.121C494.067 400.225 494.074 400.316 493.921 400.407L492.917 400.993L494.358 401.831C494.496 401.922 494.503 402.013 494.358 402.09ZM490.472 401.042L485.632 398.221L487.779 402.613L490.472 401.042Z" fill="white"/>
<path d="M496.224 398.787L497.893 399.758C498.052 399.848 498.052 399.939 497.914 400.023L496.986 400.568C496.826 400.658 496.674 400.658 496.515 400.568L494.846 399.597C494.7 399.513 494.7 399.422 494.859 399.332L495.787 398.787C495.933 398.703 496.078 398.703 496.224 398.787Z" fill="white"/>
<path d="M502.991 397.069L501.682 397.831C501.004 398.222 500.297 398.417 499.549 398.417C498.801 398.417 498.095 398.222 497.43 397.838L492.873 395.184C492.195 394.793 491.862 394.381 491.869 393.941C491.869 393.509 492.215 393.097 492.887 392.706L495.609 391.121C495.768 391.03 495.92 391.03 496.073 391.121L496.786 391.533C496.932 391.616 496.931 391.707 496.772 391.798L494.245 393.271C493.587 393.655 493.593 394.046 494.265 394.437L495.443 395.121L497.548 393.893C498.226 393.502 498.933 393.299 499.681 393.299C500.422 393.292 501.128 393.495 501.807 393.886L503.012 394.584C503.677 394.975 504.016 395.38 504.016 395.82C504.002 396.26 503.67 396.671 502.991 397.069ZM500.713 397.042L501.641 396.497C502.298 396.113 502.285 395.729 501.606 395.331L500.512 394.696C499.84 394.305 499.175 394.298 498.517 394.682L496.599 395.799L498.704 397.028C499.383 397.419 500.055 397.426 500.713 397.042Z" fill="white"/>
<path d="M510.226 392.859L508.779 393.704C508.1 394.095 507.408 394.305 506.681 394.319C505.96 394.333 505.268 394.144 504.603 393.76L503.869 393.334C503.031 392.845 502.796 392.342 503.17 391.833C502.29 392.049 501.418 391.91 500.573 391.414L499.873 391.009C499.215 390.625 498.904 390.227 498.931 389.808C498.959 389.389 499.312 388.984 499.991 388.586L501.438 387.741C502.117 387.35 502.81 387.141 503.53 387.134C504.243 387.12 504.929 387.308 505.586 387.685L506.286 388.09C506.708 388.335 506.978 388.593 507.103 388.858C507.228 389.131 507.2 389.375 507.013 389.592C507.872 389.375 508.738 389.515 509.596 390.018L510.316 390.436C510.981 390.827 511.307 391.225 511.286 391.644C511.251 392.056 510.905 392.461 510.226 392.859ZM503.994 390.702L505.074 390.073C505.732 389.689 505.718 389.298 505.032 388.9L504.361 388.509C504.021 388.314 503.696 388.216 503.377 388.216C503.059 388.216 502.733 388.314 502.401 388.516L501.321 389.145C500.981 389.34 500.808 389.536 500.808 389.717C500.801 389.899 500.967 390.087 501.307 390.29L501.978 390.681C502.664 391.079 503.336 391.086 503.994 390.702ZM507.796 392.922L508.876 392.294C509.215 392.098 509.382 391.903 509.389 391.721C509.389 391.54 509.229 391.351 508.89 391.149L508.149 390.716C507.463 390.318 506.798 390.311 506.134 390.695L505.053 391.323C504.395 391.707 504.409 392.098 505.095 392.496L505.836 392.929C506.175 393.125 506.501 393.222 506.812 393.222C507.131 393.215 507.456 393.118 507.796 392.922Z" fill="white"/>
<path d="M517.242 388.768L514.465 390.381C514.292 390.478 514.126 390.485 513.967 390.394L513.253 389.983C513.108 389.899 513.122 389.808 513.302 389.703L515.885 388.202C516.543 387.818 516.529 387.434 515.85 387.036L514.742 386.394L512.637 387.622C511.965 388.013 511.259 388.216 510.511 388.216C509.77 388.216 509.057 388.027 508.392 387.636L507.111 386.889C506.432 386.498 506.1 386.079 506.1 385.647C506.107 385.214 506.446 384.802 507.124 384.411L508.44 383.643C509.112 383.252 509.818 383.049 510.566 383.049C511.307 383.049 512.02 383.245 512.699 383.636L517.256 386.289C517.921 386.673 518.253 387.092 518.253 387.525C518.253 387.965 517.914 388.377 517.242 388.768ZM511.674 386.82L513.592 385.702L511.432 384.446C510.76 384.055 510.088 384.048 509.424 384.439L508.51 384.969C507.852 385.353 507.865 385.737 508.537 386.128L509.701 386.805C510.359 387.196 511.016 387.204 511.674 386.82Z" fill="white"/>
<path d="M549.098 355.937L518.883 373.525L511.051 368.959L541.259 351.371L549.098 355.937Z" fill="#A82EDB"/>
<path d="M530.288 375.767L529.443 376.262C529.27 376.36 529.159 376.465 529.111 376.57C529.201 377.003 529.18 377.135 529.034 377.219L528.176 377.722C528.023 377.812 527.864 377.812 527.712 377.722L523.418 375.222C523.266 375.131 523.266 375.04 523.425 374.95L528.065 372.248C528.231 372.15 528.39 372.15 528.543 372.241L529.325 372.694C529.478 372.785 529.478 372.876 529.311 372.974L525.78 375.027L528.266 376.472C527.975 376.123 528.134 375.767 528.743 375.418L529.554 374.95C530.212 374.566 530.883 374.377 531.569 374.37C532.262 374.363 532.933 374.559 533.605 374.95L535.191 375.871C535.856 376.262 536.195 376.667 536.195 377.1C536.195 377.54 535.863 377.952 535.191 378.336L534.027 379.013C533.349 379.404 532.642 379.6 531.901 379.6C531.161 379.6 530.454 379.404 529.789 379.013L529.436 378.804C529.27 378.706 529.263 378.616 529.422 378.525L530.281 378.022C530.433 377.931 530.593 377.938 530.759 378.029L531.098 378.231C531.763 378.615 532.428 378.615 533.079 378.238L533.861 377.785C534.533 377.394 534.54 377.003 533.875 376.611L532.497 375.809C532.088 375.571 531.714 375.445 531.382 375.438C531.029 375.438 530.669 375.543 530.288 375.767Z" fill="white"/>
<path d="M538.112 374.412L539.782 375.383C539.941 375.473 539.941 375.564 539.802 375.648L538.867 376.192C538.708 376.283 538.556 376.283 538.403 376.192L536.734 375.222C536.589 375.138 536.589 375.047 536.748 374.957L537.676 374.412C537.822 374.328 537.967 374.328 538.112 374.412Z" fill="white"/>
<path d="M545.063 372.583L543.616 373.428C542.937 373.819 542.245 374.028 541.518 374.042C540.798 374.056 540.105 373.867 539.44 373.483L538.706 373.058C537.868 372.569 537.633 372.066 538.007 371.556C537.127 371.773 536.255 371.633 535.41 371.137L534.71 370.733C534.052 370.349 533.734 369.95 533.761 369.531C533.789 369.113 534.142 368.708 534.821 368.31L536.268 367.465C536.947 367.074 537.64 366.864 538.36 366.85C539.073 366.836 539.759 367.025 540.417 367.402L541.116 367.807C541.539 368.051 541.809 368.31 541.933 368.575C542.058 368.847 542.03 369.092 541.843 369.315C542.702 369.099 543.568 369.238 544.426 369.741L545.147 370.16C545.811 370.551 546.137 370.949 546.116 371.368C546.088 371.78 545.742 372.192 545.063 372.583ZM538.831 370.432L539.911 369.804C540.569 369.42 540.555 369.029 539.877 368.631L539.205 368.24C538.865 368.044 538.54 367.947 538.221 367.947C537.903 367.947 537.577 368.044 537.238 368.247L536.158 368.875C535.818 369.071 535.645 369.259 535.645 369.448C535.638 369.629 535.805 369.818 536.144 370.02L536.816 370.411C537.501 370.809 538.173 370.816 538.831 370.432ZM542.633 372.646L543.713 372.017C544.052 371.822 544.219 371.633 544.226 371.445C544.226 371.263 544.066 371.075 543.727 370.872L542.986 370.439C542.3 370.041 541.635 370.034 540.971 370.418L539.89 371.047C539.232 371.431 539.246 371.822 539.932 372.22L540.673 372.653C541.012 372.848 541.338 372.946 541.656 372.946C541.961 372.946 542.293 372.841 542.633 372.646Z" fill="white"/>
<path d="M547.108 365.978L546.263 366.473C546.09 366.571 545.979 366.676 545.931 366.78C546.021 367.213 546 367.346 545.855 367.43L544.996 367.933C544.844 368.023 544.684 368.023 544.525 367.933L540.231 365.433C540.079 365.342 540.079 365.251 540.231 365.161L544.871 362.458C545.037 362.361 545.197 362.361 545.349 362.451L546.132 362.905C546.284 362.996 546.284 363.087 546.118 363.184L542.586 365.237L545.072 366.683C544.781 366.334 544.941 365.977 545.55 365.628L546.36 365.154C547.018 364.77 547.69 364.581 548.375 364.581C549.068 364.574 549.74 364.77 550.412 365.161L551.997 366.082C552.662 366.473 553.001 366.878 553.001 367.318C553.001 367.758 552.669 368.163 551.997 368.554L550.834 369.231C550.155 369.622 549.449 369.818 548.708 369.818C547.967 369.818 547.26 369.622 546.596 369.231L546.242 369.022C546.076 368.924 546.069 368.833 546.229 368.743L547.087 368.24C547.24 368.149 547.399 368.156 547.565 368.247L547.905 368.449C548.569 368.84 549.234 368.84 549.885 368.456L550.668 368.002C551.339 367.611 551.346 367.22 550.682 366.829L549.303 366.026C548.895 365.789 548.521 365.663 548.188 365.656C547.842 365.649 547.489 365.754 547.108 365.978Z" fill="white"/>
<path d="M558.957 364.49L557.648 365.252C556.969 365.643 556.263 365.838 555.515 365.838C554.767 365.838 554.061 365.642 553.396 365.258L548.839 362.605C548.161 362.214 547.821 361.802 547.828 361.362C547.835 360.929 548.175 360.517 548.853 360.126L551.575 358.542C551.734 358.451 551.886 358.451 552.039 358.542L552.752 358.953C552.897 359.037 552.897 359.128 552.738 359.219L550.21 360.692C549.553 361.076 549.559 361.467 550.238 361.858L551.416 362.542L553.521 361.314C554.199 360.923 554.906 360.72 555.654 360.72C556.395 360.713 557.101 360.916 557.78 361.307L558.985 362.005C559.65 362.389 559.989 362.801 559.989 363.234C559.968 363.68 559.636 364.099 558.957 364.49ZM556.679 364.47L557.614 363.925C558.271 363.541 558.258 363.157 557.579 362.759L556.485 362.123C555.813 361.732 555.148 361.725 554.49 362.109L552.572 363.227L554.677 364.455C555.356 364.846 556.021 364.854 556.679 364.47Z" fill="white"/>
<path d="M546.873 467.897L635.834 448.019C654.692 476.618 630.156 508.702 581.021 519.685C577.78 520.411 574.892 520.956 571.534 521.479L546.873 467.897Z" fill="#FFD91F"/>
<path d="M546.871 467.897L472.82 432.986C499.316 413.939 541.719 407.326 581.027 416.11L546.871 467.897Z" fill="#E952EB"/>
<path d="M546.871 467.897L452.757 476.576C448.367 460.447 455.167 445.68 472.82 432.993L546.871 467.897Z" fill="#8022B2"/>
<path d="M546.875 467.897L571.536 521.479C520.705 529.411 468.454 511.844 454.832 482.253C453.932 480.298 453.302 478.573 452.762 476.576L546.875 467.897Z" fill="#7948D8"/>
<path d="M546.873 467.897L581.021 416.11C607.205 421.961 625.779 432.777 635.834 448.019L546.873 467.897Z" fill="#7BA4FF"/>
<path d="M589.503 557.068L600.188 550.847L602.737 552.327L592.051 558.548L589.503 557.068ZM596.012 576.834L579.371 586.526L581.92 588.013L601.629 576.541L608.457 572.568L605.908 571.081L596.012 576.834ZM603.187 563.847L600.638 562.36L592.293 567.22L586.802 570.418L589.35 571.905L594.842 568.707L603.187 563.847ZM582.889 572.694L569.205 580.661L571.753 582.148L585.438 574.181L582.889 572.694ZM582.39 564.176L588.132 560.831L585.583 559.344L575.694 565.104L559.177 574.719L561.726 576.206L582.39 564.176ZM556.068 567.716L569.537 559.875L566.989 558.394L553.519 566.235L549.163 568.77L551.712 570.257L556.068 567.716ZM582.951 552.068L587.28 549.548L584.731 548.06L579.011 551.391L570.895 556.118L573.443 557.598L582.951 552.068ZM620.507 562.577L609.821 568.798L612.37 570.285L623.055 564.064L620.507 562.577ZM652.169 544.144L642.203 549.946L644.752 551.433L654.717 545.631L652.169 544.144ZM621.67 526.555L615.68 530.039L618.228 531.527L624.219 528.043L621.67 526.555ZM611.767 532.323L606.608 535.325L609.156 536.812L614.316 533.81L611.767 532.323ZM631.892 532.392L622.058 538.118L624.607 539.605L634.44 533.88L631.892 532.392ZM627.259 546.867L623.055 549.31L625.604 550.791L629.807 548.347L627.259 546.867ZM633.727 546.071L644.648 539.717L642.1 538.23L631.179 544.583L633.727 546.071ZM667.633 535.143L663.367 537.629L665.915 539.116L670.181 536.631L667.633 535.143ZM637.134 517.555L631.144 521.039L633.692 522.519L639.683 519.035L637.134 517.555ZM647.356 523.392L643.221 525.801L645.77 527.288L649.904 524.88L647.356 523.392ZM652.335 532.267L654.883 533.747L660.105 530.71L657.557 529.222L652.335 532.267ZM567.114 596.622L571.546 594.039L568.997 592.551L564.565 595.135L567.114 596.622ZM536.615 579.041L539.323 577.463L536.774 575.983L534.066 577.561L536.615 579.041ZM546.836 584.871L551.4 582.218L548.852 580.731L544.288 583.384L546.836 584.871ZM554.489 589.228L557.037 590.715L560.514 588.69L557.965 587.203L554.489 589.228Z" fill="white"/>
<path d="M683.857 502.138L694.543 495.917L697.091 497.397L686.405 503.619L683.857 502.138ZM690.373 521.905L673.725 531.597L676.274 533.084L695.983 521.612L702.811 517.639L700.263 516.159L690.373 521.905ZM697.548 508.918L695 507.431L686.655 512.291L681.163 515.488L683.712 516.976L689.203 513.778L697.548 508.918ZM677.25 517.765L663.566 525.731L666.115 527.212L679.799 519.245L677.25 517.765ZM676.752 509.246L682.493 505.902L679.944 504.415L670.055 510.175L653.538 519.789L656.087 521.277L676.752 509.246ZM650.422 512.793L663.892 504.952L661.343 503.472L647.874 511.313L643.518 513.847L646.066 515.335L650.422 512.793ZM677.313 497.139L681.641 494.618L679.092 493.131L673.372 496.462L665.256 501.189L667.804 502.676L677.313 497.139ZM714.861 507.647L704.175 513.869L706.724 515.356L717.41 509.135L714.861 507.647ZM746.53 489.214L736.565 495.016L739.113 496.504L749.079 490.701L746.53 489.214ZM716.031 471.633L710.041 475.117L712.59 476.604L718.58 473.12L716.031 471.633ZM706.128 477.393L700.969 480.396L703.518 481.883L708.677 478.88L706.128 477.393ZM726.246 477.463L716.412 483.189L718.961 484.676L728.795 478.95L726.246 477.463ZM721.62 491.937L717.417 494.381L719.965 495.861L724.169 493.417L721.62 491.937ZM728.081 491.141L739.002 484.787L736.454 483.3L725.533 489.654L728.081 491.141ZM761.994 480.214L757.728 482.7L760.277 484.187L764.543 481.701L761.994 480.214ZM731.495 462.626L725.505 466.11L728.054 467.597L734.044 464.113L731.495 462.626ZM741.71 468.463L737.569 470.872L740.117 472.359L744.259 469.95L741.71 468.463ZM746.696 477.337L749.245 478.818L754.466 475.78L751.918 474.293L746.696 477.337Z" fill="white"/>
<path d="M623.482 575.655L620.934 574.167L612.589 579.027L607.097 582.225L609.646 583.712L615.137 580.514L623.482 575.655ZM603.178 584.501L589.493 592.468L592.042 593.955L605.726 585.988L603.178 584.501ZM647.547 558.674L643.344 561.117L645.892 562.605L650.096 560.161L647.547 558.674ZM654.016 557.878L664.937 551.524L662.388 550.037L651.474 556.391L654.016 557.878ZM672.631 544.074L675.179 545.561L680.401 542.524L677.852 541.036L672.631 544.074ZM574.777 601.035L577.326 602.522L580.802 600.497L578.254 599.017L574.777 601.035Z" fill="white"/>
<path d="M717.845 520.725L715.297 519.245L706.952 524.104L701.46 527.302L704.009 528.79L709.5 525.592L717.845 520.725ZM697.548 529.572L683.863 537.538L686.412 539.026L700.096 531.059L697.548 529.572ZM741.917 503.744L737.714 506.188L740.262 507.675L744.466 505.232L741.917 503.744ZM748.385 502.948L759.307 496.595L756.758 495.107L745.837 501.461L748.385 502.948ZM766.993 489.144L769.542 490.625L774.764 487.587L772.215 486.1L766.993 489.144Z" fill="white"/>
<path d="M517.971 568.016L522.403 565.432L519.855 563.945L515.423 566.529L517.971 568.016ZM487.472 550.428L490.18 548.85L487.632 547.369L484.924 548.947L487.472 550.428ZM497.694 556.265L502.258 553.611L499.709 552.124L495.146 554.777L497.694 556.265ZM505.346 560.622L507.895 562.109L511.371 560.084L508.823 558.604L505.346 560.622Z" fill="white"/>
<path d="M712.856 451.608L708.59 454.094L711.139 455.581L715.405 453.095L712.856 451.608ZM682.357 434.02L676.367 437.504L678.916 438.991L684.906 435.507L682.357 434.02ZM692.572 439.85L688.438 442.259L690.986 443.746L695.121 441.337L692.572 439.85ZM697.558 448.731L700.107 450.218L705.328 447.181L702.78 445.694L697.558 448.731Z" fill="white"/>
<path d="M468.823 539.41L473.255 536.826L470.707 535.339L466.275 537.922L468.823 539.41ZM438.332 521.821L441.039 520.243L438.491 518.763L435.783 520.341L438.332 521.821ZM448.546 527.652L453.11 524.998L450.562 523.511L445.998 526.164L448.546 527.652ZM456.199 532.008L458.747 533.496L462.224 531.471L459.675 529.984L456.199 532.008Z" fill="white"/>
<path d="M663.704 422.995L659.438 425.48L661.986 426.96L666.252 424.475L663.704 422.995ZM633.205 405.413L627.215 408.897L629.763 410.385L635.753 406.901L633.205 405.413ZM643.427 411.243L639.285 413.652L641.834 415.14L645.975 412.731L643.427 411.243ZM648.413 420.125L650.961 421.605L656.183 418.568L653.634 417.081L648.413 420.125Z" fill="white"/>
<path d="M419.673 510.796L424.105 508.213L421.557 506.726L417.125 509.309L419.673 510.796ZM389.181 493.215L391.889 491.637L389.341 490.157L386.633 491.735L389.181 493.215ZM399.396 499.045L403.96 496.392L401.411 494.905L396.848 497.558L399.396 499.045ZM407.048 503.402L409.597 504.889L413.073 502.864L410.525 501.384L407.048 503.402Z" fill="white"/>
<path d="M614.558 394.388L610.292 396.874L612.841 398.361L617.107 395.875L614.558 394.388ZM584.066 376.8L578.076 380.284L580.625 381.771L586.615 378.287L584.066 376.8ZM594.281 382.637L590.147 385.046L592.695 386.533L596.836 384.124L594.281 382.637ZM599.267 391.512L601.816 392.999L607.037 389.962L604.489 388.474L599.267 391.512Z" fill="white"/>
<path opacity="0.74" d="M351.569 46.9766L191.07 130.332L180 378.6L340.706 295.137L351.569 46.9766Z" fill="#CFE9FF"/>
<path d="M351.569 46.9766L191.07 130.332L190.072 152.708L350.589 69.3448L351.569 46.9766Z" fill="#35658E"/>
<path d="M300.281 165.447L301.148 145.993C302.027 126.279 286.29 118.792 266.069 129.289C245.848 139.795 228.681 164.377 227.802 184.091L226.944 203.327C220.038 207.909 214.511 216.37 214.2 223.343L212.111 270.204C211.768 277.897 217.886 280.812 225.778 276.71L293.611 241.478C301.502 237.384 308.169 227.826 308.512 220.133L310.601 173.272C310.885 166.725 306.466 163.685 300.281 165.447ZM265.696 137.652C281.195 129.603 293.252 135.341 292.579 150.451L291.73 169.478L235.523 198.669L236.371 179.642C237.045 164.532 250.198 145.701 265.696 137.652ZM264.583 216.052L263.565 238.872L257.452 242.046L258.469 219.227C255.73 219.516 253.893 217.84 254.033 214.693C254.22 210.49 257.867 205.268 262.178 203.028C266.488 200.788 269.831 202.379 269.643 206.582C269.512 209.729 267.425 213.444 264.583 216.052Z" fill="white"/>
<path d="M256.778 288.836L269.246 282.363L269.117 285.26L256.649 291.741L256.778 288.836ZM239.738 320.176L220.315 330.265L220.186 333.161L243.189 321.219L251.157 317.079L251.287 314.182L239.738 320.176ZM257.329 302.634L257.458 299.737L247.721 304.797L241.315 308.126L241.186 311.031L247.591 307.702L257.329 302.634ZM236.748 310.489L220.777 318.786L220.647 321.691L236.618 313.394L236.748 310.489ZM245.383 297.588L252.081 294.104L252.21 291.208L240.67 297.202L221.393 307.213L221.264 310.118L245.383 297.588ZM226.98 295.904L242.694 287.739L242.823 284.842L227.11 293.008L222.026 295.65L221.897 298.546L226.98 295.904ZM258.356 279.605L263.405 276.978L263.534 274.073L256.863 277.542L247.391 282.463L247.262 285.359L258.356 279.605ZM268.322 305.33L255.855 311.811L255.725 314.708L268.193 308.226L268.322 305.33ZM305.27 286.142L293.644 292.183L293.515 295.079L305.141 289.039L305.27 286.142ZM306.647 251.697L299.657 255.327L299.528 258.223L306.518 254.593L306.647 251.697ZM295.089 257.699L289.07 260.827L288.94 263.732L294.96 260.603L295.089 257.699ZM306.245 263.145L294.765 269.108L294.636 272.013L306.116 266.049L306.245 263.145ZM288.525 283.592L283.622 286.142L283.493 289.038L288.396 286.488L288.525 283.592ZM292.963 284.126L305.706 277.505L305.835 274.601L293.093 281.221L292.963 284.126ZM323.319 276.764L318.339 279.352L318.21 282.248L323.19 279.661L323.319 276.764ZM324.696 242.319L317.706 245.949L317.577 248.846L324.567 245.215L324.696 242.319ZM324.294 253.775L319.468 256.286L319.339 259.191L324.164 256.68L324.294 253.775ZM317.787 268.398L317.658 271.295L323.746 268.127L323.876 265.222L317.787 268.398ZM202.909 342.146L208.079 339.457L208.208 336.561L203.039 339.249L202.909 342.146ZM204.278 307.691L207.438 306.046L207.567 303.149L204.407 304.795L204.278 307.691ZM203.884 319.148L209.208 316.383L209.337 313.486L204.014 316.252L203.884 319.148ZM203.604 327.699L203.474 330.604L207.536 328.495L207.665 325.599L203.604 327.699Z" fill="white"/>
<defs>
<linearGradient id="paint0_linear_104_707" x1="519.085" y1="340.707" x2="462.78" y2="829.359" gradientUnits="userSpaceOnUse">
<stop stop-color="#009688"/>
<stop offset="0.390625" stop-color="#35658E"/>
<stop offset="0.635417" stop-color="#009688"/>
<stop offset="0.734375" stop-color="#35658E"/>
<stop offset="1" stop-color="#35658E"/>
</linearGradient>
<linearGradient id="paint1_linear_104_707" x1="578.36" y1="585.533" x2="646.127" y2="585.533" gradientUnits="userSpaceOnUse">
<stop stop-color="#C0B9C8"/>
<stop offset="1" stop-color="#E0DBE1"/>
</linearGradient>
</defs>
</svg>
