<?xml version="1.0" standalone="no"?>
<!DOCTYPE svg PUBLIC "-//W3C//DTD SVG 20010904//EN"
 "http://www.w3.org/TR/2001/REC-SVG-20010904/DTD/svg10.dtd">
<svg version="1.0" xmlns="http://www.w3.org/2000/svg"
 width="863.000000pt" height="787.000000pt" viewBox="0 0 863.000000 787.000000"
 preserveAspectRatio="xMidYMid meet">

<g transform="translate(0.000000,787.000000) scale(0.100000,-0.100000)"
fill="#000000" stroke="none">
<path d="M741 6784 c-30 -8 -73 -23 -96 -33 -90 -40 -67 -65 75 -85 385 -54
695 -178 846 -338 173 -183 174 -391 1 -562 -34 -34 -116 -99 -182 -145 -136
-95 -272 -228 -325 -316 -148 -250 -87 -506 180 -747 116 -106 296 -215 407
-248 24 -8 50 -24 62 -41 32 -44 65 -56 216 -79 77 -11 140 -22 142 -24 1 -1
-4 -41 -13 -89 -17 -102 -9 -149 33 -189 38 -37 55 -42 241 -69 l162 -23 0
-54 c0 -46 4 -58 29 -83 47 -47 132 -33 159 25 9 20 17 25 34 21 13 -3 172
-27 353 -55 367 -55 377 -55 433 3 38 39 33 18 113 501 29 180 48 321 45 340
-9 47 -40 91 -77 108 -19 9 -190 40 -381 69 -336 51 -348 53 -348 74 0 35 -37
73 -77 81 -67 13 -109 -23 -127 -107 l-5 -25 -143 22 c-183 29 -243 30 -286 4
-39 -24 -68 -82 -78 -157 -8 -63 -2 -62 -179 -33 -120 19 -184 16 -200 -10
-12 -20 -45 -9 -181 60 -199 99 -317 199 -376 318 -19 39 -23 63 -23 137 0 82
3 97 32 155 47 94 99 148 247 259 211 159 351 316 408 460 32 81 32 251 0 335
-34 94 -81 164 -162 247 -67 68 -89 83 -210 142 -292 141 -573 198 -749 151z"/>
<path d="M4318 5723 c-36 -6 -68 -47 -68 -88 0 -43 89 -875 96 -897 20 -66
103 -63 127 4 9 26 -31 926 -43 948 -19 36 -45 43 -112 33z"/>
<path d="M4910 5198 c-47 -76 -210 -408 -210 -427 0 -26 34 -45 58 -32 13 7
227 344 269 423 11 22 -43 68 -82 68 -8 0 -24 -15 -35 -32z"/>
<path d="M5262 4888 c-164 -151 -275 -261 -278 -275 -14 -53 38 -99 87 -77 40
18 578 450 588 473 15 31 6 59 -32 99 -60 63 -61 62 -365 -220z"/>
<path d="M5545 4233 c-23 -6 -53 -30 -65 -54 -10 -17 -171 -987 -173 -1036 -2
-63 39 -103 104 -103 41 0 66 15 84 51 9 16 19 28 23 25 15 -9 540 -86 586
-86 58 0 82 11 121 56 l31 35 175 -27 176 -27 45 21 c50 25 83 74 94 140 5 33
10 41 23 38 52 -15 237 -36 263 -31 16 4 47 23 68 41 l38 35 100 -26 c204 -51
360 -115 487 -200 100 -66 183 -154 221 -232 38 -79 40 -198 5 -287 -31 -78
-130 -177 -275 -276 -407 -278 -512 -577 -311 -880 123 -185 364 -366 585
-440 156 -52 392 -77 435 -47 27 21 12 61 -44 116 -40 39 -62 51 -127 70 -125
36 -327 119 -422 174 -168 96 -252 175 -304 285 -27 56 -30 70 -27 145 7 155
82 261 299 418 392 286 498 567 329 867 -44 78 -168 197 -264 254 -173 103
-412 189 -580 211 -88 11 -91 12 -130 55 l-40 43 -131 21 -131 21 1 73 c1 59
-3 77 -20 101 -36 48 -73 62 -244 88 -157 24 -179 32 -180 63 0 7 -7 26 -15
42 -29 56 -60 65 -370 110 -159 23 -296 44 -302 46 -7 2 -13 14 -13 27 0 27
-32 64 -67 78 -26 9 -26 10 -58 2z"/>
<path d="M4541 3144 c-12 -15 -21 -35 -21 -46 0 -15 187 -637 256 -851 21 -65
51 -84 106 -68 49 15 88 52 88 84 0 20 -266 734 -317 850 -27 62 -77 76 -112
31z"/>
<path d="M3904 3149 c-22 -8 -449 -565 -465 -606 -12 -31 4 -63 45 -91 48 -33
90 -29 120 11 13 17 105 159 205 315 122 191 181 292 181 311 0 48 -41 77 -86
60z"/>
<path d="M4247 3028 c-11 -8 -44 -102 -87 -243 -56 -183 -68 -235 -60 -252 5
-13 15 -23 22 -23 7 0 22 -3 33 -6 43 -11 53 12 105 249 28 125 50 237 50 247
0 11 -9 24 -19 30 -24 13 -24 13 -44 -2z"/>
</g>
</svg>
