<svg width="64" height="65" viewBox="0 0 64 65" fill="none" xmlns="http://www.w3.org/2000/svg">
<path d="M40.0007 24.5543L33.334 31.221M40.0007 24.5543V16.5543L48.0006 8.55432V16.5543H56.0006L48.0006 24.5543H40.0007Z" stroke="#676673" stroke-width="5.33333" stroke-linecap="round" stroke-linejoin="round"/>
<path d="M32.88 8.55432H32C27.2533 8.55432 22.6131 9.9619 18.6663 12.5991C14.7195 15.2362 11.6434 18.9845 9.8269 23.3699C8.0104 27.7553 7.53512 32.5809 8.46116 37.2365C9.38721 41.892 11.673 46.1684 15.0294 49.5249C18.3859 52.8813 22.6623 55.1671 27.3178 56.0932C31.9734 57.0192 36.799 56.5439 41.1844 54.7274C45.5698 52.9109 49.3181 49.8348 51.9553 45.888C54.5924 41.9412 56 37.3011 56 32.5543C56 32.261 56 31.9677 56 31.6743" stroke="#676673" stroke-width="5.33333" stroke-linecap="round" stroke-linejoin="round"/>
<path d="M45.0665 35.221C44.5842 37.5808 43.4717 39.7658 41.8471 41.544C40.2226 43.3222 38.1468 44.6272 35.8401 45.3203C33.5334 46.0134 31.0821 46.0687 28.7465 45.4804C26.4109 44.8921 24.2783 43.6821 22.5752 41.979C20.8721 40.2759 19.6621 38.1433 19.0738 35.8077C18.4855 33.4721 18.5408 31.0208 19.2339 28.7141C19.927 26.4074 21.2319 24.3316 23.0102 22.707C24.7884 21.0825 26.9734 19.97 29.3332 19.4877" stroke="#676673" stroke-width="5.33333" stroke-linecap="round" stroke-linejoin="round"/>
</svg>
