<svg width="406" height="259" viewBox="0 0 406 259" fill="none" xmlns="http://www.w3.org/2000/svg">
<rect x="35.0811" y="1.36694" width="248.628" height="182.528" stroke="#C6C6C6" stroke-width="2" stroke-linejoin="round" stroke-dasharray="3 3"/>
<rect x="60.7051" y="23.3183" width="259.182" height="195.709" fill="#F1F1F1"/>
<rect x="67.0527" y="51.8811" width="246.487" height="162.914" fill="white"/>
<rect x="87.1523" y="73.039" width="204.172" height="118.483" rx="8" fill="#F1F1F1"/>
<rect x="296.613" y="36.0129" width="15.8683" height="4.23154" rx="2.11577" fill="#C4C4C4"/>
<circle cx="69.6974" cy="37.5998" r="2.64471" fill="#C4C4C4"/>
<circle cx="77.1027" cy="37.5998" r="2.64471" fill="#C4C4C4"/>
<circle cx="84.508" cy="37.5998" r="2.64471" fill="#C4C4C4"/>
<rect x="235.414" y="141.747" width="13.7708" height="12.8527" fill="#FF4E42"/>
<rect x="132.593" y="103.189" width="14.6888" height="12.8527" fill="#5236FF"/>
<rect x="254.693" y="180.305" width="15.6069" height="9.18051" fill="#FFB422"/>
<line x1="107.107" y1="89.4176" x2="107.107" y2="178.469" stroke="#CFCFCF"/>
<line x1="148.42" y1="89.4176" x2="148.42" y2="178.469" stroke="#CFCFCF"/>
<line x1="188.813" y1="89.4176" x2="188.813" y2="178.469" stroke="#CFCFCF"/>
<line x1="230.126" y1="89.4176" x2="230.126" y2="178.469" stroke="#CFCFCF"/>
<line x1="270.521" y1="89.4176" x2="270.521" y2="178.469" stroke="#CFCFCF"/>
<line x1="106.607" y1="104.525" x2="270.02" y2="104.525" stroke="#CFCFCF"/>
<line x1="106.607" y1="144.001" x2="270.02" y2="144.001" stroke="#CFCFCF"/>
<line x1="127.305" y1="89.4176" x2="127.305" y2="178.469" stroke="#CFCFCF"/>
<line x1="168.617" y1="89.4176" x2="168.617" y2="178.469" stroke="#CFCFCF"/>
<line x1="209.011" y1="89.4176" x2="209.011" y2="178.469" stroke="#CFCFCF"/>
<line x1="250.323" y1="89.4176" x2="250.323" y2="178.469" stroke="#CFCFCF"/>
<line x1="106.607" y1="124.722" x2="270.02" y2="124.722" stroke="#CFCFCF"/>
<line x1="106.607" y1="164.198" x2="270.02" y2="164.198" stroke="#CFCFCF"/>
<g filter="url(#filter0_d_92_7282)">
<rect x="16" y="103.732" width="182.413" height="123.525" rx="15" fill="#008080"/>
</g>
<g filter="url(#filter1_d_92_7282)">
<rect x="260.84" y="53.6138" width="118.429" height="90.887" rx="9" fill="white"/>
</g>
<rect x="270.938" y="67.3845" width="42.2303" height="3.6722" rx="1.8361" fill="#F1F1F1"/>
<rect x="270.938" y="73.8109" width="18.361" height="3.6722" rx="1.8361" fill="#F1F1F1"/>
<rect x="349.891" y="130.73" width="18.361" height="3.6722" rx="1.8361" fill="#F1F1F1"/>
<path d="M319.595 132.567C314.516 132.567 309.536 131.162 305.205 128.508C300.874 125.854 297.361 122.054 295.056 117.529C292.75 113.003 291.74 107.928 292.139 102.864C292.537 97.8005 294.328 92.9457 297.314 88.8365L307.34 96.1213C305.698 98.3814 304.713 101.052 304.494 103.836C304.275 106.621 304.83 109.413 306.098 111.902C307.367 114.391 309.299 116.481 311.681 117.941C314.062 119.4 316.802 120.173 319.595 120.173L319.595 132.567Z" fill="#FFB422"/>
<path d="M347.306 104.165C347.422 107.87 346.788 111.56 345.444 115.014C344.1 118.468 342.072 121.616 339.482 124.268C336.892 126.92 333.794 129.021 330.372 130.447C326.951 131.873 323.277 132.594 319.57 132.566L319.664 120.172C321.702 120.188 323.723 119.791 325.605 119.007C327.487 118.223 329.191 117.067 330.615 115.608C332.04 114.15 333.155 112.419 333.894 110.519C334.634 108.619 334.982 106.59 334.918 104.552L347.306 104.165Z" fill="#5236FF"/>
<path d="M297.229 88.9717C300.587 84.2915 305.328 80.7818 310.784 78.9365C316.241 77.0911 322.138 77.003 327.648 78.6845C333.157 80.366 338 83.7325 341.496 88.3102C344.992 92.888 346.965 98.4467 347.137 104.204L335.013 104.566C334.917 101.344 333.813 98.2338 331.856 95.6722C329.9 93.1105 327.19 91.2266 324.107 90.2857C321.024 89.3447 317.724 89.394 314.67 90.4267C311.617 91.4593 308.964 93.4233 307.085 96.0423L297.229 88.9717Z" fill="#FF4E42"/>
<rect x="38.0332" y="142.665" width="73.4441" height="6.42636" rx="3.21318" fill="#F1F1F1"/>
<rect x="38.0332" y="153.681" width="32.1318" height="6.42636" rx="3.21318" fill="#F1F1F1"/>
<rect x="150.035" y="144.501" width="35.804" height="6.42636" rx="3.21318" fill="#EDDFFB"/>
<rect x="150.035" y="155.518" width="35.804" height="6.42636" rx="3.21318" fill="#EDDFFB"/>
<rect x="169.237" y="175.448" width="10.4552" height="40.3273" rx="5.22761" fill="white" fill-opacity="0.24"/>
<rect x="169.237" y="195.363" width="10.4552" height="20.4126" rx="5.22761" fill="#FFB422"/>
<rect x="147.829" y="175.448" width="10.4552" height="40.3273" rx="5.22761" fill="white" fill-opacity="0.24"/>
<rect x="147.829" y="203.827" width="10.4552" height="11.9488" rx="5.22761" fill="#FFB422"/>
<rect x="126.421" y="175.448" width="10.4552" height="40.3273" rx="5.22761" fill="white" fill-opacity="0.24"/>
<rect x="126.421" y="187.397" width="10.4552" height="28.3785" rx="5.22761" fill="#FFB422"/>
<rect x="105.013" y="175.448" width="10.4552" height="40.3273" rx="5.22761" fill="white" fill-opacity="0.24"/>
<rect x="105.013" y="190.882" width="10.4552" height="24.8934" rx="5.22761" fill="#FFB422"/>
<rect x="83.6035" y="175.448" width="10.4552" height="40.3273" rx="5.22761" fill="white" fill-opacity="0.24"/>
<rect x="83.6035" y="195.363" width="10.4552" height="20.4126" rx="5.22761" fill="#FFB422"/>
<rect x="62.1953" y="175.448" width="10.4552" height="40.3273" rx="5.22761" fill="white" fill-opacity="0.24"/>
<rect x="62.1953" y="185.405" width="10.4552" height="30.3699" rx="5.22761" fill="#FFB422"/>
<rect x="40.7871" y="175.448" width="10.4552" height="40.3273" rx="5.22761" fill="white" fill-opacity="0.24"/>
<rect x="40.7871" y="200.839" width="10.4552" height="14.936" rx="5.22761" fill="#FFB422"/>
<defs>
<filter id="filter0_d_92_7282" x="0" y="92.7324" width="224.412" height="165.525" filterUnits="userSpaceOnUse" color-interpolation-filters="sRGB">
<feFlood flood-opacity="0" result="BackgroundImageFix"/>
<feColorMatrix in="SourceAlpha" type="matrix" values="0 0 0 0 0 0 0 0 0 0 0 0 0 0 0 0 0 0 127 0" result="hardAlpha"/>
<feOffset dx="5" dy="10"/>
<feGaussianBlur stdDeviation="10.5"/>
<feComposite in2="hardAlpha" operator="out"/>
<feColorMatrix type="matrix" values="0 0 0 0 0.700272 0 0 0 0 0.700272 0 0 0 0 0.700272 0 0 0 0.25 0"/>
<feBlend mode="normal" in2="BackgroundImageFix" result="effect1_dropShadow_92_7282"/>
<feBlend mode="normal" in="SourceGraphic" in2="effect1_dropShadow_92_7282" result="shape"/>
</filter>
<filter id="filter1_d_92_7282" x="244.84" y="42.6138" width="160.429" height="132.887" filterUnits="userSpaceOnUse" color-interpolation-filters="sRGB">
<feFlood flood-opacity="0" result="BackgroundImageFix"/>
<feColorMatrix in="SourceAlpha" type="matrix" values="0 0 0 0 0 0 0 0 0 0 0 0 0 0 0 0 0 0 127 0" result="hardAlpha"/>
<feOffset dx="5" dy="10"/>
<feGaussianBlur stdDeviation="10.5"/>
<feComposite in2="hardAlpha" operator="out"/>
<feColorMatrix type="matrix" values="0 0 0 0 0.700272 0 0 0 0 0.700272 0 0 0 0 0.700272 0 0 0 0.25 0"/>
<feBlend mode="normal" in2="BackgroundImageFix" result="effect1_dropShadow_92_7282"/>
<feBlend mode="normal" in="SourceGraphic" in2="effect1_dropShadow_92_7282" result="shape"/>
</filter>
</defs>
</svg>
