<svg width="65" height="65" viewBox="0 0 65 65" fill="none" xmlns="http://www.w3.org/2000/svg">
<path d="M60.3965 58.0793L6.83398 58.0543L6.85898 4.47932C6.85898 3.06682 5.69648 1.94182 4.29648 1.92932C2.88398 1.92932 1.73398 3.06682 1.73398 4.47932L1.70898 60.6043C1.70898 61.2793 1.98398 61.9293 2.45898 62.4043C2.90898 62.8543 3.49648 63.1168 4.13398 63.1418C4.18398 63.1418 4.22148 63.1418 4.27148 63.1418L60.3965 63.1668C61.809 63.1668 62.959 62.0293 62.959 60.6168C62.959 59.2168 61.809 58.0793 60.3965 58.0793Z" fill="#676673"/>
<path d="M15.1592 50.7918L29.2467 39.0418L47.1967 38.0668C48.1467 38.0168 48.9842 37.4418 49.3842 36.5918L55.8092 22.7793L57.1842 25.7918C58.1967 27.7918 60.0592 27.2793 60.5842 27.0543C61.8842 26.5043 62.4342 24.9543 61.8467 23.6793L57.8717 15.0043C57.0092 13.2168 55.1092 13.3793 54.4467 13.7543L45.9092 17.7793C44.6342 18.3793 44.0842 19.9043 44.6842 21.1793C45.2842 22.4543 46.8217 22.9918 48.0967 22.3918L50.9717 21.0293L45.3842 33.0543L28.1092 33.9918C27.5592 34.0168 27.0342 34.2293 26.6092 34.5793L11.8717 46.8793C10.7842 47.7793 10.6592 49.3793 11.5467 50.4793C12.4217 51.5293 14.1342 51.7043 15.1592 50.7918Z" fill="#676673"/>
</svg>
