<svg width="64" height="64" viewBox="0 0 64 64" fill="none" xmlns="http://www.w3.org/2000/svg">
<path d="M39.9999 24L33.3333 30.6667M39.9999 24V16L47.9999 8V16H55.9999L47.9999 24H39.9999Z" stroke="white" stroke-width="5.33333" stroke-linecap="round" stroke-linejoin="round"/>
<path d="M32.88 8H32C27.2533 8 22.6131 9.40758 18.6663 12.0447C14.7195 14.6819 11.6434 18.4302 9.8269 22.8156C8.0104 27.201 7.53512 32.0266 8.46116 36.6822C9.38721 41.3377 11.673 45.6141 15.0294 48.9706C18.3859 52.327 22.6623 54.6128 27.3178 55.5389C31.9734 56.4649 36.799 55.9896 41.1844 54.1731C45.5698 52.3566 49.3181 49.2805 51.9553 45.3337C54.5924 41.3869 56 36.7468 56 32C56 31.7067 56 31.4133 56 31.12" stroke="white" stroke-width="5.33333" stroke-linecap="round" stroke-linejoin="round"/>
<path d="M45.0667 34.6664C44.5844 37.0262 43.4719 39.2112 41.8474 40.9894C40.2229 42.7677 38.147 44.0726 35.8403 44.7657C33.5337 45.4588 31.0823 45.5141 28.7467 44.9258C26.4111 44.3375 24.2785 43.1275 22.5754 41.4244C20.8723 39.7213 19.6623 37.5887 19.074 35.2531C18.4857 32.9175 18.5411 30.4662 19.2341 28.1595C19.9272 25.8529 21.2322 23.777 23.0104 22.1525C24.7886 20.528 26.9737 19.4154 29.3334 18.9331" stroke="white" stroke-width="5.33333" stroke-linecap="round" stroke-linejoin="round"/>
</svg>
