<svg width="491" height="431" viewBox="0 0 491 431" fill="none" xmlns="http://www.w3.org/2000/svg">
<g opacity="0.4">
<path d="M350.004 3.14472L440.006 0L436.743 86.3069L421.74 85.8038L424.035 25.5037L133.912 303.717L123.303 293.544L413.443 15.3148L350.545 17.5161L350.004 3.14472Z" fill="#009688" style="mix-blend-mode:screen"/>
<path d="M288.647 193.07L288.205 181.12L363.023 178.495L360.317 250.257L347.84 249.833L349.758 199.706L108.562 431L99.7408 422.541L340.953 191.231L288.647 193.07Z" fill="#009688" style="mix-blend-mode:screen"/>
<path d="M391.127 223.416L390.914 217.614L427.233 216.341L425.921 251.184L419.871 250.98L420.789 226.64L303.7 338.922L299.42 334.818L416.509 222.536L391.127 223.416Z" fill="#009688" style="mix-blend-mode:screen"/>
<path d="M235.622 219.659L235.409 213.857L271.727 212.583L270.416 247.411L264.365 247.207L265.284 222.882L148.195 335.149L143.915 331.045L261.02 218.763L235.622 219.659Z" fill="#009688" style="mix-blend-mode:screen"/>
<path d="M170.445 34.3872L170.231 28.5851L206.55 27.3115L205.222 62.1393L199.172 61.9349L200.106 37.6105L83.0173 149.877L78.7378 145.773L195.827 33.4909L170.445 34.3872Z" fill="#009688" style="mix-blend-mode:screen"/>
<path d="M422.575 114.075L422.46 111.134L440.89 110.49L440.218 128.163L437.152 128.069L437.627 115.71L378.206 172.692L376.041 170.601L435.447 113.619L422.575 114.075Z" fill="#009688" style="mix-blend-mode:screen"/>
<path d="M210.354 166.355L210.255 163.415L228.685 162.771L228.013 180.444L224.947 180.349L225.406 167.991L166.001 224.973L163.82 222.882L223.242 165.915L210.354 166.355Z" fill="#009688" style="mix-blend-mode:screen"/>
<path d="M472.668 211.545L472.57 208.605L491 207.96L490.328 225.634L487.261 225.539L487.721 213.181L428.315 270.163L426.135 268.072L485.556 211.105L472.668 211.545Z" fill="#009688" style="mix-blend-mode:screen"/>
<path d="M294.387 5.94339L294.288 3.00307L312.718 2.3584L312.046 20.0317L308.98 19.9217L309.439 7.57864L250.034 64.5453L247.853 62.4698L307.274 5.4874L294.387 5.94339Z" fill="#009688" style="mix-blend-mode:screen"/>
<path d="M248.099 147.409L250.001 97.2821L8.82143 328.576L0 320.117L241.212 88.807L188.907 90.6467L188.464 78.681L263.282 76.0709L260.577 147.834L248.099 147.409Z" fill="#009688" style="mix-blend-mode:screen"/>
</g>
</svg>
