<svg width="417" height="277" viewBox="0 0 417 277" fill="none" xmlns="http://www.w3.org/2000/svg">
<rect x="39.6416" y="50.6388" width="257.501" height="174.285" stroke="#C6C6C6" stroke-width="2" stroke-linejoin="round" stroke-dasharray="3 3"/>
<rect x="78.0596" y="0.366882" width="268.26" height="202.564" fill="#F1F1F1"/>
<rect x="84.6289" y="29.9301" width="255.121" height="168.621" fill="white"/>
<rect x="105.433" y="51.8293" width="211.323" height="122.633" rx="8" fill="#F1F1F1"/>
<rect x="322.231" y="13.506" width="16.4241" height="4.37976" rx="2.18988" fill="#C4C4C4"/>
<rect x="201.788" y="130.665" width="47.0824" height="4.37976" rx="2.18988" fill="white"/>
<rect x="117.478" y="72.6328" width="47.0824" height="4.37976" rx="2.18988" fill="white"/>
<rect x="258.725" y="130.665" width="47.0824" height="4.37976" rx="2.18988" fill="white"/>
<rect x="201.788" y="138.329" width="47.0824" height="4.37976" rx="2.18988" fill="white"/>
<rect x="117.478" y="80.2971" width="47.0824" height="4.37976" rx="2.18988" fill="white"/>
<rect x="258.725" y="138.329" width="47.0824" height="4.37976" rx="2.18988" fill="white"/>
<rect x="201.788" y="145.994" width="26.2786" height="4.37976" rx="2.18988" fill="white"/>
<rect x="117.478" y="87.9623" width="26.2786" height="4.37976" rx="2.18988" fill="white"/>
<rect x="258.725" y="145.994" width="26.2786" height="4.37976" rx="2.18988" fill="white"/>
<circle cx="87.3663" cy="15.1484" r="2.73735" fill="#C4C4C4"/>
<circle cx="95.0313" cy="15.1484" r="2.73735" fill="#C4C4C4"/>
<circle cx="102.695" cy="15.1484" r="2.73735" fill="#C4C4C4"/>
<g filter="url(#filter0_d_92_7232)">
<rect x="16.7432" y="110.956" width="167.526" height="134.678" rx="15" fill="white"/>
</g>
<rect x="34.2627" y="141.614" width="130.298" height="19.7089" rx="4" fill="#EEEEEE"/>
<rect x="34.2617" y="183.222" width="130.298" height="19.7089" rx="4" fill="#EEEEEE"/>
<rect x="34.2617" y="213.88" width="41.6077" height="19.7089" rx="4" fill="#305B80"/>
<path d="M35.1587 133.225C35.07 133.225 35 133.199 34.9487 133.148C34.8974 133.092 34.8717 133.019 34.8717 132.931V128.535C34.8717 128.451 34.8974 128.383 34.9487 128.332C35.0047 128.28 35.077 128.255 35.1657 128.255H36.8247C37.3427 128.255 37.744 128.381 38.0287 128.633C38.318 128.885 38.4627 129.242 38.4627 129.704C38.4627 130.166 38.318 130.525 38.0287 130.782C37.7394 131.038 37.338 131.167 36.8247 131.167H35.4457V132.931C35.4457 133.019 35.42 133.092 35.3687 133.148C35.3174 133.199 35.2474 133.225 35.1587 133.225ZM36.7687 130.691C37.52 130.691 37.8957 130.362 37.8957 129.704C37.8957 129.055 37.52 128.731 36.7687 128.731H35.4457V130.691H36.7687ZM40.6172 129.697C41.4712 129.697 41.8982 130.145 41.8982 131.041V132.945C41.8982 133.029 41.8726 133.096 41.8212 133.148C41.7746 133.199 41.7092 133.225 41.6252 133.225C41.5412 133.225 41.4736 133.199 41.4222 133.148C41.3709 133.096 41.3452 133.029 41.3452 132.945V132.609C41.2566 132.809 41.1212 132.966 40.9392 133.078C40.7572 133.185 40.5472 133.239 40.3092 133.239C40.0899 133.239 39.8869 133.194 39.7002 133.106C39.5182 133.017 39.3736 132.893 39.2662 132.735C39.1589 132.576 39.1052 132.401 39.1052 132.21C39.1052 131.953 39.1706 131.755 39.3012 131.615C39.4319 131.47 39.6466 131.367 39.9452 131.307C40.2439 131.241 40.6592 131.209 41.1912 131.209H41.3452V130.978C41.3452 130.698 41.2869 130.492 41.1702 130.362C41.0582 130.231 40.8739 130.166 40.6172 130.166C40.2999 130.166 39.9779 130.252 39.6512 130.425C39.5252 130.504 39.4366 130.544 39.3852 130.544C39.3292 130.544 39.2826 130.523 39.2452 130.481C39.2079 130.439 39.1892 130.385 39.1892 130.32C39.1892 130.254 39.2079 130.198 39.2452 130.152C39.2872 130.1 39.3526 130.049 39.4412 129.998C39.6046 129.904 39.7889 129.832 39.9942 129.781C40.2042 129.725 40.4119 129.697 40.6172 129.697ZM40.3862 132.791C40.6662 132.791 40.8949 132.697 41.0722 132.511C41.2542 132.319 41.3452 132.074 41.3452 131.776V131.573H41.2192C40.8086 131.573 40.4959 131.591 40.2812 131.629C40.0666 131.661 39.9126 131.72 39.8192 131.804C39.7306 131.883 39.6862 132.002 39.6862 132.161C39.6862 132.343 39.7516 132.494 39.8822 132.616C40.0176 132.732 40.1856 132.791 40.3862 132.791ZM44.0841 133.239C43.8695 133.239 43.6641 133.213 43.4681 133.162C43.2768 133.11 43.1065 133.038 42.9571 132.945C42.8731 132.889 42.8125 132.837 42.7751 132.791C42.7425 132.739 42.7261 132.679 42.7261 132.609C42.7261 132.548 42.7425 132.499 42.7751 132.462C42.8125 132.42 42.8591 132.399 42.9151 132.399C42.9711 132.399 43.0528 132.434 43.1601 132.504C43.3001 132.588 43.4378 132.655 43.5731 132.707C43.7131 132.753 43.8858 132.777 44.0911 132.777C44.3431 132.777 44.5391 132.732 44.6791 132.644C44.8191 132.555 44.8891 132.427 44.8891 132.259C44.8891 132.156 44.8635 132.074 44.8121 132.014C44.7608 131.948 44.6721 131.892 44.5461 131.846C44.4201 131.794 44.2358 131.743 43.9931 131.692C43.5825 131.603 43.2885 131.484 43.1111 131.335C42.9338 131.185 42.8451 130.982 42.8451 130.726C42.8451 130.525 42.9011 130.348 43.0131 130.194C43.1251 130.04 43.2791 129.918 43.4751 129.83C43.6758 129.741 43.9021 129.697 44.1541 129.697C44.3361 129.697 44.5111 129.722 44.6791 129.774C44.8518 129.82 45.0035 129.888 45.1341 129.977C45.2928 130.089 45.3721 130.205 45.3721 130.327C45.3721 130.387 45.3535 130.439 45.3161 130.481C45.2788 130.523 45.2345 130.544 45.1831 130.544C45.1271 130.544 45.0431 130.504 44.9311 130.425C44.8005 130.341 44.6768 130.275 44.5601 130.229C44.4435 130.182 44.2988 130.159 44.1261 130.159C43.9068 130.159 43.7295 130.208 43.5941 130.306C43.4635 130.404 43.3981 130.534 43.3981 130.698C43.3981 130.8 43.4215 130.884 43.4681 130.95C43.5195 131.01 43.6011 131.066 43.7131 131.118C43.8298 131.164 43.9955 131.211 44.2101 131.258C44.5275 131.328 44.7725 131.405 44.9451 131.489C45.1225 131.573 45.2485 131.675 45.3231 131.797C45.3978 131.918 45.4351 132.072 45.4351 132.259C45.4351 132.553 45.3115 132.791 45.0641 132.973C44.8168 133.15 44.4901 133.239 44.0841 133.239ZM47.4474 133.239C47.2327 133.239 47.0274 133.213 46.8314 133.162C46.6401 133.11 46.4697 133.038 46.3204 132.945C46.2364 132.889 46.1757 132.837 46.1384 132.791C46.1057 132.739 46.0894 132.679 46.0894 132.609C46.0894 132.548 46.1057 132.499 46.1384 132.462C46.1757 132.42 46.2224 132.399 46.2784 132.399C46.3344 132.399 46.4161 132.434 46.5234 132.504C46.6634 132.588 46.8011 132.655 46.9364 132.707C47.0764 132.753 47.2491 132.777 47.4544 132.777C47.7064 132.777 47.9024 132.732 48.0424 132.644C48.1824 132.555 48.2524 132.427 48.2524 132.259C48.2524 132.156 48.2267 132.074 48.1754 132.014C48.1241 131.948 48.0354 131.892 47.9094 131.846C47.7834 131.794 47.5991 131.743 47.3564 131.692C46.9457 131.603 46.6517 131.484 46.4744 131.335C46.2971 131.185 46.2084 130.982 46.2084 130.726C46.2084 130.525 46.2644 130.348 46.3764 130.194C46.4884 130.04 46.6424 129.918 46.8384 129.83C47.0391 129.741 47.2654 129.697 47.5174 129.697C47.6994 129.697 47.8744 129.722 48.0424 129.774C48.2151 129.82 48.3667 129.888 48.4974 129.977C48.6561 130.089 48.7354 130.205 48.7354 130.327C48.7354 130.387 48.7167 130.439 48.6794 130.481C48.6421 130.523 48.5977 130.544 48.5464 130.544C48.4904 130.544 48.4064 130.504 48.2944 130.425C48.1637 130.341 48.0401 130.275 47.9234 130.229C47.8067 130.182 47.6621 130.159 47.4894 130.159C47.2701 130.159 47.0927 130.208 46.9574 130.306C46.8267 130.404 46.7614 130.534 46.7614 130.698C46.7614 130.8 46.7847 130.884 46.8314 130.95C46.8827 131.01 46.9644 131.066 47.0764 131.118C47.1931 131.164 47.3587 131.211 47.5734 131.258C47.8907 131.328 48.1357 131.405 48.3084 131.489C48.4857 131.573 48.6117 131.675 48.6864 131.797C48.7611 131.918 48.7984 132.072 48.7984 132.259C48.7984 132.553 48.6747 132.791 48.4274 132.973C48.1801 133.15 47.8534 133.239 47.4474 133.239ZM54.2632 129.893C54.3098 129.781 54.3868 129.725 54.4942 129.725C54.5642 129.725 54.6272 129.748 54.6832 129.795C54.7392 129.841 54.7672 129.9 54.7672 129.97C54.7672 130.002 54.7602 130.037 54.7462 130.075L53.5842 133.015C53.5562 133.075 53.5142 133.124 53.4582 133.162C53.4068 133.194 53.3485 133.211 53.2832 133.211C53.2225 133.211 53.1642 133.194 53.1082 133.162C53.0568 133.124 53.0172 133.075 52.9892 133.015L52.0232 130.558L51.0642 133.015C51.0408 133.075 51.0012 133.124 50.9452 133.162C50.8892 133.194 50.8285 133.211 50.7632 133.211C50.7025 133.211 50.6442 133.194 50.5882 133.162C50.5322 133.124 50.4902 133.075 50.4622 133.015L49.3002 130.082C49.2862 130.044 49.2792 130.012 49.2792 129.984C49.2792 129.909 49.3095 129.846 49.3702 129.795C49.4355 129.743 49.5055 129.718 49.5802 129.718C49.6922 129.718 49.7715 129.774 49.8182 129.886L50.7772 132.469L51.7642 129.907C51.7922 129.846 51.8295 129.799 51.8762 129.767C51.9275 129.734 51.9812 129.718 52.0372 129.718C52.0978 129.718 52.1515 129.734 52.1982 129.767C52.2495 129.799 52.2868 129.846 52.3102 129.907L53.2972 132.462L54.2632 129.893ZM56.8667 133.239C56.5447 133.239 56.2601 133.166 56.0127 133.022C55.7701 132.877 55.5811 132.672 55.4457 132.406C55.3151 132.135 55.2497 131.822 55.2497 131.468C55.2497 131.113 55.3151 130.803 55.4457 130.537C55.5811 130.266 55.7701 130.058 56.0127 129.914C56.2601 129.769 56.5447 129.697 56.8667 129.697C57.1887 129.697 57.4734 129.769 57.7207 129.914C57.9681 130.058 58.1571 130.266 58.2877 130.537C58.4231 130.803 58.4907 131.113 58.4907 131.468C58.4907 131.822 58.4231 132.135 58.2877 132.406C58.1571 132.672 57.9681 132.877 57.7207 133.022C57.4734 133.166 57.1887 133.239 56.8667 133.239ZM56.8667 132.77C57.2027 132.77 57.4594 132.66 57.6367 132.441C57.8187 132.217 57.9097 131.892 57.9097 131.468C57.9097 131.052 57.8187 130.733 57.6367 130.509C57.4547 130.28 57.1981 130.166 56.8667 130.166C56.5354 130.166 56.2787 130.28 56.0967 130.509C55.9147 130.733 55.8237 131.052 55.8237 131.468C55.8237 131.888 55.9124 132.21 56.0897 132.434C56.2717 132.658 56.5307 132.77 56.8667 132.77ZM61.0225 129.711C61.2185 129.697 61.3165 129.776 61.3165 129.949C61.3165 130.023 61.2955 130.084 61.2535 130.131C61.2115 130.173 61.1392 130.198 61.0365 130.208L60.8265 130.229C60.5139 130.257 60.2805 130.369 60.1265 130.565C59.9772 130.756 59.9025 130.982 59.9025 131.244V132.945C59.9025 133.038 59.8769 133.108 59.8255 133.155C59.7742 133.201 59.7065 133.225 59.6225 133.225C59.5385 133.225 59.4685 133.201 59.4125 133.155C59.3612 133.103 59.3355 133.033 59.3355 132.945V129.991C59.3355 129.902 59.3635 129.834 59.4195 129.788C59.4755 129.736 59.5432 129.711 59.6225 129.711C59.6972 129.711 59.7602 129.736 59.8115 129.788C59.8629 129.834 59.8885 129.9 59.8885 129.984V130.376C59.9865 130.17 60.1242 130.014 60.3015 129.907C60.4835 129.799 60.6912 129.736 60.9245 129.718L61.0225 129.711ZM64.472 128.22C64.5606 128.22 64.6306 128.245 64.682 128.297C64.7333 128.348 64.759 128.413 64.759 128.493V132.945C64.759 133.029 64.7333 133.096 64.682 133.148C64.6306 133.199 64.5606 133.225 64.472 133.225C64.3833 133.225 64.3133 133.199 64.262 133.148C64.2153 133.096 64.192 133.029 64.192 132.945V132.567C64.0893 132.781 63.9376 132.947 63.737 133.064C63.541 133.18 63.31 133.239 63.044 133.239C62.7453 133.239 62.4816 133.164 62.253 133.015C62.0243 132.865 61.847 132.658 61.721 132.392C61.595 132.121 61.532 131.808 61.532 131.454C61.532 131.104 61.595 130.796 61.721 130.53C61.847 130.264 62.0243 130.058 62.253 129.914C62.4816 129.769 62.7453 129.697 63.044 129.697C63.31 129.697 63.541 129.755 63.737 129.872C63.9376 129.988 64.0893 130.154 64.192 130.369V128.493C64.192 128.409 64.2153 128.343 64.262 128.297C64.3133 128.245 64.3833 128.22 64.472 128.22ZM63.156 132.77C63.4873 132.77 63.7416 132.658 63.919 132.434C64.101 132.205 64.192 131.883 64.192 131.468C64.192 131.052 64.101 130.733 63.919 130.509C63.7416 130.285 63.4873 130.173 63.156 130.173C62.8246 130.173 62.5656 130.285 62.379 130.509C62.197 130.733 62.106 131.048 62.106 131.454C62.106 131.869 62.197 132.193 62.379 132.427C62.5656 132.655 62.8246 132.77 63.156 132.77Z" fill="black"/>
<path d="M36.9647 174.853C36.498 174.853 36.0944 174.753 35.7537 174.552C35.413 174.347 35.1494 174.055 34.9627 173.677C34.7807 173.295 34.6897 172.844 34.6897 172.326C34.6897 171.813 34.7807 171.367 34.9627 170.989C35.1494 170.607 35.413 170.315 35.7537 170.114C36.0944 169.909 36.498 169.806 36.9647 169.806C37.2774 169.806 37.5714 169.858 37.8467 169.96C38.1267 170.058 38.3694 170.201 38.5747 170.387C38.6494 170.457 38.6867 170.539 38.6867 170.632C38.6867 170.698 38.668 170.756 38.6307 170.807C38.5934 170.854 38.549 170.877 38.4977 170.877C38.4417 170.877 38.374 170.852 38.2947 170.8C38.0567 170.614 37.8397 170.483 37.6437 170.408C37.4524 170.334 37.2307 170.296 36.9787 170.296C36.4374 170.296 36.0197 170.474 35.7257 170.828C35.4364 171.178 35.2917 171.678 35.2917 172.326C35.2917 172.98 35.4364 173.484 35.7257 173.838C36.0197 174.188 36.4374 174.363 36.9787 174.363C37.226 174.363 37.4477 174.326 37.6437 174.251C37.8397 174.177 38.0567 174.046 38.2947 173.859C38.374 173.808 38.4417 173.782 38.4977 173.782C38.549 173.782 38.5934 173.806 38.6307 173.852C38.668 173.899 38.6867 173.957 38.6867 174.027C38.6867 174.121 38.6494 174.202 38.5747 174.272C38.3694 174.459 38.1267 174.604 37.8467 174.706C37.5714 174.804 37.2774 174.853 36.9647 174.853ZM40.8706 174.846C40.5486 174.846 40.264 174.774 40.0166 174.629C39.774 174.485 39.585 174.279 39.4496 174.013C39.319 173.743 39.2536 173.43 39.2536 173.075C39.2536 172.721 39.319 172.41 39.4496 172.144C39.585 171.874 39.774 171.666 40.0166 171.521C40.264 171.377 40.5486 171.304 40.8706 171.304C41.1926 171.304 41.4773 171.377 41.7246 171.521C41.972 171.666 42.161 171.874 42.2916 172.144C42.427 172.41 42.4946 172.721 42.4946 173.075C42.4946 173.43 42.427 173.743 42.2916 174.013C42.161 174.279 41.972 174.485 41.7246 174.629C41.4773 174.774 41.1926 174.846 40.8706 174.846ZM40.8706 174.377C41.2066 174.377 41.4633 174.268 41.6406 174.048C41.8226 173.824 41.9136 173.5 41.9136 173.075C41.9136 172.66 41.8226 172.34 41.6406 172.116C41.4586 171.888 41.202 171.773 40.8706 171.773C40.5393 171.773 40.2826 171.888 40.1006 172.116C39.9186 172.34 39.8276 172.66 39.8276 173.075C39.8276 173.495 39.9163 173.817 40.0936 174.041C40.2756 174.265 40.5346 174.377 40.8706 174.377ZM45.0545 171.304C45.8711 171.304 46.2795 171.755 46.2795 172.655V174.552C46.2795 174.641 46.2538 174.711 46.2025 174.762C46.1558 174.809 46.0881 174.832 45.9995 174.832C45.9108 174.832 45.8408 174.809 45.7895 174.762C45.7381 174.711 45.7125 174.641 45.7125 174.552V172.69C45.7125 172.373 45.6495 172.142 45.5235 171.997C45.4021 171.853 45.2061 171.78 44.9355 171.78C44.6228 171.78 44.3731 171.876 44.1865 172.067C43.9998 172.259 43.9065 172.518 43.9065 172.844V174.552C43.9065 174.641 43.8808 174.711 43.8295 174.762C43.7828 174.809 43.7151 174.832 43.6265 174.832C43.5378 174.832 43.4678 174.809 43.4165 174.762C43.3651 174.711 43.3395 174.641 43.3395 174.552V171.598C43.3395 171.514 43.3651 171.447 43.4165 171.395C43.4678 171.344 43.5378 171.318 43.6265 171.318C43.7105 171.318 43.7758 171.344 43.8225 171.395C43.8738 171.447 43.8995 171.512 43.8995 171.591V171.948C44.0115 171.738 44.1678 171.58 44.3685 171.472C44.5691 171.36 44.7978 171.304 45.0545 171.304ZM49.929 171.388C50.0083 171.388 50.069 171.409 50.111 171.451C50.153 171.493 50.174 171.549 50.174 171.619V174.552C50.174 174.641 50.146 174.711 50.09 174.762C50.0386 174.809 49.9733 174.832 49.894 174.832C49.81 174.832 49.74 174.809 49.684 174.762C49.6326 174.711 49.607 174.641 49.607 174.552V171.836H48.074V174.552C48.074 174.641 48.046 174.711 47.99 174.762C47.9386 174.809 47.8733 174.832 47.794 174.832C47.71 174.832 47.64 174.809 47.584 174.762C47.5326 174.711 47.507 174.641 47.507 174.552V171.836H47.038C46.9586 171.836 46.8956 171.818 46.849 171.78C46.807 171.738 46.786 171.685 46.786 171.619C46.786 171.549 46.807 171.493 46.849 171.451C46.8956 171.409 46.9586 171.388 47.038 171.388H47.507V171.269C47.507 170.849 47.612 170.52 47.822 170.282C48.032 170.04 48.333 169.902 48.725 169.869L48.893 169.855C49.117 169.837 49.229 169.907 49.229 170.065C49.229 170.201 49.1496 170.278 48.991 170.296L48.823 170.31C48.5756 170.329 48.389 170.408 48.263 170.548C48.137 170.684 48.074 170.889 48.074 171.164V171.388H49.929ZM49.894 169.876C50.0013 169.876 50.09 169.909 50.16 169.974C50.2346 170.04 50.272 170.124 50.272 170.226C50.272 170.334 50.237 170.42 50.167 170.485C50.097 170.551 50.006 170.583 49.894 170.583C49.782 170.583 49.691 170.551 49.621 170.485C49.551 170.42 49.516 170.334 49.516 170.226C49.516 170.124 49.551 170.04 49.621 169.974C49.691 169.909 49.782 169.876 49.894 169.876ZM52.9151 171.318C53.1111 171.304 53.2091 171.384 53.2091 171.556C53.2091 171.631 53.1881 171.692 53.1461 171.738C53.1041 171.78 53.0318 171.806 52.9291 171.815L52.7191 171.836C52.4065 171.864 52.1731 171.976 52.0191 172.172C51.8698 172.364 51.7951 172.59 51.7951 172.851V174.552C51.7951 174.646 51.7695 174.716 51.7181 174.762C51.6668 174.809 51.5991 174.832 51.5151 174.832C51.4311 174.832 51.3611 174.809 51.3051 174.762C51.2538 174.711 51.2281 174.641 51.2281 174.552V171.598C51.2281 171.51 51.2561 171.442 51.3121 171.395C51.3681 171.344 51.4358 171.318 51.5151 171.318C51.5898 171.318 51.6528 171.344 51.7041 171.395C51.7555 171.442 51.7811 171.507 51.7811 171.591V171.983C51.8791 171.778 52.0168 171.622 52.1941 171.514C52.3761 171.407 52.5838 171.344 52.8171 171.325L52.9151 171.318ZM57.4899 171.304C58.2459 171.304 58.6239 171.755 58.6239 172.655V174.552C58.6239 174.641 58.5982 174.711 58.5469 174.762C58.4956 174.809 58.4279 174.832 58.3439 174.832C58.2599 174.832 58.1899 174.809 58.1339 174.762C58.0826 174.711 58.0569 174.641 58.0569 174.552V172.669C58.0569 172.357 58.0009 172.13 57.8889 171.99C57.7769 171.85 57.6019 171.78 57.3639 171.78C57.0792 171.78 56.8552 171.876 56.6919 172.067C56.5286 172.259 56.4469 172.518 56.4469 172.844V174.552C56.4469 174.641 56.4189 174.711 56.3629 174.762C56.3116 174.809 56.2439 174.832 56.1599 174.832C56.0759 174.832 56.0082 174.809 55.9569 174.762C55.9056 174.711 55.8799 174.641 55.8799 174.552V172.669C55.8799 172.357 55.8239 172.13 55.7119 171.99C55.5999 171.85 55.4226 171.78 55.1799 171.78C54.8999 171.78 54.6759 171.876 54.5079 172.067C54.3446 172.259 54.2629 172.518 54.2629 172.844V174.552C54.2629 174.641 54.2372 174.711 54.1859 174.762C54.1346 174.809 54.0669 174.832 53.9829 174.832C53.8989 174.832 53.8289 174.809 53.7729 174.762C53.7216 174.711 53.6959 174.641 53.6959 174.552V171.598C53.6959 171.514 53.7216 171.447 53.7729 171.395C53.8289 171.344 53.8989 171.318 53.9829 171.318C54.0622 171.318 54.1276 171.344 54.1789 171.395C54.2302 171.442 54.2559 171.507 54.2559 171.591V171.927C54.3586 171.727 54.5009 171.573 54.6829 171.465C54.8649 171.358 55.0749 171.304 55.3129 171.304C55.8449 171.304 56.1926 171.528 56.3559 171.976C56.4539 171.771 56.6032 171.608 56.8039 171.486C57.0046 171.365 57.2332 171.304 57.4899 171.304ZM61.8325 174.832C61.7439 174.832 61.6739 174.807 61.6225 174.755C61.5712 174.699 61.5455 174.627 61.5455 174.538V170.142C61.5455 170.058 61.5712 169.991 61.6225 169.939C61.6785 169.888 61.7509 169.862 61.8395 169.862H63.4985C64.0165 169.862 64.4179 169.988 64.7025 170.24C64.9919 170.492 65.1365 170.849 65.1365 171.311C65.1365 171.773 64.9919 172.133 64.7025 172.389C64.4132 172.646 64.0119 172.774 63.4985 172.774H62.1195V174.538C62.1195 174.627 62.0939 174.699 62.0425 174.755C61.9912 174.807 61.9212 174.832 61.8325 174.832ZM63.4425 172.298C64.1939 172.298 64.5695 171.969 64.5695 171.311C64.5695 170.663 64.1939 170.338 63.4425 170.338H62.1195V172.298H63.4425ZM67.291 171.304C68.145 171.304 68.572 171.752 68.572 172.648V174.552C68.572 174.636 68.5464 174.704 68.495 174.755C68.4484 174.807 68.383 174.832 68.299 174.832C68.215 174.832 68.1474 174.807 68.096 174.755C68.0447 174.704 68.019 174.636 68.019 174.552V174.216C67.9304 174.417 67.795 174.573 67.613 174.685C67.431 174.793 67.221 174.846 66.983 174.846C66.7637 174.846 66.5607 174.802 66.374 174.713C66.192 174.625 66.0474 174.501 65.94 174.342C65.8327 174.184 65.779 174.009 65.779 173.817C65.779 173.561 65.8444 173.362 65.975 173.222C66.1057 173.078 66.3204 172.975 66.619 172.914C66.9177 172.849 67.333 172.816 67.865 172.816H68.019V172.585C68.019 172.305 67.9607 172.1 67.844 171.969C67.732 171.839 67.5477 171.773 67.291 171.773C66.9737 171.773 66.6517 171.86 66.325 172.032C66.199 172.112 66.1104 172.151 66.059 172.151C66.003 172.151 65.9564 172.13 65.919 172.088C65.8817 172.046 65.863 171.993 65.863 171.927C65.863 171.862 65.8817 171.806 65.919 171.759C65.961 171.708 66.0264 171.657 66.115 171.605C66.2784 171.512 66.4627 171.44 66.668 171.388C66.878 171.332 67.0857 171.304 67.291 171.304ZM67.06 174.398C67.34 174.398 67.5687 174.305 67.746 174.118C67.928 173.927 68.019 173.682 68.019 173.383V173.18H67.893C67.4824 173.18 67.1697 173.199 66.955 173.236C66.7404 173.269 66.5864 173.327 66.493 173.411C66.4044 173.491 66.36 173.61 66.36 173.768C66.36 173.95 66.4254 174.102 66.556 174.223C66.6914 174.34 66.8594 174.398 67.06 174.398ZM70.758 174.846C70.5433 174.846 70.338 174.821 70.142 174.769C69.9506 174.718 69.7803 174.646 69.631 174.552C69.547 174.496 69.4863 174.445 69.449 174.398C69.4163 174.347 69.4 174.286 69.4 174.216C69.4 174.156 69.4163 174.107 69.449 174.069C69.4863 174.027 69.533 174.006 69.589 174.006C69.645 174.006 69.7266 174.041 69.834 174.111C69.974 174.195 70.1116 174.263 70.247 174.314C70.387 174.361 70.5596 174.384 70.765 174.384C71.017 174.384 71.213 174.34 71.353 174.251C71.493 174.163 71.563 174.034 71.563 173.866C71.563 173.764 71.5373 173.682 71.486 173.621C71.4346 173.556 71.346 173.5 71.22 173.453C71.094 173.402 70.9096 173.351 70.667 173.299C70.2563 173.211 69.9623 173.092 69.785 172.942C69.6076 172.793 69.519 172.59 69.519 172.333C69.519 172.133 69.575 171.955 69.687 171.801C69.799 171.647 69.953 171.526 70.149 171.437C70.3496 171.349 70.576 171.304 70.828 171.304C71.01 171.304 71.185 171.33 71.353 171.381C71.5256 171.428 71.6773 171.496 71.808 171.584C71.9666 171.696 72.046 171.813 72.046 171.934C72.046 171.995 72.0273 172.046 71.99 172.088C71.9526 172.13 71.9083 172.151 71.857 172.151C71.801 172.151 71.717 172.112 71.605 172.032C71.4743 171.948 71.3506 171.883 71.234 171.836C71.1173 171.79 70.9726 171.766 70.8 171.766C70.5806 171.766 70.4033 171.815 70.268 171.913C70.1373 172.011 70.072 172.142 70.072 172.305C70.072 172.408 70.0953 172.492 70.142 172.557C70.1933 172.618 70.275 172.674 70.387 172.725C70.5036 172.772 70.6693 172.819 70.884 172.865C71.2013 172.935 71.4463 173.012 71.619 173.096C71.7963 173.18 71.9223 173.283 71.997 173.404C72.0716 173.526 72.109 173.68 72.109 173.866C72.109 174.16 71.9853 174.398 71.738 174.58C71.4906 174.758 71.164 174.846 70.758 174.846ZM74.1212 174.846C73.9066 174.846 73.7012 174.821 73.5052 174.769C73.3139 174.718 73.1436 174.646 72.9942 174.552C72.9102 174.496 72.8496 174.445 72.8122 174.398C72.7796 174.347 72.7632 174.286 72.7632 174.216C72.7632 174.156 72.7796 174.107 72.8122 174.069C72.8496 174.027 72.8962 174.006 72.9522 174.006C73.0082 174.006 73.0899 174.041 73.1972 174.111C73.3372 174.195 73.4749 174.263 73.6102 174.314C73.7502 174.361 73.9229 174.384 74.1282 174.384C74.3802 174.384 74.5762 174.34 74.7162 174.251C74.8562 174.163 74.9262 174.034 74.9262 173.866C74.9262 173.764 74.9006 173.682 74.8492 173.621C74.7979 173.556 74.7092 173.5 74.5832 173.453C74.4572 173.402 74.2729 173.351 74.0302 173.299C73.6196 173.211 73.3256 173.092 73.1482 172.942C72.9709 172.793 72.8822 172.59 72.8822 172.333C72.8822 172.133 72.9382 171.955 73.0502 171.801C73.1622 171.647 73.3162 171.526 73.5122 171.437C73.7129 171.349 73.9392 171.304 74.1912 171.304C74.3732 171.304 74.5482 171.33 74.7162 171.381C74.8889 171.428 75.0406 171.496 75.1712 171.584C75.3299 171.696 75.4092 171.813 75.4092 171.934C75.4092 171.995 75.3906 172.046 75.3532 172.088C75.3159 172.13 75.2716 172.151 75.2202 172.151C75.1642 172.151 75.0802 172.112 74.9682 172.032C74.8376 171.948 74.7139 171.883 74.5972 171.836C74.4806 171.79 74.3359 171.766 74.1632 171.766C73.9439 171.766 73.7666 171.815 73.6312 171.913C73.5006 172.011 73.4352 172.142 73.4352 172.305C73.4352 172.408 73.4586 172.492 73.5052 172.557C73.5566 172.618 73.6382 172.674 73.7502 172.725C73.8669 172.772 74.0326 172.819 74.2472 172.865C74.5646 172.935 74.8096 173.012 74.9822 173.096C75.1596 173.18 75.2856 173.283 75.3602 173.404C75.4349 173.526 75.4722 173.68 75.4722 173.866C75.4722 174.16 75.3486 174.398 75.1012 174.58C74.8539 174.758 74.5272 174.846 74.1212 174.846ZM80.937 171.5C80.9837 171.388 81.0607 171.332 81.168 171.332C81.238 171.332 81.301 171.356 81.357 171.402C81.413 171.449 81.441 171.507 81.441 171.577C81.441 171.61 81.434 171.645 81.42 171.682L80.258 174.622C80.23 174.683 80.188 174.732 80.132 174.769C80.0807 174.802 80.0223 174.818 79.957 174.818C79.8963 174.818 79.838 174.802 79.782 174.769C79.7307 174.732 79.691 174.683 79.663 174.622L78.697 172.165L77.738 174.622C77.7147 174.683 77.675 174.732 77.619 174.769C77.563 174.802 77.5023 174.818 77.437 174.818C77.3763 174.818 77.318 174.802 77.262 174.769C77.206 174.732 77.164 174.683 77.136 174.622L75.974 171.689C75.96 171.652 75.953 171.619 75.953 171.591C75.953 171.517 75.9833 171.454 76.044 171.402C76.1093 171.351 76.1793 171.325 76.254 171.325C76.366 171.325 76.4453 171.381 76.492 171.493L77.451 174.076L78.438 171.514C78.466 171.454 78.5033 171.407 78.55 171.374C78.6013 171.342 78.655 171.325 78.711 171.325C78.7717 171.325 78.8253 171.342 78.872 171.374C78.9233 171.407 78.9607 171.454 78.984 171.514L79.971 174.069L80.937 171.5ZM83.5406 174.846C83.2186 174.846 82.9339 174.774 82.6866 174.629C82.4439 174.485 82.2549 174.279 82.1196 174.013C81.9889 173.743 81.9236 173.43 81.9236 173.075C81.9236 172.721 81.9889 172.41 82.1196 172.144C82.2549 171.874 82.4439 171.666 82.6866 171.521C82.9339 171.377 83.2186 171.304 83.5406 171.304C83.8626 171.304 84.1472 171.377 84.3946 171.521C84.6419 171.666 84.8309 171.874 84.9616 172.144C85.0969 172.41 85.1646 172.721 85.1646 173.075C85.1646 173.43 85.0969 173.743 84.9616 174.013C84.8309 174.279 84.6419 174.485 84.3946 174.629C84.1472 174.774 83.8626 174.846 83.5406 174.846ZM83.5406 174.377C83.8766 174.377 84.1332 174.268 84.3106 174.048C84.4926 173.824 84.5836 173.5 84.5836 173.075C84.5836 172.66 84.4926 172.34 84.3106 172.116C84.1286 171.888 83.8719 171.773 83.5406 171.773C83.2092 171.773 82.9526 171.888 82.7706 172.116C82.5886 172.34 82.4976 172.66 82.4976 173.075C82.4976 173.495 82.5862 173.817 82.7636 174.041C82.9456 174.265 83.2046 174.377 83.5406 174.377ZM87.6964 171.318C87.8924 171.304 87.9904 171.384 87.9904 171.556C87.9904 171.631 87.9694 171.692 87.9274 171.738C87.8854 171.78 87.813 171.806 87.7104 171.815L87.5004 171.836C87.1877 171.864 86.9544 171.976 86.8004 172.172C86.651 172.364 86.5764 172.59 86.5764 172.851V174.552C86.5764 174.646 86.5507 174.716 86.4994 174.762C86.448 174.809 86.3804 174.832 86.2964 174.832C86.2124 174.832 86.1424 174.809 86.0864 174.762C86.035 174.711 86.0094 174.641 86.0094 174.552V171.598C86.0094 171.51 86.0374 171.442 86.0934 171.395C86.1494 171.344 86.217 171.318 86.2964 171.318C86.371 171.318 86.434 171.344 86.4854 171.395C86.5367 171.442 86.5624 171.507 86.5624 171.591V171.983C86.6604 171.778 86.798 171.622 86.9754 171.514C87.1574 171.407 87.365 171.344 87.5984 171.325L87.6964 171.318ZM91.1458 169.827C91.2345 169.827 91.3045 169.853 91.3558 169.904C91.4071 169.956 91.4328 170.021 91.4328 170.1V174.552C91.4328 174.636 91.4071 174.704 91.3558 174.755C91.3045 174.807 91.2345 174.832 91.1458 174.832C91.0571 174.832 90.9871 174.807 90.9358 174.755C90.8891 174.704 90.8658 174.636 90.8658 174.552V174.174C90.7631 174.389 90.6115 174.555 90.4108 174.671C90.2148 174.788 89.9838 174.846 89.7178 174.846C89.4191 174.846 89.1555 174.772 88.9268 174.622C88.6981 174.473 88.5208 174.265 88.3948 173.999C88.2688 173.729 88.2058 173.416 88.2058 173.061C88.2058 172.711 88.2688 172.403 88.3948 172.137C88.5208 171.871 88.6981 171.666 88.9268 171.521C89.1555 171.377 89.4191 171.304 89.7178 171.304C89.9838 171.304 90.2148 171.363 90.4108 171.479C90.6115 171.596 90.7631 171.762 90.8658 171.976V170.1C90.8658 170.016 90.8891 169.951 90.9358 169.904C90.9871 169.853 91.0571 169.827 91.1458 169.827ZM89.8298 174.377C90.1611 174.377 90.4155 174.265 90.5928 174.041C90.7748 173.813 90.8658 173.491 90.8658 173.075C90.8658 172.66 90.7748 172.34 90.5928 172.116C90.4155 171.892 90.1611 171.78 89.8298 171.78C89.4985 171.78 89.2395 171.892 89.0528 172.116C88.8708 172.34 88.7798 172.655 88.7798 173.061C88.7798 173.477 88.8708 173.801 89.0528 174.034C89.2395 174.263 89.4985 174.377 89.8298 174.377Z" fill="black"/>
<path d="M48.0923 225.354C47.9763 225.354 47.8863 225.322 47.8223 225.258C47.7583 225.194 47.7263 225.106 47.7263 224.994V221.478C47.7263 221.362 47.7603 221.27 47.8283 221.202C47.9003 221.13 47.9943 221.094 48.1103 221.094C48.2303 221.094 48.3243 221.13 48.3923 221.202C48.4643 221.27 48.5003 221.362 48.5003 221.478V224.718H50.1863C50.4263 224.718 50.5463 224.824 50.5463 225.036C50.5463 225.248 50.4263 225.354 50.1863 225.354H48.0923ZM52.3088 225.402C52.0088 225.402 51.7448 225.34 51.5168 225.216C51.2928 225.092 51.1188 224.914 50.9948 224.682C50.8708 224.45 50.8088 224.18 50.8088 223.872C50.8088 223.564 50.8708 223.296 50.9948 223.068C51.1188 222.836 51.2928 222.658 51.5168 222.534C51.7448 222.41 52.0088 222.348 52.3088 222.348C52.6088 222.348 52.8708 222.41 53.0948 222.534C53.3228 222.658 53.4968 222.836 53.6168 223.068C53.7408 223.296 53.8028 223.564 53.8028 223.872C53.8028 224.18 53.7408 224.45 53.6168 224.682C53.4968 224.914 53.3228 225.092 53.0948 225.216C52.8708 225.34 52.6088 225.402 52.3088 225.402ZM52.3028 224.82C52.5468 224.82 52.7328 224.74 52.8608 224.58C52.9888 224.42 53.0528 224.184 53.0528 223.872C53.0528 223.564 52.9888 223.33 52.8608 223.17C52.7328 223.006 52.5488 222.924 52.3088 222.924C52.0688 222.924 51.8828 223.006 51.7508 223.17C51.6228 223.33 51.5588 223.564 51.5588 223.872C51.5588 224.184 51.6228 224.42 51.7508 224.58C51.8788 224.74 52.0628 224.82 52.3028 224.82ZM56.906 222.36C57.018 222.36 57.108 222.392 57.176 222.456C57.244 222.52 57.278 222.606 57.278 222.714V225.084C57.278 225.544 57.15 225.892 56.894 226.128C56.638 226.364 56.26 226.482 55.76 226.482C55.324 226.482 54.96 226.4 54.668 226.236C54.52 226.148 54.446 226.042 54.446 225.918C54.446 225.83 54.466 225.76 54.506 225.708C54.55 225.656 54.606 225.63 54.674 225.63C54.71 225.63 54.754 225.638 54.806 225.654C54.858 225.674 54.912 225.696 54.968 225.72C55.112 225.78 55.24 225.826 55.352 225.858C55.468 225.89 55.6 225.906 55.748 225.906C56.272 225.906 56.534 225.65 56.534 225.138V224.754C56.446 224.918 56.318 225.046 56.15 225.138C55.982 225.226 55.79 225.27 55.574 225.27C55.318 225.27 55.09 225.21 54.89 225.09C54.694 224.966 54.54 224.794 54.428 224.574C54.316 224.354 54.26 224.1 54.26 223.812C54.26 223.524 54.314 223.27 54.422 223.05C54.534 222.826 54.69 222.654 54.89 222.534C55.09 222.41 55.318 222.348 55.574 222.348C55.79 222.348 55.982 222.394 56.15 222.486C56.318 222.574 56.446 222.7 56.534 222.864V222.708C56.534 222.604 56.568 222.52 56.636 222.456C56.704 222.392 56.794 222.36 56.906 222.36ZM55.772 224.688C56.012 224.688 56.198 224.61 56.33 224.454C56.466 224.298 56.534 224.084 56.534 223.812C56.534 223.536 56.466 223.32 56.33 223.164C56.198 223.008 56.012 222.93 55.772 222.93C55.536 222.93 55.35 223.008 55.214 223.164C55.078 223.32 55.01 223.536 55.01 223.812C55.01 224.084 55.078 224.298 55.214 224.454C55.35 224.61 55.536 224.688 55.772 224.688ZM58.5048 225.39C58.3888 225.39 58.2948 225.354 58.2228 225.282C58.1548 225.21 58.1208 225.116 58.1208 225V221.478C58.1208 221.362 58.1548 221.27 58.2228 221.202C58.2948 221.13 58.3888 221.094 58.5048 221.094C58.6248 221.094 58.7188 221.13 58.7868 221.202C58.8588 221.27 58.8948 221.362 58.8948 221.478V225C58.8948 225.116 58.8588 225.21 58.7868 225.282C58.7188 225.354 58.6248 225.39 58.5048 225.39ZM61.4463 222.348C61.7983 222.348 62.0603 222.448 62.2323 222.648C62.4043 222.848 62.4903 223.15 62.4903 223.554V225.03C62.4903 225.142 62.4563 225.23 62.3883 225.294C62.3243 225.358 62.2343 225.39 62.1183 225.39C62.0023 225.39 61.9103 225.358 61.8423 225.294C61.7743 225.23 61.7403 225.142 61.7403 225.03V223.596C61.7403 223.368 61.6963 223.202 61.6083 223.098C61.5243 222.994 61.3903 222.942 61.2063 222.942C60.9903 222.942 60.8163 223.01 60.6843 223.146C60.5563 223.282 60.4923 223.464 60.4923 223.692V225.03C60.4923 225.142 60.4583 225.23 60.3903 225.294C60.3223 225.358 60.2303 225.39 60.1143 225.39C59.9983 225.39 59.9063 225.358 59.8383 225.294C59.7743 225.23 59.7423 225.142 59.7423 225.03V222.708C59.7423 222.604 59.7763 222.52 59.8443 222.456C59.9123 222.392 60.0043 222.36 60.1203 222.36C60.2243 222.36 60.3083 222.392 60.3723 222.456C60.4403 222.516 60.4743 222.596 60.4743 222.696V222.858C60.5743 222.694 60.7083 222.568 60.8763 222.48C61.0443 222.392 61.2343 222.348 61.4463 222.348Z" fill="white"/>
<path d="M48.0062 151.353C48.1129 151.347 48.1962 151.373 48.2562 151.433C48.3229 151.493 48.3562 151.567 48.3562 151.653C48.3562 151.733 48.3229 151.807 48.2562 151.873C48.1962 151.933 48.1129 151.96 48.0062 151.953L46.8162 151.913L47.4462 152.923C47.4862 152.99 47.5062 153.053 47.5062 153.113C47.5062 153.193 47.4729 153.263 47.4062 153.323C47.3462 153.377 47.2762 153.403 47.1962 153.403C47.0829 153.403 46.9929 153.343 46.9262 153.223L46.3662 152.163L45.8062 153.233C45.7395 153.353 45.6495 153.413 45.5362 153.413C45.4562 153.413 45.3829 153.383 45.3162 153.323C45.2495 153.263 45.2162 153.193 45.2162 153.113C45.2162 153.053 45.2362 152.993 45.2762 152.933L45.9262 151.913L44.7162 151.953C44.6162 151.96 44.5362 151.933 44.4762 151.873C44.4162 151.807 44.3862 151.733 44.3862 151.653C44.3862 151.567 44.4129 151.493 44.4662 151.433C44.5262 151.373 44.6095 151.347 44.7162 151.353L45.9262 151.393L45.2762 150.383C45.2362 150.323 45.2162 150.26 45.2162 150.193C45.2162 150.113 45.2495 150.043 45.3162 149.983C45.3829 149.923 45.4562 149.893 45.5362 149.893C45.6495 149.893 45.7395 149.953 45.8062 150.073L46.3662 151.143L46.9262 150.083C46.9929 149.957 47.0862 149.893 47.2062 149.893C47.2862 149.893 47.3562 149.923 47.4162 149.983C47.4762 150.037 47.5062 150.103 47.5062 150.183C47.5062 150.243 47.4862 150.31 47.4462 150.383L46.8162 151.393L48.0062 151.353ZM55.8082 151.353C55.9148 151.347 55.9982 151.373 56.0582 151.433C56.1248 151.493 56.1582 151.567 56.1582 151.653C56.1582 151.733 56.1248 151.807 56.0582 151.873C55.9982 151.933 55.9148 151.96 55.8082 151.953L54.6182 151.913L55.2482 152.923C55.2882 152.99 55.3082 153.053 55.3082 153.113C55.3082 153.193 55.2748 153.263 55.2082 153.323C55.1482 153.377 55.0782 153.403 54.9982 153.403C54.8848 153.403 54.7948 153.343 54.7282 153.223L54.1682 152.163L53.6082 153.233C53.5415 153.353 53.4515 153.413 53.3382 153.413C53.2582 153.413 53.1848 153.383 53.1182 153.323C53.0515 153.263 53.0182 153.193 53.0182 153.113C53.0182 153.053 53.0382 152.993 53.0782 152.933L53.7282 151.913L52.5182 151.953C52.4182 151.96 52.3382 151.933 52.2782 151.873C52.2182 151.807 52.1882 151.733 52.1882 151.653C52.1882 151.567 52.2148 151.493 52.2682 151.433C52.3282 151.373 52.4115 151.347 52.5182 151.353L53.7282 151.393L53.0782 150.383C53.0382 150.323 53.0182 150.26 53.0182 150.193C53.0182 150.113 53.0515 150.043 53.1182 149.983C53.1848 149.923 53.2582 149.893 53.3382 149.893C53.4515 149.893 53.5415 149.953 53.6082 150.073L54.1682 151.143L54.7282 150.083C54.7948 149.957 54.8882 149.893 55.0082 149.893C55.0882 149.893 55.1582 149.923 55.2182 149.983C55.2782 150.037 55.3082 150.103 55.3082 150.183C55.3082 150.243 55.2882 150.31 55.2482 150.383L54.6182 151.393L55.8082 151.353ZM63.6101 151.353C63.7168 151.347 63.8001 151.373 63.8601 151.433C63.9268 151.493 63.9601 151.567 63.9601 151.653C63.9601 151.733 63.9268 151.807 63.8601 151.873C63.8001 151.933 63.7168 151.96 63.6101 151.953L62.4201 151.913L63.0501 152.923C63.0901 152.99 63.1101 153.053 63.1101 153.113C63.1101 153.193 63.0768 153.263 63.0101 153.323C62.9501 153.377 62.8801 153.403 62.8001 153.403C62.6868 153.403 62.5968 153.343 62.5301 153.223L61.9701 152.163L61.4101 153.233C61.3435 153.353 61.2535 153.413 61.1401 153.413C61.0601 153.413 60.9868 153.383 60.9201 153.323C60.8535 153.263 60.8201 153.193 60.8201 153.113C60.8201 153.053 60.8401 152.993 60.8801 152.933L61.5301 151.913L60.3201 151.953C60.2201 151.96 60.1401 151.933 60.0801 151.873C60.0201 151.807 59.9901 151.733 59.9901 151.653C59.9901 151.567 60.0168 151.493 60.0701 151.433C60.1301 151.373 60.2135 151.347 60.3201 151.353L61.5301 151.393L60.8801 150.383C60.8401 150.323 60.8201 150.26 60.8201 150.193C60.8201 150.113 60.8535 150.043 60.9201 149.983C60.9868 149.923 61.0601 149.893 61.1401 149.893C61.2535 149.893 61.3435 149.953 61.4101 150.073L61.9701 151.143L62.5301 150.083C62.5968 149.957 62.6901 149.893 62.8101 149.893C62.8901 149.893 62.9601 149.923 63.0201 149.983C63.0801 150.037 63.1101 150.103 63.1101 150.183C63.1101 150.243 63.0901 150.31 63.0501 150.383L62.4201 151.393L63.6101 151.353ZM71.4121 151.353C71.5187 151.347 71.6021 151.373 71.6621 151.433C71.7287 151.493 71.7621 151.567 71.7621 151.653C71.7621 151.733 71.7287 151.807 71.6621 151.873C71.6021 151.933 71.5187 151.96 71.4121 151.953L70.2221 151.913L70.8521 152.923C70.8921 152.99 70.9121 153.053 70.9121 153.113C70.9121 153.193 70.8787 153.263 70.8121 153.323C70.7521 153.377 70.6821 153.403 70.6021 153.403C70.4887 153.403 70.3987 153.343 70.3321 153.223L69.7721 152.163L69.2121 153.233C69.1454 153.353 69.0554 153.413 68.9421 153.413C68.8621 153.413 68.7887 153.383 68.7221 153.323C68.6554 153.263 68.6221 153.193 68.6221 153.113C68.6221 153.053 68.6421 152.993 68.6821 152.933L69.3321 151.913L68.1221 151.953C68.0221 151.96 67.9421 151.933 67.8821 151.873C67.8221 151.807 67.7921 151.733 67.7921 151.653C67.7921 151.567 67.8187 151.493 67.8721 151.433C67.9321 151.373 68.0154 151.347 68.1221 151.353L69.3321 151.393L68.6821 150.383C68.6421 150.323 68.6221 150.26 68.6221 150.193C68.6221 150.113 68.6554 150.043 68.7221 149.983C68.7887 149.923 68.8621 149.893 68.9421 149.893C69.0554 149.893 69.1454 149.953 69.2121 150.073L69.7721 151.143L70.3321 150.083C70.3987 149.957 70.4921 149.893 70.6121 149.893C70.6921 149.893 70.7621 149.923 70.8221 149.983C70.8821 150.037 70.9121 150.103 70.9121 150.183C70.9121 150.243 70.8921 150.31 70.8521 150.383L70.2221 151.393L71.4121 151.353ZM79.214 151.353C79.3207 151.347 79.404 151.373 79.464 151.433C79.5307 151.493 79.564 151.567 79.564 151.653C79.564 151.733 79.5307 151.807 79.464 151.873C79.404 151.933 79.3207 151.96 79.214 151.953L78.024 151.913L78.654 152.923C78.694 152.99 78.714 153.053 78.714 153.113C78.714 153.193 78.6807 153.263 78.614 153.323C78.554 153.377 78.484 153.403 78.404 153.403C78.2907 153.403 78.2007 153.343 78.134 153.223L77.574 152.163L77.014 153.233C76.9474 153.353 76.8574 153.413 76.744 153.413C76.664 153.413 76.5907 153.383 76.524 153.323C76.4574 153.263 76.424 153.193 76.424 153.113C76.424 153.053 76.444 152.993 76.484 152.933L77.134 151.913L75.924 151.953C75.824 151.96 75.744 151.933 75.684 151.873C75.624 151.807 75.594 151.733 75.594 151.653C75.594 151.567 75.6207 151.493 75.674 151.433C75.734 151.373 75.8174 151.347 75.924 151.353L77.134 151.393L76.484 150.383C76.444 150.323 76.424 150.26 76.424 150.193C76.424 150.113 76.4574 150.043 76.524 149.983C76.5907 149.923 76.664 149.893 76.744 149.893C76.8574 149.893 76.9474 149.953 77.014 150.073L77.574 151.143L78.134 150.083C78.2007 149.957 78.294 149.893 78.414 149.893C78.494 149.893 78.564 149.923 78.624 149.983C78.684 150.037 78.714 150.103 78.714 150.183C78.714 150.243 78.694 150.31 78.654 150.383L78.024 151.393L79.214 151.353ZM87.016 151.353C87.1226 151.347 87.206 151.373 87.266 151.433C87.3326 151.493 87.366 151.567 87.366 151.653C87.366 151.733 87.3326 151.807 87.266 151.873C87.206 151.933 87.1226 151.96 87.016 151.953L85.826 151.913L86.456 152.923C86.496 152.99 86.516 153.053 86.516 153.113C86.516 153.193 86.4826 153.263 86.416 153.323C86.356 153.377 86.286 153.403 86.206 153.403C86.0926 153.403 86.0026 153.343 85.936 153.223L85.376 152.163L84.816 153.233C84.7493 153.353 84.6593 153.413 84.546 153.413C84.466 153.413 84.3926 153.383 84.326 153.323C84.2593 153.263 84.226 153.193 84.226 153.113C84.226 153.053 84.246 152.993 84.286 152.933L84.936 151.913L83.726 151.953C83.626 151.96 83.546 151.933 83.486 151.873C83.426 151.807 83.396 151.733 83.396 151.653C83.396 151.567 83.4226 151.493 83.476 151.433C83.536 151.373 83.6193 151.347 83.726 151.353L84.936 151.393L84.286 150.383C84.246 150.323 84.226 150.26 84.226 150.193C84.226 150.113 84.2593 150.043 84.326 149.983C84.3926 149.923 84.466 149.893 84.546 149.893C84.6593 149.893 84.7493 149.953 84.816 150.073L85.376 151.143L85.936 150.083C86.0026 149.957 86.096 149.893 86.216 149.893C86.296 149.893 86.366 149.923 86.426 149.983C86.486 150.037 86.516 150.103 86.516 150.183C86.516 150.243 86.496 150.31 86.456 150.383L85.826 151.393L87.016 151.353ZM94.8179 151.353C94.9246 151.347 95.0079 151.373 95.0679 151.433C95.1346 151.493 95.1679 151.567 95.1679 151.653C95.1679 151.733 95.1346 151.807 95.0679 151.873C95.0079 151.933 94.9246 151.96 94.8179 151.953L93.6279 151.913L94.2579 152.923C94.2979 152.99 94.3179 153.053 94.3179 153.113C94.3179 153.193 94.2846 153.263 94.2179 153.323C94.1579 153.377 94.0879 153.403 94.0079 153.403C93.8946 153.403 93.8046 153.343 93.7379 153.223L93.1779 152.163L92.6179 153.233C92.5513 153.353 92.4613 153.413 92.3479 153.413C92.2679 153.413 92.1946 153.383 92.1279 153.323C92.0613 153.263 92.0279 153.193 92.0279 153.113C92.0279 153.053 92.0479 152.993 92.0879 152.933L92.7379 151.913L91.5279 151.953C91.4279 151.96 91.3479 151.933 91.2879 151.873C91.2279 151.807 91.1979 151.733 91.1979 151.653C91.1979 151.567 91.2246 151.493 91.2779 151.433C91.3379 151.373 91.4213 151.347 91.5279 151.353L92.7379 151.393L92.0879 150.383C92.0479 150.323 92.0279 150.26 92.0279 150.193C92.0279 150.113 92.0613 150.043 92.1279 149.983C92.1946 149.923 92.2679 149.893 92.3479 149.893C92.4613 149.893 92.5513 149.953 92.6179 150.073L93.1779 151.143L93.7379 150.083C93.8046 149.957 93.8979 149.893 94.0179 149.893C94.0979 149.893 94.1679 149.923 94.2279 149.983C94.2879 150.037 94.3179 150.103 94.3179 150.183C94.3179 150.243 94.2979 150.31 94.2579 150.383L93.6279 151.393L94.8179 151.353ZM102.62 151.353C102.727 151.347 102.81 151.373 102.87 151.433C102.937 151.493 102.97 151.567 102.97 151.653C102.97 151.733 102.937 151.807 102.87 151.873C102.81 151.933 102.727 151.96 102.62 151.953L101.43 151.913L102.06 152.923C102.1 152.99 102.12 153.053 102.12 153.113C102.12 153.193 102.087 153.263 102.02 153.323C101.96 153.377 101.89 153.403 101.81 153.403C101.697 153.403 101.607 153.343 101.54 153.223L100.98 152.163L100.42 153.233C100.353 153.353 100.263 153.413 100.15 153.413C100.07 153.413 99.9965 153.383 99.9299 153.323C99.8632 153.263 99.8299 153.193 99.8299 153.113C99.8299 153.053 99.8499 152.993 99.8899 152.933L100.54 151.913L99.3299 151.953C99.2299 151.96 99.1499 151.933 99.0899 151.873C99.0299 151.807 98.9999 151.733 98.9999 151.653C98.9999 151.567 99.0265 151.493 99.0799 151.433C99.1399 151.373 99.2232 151.347 99.3299 151.353L100.54 151.393L99.8899 150.383C99.8499 150.323 99.8299 150.26 99.8299 150.193C99.8299 150.113 99.8632 150.043 99.9299 149.983C99.9965 149.923 100.07 149.893 100.15 149.893C100.263 149.893 100.353 149.953 100.42 150.073L100.98 151.143L101.54 150.083C101.607 149.957 101.7 149.893 101.82 149.893C101.9 149.893 101.97 149.923 102.03 149.983C102.09 150.037 102.12 150.103 102.12 150.183C102.12 150.243 102.1 150.31 102.06 150.383L101.43 151.393L102.62 151.353ZM110.422 151.353C110.529 151.347 110.612 151.373 110.672 151.433C110.739 151.493 110.772 151.567 110.772 151.653C110.772 151.733 110.739 151.807 110.672 151.873C110.612 151.933 110.529 151.96 110.422 151.953L109.232 151.913L109.862 152.923C109.902 152.99 109.922 153.053 109.922 153.113C109.922 153.193 109.889 153.263 109.822 153.323C109.762 153.377 109.692 153.403 109.612 153.403C109.499 153.403 109.409 153.343 109.342 153.223L108.782 152.163L108.222 153.233C108.155 153.353 108.065 153.413 107.952 153.413C107.872 153.413 107.799 153.383 107.732 153.323C107.665 153.263 107.632 153.193 107.632 153.113C107.632 153.053 107.652 152.993 107.692 152.933L108.342 151.913L107.132 151.953C107.032 151.96 106.952 151.933 106.892 151.873C106.832 151.807 106.802 151.733 106.802 151.653C106.802 151.567 106.829 151.493 106.882 151.433C106.942 151.373 107.025 151.347 107.132 151.353L108.342 151.393L107.692 150.383C107.652 150.323 107.632 150.26 107.632 150.193C107.632 150.113 107.665 150.043 107.732 149.983C107.799 149.923 107.872 149.893 107.952 149.893C108.065 149.893 108.155 149.953 108.222 150.073L108.782 151.143L109.342 150.083C109.409 149.957 109.502 149.893 109.622 149.893C109.702 149.893 109.772 149.923 109.832 149.983C109.892 150.037 109.922 150.103 109.922 150.183C109.922 150.243 109.902 150.31 109.862 150.383L109.232 151.393L110.422 151.353ZM118.224 151.353C118.33 151.347 118.414 151.373 118.474 151.433C118.54 151.493 118.574 151.567 118.574 151.653C118.574 151.733 118.54 151.807 118.474 151.873C118.414 151.933 118.33 151.96 118.224 151.953L117.034 151.913L117.664 152.923C117.704 152.99 117.724 153.053 117.724 153.113C117.724 153.193 117.69 153.263 117.624 153.323C117.564 153.377 117.494 153.403 117.414 153.403C117.3 153.403 117.21 153.343 117.144 153.223L116.584 152.163L116.024 153.233C115.957 153.353 115.867 153.413 115.754 153.413C115.674 153.413 115.6 153.383 115.534 153.323C115.467 153.263 115.434 153.193 115.434 153.113C115.434 153.053 115.454 152.993 115.494 152.933L116.144 151.913L114.934 151.953C114.834 151.96 114.754 151.933 114.694 151.873C114.634 151.807 114.604 151.733 114.604 151.653C114.604 151.567 114.63 151.493 114.684 151.433C114.744 151.373 114.827 151.347 114.934 151.353L116.144 151.393L115.494 150.383C115.454 150.323 115.434 150.26 115.434 150.193C115.434 150.113 115.467 150.043 115.534 149.983C115.6 149.923 115.674 149.893 115.754 149.893C115.867 149.893 115.957 149.953 116.024 150.073L116.584 151.143L117.144 150.083C117.21 149.957 117.304 149.893 117.424 149.893C117.504 149.893 117.574 149.923 117.634 149.983C117.694 150.037 117.724 150.103 117.724 150.183C117.724 150.243 117.704 150.31 117.664 150.383L117.034 151.393L118.224 151.353Z" fill="#5236FF"/>
<path d="M48.0062 192.961C48.1129 192.955 48.1962 192.981 48.2562 193.041C48.3229 193.101 48.3562 193.175 48.3562 193.261C48.3562 193.341 48.3229 193.415 48.2562 193.481C48.1962 193.541 48.1129 193.568 48.0062 193.561L46.8162 193.521L47.4462 194.531C47.4862 194.598 47.5062 194.661 47.5062 194.721C47.5062 194.801 47.4729 194.871 47.4062 194.931C47.3462 194.985 47.2762 195.011 47.1962 195.011C47.0829 195.011 46.9929 194.951 46.9262 194.831L46.3662 193.771L45.8062 194.841C45.7395 194.961 45.6495 195.021 45.5362 195.021C45.4562 195.021 45.3829 194.991 45.3162 194.931C45.2495 194.871 45.2162 194.801 45.2162 194.721C45.2162 194.661 45.2362 194.601 45.2762 194.541L45.9262 193.521L44.7162 193.561C44.6162 193.568 44.5362 193.541 44.4762 193.481C44.4162 193.415 44.3862 193.341 44.3862 193.261C44.3862 193.175 44.4129 193.101 44.4662 193.041C44.5262 192.981 44.6095 192.955 44.7162 192.961L45.9262 193.001L45.2762 191.991C45.2362 191.931 45.2162 191.868 45.2162 191.801C45.2162 191.721 45.2495 191.651 45.3162 191.591C45.3829 191.531 45.4562 191.501 45.5362 191.501C45.6495 191.501 45.7395 191.561 45.8062 191.681L46.3662 192.751L46.9262 191.691C46.9929 191.565 47.0862 191.501 47.2062 191.501C47.2862 191.501 47.3562 191.531 47.4162 191.591C47.4762 191.645 47.5062 191.711 47.5062 191.791C47.5062 191.851 47.4862 191.918 47.4462 191.991L46.8162 193.001L48.0062 192.961ZM55.8082 192.961C55.9148 192.955 55.9982 192.981 56.0582 193.041C56.1248 193.101 56.1582 193.175 56.1582 193.261C56.1582 193.341 56.1248 193.415 56.0582 193.481C55.9982 193.541 55.9148 193.568 55.8082 193.561L54.6182 193.521L55.2482 194.531C55.2882 194.598 55.3082 194.661 55.3082 194.721C55.3082 194.801 55.2748 194.871 55.2082 194.931C55.1482 194.985 55.0782 195.011 54.9982 195.011C54.8848 195.011 54.7948 194.951 54.7282 194.831L54.1682 193.771L53.6082 194.841C53.5415 194.961 53.4515 195.021 53.3382 195.021C53.2582 195.021 53.1848 194.991 53.1182 194.931C53.0515 194.871 53.0182 194.801 53.0182 194.721C53.0182 194.661 53.0382 194.601 53.0782 194.541L53.7282 193.521L52.5182 193.561C52.4182 193.568 52.3382 193.541 52.2782 193.481C52.2182 193.415 52.1882 193.341 52.1882 193.261C52.1882 193.175 52.2148 193.101 52.2682 193.041C52.3282 192.981 52.4115 192.955 52.5182 192.961L53.7282 193.001L53.0782 191.991C53.0382 191.931 53.0182 191.868 53.0182 191.801C53.0182 191.721 53.0515 191.651 53.1182 191.591C53.1848 191.531 53.2582 191.501 53.3382 191.501C53.4515 191.501 53.5415 191.561 53.6082 191.681L54.1682 192.751L54.7282 191.691C54.7948 191.565 54.8882 191.501 55.0082 191.501C55.0882 191.501 55.1582 191.531 55.2182 191.591C55.2782 191.645 55.3082 191.711 55.3082 191.791C55.3082 191.851 55.2882 191.918 55.2482 191.991L54.6182 193.001L55.8082 192.961ZM63.6101 192.961C63.7168 192.955 63.8001 192.981 63.8601 193.041C63.9268 193.101 63.9601 193.175 63.9601 193.261C63.9601 193.341 63.9268 193.415 63.8601 193.481C63.8001 193.541 63.7168 193.568 63.6101 193.561L62.4201 193.521L63.0501 194.531C63.0901 194.598 63.1101 194.661 63.1101 194.721C63.1101 194.801 63.0768 194.871 63.0101 194.931C62.9501 194.985 62.8801 195.011 62.8001 195.011C62.6868 195.011 62.5968 194.951 62.5301 194.831L61.9701 193.771L61.4101 194.841C61.3435 194.961 61.2535 195.021 61.1401 195.021C61.0601 195.021 60.9868 194.991 60.9201 194.931C60.8535 194.871 60.8201 194.801 60.8201 194.721C60.8201 194.661 60.8401 194.601 60.8801 194.541L61.5301 193.521L60.3201 193.561C60.2201 193.568 60.1401 193.541 60.0801 193.481C60.0201 193.415 59.9901 193.341 59.9901 193.261C59.9901 193.175 60.0168 193.101 60.0701 193.041C60.1301 192.981 60.2135 192.955 60.3201 192.961L61.5301 193.001L60.8801 191.991C60.8401 191.931 60.8201 191.868 60.8201 191.801C60.8201 191.721 60.8535 191.651 60.9201 191.591C60.9868 191.531 61.0601 191.501 61.1401 191.501C61.2535 191.501 61.3435 191.561 61.4101 191.681L61.9701 192.751L62.5301 191.691C62.5968 191.565 62.6901 191.501 62.8101 191.501C62.8901 191.501 62.9601 191.531 63.0201 191.591C63.0801 191.645 63.1101 191.711 63.1101 191.791C63.1101 191.851 63.0901 191.918 63.0501 191.991L62.4201 193.001L63.6101 192.961ZM71.4121 192.961C71.5187 192.955 71.6021 192.981 71.6621 193.041C71.7287 193.101 71.7621 193.175 71.7621 193.261C71.7621 193.341 71.7287 193.415 71.6621 193.481C71.6021 193.541 71.5187 193.568 71.4121 193.561L70.2221 193.521L70.8521 194.531C70.8921 194.598 70.9121 194.661 70.9121 194.721C70.9121 194.801 70.8787 194.871 70.8121 194.931C70.7521 194.985 70.6821 195.011 70.6021 195.011C70.4887 195.011 70.3987 194.951 70.3321 194.831L69.7721 193.771L69.2121 194.841C69.1454 194.961 69.0554 195.021 68.9421 195.021C68.8621 195.021 68.7887 194.991 68.7221 194.931C68.6554 194.871 68.6221 194.801 68.6221 194.721C68.6221 194.661 68.6421 194.601 68.6821 194.541L69.3321 193.521L68.1221 193.561C68.0221 193.568 67.9421 193.541 67.8821 193.481C67.8221 193.415 67.7921 193.341 67.7921 193.261C67.7921 193.175 67.8187 193.101 67.8721 193.041C67.9321 192.981 68.0154 192.955 68.1221 192.961L69.3321 193.001L68.6821 191.991C68.6421 191.931 68.6221 191.868 68.6221 191.801C68.6221 191.721 68.6554 191.651 68.7221 191.591C68.7887 191.531 68.8621 191.501 68.9421 191.501C69.0554 191.501 69.1454 191.561 69.2121 191.681L69.7721 192.751L70.3321 191.691C70.3987 191.565 70.4921 191.501 70.6121 191.501C70.6921 191.501 70.7621 191.531 70.8221 191.591C70.8821 191.645 70.9121 191.711 70.9121 191.791C70.9121 191.851 70.8921 191.918 70.8521 191.991L70.2221 193.001L71.4121 192.961ZM79.214 192.961C79.3207 192.955 79.404 192.981 79.464 193.041C79.5307 193.101 79.564 193.175 79.564 193.261C79.564 193.341 79.5307 193.415 79.464 193.481C79.404 193.541 79.3207 193.568 79.214 193.561L78.024 193.521L78.654 194.531C78.694 194.598 78.714 194.661 78.714 194.721C78.714 194.801 78.6807 194.871 78.614 194.931C78.554 194.985 78.484 195.011 78.404 195.011C78.2907 195.011 78.2007 194.951 78.134 194.831L77.574 193.771L77.014 194.841C76.9474 194.961 76.8574 195.021 76.744 195.021C76.664 195.021 76.5907 194.991 76.524 194.931C76.4574 194.871 76.424 194.801 76.424 194.721C76.424 194.661 76.444 194.601 76.484 194.541L77.134 193.521L75.924 193.561C75.824 193.568 75.744 193.541 75.684 193.481C75.624 193.415 75.594 193.341 75.594 193.261C75.594 193.175 75.6207 193.101 75.674 193.041C75.734 192.981 75.8174 192.955 75.924 192.961L77.134 193.001L76.484 191.991C76.444 191.931 76.424 191.868 76.424 191.801C76.424 191.721 76.4574 191.651 76.524 191.591C76.5907 191.531 76.664 191.501 76.744 191.501C76.8574 191.501 76.9474 191.561 77.014 191.681L77.574 192.751L78.134 191.691C78.2007 191.565 78.294 191.501 78.414 191.501C78.494 191.501 78.564 191.531 78.624 191.591C78.684 191.645 78.714 191.711 78.714 191.791C78.714 191.851 78.694 191.918 78.654 191.991L78.024 193.001L79.214 192.961ZM87.016 192.961C87.1226 192.955 87.206 192.981 87.266 193.041C87.3326 193.101 87.366 193.175 87.366 193.261C87.366 193.341 87.3326 193.415 87.266 193.481C87.206 193.541 87.1226 193.568 87.016 193.561L85.826 193.521L86.456 194.531C86.496 194.598 86.516 194.661 86.516 194.721C86.516 194.801 86.4826 194.871 86.416 194.931C86.356 194.985 86.286 195.011 86.206 195.011C86.0926 195.011 86.0026 194.951 85.936 194.831L85.376 193.771L84.816 194.841C84.7493 194.961 84.6593 195.021 84.546 195.021C84.466 195.021 84.3926 194.991 84.326 194.931C84.2593 194.871 84.226 194.801 84.226 194.721C84.226 194.661 84.246 194.601 84.286 194.541L84.936 193.521L83.726 193.561C83.626 193.568 83.546 193.541 83.486 193.481C83.426 193.415 83.396 193.341 83.396 193.261C83.396 193.175 83.4226 193.101 83.476 193.041C83.536 192.981 83.6193 192.955 83.726 192.961L84.936 193.001L84.286 191.991C84.246 191.931 84.226 191.868 84.226 191.801C84.226 191.721 84.2593 191.651 84.326 191.591C84.3926 191.531 84.466 191.501 84.546 191.501C84.6593 191.501 84.7493 191.561 84.816 191.681L85.376 192.751L85.936 191.691C86.0026 191.565 86.096 191.501 86.216 191.501C86.296 191.501 86.366 191.531 86.426 191.591C86.486 191.645 86.516 191.711 86.516 191.791C86.516 191.851 86.496 191.918 86.456 191.991L85.826 193.001L87.016 192.961ZM94.8179 192.961C94.9246 192.955 95.0079 192.981 95.0679 193.041C95.1346 193.101 95.1679 193.175 95.1679 193.261C95.1679 193.341 95.1346 193.415 95.0679 193.481C95.0079 193.541 94.9246 193.568 94.8179 193.561L93.6279 193.521L94.2579 194.531C94.2979 194.598 94.3179 194.661 94.3179 194.721C94.3179 194.801 94.2846 194.871 94.2179 194.931C94.1579 194.985 94.0879 195.011 94.0079 195.011C93.8946 195.011 93.8046 194.951 93.7379 194.831L93.1779 193.771L92.6179 194.841C92.5513 194.961 92.4613 195.021 92.3479 195.021C92.2679 195.021 92.1946 194.991 92.1279 194.931C92.0613 194.871 92.0279 194.801 92.0279 194.721C92.0279 194.661 92.0479 194.601 92.0879 194.541L92.7379 193.521L91.5279 193.561C91.4279 193.568 91.3479 193.541 91.2879 193.481C91.2279 193.415 91.1979 193.341 91.1979 193.261C91.1979 193.175 91.2246 193.101 91.2779 193.041C91.3379 192.981 91.4213 192.955 91.5279 192.961L92.7379 193.001L92.0879 191.991C92.0479 191.931 92.0279 191.868 92.0279 191.801C92.0279 191.721 92.0613 191.651 92.1279 191.591C92.1946 191.531 92.2679 191.501 92.3479 191.501C92.4613 191.501 92.5513 191.561 92.6179 191.681L93.1779 192.751L93.7379 191.691C93.8046 191.565 93.8979 191.501 94.0179 191.501C94.0979 191.501 94.1679 191.531 94.2279 191.591C94.2879 191.645 94.3179 191.711 94.3179 191.791C94.3179 191.851 94.2979 191.918 94.2579 191.991L93.6279 193.001L94.8179 192.961ZM102.62 192.961C102.727 192.955 102.81 192.981 102.87 193.041C102.937 193.101 102.97 193.175 102.97 193.261C102.97 193.341 102.937 193.415 102.87 193.481C102.81 193.541 102.727 193.568 102.62 193.561L101.43 193.521L102.06 194.531C102.1 194.598 102.12 194.661 102.12 194.721C102.12 194.801 102.087 194.871 102.02 194.931C101.96 194.985 101.89 195.011 101.81 195.011C101.697 195.011 101.607 194.951 101.54 194.831L100.98 193.771L100.42 194.841C100.353 194.961 100.263 195.021 100.15 195.021C100.07 195.021 99.9965 194.991 99.9299 194.931C99.8632 194.871 99.8299 194.801 99.8299 194.721C99.8299 194.661 99.8499 194.601 99.8899 194.541L100.54 193.521L99.3299 193.561C99.2299 193.568 99.1499 193.541 99.0899 193.481C99.0299 193.415 98.9999 193.341 98.9999 193.261C98.9999 193.175 99.0265 193.101 99.0799 193.041C99.1399 192.981 99.2232 192.955 99.3299 192.961L100.54 193.001L99.8899 191.991C99.8499 191.931 99.8299 191.868 99.8299 191.801C99.8299 191.721 99.8632 191.651 99.9299 191.591C99.9965 191.531 100.07 191.501 100.15 191.501C100.263 191.501 100.353 191.561 100.42 191.681L100.98 192.751L101.54 191.691C101.607 191.565 101.7 191.501 101.82 191.501C101.9 191.501 101.97 191.531 102.03 191.591C102.09 191.645 102.12 191.711 102.12 191.791C102.12 191.851 102.1 191.918 102.06 191.991L101.43 193.001L102.62 192.961ZM110.422 192.961C110.529 192.955 110.612 192.981 110.672 193.041C110.739 193.101 110.772 193.175 110.772 193.261C110.772 193.341 110.739 193.415 110.672 193.481C110.612 193.541 110.529 193.568 110.422 193.561L109.232 193.521L109.862 194.531C109.902 194.598 109.922 194.661 109.922 194.721C109.922 194.801 109.889 194.871 109.822 194.931C109.762 194.985 109.692 195.011 109.612 195.011C109.499 195.011 109.409 194.951 109.342 194.831L108.782 193.771L108.222 194.841C108.155 194.961 108.065 195.021 107.952 195.021C107.872 195.021 107.799 194.991 107.732 194.931C107.665 194.871 107.632 194.801 107.632 194.721C107.632 194.661 107.652 194.601 107.692 194.541L108.342 193.521L107.132 193.561C107.032 193.568 106.952 193.541 106.892 193.481C106.832 193.415 106.802 193.341 106.802 193.261C106.802 193.175 106.829 193.101 106.882 193.041C106.942 192.981 107.025 192.955 107.132 192.961L108.342 193.001L107.692 191.991C107.652 191.931 107.632 191.868 107.632 191.801C107.632 191.721 107.665 191.651 107.732 191.591C107.799 191.531 107.872 191.501 107.952 191.501C108.065 191.501 108.155 191.561 108.222 191.681L108.782 192.751L109.342 191.691C109.409 191.565 109.502 191.501 109.622 191.501C109.702 191.501 109.772 191.531 109.832 191.591C109.892 191.645 109.922 191.711 109.922 191.791C109.922 191.851 109.902 191.918 109.862 191.991L109.232 193.001L110.422 192.961ZM118.224 192.961C118.33 192.955 118.414 192.981 118.474 193.041C118.54 193.101 118.574 193.175 118.574 193.261C118.574 193.341 118.54 193.415 118.474 193.481C118.414 193.541 118.33 193.568 118.224 193.561L117.034 193.521L117.664 194.531C117.704 194.598 117.724 194.661 117.724 194.721C117.724 194.801 117.69 194.871 117.624 194.931C117.564 194.985 117.494 195.011 117.414 195.011C117.3 195.011 117.21 194.951 117.144 194.831L116.584 193.771L116.024 194.841C115.957 194.961 115.867 195.021 115.754 195.021C115.674 195.021 115.6 194.991 115.534 194.931C115.467 194.871 115.434 194.801 115.434 194.721C115.434 194.661 115.454 194.601 115.494 194.541L116.144 193.521L114.934 193.561C114.834 193.568 114.754 193.541 114.694 193.481C114.634 193.415 114.604 193.341 114.604 193.261C114.604 193.175 114.63 193.101 114.684 193.041C114.744 192.981 114.827 192.955 114.934 192.961L116.144 193.001L115.494 191.991C115.454 191.931 115.434 191.868 115.434 191.801C115.434 191.721 115.467 191.651 115.534 191.591C115.6 191.531 115.674 191.501 115.754 191.501C115.867 191.501 115.957 191.561 116.024 191.681L116.584 192.751L117.144 191.691C117.21 191.565 117.304 191.501 117.424 191.501C117.504 191.501 117.574 191.531 117.634 191.591C117.694 191.645 117.724 191.711 117.724 191.791C117.724 191.851 117.704 191.918 117.664 191.991L117.034 193.001L118.224 192.961Z" fill="#5236FF"/>
<g filter="url(#filter1_d_92_7232)">
<rect x="175.51" y="68.2531" width="227.748" height="33.9431" rx="5" fill="#305B80"/>
</g>
<rect x="269.675" y="82.4872" width="16.4241" height="4.37976" rx="2.18988" fill="white"/>
<rect x="290.479" y="82.4872" width="15.3292" height="4.37976" rx="2.18988" fill="white"/>
<rect x="188.649" y="78.1074" width="13.1393" height="13.1393" rx="5" fill="#EBF0F4"/>
<rect x="310.188" y="82.4872" width="16.4241" height="4.37976" rx="2.18988" fill="white"/>
<rect x="330.991" y="82.4872" width="16.4241" height="4.37976" rx="2.18988" fill="white"/>
<rect x="351.795" y="82.4872" width="16.4241" height="4.37976" rx="2.18988" fill="white"/>
<rect x="386.833" y="83.5822" width="4.37976" height="2.18988" rx="1.09494" fill="white"/>
<defs>
<filter id="filter0_d_92_7232" x="0.743164" y="99.9555" width="209.525" height="176.678" filterUnits="userSpaceOnUse" color-interpolation-filters="sRGB">
<feFlood flood-opacity="0" result="BackgroundImageFix"/>
<feColorMatrix in="SourceAlpha" type="matrix" values="0 0 0 0 0 0 0 0 0 0 0 0 0 0 0 0 0 0 127 0" result="hardAlpha"/>
<feOffset dx="5" dy="10"/>
<feGaussianBlur stdDeviation="10.5"/>
<feComposite in2="hardAlpha" operator="out"/>
<feColorMatrix type="matrix" values="0 0 0 0 0.700272 0 0 0 0 0.700272 0 0 0 0 0.700272 0 0 0 0.25 0"/>
<feBlend mode="normal" in2="BackgroundImageFix" result="effect1_dropShadow_92_7232"/>
<feBlend mode="normal" in="SourceGraphic" in2="effect1_dropShadow_92_7232" result="shape"/>
</filter>
<filter id="filter1_d_92_7232" x="174.51" y="68.2531" width="241.747" height="47.9432" filterUnits="userSpaceOnUse" color-interpolation-filters="sRGB">
<feFlood flood-opacity="0" result="BackgroundImageFix"/>
<feColorMatrix in="SourceAlpha" type="matrix" values="0 0 0 0 0 0 0 0 0 0 0 0 0 0 0 0 0 0 127 0" result="hardAlpha"/>
<feOffset dx="6" dy="7"/>
<feGaussianBlur stdDeviation="3.5"/>
<feComposite in2="hardAlpha" operator="out"/>
<feColorMatrix type="matrix" values="0 0 0 0 0.500272 0 0 0 0 0.500272 0 0 0 0 0.500272 0 0 0 0.25 0"/>
<feBlend mode="normal" in2="BackgroundImageFix" result="effect1_dropShadow_92_7232"/>
<feBlend mode="normal" in="SourceGraphic" in2="effect1_dropShadow_92_7232" result="shape"/>
</filter>
</defs>
</svg>
