<svg width="64" height="65" viewBox="0 0 64 65" fill="none" xmlns="http://www.w3.org/2000/svg">
<path d="M31.3073 47.8874H47.094C46.854 48.1008 46.614 48.2874 46.374 48.5008L34.9873 57.0341C31.2273 59.8341 25.094 59.8341 21.3073 57.0341L9.89401 48.5008C7.38734 46.6341 5.33398 42.5008 5.33398 39.3808V19.6206C5.33398 16.3673 7.81401 12.7673 10.854 11.6206L24.134 6.63398C26.3207 5.80731 29.9473 5.80731 32.134 6.63398L45.3873 11.6206C47.9207 12.5806 50.0807 15.2473 50.7473 17.9673H31.2807C30.694 17.9673 30.1607 17.994 29.654 17.994C24.7207 18.2873 23.4406 20.074 23.4406 25.7006V40.1805C23.4673 46.3138 25.0407 47.8874 31.3073 47.8874Z" stroke="#676673" stroke-width="4" stroke-linecap="round" stroke-linejoin="round"/>
<path d="M23.4668 30.4743H58.6667" stroke="#676673" stroke-width="4" stroke-miterlimit="10" stroke-linecap="round" stroke-linejoin="round"/>
<path d="M58.6667 25.6737V40.4738C58.6133 46.3938 56.9867 47.8602 50.8267 47.8602H31.3069C25.0401 47.8602 23.4668 46.2871 23.4668 40.1271V25.647C23.4668 20.047 24.7468 18.2603 29.6803 17.9403C30.1869 17.9403 30.7203 17.9137 31.3069 17.9137H50.8267C57.0933 17.9404 58.6667 19.487 58.6667 25.6737Z" stroke="#676673" stroke-width="4" stroke-linecap="round" stroke-linejoin="round"/>
<path d="M30.1875 41.2471H33.7342" stroke="#676673" stroke-width="4" stroke-miterlimit="10" stroke-linecap="round" stroke-linejoin="round"/>
<path d="M39.334 41.2471H48.054" stroke="#676673" stroke-width="4" stroke-miterlimit="10" stroke-linecap="round" stroke-linejoin="round"/>
</svg>
