<svg width="425" height="84" viewBox="0 0 425 84" fill="none" xmlns="http://www.w3.org/2000/svg">
<path d="M0.0188345 80.5789C-0.0823836 81.1218 0.27571 81.644 0.818644 81.7452L9.66621 83.3946C10.2091 83.4958 10.7313 83.1377 10.8325 82.5948C10.9338 82.0519 10.5757 81.5297 10.0327 81.4285L2.16824 79.9623L3.63437 72.0978C3.73556 71.5549 3.3775 71.0327 2.83456 70.9315C2.29163 70.8303 1.76945 71.1884 1.66824 71.7313L0.0188345 80.5789ZM424.319 47.061C423.224 46.3411 422.111 45.625 420.981 44.9131L419.915 46.6055C421.035 47.3106 422.137 48.0196 423.221 48.7322L424.319 47.061ZM414.095 40.7576C411.812 39.4363 409.466 38.1324 407.059 36.8482L406.117 38.6128C408.504 39.8863 410.83 41.1791 413.093 42.4887L414.095 40.7576ZM399.897 33.1748C397.538 32.0122 395.128 30.8689 392.668 29.7467L391.838 31.5664C394.28 32.6803 396.672 33.815 399.012 34.9686L399.897 33.1748ZM385.328 26.5256C382.89 25.4968 380.408 24.489 377.883 23.5037L377.156 25.3669C379.665 26.3456 382.13 27.3466 384.55 28.3682L385.328 26.5256ZM370.34 20.6752C367.86 19.782 365.341 18.9108 362.786 18.0629L362.156 19.9611C364.696 20.8037 367.198 21.6695 369.662 22.5569L370.34 20.6752ZM355.148 15.6321C352.607 14.8575 350.032 14.1061 347.425 13.3791L346.888 15.3057C349.48 16.0283 352.039 16.7752 354.565 17.5452L355.148 15.6321ZM339.683 11.3177C337.117 10.6663 334.522 10.0387 331.898 9.43602L331.45 11.3852C334.059 11.9845 336.639 12.6085 339.191 13.2562L339.683 11.3177ZM324.039 7.72383C321.445 7.18896 318.825 6.67857 316.179 6.19374L315.819 8.16097C318.45 8.64316 321.056 9.15073 323.636 9.68264L324.039 7.72383ZM308.283 4.83512C305.652 4.41174 302.997 4.01373 300.321 3.64207L300.046 5.62307C302.708 5.99275 305.348 6.38863 307.965 6.80972L308.283 4.83512ZM292.396 2.62727C289.756 2.31748 287.096 2.03341 284.415 1.77598L284.224 3.76682C286.891 4.02291 289.537 4.30548 292.163 4.61365L292.396 2.62727ZM276.419 1.09221C273.775 0.893823 271.112 0.721478 268.432 0.576001L268.324 2.57306C270.99 2.71779 273.639 2.88924 276.269 3.0866L276.419 1.09221ZM260.391 0.222699C257.745 0.133713 255.082 0.0710608 252.404 0.0355163L252.378 2.03533C255.042 2.0707 257.691 2.13304 260.324 2.22157L260.391 0.222699ZM244.373 0.0106002C241.717 0.0293293 239.047 0.0748681 236.363 0.147945L236.417 2.1472C239.088 2.0745 241.745 2.02918 244.388 2.01055L244.373 0.0106002ZM228.353 0.44651C225.693 0.572387 223.021 0.725463 220.336 0.906429L220.47 2.9019C223.142 2.72184 225.801 2.56952 228.448 2.44428L228.353 0.44651ZM212.359 1.5237C209.701 1.75591 207.031 2.01564 204.351 2.30352L204.565 4.29208C207.232 4.00561 209.888 3.74717 212.533 3.51611L212.359 1.5237ZM196.417 3.23465C193.769 3.5718 191.111 3.93663 188.444 4.32974L188.735 6.30837C191.39 5.91717 194.035 5.55413 196.67 5.21864L196.417 3.23465ZM180.555 5.57091C177.924 6.01105 175.284 6.47892 172.636 6.9751L173.004 8.94088C175.64 8.44711 178.266 7.9815 180.885 7.54349L180.555 5.57091ZM164.795 8.52282C162.184 9.06428 159.566 9.63347 156.941 10.2309L157.384 12.1811C159.997 11.5865 162.603 11.02 165.201 10.4811L164.795 8.52282ZM149.161 12.0795C146.574 12.7205 143.98 13.3892 141.379 14.086L141.897 16.0179C144.485 15.3243 147.067 14.6588 149.642 14.0208L149.161 12.0795ZM133.676 16.2288C131.114 16.9674 128.546 17.7337 125.974 18.528L126.564 20.439C129.124 19.6483 131.68 18.8857 134.23 18.1505L133.676 16.2288ZM118.358 20.9572C115.824 21.7915 113.286 22.6534 110.743 23.5432L111.403 25.431C113.934 24.5452 116.461 23.6874 118.984 22.8569L118.358 20.9572ZM103.228 26.25C100.724 27.1781 98.2154 28.1336 95.7037 29.1169L96.4328 30.9793C98.9331 30.0004 101.43 29.0493 103.923 28.1254L103.228 26.25ZM88.3016 32.0917C85.8312 33.1103 83.3578 34.1561 80.8816 35.2295L81.6771 37.0645C84.1422 35.9959 86.6047 34.9547 89.0641 33.9407L88.3016 32.0917ZM73.5937 38.4655C71.1651 39.5695 68.7341 40.7003 66.3012 41.8584L67.1608 43.6642C69.5831 42.5113 72.0034 41.3854 74.4214 40.2862L73.5937 38.4655ZM59.1171 45.3545C56.7336 46.54 54.3484 47.7518 51.9618 48.9904L52.8831 50.7655C55.2595 49.5322 57.6345 48.3256 60.0077 47.1452L59.1171 45.3545ZM44.8823 52.7412C42.5469 54.004 40.2105 55.2926 37.8732 56.6075L38.8537 58.3506C41.1813 57.0412 43.508 55.758 45.8335 54.5005L44.8823 52.7412ZM30.8975 60.6085C28.613 61.9442 26.3279 63.3051 24.0426 64.6918L25.08 66.4016C27.3561 65.0207 29.6319 63.6652 31.907 62.3351L30.8975 60.6085ZM17.1857 68.9288C14.9488 70.3362 12.7119 71.7684 10.4751 73.2258L11.5669 74.9015C13.7949 73.4499 16.0229 72.0234 18.2508 70.6216L17.1857 68.9288ZM3.78227 77.6623C2.66688 78.4143 1.55156 79.1727 0.436369 79.9374L1.56744 81.5869C2.67833 80.8251 3.78931 80.0697 4.90037 79.3205L3.78227 77.6623Z" fill="#2E3B4E"/>
</svg>
