<svg width="443" height="75" viewBox="0 0 443 75" fill="none" xmlns="http://www.w3.org/2000/svg">
<path d="M0.427757 2.98031C0.33389 2.56826 0.5918 2.15813 1.00387 2.06426L7.71848 0.534444C8.13055 0.440564 8.54067 0.69849 8.63454 1.11053C8.72841 1.52258 8.4705 1.93271 8.05846 2.02658L2.08987 3.38642L3.44973 9.35499C3.5436 9.76703 3.28566 10.1772 2.87362 10.271C2.46158 10.3649 2.05146 10.107 1.95759 9.69495L0.427757 2.98031ZM442.516 4.95476C441.745 5.61325 440.963 6.27028 440.172 6.92571L439.196 5.74702C439.982 5.0964 440.757 4.44425 441.523 3.79074L442.516 4.95476ZM435.305 10.8377C433.702 12.0879 432.064 13.331 430.39 14.5658L429.481 13.3342C431.144 12.1075 432.772 10.8727 434.363 9.63115L435.305 10.8377ZM425.333 18.1941C423.654 19.3656 421.944 20.5285 420.201 21.6816L419.357 20.4054C421.089 19.2591 422.789 18.1034 424.457 16.9392L425.333 18.1941ZM414.995 25.0378C413.251 26.1333 411.477 27.2189 409.675 28.2937L408.891 26.9792C410.683 25.9105 412.447 24.831 414.181 23.7418L414.995 25.0378ZM404.341 31.3944C402.547 32.4106 400.728 33.416 398.882 34.4096L398.157 33.0621C399.993 32.0737 401.803 31.0737 403.586 30.0629L404.341 31.3944ZM393.416 37.2789C391.583 38.2165 389.727 39.1424 387.847 40.0559L387.179 38.6794C389.049 37.7705 390.896 36.8493 392.719 35.9165L393.416 37.2789ZM382.256 42.7042C380.389 43.566 378.5 44.4155 376.589 45.2518L375.976 43.8499C377.877 43.0176 379.757 42.1723 381.615 41.3147L382.256 42.7042ZM370.892 47.681C368.993 48.4693 367.074 49.2445 365.135 50.0062L364.576 48.5818C366.505 47.8237 368.415 47.0521 370.305 46.2675L370.892 47.681ZM359.348 52.218C357.42 52.9343 355.473 53.6371 353.509 54.3258L353.003 52.8817C354.958 52.1961 356.895 51.4965 358.815 50.7834L359.348 52.218ZM347.645 56.322C345.69 56.9677 343.719 57.5993 341.731 58.2164L341.277 56.7548C343.256 56.1405 345.219 55.5116 347.165 54.8688L347.645 56.322ZM335.803 59.9985C333.824 60.5744 331.829 61.1359 329.819 61.6823L329.418 60.2055C331.419 59.6615 333.405 59.1025 335.376 58.5291L335.803 59.9985ZM323.839 63.2519C321.837 63.7586 319.821 64.2505 317.79 64.7269L317.441 63.237C319.462 62.7626 321.47 62.2729 323.463 61.7683L323.839 63.2519ZM311.768 66.0854C309.747 66.5231 307.713 66.9454 305.665 67.352L305.367 65.8509C307.406 65.4461 309.432 65.0255 311.444 64.5897L311.768 66.0854ZM299.605 68.502C297.574 68.8695 295.531 69.2215 293.476 69.5575L293.229 68.0471C295.276 67.7126 297.31 67.3621 299.332 66.9961L299.605 68.502ZM287.364 70.5038C285.327 70.8018 283.278 71.0839 281.218 71.3499L281.022 69.8322C283.073 69.5673 285.114 69.2862 287.143 68.9895L287.364 70.5038ZM275.059 72.0929C273.017 72.3218 270.965 72.5348 268.903 72.7315L268.758 71.2081C270.812 71.0122 272.855 70.8 274.888 70.572L275.059 72.0929ZM262.701 73.271C260.659 73.4316 258.607 73.5761 256.545 73.7042L256.45 72.1768C258.503 72.0492 260.547 71.9053 262.581 71.7454L262.701 73.271ZM250.332 74.0389C248.282 74.1324 246.223 74.2096 244.155 74.2702L244.11 72.7405C246.17 72.6801 248.221 72.6032 250.262 72.5101L250.332 74.0389ZM237.954 74.4012C235.893 74.428 233.822 74.4382 231.744 74.4315L231.749 72.9011C233.819 72.9078 235.881 72.8977 237.935 72.871L237.954 74.4012ZM225.564 74.3617C223.496 74.3218 221.421 74.265 219.337 74.191L219.391 72.6616C221.467 72.7353 223.534 72.7918 225.594 72.8316L225.564 74.3617ZM213.172 73.9231C211.114 73.8172 209.049 73.6946 206.977 73.5549L207.08 72.028C209.144 72.1672 211.201 72.2893 213.25 72.3947L213.172 73.9231ZM200.786 73.0881C198.742 72.9176 196.691 72.7304 194.633 72.5263L194.784 71.0034C196.834 71.2067 198.877 71.3932 200.914 71.563L200.786 73.0881ZM188.441 71.8625C186.404 71.628 184.361 71.3767 182.312 71.1085L182.511 69.591C184.552 69.8582 186.587 70.1085 188.616 70.3422L188.441 71.8625ZM176.172 70.256C174.128 69.9561 172.078 69.6392 170.023 69.305L170.268 67.7944C172.316 68.1273 174.358 68.4431 176.395 68.7419L176.172 70.256ZM163.943 68.2688C161.911 67.9066 159.874 67.5275 157.832 67.1311L158.123 65.6288C160.158 66.0236 162.187 66.4013 164.212 66.7622L163.943 68.2688ZM151.759 65.9048C149.75 65.4833 147.736 65.0452 145.718 64.5901L146.055 63.0972C148.065 63.5506 150.071 63.9871 152.073 64.407L151.759 65.9048ZM139.65 63.1739C137.658 62.6932 135.662 62.196 133.662 61.682L134.042 60.1998C136.036 60.7119 138.024 61.2073 140.009 61.6862L139.65 63.1739ZM127.674 60.0966C125.675 59.5515 123.672 58.9896 121.665 58.4106L122.089 56.9402C124.089 57.5171 126.085 58.077 128.077 58.6201L127.674 60.0966ZM115.766 56.6627C113.796 56.0636 111.822 55.448 109.845 54.8157L110.311 53.358C112.281 53.9881 114.248 54.6016 116.211 55.1985L115.766 56.6627ZM103.926 52.8758C101.988 52.2253 100.047 51.5586 98.1022 50.8756L98.6094 49.4317C100.547 50.1124 102.482 50.7767 104.413 51.425L103.926 52.8758ZM92.2597 48.7773C90.3207 48.0656 88.3787 47.3375 86.4339 46.5929L86.9811 45.1637C88.9193 45.9058 90.8547 46.6313 92.787 47.3406L92.2597 48.7773ZM80.6967 44.3515C78.7817 43.5883 76.864 42.809 74.9437 42.0134L75.5295 40.5996C77.4433 41.3925 79.3547 42.1692 81.2633 42.9299L80.6967 44.3515ZM69.2121 39.5933C67.3344 38.7855 65.4544 37.9621 63.572 37.1229L64.1953 35.7251C66.0714 36.5616 67.9453 37.3824 69.8169 38.1875L69.2121 39.5933ZM57.9185 34.5574C56.0411 33.6906 54.1616 32.8079 52.28 31.9092L52.9396 30.5283C54.8152 31.4241 56.6886 32.3039 58.56 33.1679L57.9185 34.5574ZM46.7462 29.2227C44.8997 28.3117 43.0513 27.3853 41.2012 26.4431L41.8956 25.0794C43.74 26.0186 45.5826 26.9422 47.4233 27.8503L46.7462 29.2227ZM35.6526 23.5734C33.8477 22.6254 32.0412 21.6624 30.2332 20.6843L30.9613 19.3382C32.7639 20.3134 34.5649 21.2734 36.3642 22.2185L35.6526 23.5734ZM24.8046 17.7044C22.9936 16.6959 21.1811 15.6722 19.3673 14.633L20.1281 13.3051C21.9365 14.3412 23.7436 15.3619 25.5491 16.3674L24.8046 17.7044ZM14.0428 11.5402C12.2755 10.4997 10.5071 9.44444 8.73745 8.37435L9.52935 7.06479C11.2938 8.13179 13.0572 9.18396 14.8192 10.2214L14.0428 11.5402ZM3.42532 5.11942C2.53931 4.56939 1.65302 4.01561 0.76647 3.45807L1.58118 2.16258C2.46521 2.71854 3.349 3.27074 4.23249 3.8192L3.42532 5.11942Z" fill="#2E3B4E"/>
</svg>
