<svg width="109" height="116" viewBox="0 0 109 116" fill="none" xmlns="http://www.w3.org/2000/svg">
<path d="M107.711 109.126C108.132 108.769 108.185 108.138 107.829 107.716L102.02 100.842C101.663 100.421 101.032 100.368 100.61 100.724C100.189 101.081 100.136 101.712 100.492 102.133L105.656 108.244L99.5456 113.407C99.1238 113.764 99.0709 114.395 99.4273 114.817C99.7838 115.239 100.415 115.292 100.837 114.935L107.711 109.126ZM28.6438 0.670005C27.6738 1.5776 26.7201 2.49677 25.7841 3.42663L27.1937 4.84548C28.1153 3.92991 29.0546 3.02458 30.0102 2.13038L28.6438 0.670005ZM20.3298 9.1986C18.553 11.2064 16.8652 13.2528 15.2801 15.3298L16.87 16.5432C18.4242 14.5067 20.0811 12.4976 21.8275 10.524L20.3298 9.1986ZM10.7116 21.8556C9.25644 24.1392 7.93469 26.4497 6.76365 28.7773L8.55028 29.6761C9.6887 27.4134 10.9766 25.1615 12.3982 22.9304L10.7116 21.8556ZM3.60677 36.117C2.69034 38.6924 1.97566 41.2778 1.48657 43.8599L3.45163 44.2322C3.91989 41.76 4.60611 39.2743 5.49102 36.7875L3.60677 36.117ZM0.719522 51.8748C0.724843 54.5757 1.00885 57.2558 1.59887 59.8983L3.55081 59.4624C2.99392 56.9684 2.72457 54.4334 2.71952 51.8709L0.719522 51.8748ZM4.23476 67.5293C5.35195 69.8762 6.74798 72.1716 8.44074 74.4034L10.0342 73.1948C8.42099 71.0678 7.09701 68.8889 6.04059 66.6697L4.23476 67.5293ZM13.8595 80.3734C15.7051 82.0988 17.7603 83.7736 20.0347 85.3917L21.1941 83.762C18.987 82.1918 17.0015 80.5729 15.2254 78.9124L13.8595 80.3734ZM26.7883 89.6599C29.0066 90.9095 31.3816 92.117 33.919 93.279L34.7517 91.4606C32.2615 90.3202 29.9365 89.1378 27.77 87.9173L26.7883 89.6599ZM41.2255 96.3248C43.601 97.2264 46.0945 98.0941 48.7096 98.9259L49.3158 97.02C46.7336 96.1987 44.2747 95.3429 41.9352 94.4549L41.2255 96.3248ZM56.3239 101.152C58.7904 101.814 61.3509 102.447 64.0078 103.051L64.451 101.101C61.8181 100.502 59.2827 99.875 56.8423 99.2202L56.3239 101.152ZM71.7038 104.663C74.211 105.146 76.7952 105.605 79.458 106.039L79.7796 104.065C77.135 103.634 74.5698 103.178 72.0821 102.699L71.7038 104.663ZM87.2834 107.209C89.8537 107.561 92.491 107.891 95.1964 108.199L95.4224 106.211C92.7315 105.905 90.1094 105.577 87.5546 105.228L87.2834 107.209ZM102.962 109.002C104.287 109.126 105.627 109.245 106.981 109.358L107.149 107.365C105.8 107.252 104.467 107.134 103.149 107.011L102.962 109.002Z" fill="#2E3B4E"/>
</svg>
