<svg width="1918" height="809" viewBox="0 0 1918 809" fill="none" xmlns="http://www.w3.org/2000/svg">
<mask id="mask0_104_1181" style="mask-type:alpha" maskUnits="userSpaceOnUse" x="0" y="0" width="1920" height="809">
<rect width="1920" height="809" fill="#C4C4C4"/>
</mask>
<g mask="url(#mask0_104_1181)">
<path d="M601.5 -108.846C601.5 286.398 280.266 606.809 -116 606.809C-512.266 606.809 -833.5 286.398 -833.5 -108.846C-833.5 -504.089 -512.266 -824.5 -116 -824.5C280.266 -824.5 601.5 -504.089 601.5 -108.846Z" stroke="#E3E3E3"/>
<path d="M2736.5 -28.1311C2736.5 428.259 2365.57 798.238 1908 798.238C1450.43 798.238 1079.5 428.259 1079.5 -28.1311C1079.5 -484.521 1450.43 -854.5 1908 -854.5C2365.57 -854.5 2736.5 -484.521 2736.5 -28.1311Z" stroke="#E3E3E3"/>
<path d="M2486.5 -28.1331C2486.5 290.54 2227.5 548.878 1908 548.878C1588.5 548.878 1329.5 290.54 1329.5 -28.1331C1329.5 -346.806 1588.5 -605.145 1908 -605.145C2227.5 -605.145 2486.5 -346.806 2486.5 -28.1331Z" stroke="#E3E3E3"/>
</g>
</svg>
