<svg width="96" height="103" viewBox="0 0 96 103" fill="none" xmlns="http://www.w3.org/2000/svg">
<rect width="96" height="103" rx="20" fill="#2E3B4E"/>
<mask id="mask0_256_752" style="mask-type:alpha" maskUnits="userSpaceOnUse" x="0" y="0" width="96" height="103">
<rect width="96" height="103" rx="20" fill="#5236FF"/>
</mask>
<g mask="url(#mask0_256_752)">
<path d="M81.459 43.3849V73.5516C81.459 74.5532 80.6118 75.3517 79.5697 75.3354L27.742 74.8337C26.8446 74.8186 26.1191 74.0562 26.1191 73.1306V45.2536L81.459 43.3849Z" fill="url(#paint0_linear_256_752)"/>
<path d="M27.742 41.6468L79.282 39.3273C79.7854 39.306 80.5328 39.7838 80.8721 40.0801C81.2336 40.3957 81.459 40.8526 81.459 41.3687V44.4598L80.7952 44.1226L26.1191 46.2469V43.3905C26.1191 42.4649 26.8445 41.6843 27.742 41.6468Z" fill="url(#paint1_linear_256_752)"/>
<path d="M80.7961 44.1226V73.1546C80.7961 74.154 79.9523 74.952 78.9146 74.937L27.2814 74.5004C26.3871 74.4865 25.6641 73.7262 25.6641 72.8022V44.9726L80.7961 44.1226Z" fill="white"/>
<path d="M27.2814 41.3704L78.9146 39.308C79.9523 39.264 80.7961 40.0384 80.7961 41.0379V44.1226L25.6641 45.9643V43.1127C25.6641 42.1888 26.387 41.4088 27.2814 41.3704Z" fill="url(#paint2_linear_256_752)"/>
<path d="M65.8457 57.7398L66.272 48.255C70.6654 48.4826 74.6955 51.4826 75.8568 55.9589L65.8457 57.7398Z" fill="#0066FF"/>
<path d="M73.325 57.0899C73.6981 59.2355 73.0884 61.3102 71.7983 62.8691L66.252 58.3145L73.325 57.0899Z" fill="#A82EDB"/>
<path d="M65.1933 57.5566C63.2888 56.423 61.0411 55.082 59.291 54.0325C60.2535 52.5329 61.7933 51.3722 63.7236 50.8989C64.3176 50.7532 64.9158 50.6806 65.5084 50.6757L65.1933 57.5566Z" fill="#009688"/>
<path d="M65.0041 58.1775L60.4799 63.2689C59.4662 62.2824 58.7137 61.0194 58.3686 59.5763C57.9439 57.8012 58.2048 56.0401 58.9838 54.5612C59.4633 54.8505 59.9992 55.1733 60.5899 55.5286C62.4028 56.6189 64.2595 57.7315 65.0041 58.1775Z" fill="#5267C1"/>
<path d="M65.3293 58.7971L66.8519 65.4862C64.6613 65.7193 62.544 65.0096 60.9551 63.6944L65.3293 58.7971Z" fill="#FCE586"/>
<path d="M66.0273 58.9521L71.3601 63.3525C70.3495 64.3696 69.0243 65.0972 67.4957 65.3901L66.0273 58.9521Z" fill="#F4A856"/>
<path d="M29.7344 54.0771L51.8732 53.5905V50.7259L29.7344 51.2811V54.0771Z" fill="#F9EFE4"/>
<path d="M29.7344 59.1364L51.8732 58.7739V55.9094L29.7344 56.3405V59.1364Z" fill="#F9EFE4"/>
<path d="M29.875 64.0465L52.038 63.7958V60.9296L29.875 61.2491V64.0465Z" fill="#F9EFE4"/>
<path d="M29.875 69.1085L52.038 68.9822V66.116L29.875 66.311V69.1085Z" fill="#F9EFE4"/>
<path d="M76.4902 41.8081C76.4902 42.2494 76.861 42.5933 77.3189 42.5762C77.7775 42.5591 78.1498 42.1865 78.1498 41.744C78.1498 41.3015 77.7775 40.9577 77.3189 40.976C76.861 40.9942 76.4902 41.3668 76.4902 41.8081Z" fill="white"/>
<path d="M33.9805 32.5734L39.9136 26.3172L34.0679 20.3791L35.3667 20.135L44.9079 26.1824L40.277 32.1944L38.9783 32.4385L33.9805 32.5734Z" fill="url(#paint3_linear_256_752)"/>
<path d="M43.5133 79.898V79.8746C37.3229 80.3391 31.1344 78.4182 26.2209 74.2277C15.7181 65.2705 14.4963 48.8802 23.4973 37.6908C27.9622 32.1405 34.1941 28.7183 41.0448 28.0548C42.0019 27.9621 42.7312 27.0851 42.6738 26.096C42.6163 25.1068 41.7937 24.38 40.8369 24.4728C33.0381 25.228 25.944 29.1238 20.861 35.4424C10.6142 48.1804 12.0051 66.8393 23.9615 77.0364C25.4448 78.3013 27.0291 79.384 28.6894 80.2834C36.8421 84.6993 46.805 84.6757 55.3769 79.9188C55.753 79.7101 56.0304 79.3823 56.1871 79.0066L43.5133 79.898Z" fill="#2E3B4E"/>
<path d="M35.2793 32.3293L41.2125 26.0731L35.3668 20.135L40.3646 20L46.2068 25.9382L40.2771 32.1944L35.2793 32.3293Z" fill="url(#paint4_linear_256_752)"/>
<path d="M44.8121 79.6539V79.6305C38.6217 80.0949 32.4333 78.174 27.5197 73.9835C17.0169 65.0263 15.7952 48.636 24.7961 37.4467C29.2611 31.8963 35.493 28.4742 42.3437 27.8107C43.3007 27.718 44.03 26.841 43.9726 25.8518C43.9152 24.8626 43.0925 24.1359 42.1357 24.2287C34.3369 24.9838 27.2428 28.8797 22.1598 35.1982C11.913 47.9362 13.3039 66.5951 25.2603 76.7922C26.7436 78.0571 28.3279 79.1399 29.9882 80.0392C38.1409 84.4551 48.1038 84.4315 56.6757 79.6746C57.0518 79.4659 57.3292 79.1381 57.486 78.7624L44.8121 79.6539Z" fill="url(#paint5_linear_256_752)"/>
<path d="M51.313 55.9559C52.6052 56.2393 53.9014 55.3348 54.2083 53.9357C54.5152 52.5366 53.7165 51.1727 52.4244 50.8892C52.3574 50.8746 52.2905 50.865 52.2237 50.8565C52.2583 50.1175 52.2393 49.3865 52.1676 48.6691C52.233 48.6519 52.2984 48.6338 52.3636 48.6105C53.6361 48.1564 54.3594 46.6912 53.9791 45.3378C53.5988 43.9844 52.259 43.2554 50.9865 43.7094C50.92 43.7332 50.8559 43.7613 50.7925 43.7904C50.4814 43.1515 50.1241 42.5413 49.7236 41.9649C49.7744 41.9142 49.8246 41.8626 49.8722 41.8067C50.7841 40.7367 50.7405 39.1033 49.775 38.1583C48.8094 37.2133 47.2874 37.3146 46.3756 38.3845C46.3289 38.4393 46.2863 38.4965 46.2446 38.5541C45.6782 38.1818 45.0784 37.8561 44.4493 37.58C44.4704 37.5103 44.4905 37.44 44.5064 37.3675C44.8133 35.9684 45.2831 34.4052 43.9867 34.142C40.9877 33.5333 40.1341 34.9421 39.8272 36.3411C39.8113 36.4136 39.8002 36.4859 39.7902 36.558C39.1033 36.5454 38.4223 36.5902 37.7519 36.6912C37.7382 36.6215 37.7235 36.5518 37.704 36.4824C37.3237 35.1291 37.5364 34.2881 36.2223 34.602C33.3566 35.2864 32.7157 36.7735 33.096 38.1269C33.1159 38.1976 33.1399 38.2656 33.1648 38.3328C32.5598 38.6886 31.9798 39.0932 31.43 39.5433C31.3846 39.4903 31.3381 39.438 31.2876 39.3885C30.3221 38.4435 28.8001 38.5448 27.8882 39.6148C26.9764 40.6848 27.02 42.3182 27.9856 43.2632C28.035 43.3116 28.0868 43.3554 28.139 43.3984C27.7736 44.02 27.4504 44.6759 27.1725 45.3616C27.1083 45.3413 27.0435 45.322 26.9766 45.3073C25.6844 45.0239 24.3881 45.9283 24.0812 47.3274C23.7744 48.7265 24.5731 50.0905 25.8652 50.3739C25.9322 50.3886 25.9991 50.3981 26.0659 50.4066C26.0313 51.1457 26.0502 51.8766 26.122 52.5941C26.0565 52.6112 25.9912 52.6293 25.926 52.6526C24.6535 53.1067 23.9303 54.5719 24.3106 55.9253C24.6909 57.2788 26.0307 58.0077 27.3032 57.5536C27.3697 57.5299 27.4338 57.5018 27.4972 57.4727C27.8082 58.1116 28.1655 58.7218 28.5661 59.2982C28.5153 59.3489 28.4651 59.4005 28.4174 59.4564C27.5056 60.5264 27.5491 62.1598 28.5147 63.1048C29.4803 64.0498 31.8498 63.9904 32.7616 62.9205C32.8083 62.8657 32.0034 62.7667 32.0451 62.709C32.6115 63.0814 33.2113 63.4071 33.8404 63.6831C33.8193 63.7528 33.7992 63.8232 33.7833 63.8956C33.4764 65.2947 34.275 66.6587 35.5672 66.9421C36.8593 67.2256 38.1556 66.3211 38.4625 64.922C38.4784 64.8495 38.4896 64.7772 38.4996 64.7051C39.1865 64.7177 39.8675 64.673 40.5378 64.5719C40.5516 64.6417 40.5663 64.7114 40.5857 64.7807C40.9661 66.1341 42.3059 66.8631 43.5783 66.409C44.8508 65.9549 45.5741 64.4896 45.1938 63.1363C45.1739 63.0656 45.1499 62.9976 45.125 62.9304C45.73 62.5746 46.3099 62.17 46.8598 61.7198C46.9053 61.7728 46.9517 61.8251 47.0022 61.8745C47.9677 62.8195 49.4897 62.7183 50.4016 61.6483C51.3134 60.5783 51.2698 58.9449 50.3043 57.9998C50.2548 57.9515 50.203 57.9076 50.1508 57.8647C50.5163 57.243 50.8394 56.5872 51.1173 55.9014C51.1813 55.9218 51.246 55.9412 51.313 55.9559ZM37.1271 59.8295C32.4357 58.8004 29.5358 53.8482 30.6501 48.7683C31.7643 43.6885 36.4708 40.4047 41.1623 41.4338C45.8537 42.4628 48.7536 47.415 47.6394 52.4949C46.5251 57.5747 41.8187 60.8585 37.1271 59.8295Z" fill="url(#paint6_linear_256_752)"/>
<path d="M52.3644 48.6105C53.6369 48.1564 54.3601 46.6911 53.9799 45.3378C53.5996 43.9844 52.2597 43.2553 50.9873 43.7095C50.9207 43.7332 50.8567 43.7613 50.7932 43.7904C50.4823 43.1515 50.1249 42.5413 49.7243 41.9649C49.7751 41.9143 49.8254 41.8626 49.873 41.8066C50.7849 40.7367 51.6741 38.4925 50.6167 37.6515C48.6098 36.0554 47.2882 37.3146 46.3763 38.3845C46.3297 38.4393 46.2871 38.4964 46.2454 38.554C45.6789 38.1817 45.0792 37.8561 44.4501 37.58C44.4712 37.5103 44.4913 37.44 44.5072 37.3675C44.6742 36.606 44.5119 35.8564 44.1226 35.2843C43.5378 37.4581 42.9695 39.6361 42.423 41.8196C46.3588 43.3848 48.6508 47.8871 47.6401 52.4948C46.7837 56.3994 43.8043 59.2402 40.3414 59.8796C40.2918 60.3123 40.2456 60.7464 40.1842 61.1781C40.0178 62.3495 39.7858 63.5147 39.5527 64.6787C39.8835 64.6564 40.2122 64.621 40.5384 64.5718C40.5522 64.6417 40.5669 64.7113 40.5864 64.7807C40.9666 66.1341 42.0926 67.0756 44.4208 66.3378C45.7088 65.9297 45.5747 64.4896 45.1943 63.1362C45.1745 63.0655 45.1505 62.9975 45.1255 62.9303C45.7306 62.5745 46.3105 62.1699 46.8604 61.7198C46.9058 61.7728 46.9523 61.8251 47.0027 61.8745C47.9683 62.8195 50.4332 62.6879 51.345 61.6179C52.2569 60.5479 51.2704 58.9449 50.3048 57.9998C50.2553 57.9514 50.2035 57.9076 50.1513 57.8646C50.5168 57.243 50.8399 56.5871 51.1178 55.9014C51.1821 55.9218 51.2468 55.9411 51.3138 55.9557C52.6059 56.2392 53.9022 55.3347 54.2091 53.9356C54.516 52.5366 53.7173 51.1725 52.4252 50.8891C52.3582 50.8745 52.2913 50.8649 52.2245 50.8565C52.2591 50.1174 52.2401 49.3864 52.1684 48.669C52.2339 48.6519 52.2993 48.6337 52.3644 48.6105Z" fill="url(#paint7_linear_256_752)"/>
<path d="M52.5768 55.7769C53.8689 56.0603 55.1652 55.1559 55.4721 53.7568C55.779 52.3577 54.9803 50.9937 53.6882 50.7103C53.6212 50.6956 53.5543 50.686 53.4875 50.6776C53.5221 49.9385 53.5032 49.2076 53.4315 48.4901C53.4969 48.4729 53.5623 48.4548 53.6274 48.4315C54.8999 47.9774 55.6232 46.5122 55.2429 45.1588C54.8626 43.8054 53.5228 43.0764 52.2503 43.5305C52.1838 43.5543 52.1197 43.5824 52.0563 43.6115C51.7453 42.9726 51.388 42.3623 50.9873 41.786C51.0382 41.7354 51.0884 41.6837 51.136 41.6277C52.0478 40.5578 52.0043 38.9244 51.0388 37.9794C50.0732 37.0344 48.5512 37.1357 47.6394 38.2056C47.5927 38.2605 47.5502 38.3176 47.5084 38.3752C46.942 38.0028 46.3422 37.6772 45.7131 37.4012C45.7341 37.3314 45.7543 37.2611 45.7702 37.1886C46.0771 35.7895 45.2784 34.4255 43.9862 34.1421C42.6941 33.8587 41.3979 34.7631 41.091 36.1622C41.0751 36.2347 41.0639 36.307 41.0539 36.3792C40.367 36.3665 39.686 36.4113 39.0157 36.5124C39.0019 36.4426 38.9872 36.3729 38.9678 36.3035C38.5875 34.9502 37.2476 34.2212 35.9752 34.6752C34.7027 35.1293 33.9795 36.5946 34.3597 37.9479C34.3796 38.0187 34.4035 38.0867 34.4285 38.1539C33.8235 38.5097 33.2435 38.9143 32.6936 39.3644C32.6482 39.3114 32.6018 39.2591 32.5513 39.2097C31.5857 38.2647 30.0638 38.366 29.1519 39.4359C28.2401 40.5059 28.2836 42.1393 29.2492 43.0843C29.2987 43.1327 29.3505 43.1766 29.4027 43.2195C29.0372 43.8411 28.7141 44.497 28.4362 45.1827C28.372 45.1624 28.3072 45.1431 28.2402 45.1284C26.9481 44.845 25.6518 45.7494 25.3449 47.1485C25.0381 48.5477 25.8367 49.9116 27.1289 50.195C27.1958 50.2097 27.2627 50.2193 27.3296 50.2277C27.2949 50.9668 27.3139 51.6977 27.3856 52.4152C27.3202 52.4324 27.2548 52.4505 27.1896 52.4737C25.9171 52.9279 25.1939 54.3931 25.5742 55.7465C25.9545 57.0999 27.2943 57.8288 28.5668 57.3747C28.6333 57.351 28.6974 57.323 28.7608 57.2939C29.0718 57.9328 29.4292 58.543 29.8297 59.1194C29.7789 59.17 29.7287 59.2217 29.681 59.2776C28.7692 60.3475 28.8128 61.9809 29.7784 62.9259C30.7439 63.871 32.2659 63.7697 33.1777 62.6997C33.2245 62.6449 33.267 62.5878 33.3087 62.5301C33.8751 62.9025 34.4749 63.2282 35.104 63.5042C35.0829 63.5739 35.0628 63.6443 35.0469 63.7167C34.74 65.1158 35.5387 66.4798 36.8308 66.7632C38.123 67.0466 39.4193 66.1422 39.7261 64.7431C39.7421 64.6706 39.7532 64.5983 39.7633 64.5261C40.4501 64.5388 41.1312 64.494 41.8014 64.3929C41.8152 64.4627 41.8299 64.5324 41.8494 64.6018C42.2297 65.9551 43.5695 66.6841 44.842 66.23C46.1145 65.7759 46.8377 64.3107 46.4574 62.9574C46.4375 62.8866 46.4136 62.8187 46.3886 62.7514C46.9937 62.3956 47.5736 61.991 48.1234 61.541C48.1688 61.5939 48.2153 61.6462 48.2658 61.6956C49.2314 62.6406 50.7533 62.5394 51.6652 61.4694C52.577 60.3994 52.5335 58.766 51.5679 57.821C51.5184 57.7726 51.4666 57.7288 51.4144 57.6858C51.7798 57.0642 52.103 56.4083 52.3809 55.7226C52.4451 55.7429 52.5099 55.7622 52.5768 55.7769ZM38.391 59.6505C33.6996 58.6214 30.7996 53.6692 31.9139 48.5894C33.0282 43.5095 37.7347 40.2257 42.4261 41.2548C47.1176 42.2838 50.0175 47.236 48.9032 52.3159C47.7889 57.3957 43.0825 60.6795 38.391 59.6505Z" fill="url(#paint8_linear_256_752)"/>
<path d="M59.4745 77.3186C60.1746 77.6741 61.0542 77.3477 61.4391 76.5896C61.824 75.8315 61.5685 74.9288 60.8684 74.5734C60.8321 74.5549 60.7951 74.5395 60.7579 74.5246C60.888 74.1052 60.9861 73.6824 61.0519 73.2595C61.092 73.2594 61.1323 73.2587 61.1732 73.2551C61.9719 73.1839 62.6059 72.4499 62.5892 71.6156C62.5725 70.7814 61.9114 70.1628 61.1126 70.234C61.0709 70.2377 61.0299 70.2443 60.9891 70.2516C60.9056 69.8382 60.7913 69.4342 60.6471 69.0434C60.6838 69.0219 60.7204 68.9997 60.7561 68.9747C61.4395 68.4959 61.658 67.551 61.2441 66.864C60.8302 66.1771 59.9407 66.0085 59.2573 66.4873C59.2223 66.5118 59.1894 66.5383 59.1568 66.5652C58.8869 66.2668 58.5908 65.9903 58.2705 65.7379C58.293 65.701 58.3151 65.6636 58.335 65.6243C58.72 64.8663 59.2229 64.0381 58.5173 63.6937C56.8851 62.8968 56.1846 63.579 55.7997 64.3371C55.7798 64.3764 55.7626 64.4162 55.7461 64.4562C55.3533 64.3465 54.9554 64.2707 54.5552 64.2288C54.5577 64.1867 54.5596 64.1445 54.5588 64.1017C54.542 63.2675 54.7896 62.816 53.9878 62.8004C52.2394 62.7664 51.6494 63.5253 51.6662 64.3596C51.6671 64.4032 51.6707 64.4458 51.675 64.4881C51.2744 64.6023 50.8808 64.7484 50.4978 64.9249C50.4796 64.8877 50.4607 64.8508 50.4391 64.8148C50.0252 64.128 49.1357 63.9592 48.4523 64.4381C47.7689 64.9169 47.5504 65.8618 47.9643 66.5487C47.9855 66.5839 48.0087 66.6168 48.0323 66.6493C47.7297 66.9519 47.4463 67.2806 47.1843 67.6331C47.1504 67.6119 47.1161 67.5911 47.0798 67.5727C46.3797 67.2172 45.5001 67.5437 45.1152 68.3017C44.7303 69.0598 44.9858 69.9625 45.686 70.318C45.7223 70.3364 45.7593 70.3519 45.7964 70.3667C45.6663 70.7862 45.5683 71.2089 45.5025 71.6319C45.4624 71.632 45.4221 71.6326 45.3812 71.6362C44.5824 71.7075 43.9485 72.4415 43.9652 73.2757C43.9819 74.11 44.643 74.7285 45.4418 74.6574C45.4835 74.6536 45.5245 74.6471 45.5653 74.6398C45.6487 75.0532 45.763 75.4571 45.9073 75.8479C45.8706 75.8694 45.834 75.8917 45.7983 75.9167C45.1149 76.3954 44.8964 77.3404 45.3102 78.0273C45.7241 78.7142 47.0943 79.0333 47.7777 78.5545C47.8127 78.53 47.365 78.3531 47.3975 78.3262C47.6675 78.6246 47.9635 78.9011 48.2838 79.1535C48.2613 79.1904 48.2392 79.2278 48.2193 79.267C47.8344 80.0251 48.0899 80.9278 48.79 81.2833C49.4902 81.6388 50.3697 81.3124 50.7546 80.5543C50.7746 80.515 50.7917 80.4752 50.8083 80.4352C51.201 80.5449 51.599 80.6207 51.9991 80.6626C51.9966 80.7047 51.9947 80.7469 51.9956 80.7897C52.0123 81.6239 52.6734 82.2425 53.4722 82.1713C54.2709 82.1001 54.9049 81.3661 54.8882 80.5318C54.8873 80.4882 54.8837 80.4456 54.8793 80.4033C55.28 80.2891 55.6735 80.143 56.0566 79.9664C56.0747 80.0036 56.0936 80.0406 56.1153 80.0765C56.5292 80.7634 57.4186 80.9321 58.1021 80.4533C58.7855 79.9745 59.0039 79.0296 58.5901 78.3426C58.5689 78.3075 58.5456 78.2746 58.5221 78.2421C58.8247 77.9394 59.1081 77.6108 59.3701 77.2582C59.4039 77.2794 59.4382 77.3002 59.4745 77.3186ZM50.7468 77.4294C48.2048 76.1387 47.277 72.8612 48.6745 70.1088C50.072 67.3563 53.2655 66.1714 55.8075 67.462C58.3495 68.7526 59.2773 72.0301 57.8799 74.7825C56.4823 77.5349 53.2888 78.72 50.7468 77.4294Z" fill="url(#paint9_linear_256_752)"/>
<path d="M61.1742 73.2551C61.973 73.1839 62.6069 72.4499 62.5902 71.6156C62.5735 70.7814 61.9124 70.1628 61.1136 70.234C61.0719 70.2377 61.0309 70.2443 60.9901 70.2516C60.9067 69.8381 60.7924 69.4343 60.6481 69.0434C60.6848 69.022 60.7214 68.9997 60.7571 68.9747C61.4405 68.4959 62.286 67.339 61.8038 66.6983C60.8887 65.4821 59.9417 66.0085 59.2583 66.4873C59.2233 66.5118 59.1904 66.5383 59.1578 66.5651C58.8879 66.2668 58.5918 65.9903 58.2715 65.7379C58.294 65.701 58.3161 65.6636 58.336 65.6243C58.5456 65.2117 58.564 64.7568 58.4257 64.3701C57.7656 65.5319 57.1144 66.6985 56.4749 67.8715C58.5028 69.3575 59.1485 72.2859 57.8809 74.7826C56.8067 76.8982 54.6715 78.0862 52.5866 77.9373C52.4936 78.1785 52.4023 78.421 52.3027 78.6599C52.0324 79.3081 51.7254 79.9429 51.418 80.577C51.6113 80.6134 51.8055 80.6421 52.0002 80.6625C51.9977 80.7047 51.9958 80.7469 51.9966 80.7896C52.0134 81.6239 52.5199 82.3327 53.9675 82.2559C54.7683 82.2135 54.906 81.3661 54.8892 80.5318C54.8883 80.4882 54.8847 80.4456 54.8804 80.4032C55.2811 80.289 55.6746 80.143 56.0576 79.9664C56.0758 80.0036 56.0947 80.0406 56.1163 80.0765C56.5302 80.7634 57.966 81.0552 58.6494 80.5764C59.3328 80.0976 59.005 79.0295 58.5911 78.3426C58.5699 78.3074 58.5467 78.2746 58.5231 78.242C58.8257 77.9394 59.1092 77.6107 59.3711 77.2582C59.405 77.2795 59.4393 77.3003 59.4756 77.3186C60.1757 77.6741 61.0553 77.3477 61.4402 76.5896C61.8251 75.8315 61.5696 74.9288 60.8695 74.5734C60.8332 74.555 60.7962 74.5395 60.759 74.5247C60.8891 74.1052 60.9871 73.6825 61.0529 73.2596C61.093 73.2594 61.1333 73.2587 61.1742 73.2551Z" fill="url(#paint10_linear_256_752)"/>
<path d="M60.2284 77.4043C60.9286 77.7598 61.8081 77.4334 62.1931 76.6753C62.578 75.9172 62.3224 75.0145 61.6223 74.659C61.586 74.6406 61.5491 74.6251 61.5119 74.6103C61.642 74.1908 61.74 73.7681 61.8058 73.3452C61.8459 73.3451 61.8862 73.3444 61.9271 73.3407C62.7259 73.2695 63.3598 72.5355 63.3431 71.7013C63.3264 70.867 62.6653 70.2484 61.8666 70.3196C61.8248 70.3233 61.7838 70.3299 61.743 70.3372C61.6596 69.9238 61.5453 69.5199 61.401 69.129C61.4378 69.1075 61.4743 69.0853 61.5101 69.0603C62.1934 68.5816 62.4119 67.6365 61.9981 66.9497C61.5842 66.2628 60.6947 66.0941 60.0113 66.5729C59.9763 66.5974 59.9434 66.6239 59.9108 66.6508C59.6409 66.3524 59.3448 66.0759 59.0245 65.8235C59.047 65.7866 59.0691 65.7492 59.089 65.7099C59.4739 64.9519 59.2183 64.0492 58.5182 63.6937C57.8181 63.3382 56.9386 63.6646 56.5536 64.4227C56.5337 64.4619 56.5165 64.5018 56.5 64.5418C56.1073 64.4321 55.7093 64.3563 55.3091 64.3145C55.3117 64.2723 55.3136 64.2301 55.3127 64.1873C55.296 63.3531 54.6349 62.7345 53.8361 62.8056C53.0373 62.8769 52.4034 63.6109 52.4201 64.4451C52.421 64.4887 52.4246 64.5314 52.4289 64.5737C52.0283 64.6879 51.6347 64.8339 51.2517 65.0105C51.2335 64.9733 51.2146 64.9364 51.193 64.9004C50.7791 64.2135 49.8896 64.0449 49.2062 64.5237C48.5228 65.0025 48.3043 65.9474 48.7182 66.6343C48.7394 66.6695 48.7626 66.7024 48.7862 66.7349C48.4836 67.0375 48.2002 67.3662 47.9382 67.7187C47.9044 67.6975 47.87 67.6767 47.8337 67.6583C47.1336 67.3028 46.254 67.6292 45.8691 68.3873C45.4842 69.1454 45.7398 70.0481 46.4399 70.4036C46.4762 70.422 46.5132 70.4375 46.5503 70.4523C46.4202 70.8718 46.3221 71.2945 46.2564 71.7174C46.2162 71.7176 46.176 71.7182 46.1351 71.7218C45.3363 71.7931 44.7023 72.5271 44.7191 73.3613C44.7358 74.1956 45.3969 74.8141 46.1957 74.7429C46.2374 74.7392 46.2785 74.7327 46.3192 74.7254C46.4027 75.1388 46.517 75.5426 46.6612 75.9335C46.6245 75.955 46.5879 75.9773 46.5522 76.0023C45.8688 76.481 45.6503 77.426 46.0642 78.1129C46.4781 78.7998 47.3676 78.9685 48.051 78.4897C48.086 78.4651 48.1189 78.4387 48.1515 78.4118C48.4214 78.7101 48.7175 78.9866 49.0377 79.239C49.0152 79.276 48.9932 79.3133 48.9732 79.3526C48.5883 80.1107 48.8439 81.0134 49.544 81.3689C50.2441 81.7243 51.1237 81.3979 51.5086 80.6399C51.5285 80.6006 51.5457 80.5607 51.5622 80.5208C51.955 80.6304 52.3529 80.7063 52.7531 80.7481C52.7506 80.7903 52.7487 80.8325 52.7495 80.8752C52.7662 81.7094 53.4273 82.328 54.2261 82.2569C55.0249 82.1857 55.6589 81.4516 55.6421 80.6174C55.6412 80.5738 55.6376 80.5311 55.6333 80.4888C56.034 80.3746 56.4275 80.2286 56.8105 80.052C56.8287 80.0892 56.8476 80.1262 56.8692 80.162C57.2831 80.849 58.1726 81.0176 58.856 80.5388C59.5394 80.06 59.7579 79.1151 59.344 78.4282C59.3228 78.393 59.2996 78.3601 59.276 78.3277C59.5786 78.025 59.8621 77.6963 60.124 77.3438C60.1578 77.3651 60.1922 77.3858 60.2284 77.4043ZM51.5008 77.515C48.9588 76.2244 48.031 72.9469 49.4284 70.1945C50.8259 67.442 54.0195 66.257 56.5615 67.5476C59.1035 68.8382 60.0313 72.1157 58.6338 74.8682C57.2363 77.6206 54.0427 78.8056 51.5008 77.515Z" fill="url(#paint11_linear_256_752)"/>
</g>
<defs>
<linearGradient id="paint0_linear_256_752" x1="72.91" y1="69.8406" x2="3.53385" y2="29.6202" gradientUnits="userSpaceOnUse">
<stop stop-color="#D3C5CB"/>
<stop offset="1" stop-color="#ADA0A6"/>
</linearGradient>
<linearGradient id="paint1_linear_256_752" x1="72.5042" y1="42.7867" x2="127.844" y2="42.7867" gradientUnits="userSpaceOnUse">
<stop stop-color="#5D535A"/>
<stop offset="1" stop-color="#464143"/>
</linearGradient>
<linearGradient id="paint2_linear_256_752" x1="48.9219" y1="15.0243" x2="54.6607" y2="52.8699" gradientUnits="userSpaceOnUse">
<stop stop-color="#009688"/>
<stop offset="1" stop-color="#009688"/>
</linearGradient>
<linearGradient id="paint3_linear_256_752" x1="33.9805" y1="26.3542" x2="44.9079" y2="26.3542" gradientUnits="userSpaceOnUse">
<stop stop-color="#C9AA74"/>
<stop offset="1" stop-color="#FCE586"/>
</linearGradient>
<linearGradient id="paint4_linear_256_752" x1="35.2793" y1="26.1647" x2="46.2068" y2="26.1647" gradientUnits="userSpaceOnUse">
<stop stop-color="#FCE586"/>
<stop offset="0.9964" stop-color="#35658E"/>
</linearGradient>
<linearGradient id="paint5_linear_256_752" x1="15.2988" y1="53.7595" x2="57.486" y2="53.7595" gradientUnits="userSpaceOnUse">
<stop stop-color="#FCE586"/>
<stop offset="0.9964" stop-color="#35658E"/>
</linearGradient>
<linearGradient id="paint6_linear_256_752" x1="92.0055" y1="1.17625" x2="11.2307" y2="76.7488" gradientUnits="userSpaceOnUse">
<stop stop-color="#86A1C3"/>
<stop offset="0.9964" stop-color="#415B7E"/>
</linearGradient>
<linearGradient id="paint7_linear_256_752" x1="94.9309" y1="4.3022" x2="14.156" y2="79.8749" gradientUnits="userSpaceOnUse">
<stop stop-color="#86A1C3"/>
<stop offset="0.9964" stop-color="#415B7E"/>
</linearGradient>
<linearGradient id="paint8_linear_256_752" x1="16.9874" y1="31.4279" x2="99.1387" y2="98.1599" gradientUnits="userSpaceOnUse">
<stop stop-color="#95AFC7"/>
<stop offset="1" stop-color="#7595B6"/>
</linearGradient>
<linearGradient id="paint9_linear_256_752" x1="109.484" y1="19.86" x2="28.709" y2="95.4326" gradientUnits="userSpaceOnUse">
<stop stop-color="#86A1C3"/>
<stop offset="0.9964" stop-color="#415B7E"/>
</linearGradient>
<linearGradient id="paint10_linear_256_752" x1="111.957" y1="22.502" x2="31.1818" y2="98.0746" gradientUnits="userSpaceOnUse">
<stop stop-color="#86A1C3"/>
<stop offset="0.9964" stop-color="#415B7E"/>
</linearGradient>
<linearGradient id="paint11_linear_256_752" x1="41.6472" y1="67.2775" x2="59.1941" y2="74.7218" gradientUnits="userSpaceOnUse">
<stop stop-color="#95AFC7"/>
<stop offset="1" stop-color="#7595B6"/>
</linearGradient>
</defs>
</svg>
