<svg width="96" height="103" viewBox="0 0 96 103" fill="none" xmlns="http://www.w3.org/2000/svg">
<rect width="96" height="103" rx="20" fill="#203D55"/>
<mask id="mask0_92_7973" style="mask-type:alpha" maskUnits="userSpaceOnUse" x="0" y="0" width="96" height="103">
<rect width="96" height="103" rx="20" fill="#5236FF"/>
</mask>
<g mask="url(#mask0_92_7973)">
<path d="M77.1101 69.6848C77.1101 76.4862 65.4683 81.9999 51.1073 81.9999C36.7464 81.9999 25.1045 76.4862 25.1045 69.6848C25.1045 62.8833 36.7464 57.3697 51.1073 57.3697C65.4683 57.3697 77.1101 62.8833 77.1101 69.6848Z" fill="#22137B"/>
<path d="M77.1101 68.9604C77.1101 75.7618 65.4683 81.2755 51.1073 81.2755C36.7464 81.2755 25.1045 75.7618 25.1045 68.9604C25.1045 62.1589 36.7464 56.6453 51.1073 56.6453C65.4683 56.6453 77.1101 62.1589 77.1101 68.9604Z" fill="#22137B"/>
<path d="M77.1101 68.236C77.1101 75.0374 65.4683 80.5511 51.1073 80.5511C36.7464 80.5511 25.1045 75.0374 25.1045 68.236C25.1045 61.4345 36.7464 55.9208 51.1073 55.9208C65.4683 55.9208 77.1101 61.4345 77.1101 68.236Z" fill="#22137B"/>
<path d="M77.1101 67.5115C77.1101 74.313 65.4683 79.8267 51.1073 79.8267C36.7464 79.8267 25.1045 74.313 25.1045 67.5115C25.1045 60.7101 36.7464 55.1964 51.1073 55.1964C65.4683 55.1964 77.1101 60.7101 77.1101 67.5115Z" fill="#22137B"/>
<path d="M77.1101 66.7871C77.1101 73.5886 65.4683 79.1022 51.1073 79.1022C36.7464 79.1022 25.1045 73.5886 25.1045 66.7871C25.1045 59.9857 36.7464 54.472 51.1073 54.472C65.4683 54.472 77.1101 59.9857 77.1101 66.7871Z" fill="#22137B"/>
<path d="M77.1101 66.0627C77.1101 72.8642 65.4683 78.3778 51.1073 78.3778C36.7464 78.3778 25.1045 72.8642 25.1045 66.0627C25.1045 59.2612 36.7464 53.7476 51.1073 53.7476C65.4683 53.7476 77.1101 59.2612 77.1101 66.0627Z" fill="#22137B"/>
<path d="M77.1101 65.3383C77.1101 72.1397 65.4683 77.6534 51.1073 77.6534C36.7464 77.6534 25.1045 72.1397 25.1045 65.3383C25.1045 58.5368 36.7464 53.0232 51.1073 53.0232C65.4683 53.0232 77.1101 58.5368 77.1101 65.3383Z" fill="#22137B"/>
<path d="M77.1101 64.6139C77.1101 71.4153 65.4683 76.929 51.1073 76.929C36.7464 76.929 25.1045 71.4153 25.1045 64.6139C25.1045 57.8124 36.7464 52.2987 51.1073 52.2987C65.4683 52.2987 77.1101 57.8124 77.1101 64.6139Z" fill="#22137B"/>
<path d="M77.1101 63.8894C77.1101 70.6909 65.4683 76.2046 51.1073 76.2046C36.7464 76.2046 25.1045 70.6909 25.1045 63.8894C25.1045 57.088 36.7464 51.5743 51.1073 51.5743C65.4683 51.5743 77.1101 57.088 77.1101 63.8894Z" fill="#22137B"/>
<path d="M77.1101 63.165C77.1101 69.9665 65.4683 75.4801 51.1073 75.4801C36.7464 75.4801 25.1045 69.9665 25.1045 63.165C25.1045 56.3636 36.7464 50.8499 51.1073 50.8499C65.4683 50.8499 77.1101 56.3636 77.1101 63.165Z" fill="#22137B"/>
<path d="M77.1101 62.4406C77.1101 69.2421 65.4683 74.7557 51.1073 74.7557C36.7464 74.7557 25.1045 69.2421 25.1045 62.4406C25.1045 55.6392 36.7464 50.1255 51.1073 50.1255C65.4683 50.1255 77.1101 55.6392 77.1101 62.4406Z" fill="#22137B"/>
<path d="M77.1101 67.6848C77.1101 74.4862 65.4683 79.9999 51.1073 79.9999C36.7464 79.9999 25.1045 74.4862 25.1045 67.6848C25.1045 60.8833 36.7464 55.3697 51.1073 55.3697C65.4683 55.3697 77.1101 60.8833 77.1101 67.6848Z" fill="#C9AA74"/>
<path d="M77.1101 66.9604C77.1101 73.7618 65.4683 79.2755 51.1073 79.2755C36.7464 79.2755 25.1045 73.7618 25.1045 66.9604C25.1045 60.1589 36.7464 54.6453 51.1073 54.6453C65.4683 54.6453 77.1101 60.1589 77.1101 66.9604Z" fill="#C9AA74"/>
<path d="M77.1101 66.236C77.1101 73.0374 65.4683 78.5511 51.1073 78.5511C36.7464 78.5511 25.1045 73.0374 25.1045 66.236C25.1045 59.4345 36.7464 53.9208 51.1073 53.9208C65.4683 53.9208 77.1101 59.4345 77.1101 66.236Z" fill="#C9AA74"/>
<path d="M77.1101 65.5115C77.1101 72.313 65.4683 77.8267 51.1073 77.8267C36.7464 77.8267 25.1045 72.313 25.1045 65.5115C25.1045 58.7101 36.7464 53.1964 51.1073 53.1964C65.4683 53.1964 77.1101 58.7101 77.1101 65.5115Z" fill="#C9AA74"/>
<path d="M77.1101 64.7871C77.1101 71.5886 65.4683 77.1022 51.1073 77.1022C36.7464 77.1022 25.1045 71.5886 25.1045 64.7871C25.1045 57.9857 36.7464 52.472 51.1073 52.472C65.4683 52.472 77.1101 57.9857 77.1101 64.7871Z" fill="#C9AA74"/>
<path d="M77.1101 64.0627C77.1101 70.8642 65.4683 76.3778 51.1073 76.3778C36.7464 76.3778 25.1045 70.8642 25.1045 64.0627C25.1045 57.2612 36.7464 51.7476 51.1073 51.7476C65.4683 51.7476 77.1101 57.2612 77.1101 64.0627Z" fill="#C9AA74"/>
<path d="M77.1101 63.3383C77.1101 70.1397 65.4683 75.6534 51.1073 75.6534C36.7464 75.6534 25.1045 70.1397 25.1045 63.3383C25.1045 56.5368 36.7464 51.0232 51.1073 51.0232C65.4683 51.0232 77.1101 56.5368 77.1101 63.3383Z" fill="#C9AA74"/>
<path d="M77.1101 62.6139C77.1101 69.4153 65.4683 74.929 51.1073 74.929C36.7464 74.929 25.1045 69.4153 25.1045 62.6139C25.1045 55.8124 36.7464 50.2987 51.1073 50.2987C65.4683 50.2987 77.1101 55.8124 77.1101 62.6139Z" fill="#C9AA74"/>
<path d="M77.1101 61.8894C77.1101 68.6909 65.4683 74.2046 51.1073 74.2046C36.7464 74.2046 25.1045 68.6909 25.1045 61.8894C25.1045 55.088 36.7464 49.5743 51.1073 49.5743C65.4683 49.5743 77.1101 55.088 77.1101 61.8894Z" fill="#C9AA74"/>
<path d="M77.1101 61.165C77.1101 67.9665 65.4683 73.4801 51.1073 73.4801C36.7464 73.4801 25.1045 67.9665 25.1045 61.165C25.1045 54.3636 36.7464 48.8499 51.1073 48.8499C65.4683 48.8499 77.1101 54.3636 77.1101 61.165Z" fill="#C9AA74"/>
<path d="M77.1101 60.4406C77.1101 67.2421 65.4683 72.7557 51.1073 72.7557C36.7464 72.7557 25.1045 67.2421 25.1045 60.4406C25.1045 53.6392 36.7464 48.1255 51.1073 48.1255C65.4683 48.1255 77.1101 53.6392 77.1101 60.4406Z" fill="#C9AA74"/>
<ellipse cx="51.1073" cy="59.8687" rx="26.0028" ry="11.7432" fill="#EEE5D4"/>
<path d="M56.9786 61.99C56.9786 62.6131 56.5807 63.14 55.7851 63.5708C55.0036 63.9939 53.9451 64.267 52.6095 64.3901V65.0478C52.6095 65.2555 52.4887 65.4209 52.2472 65.544C52.0198 65.6748 51.7144 65.7402 51.3307 65.7402C50.9613 65.7402 50.6558 65.6748 50.4143 65.544C50.1728 65.4209 50.052 65.2555 50.052 65.0478V64.4247C49.2705 64.3862 48.5104 64.2978 47.7715 64.1593C47.0469 64.0208 46.4075 63.8439 45.8534 63.6285C45.6261 63.5516 45.4627 63.467 45.3632 63.3747C45.278 63.2747 45.2354 63.1516 45.2354 63.0054C45.2354 62.8131 45.3419 62.6439 45.555 62.4977C45.7824 62.3515 46.0381 62.2784 46.3223 62.2784C46.5922 62.2784 46.9261 62.34 47.324 62.4631C47.9776 62.6708 48.5956 62.8246 49.1782 62.9246C49.7749 63.0169 50.393 63.0631 51.0324 63.0631C51.8849 63.0631 52.5384 62.9785 52.9931 62.8092C53.4478 62.6323 53.6751 62.3861 53.6751 62.0707C53.6751 61.8784 53.5401 61.7207 53.2702 61.5976C53.0144 61.4746 52.6947 61.3784 52.3111 61.3092C51.9275 61.2399 51.3734 61.1515 50.6487 61.0438C49.5973 60.8976 48.7306 60.7514 48.0486 60.6053C47.3666 60.4591 46.777 60.2283 46.2797 59.9129C45.7966 59.5975 45.555 59.1744 45.555 58.6436C45.555 58.0205 45.96 57.4859 46.7699 57.0397C47.5939 56.5935 48.6667 56.3089 49.988 56.1858V55.5281C49.988 55.3204 50.1088 55.155 50.3504 55.0319C50.5919 54.9011 50.8974 54.8358 51.2668 54.8358C51.6504 54.8358 51.9559 54.9011 52.1832 55.0319C52.4248 55.155 52.5456 55.3204 52.5456 55.5281V56.1627C53.8243 56.2551 55.0249 56.5166 56.1474 56.9474C56.3605 57.0243 56.5097 57.1128 56.5949 57.2128C56.6944 57.3128 56.7441 57.432 56.7441 57.5705C56.7441 57.7628 56.6305 57.9321 56.4031 58.0782C56.19 58.2244 55.9414 58.2975 55.6572 58.2975C55.5009 58.2975 55.3517 58.2859 55.2096 58.2629C55.0817 58.2398 54.897 58.1898 54.6555 58.1128C54.073 57.9128 53.5472 57.7628 53.0784 57.6628C52.6237 57.5628 52.0625 57.5128 51.3947 57.5128C50.6274 57.5128 50.0094 57.6051 49.5405 57.7898C49.0858 57.9744 48.8585 58.2205 48.8585 58.5283C48.8585 58.7436 48.9935 58.9206 49.2634 59.059C49.5334 59.1898 49.8744 59.2937 50.2864 59.3706C50.6985 59.4475 51.2739 59.536 52.0127 59.636C53.0499 59.7745 53.8953 59.9168 54.5489 60.0629C55.2167 60.2014 55.7851 60.4284 56.2539 60.7438C56.737 61.0515 56.9786 61.4669 56.9786 61.99Z" fill="#203D55"/>
<path d="M77.1101 54.2639C77.1101 61.0653 65.4683 66.579 51.1073 66.579C36.7464 66.579 25.1045 61.0653 25.1045 54.2639C25.1045 47.4624 36.7464 41.9488 51.1073 41.9488C65.4683 41.9488 77.1101 47.4624 77.1101 54.2639Z" fill="#C9AA74"/>
<path d="M77.1101 53.5395C77.1101 60.3409 65.4683 65.8546 51.1073 65.8546C36.7464 65.8546 25.1045 60.3409 25.1045 53.5395C25.1045 46.738 36.7464 41.2244 51.1073 41.2244C65.4683 41.2244 77.1101 46.738 77.1101 53.5395Z" fill="#C9AA74"/>
<path d="M77.1101 52.8151C77.1101 59.6165 65.4683 65.1302 51.1073 65.1302C36.7464 65.1302 25.1045 59.6165 25.1045 52.8151C25.1045 46.0136 36.7464 40.4999 51.1073 40.4999C65.4683 40.4999 77.1101 46.0136 77.1101 52.8151Z" fill="#C9AA74"/>
<path d="M77.1101 52.0906C77.1101 58.8921 65.4683 64.4058 51.1073 64.4058C36.7464 64.4058 25.1045 58.8921 25.1045 52.0906C25.1045 45.2892 36.7464 39.7755 51.1073 39.7755C65.4683 39.7755 77.1101 45.2892 77.1101 52.0906Z" fill="#C9AA74"/>
<path d="M77.1101 51.3662C77.1101 58.1677 65.4683 63.6813 51.1073 63.6813C36.7464 63.6813 25.1045 58.1677 25.1045 51.3662C25.1045 44.5648 36.7464 39.0511 51.1073 39.0511C65.4683 39.0511 77.1101 44.5648 77.1101 51.3662Z" fill="#C9AA74"/>
<path d="M77.1101 50.6418C77.1101 57.4433 65.4683 62.9569 51.1073 62.9569C36.7464 62.9569 25.1045 57.4433 25.1045 50.6418C25.1045 43.8404 36.7464 38.3267 51.1073 38.3267C65.4683 38.3267 77.1101 43.8404 77.1101 50.6418Z" fill="#C9AA74"/>
<path d="M77.1101 49.9174C77.1101 56.7188 65.4683 62.2325 51.1073 62.2325C36.7464 62.2325 25.1045 56.7188 25.1045 49.9174C25.1045 43.1159 36.7464 37.6023 51.1073 37.6023C65.4683 37.6023 77.1101 43.1159 77.1101 49.9174Z" fill="#C9AA74"/>
<path d="M77.1101 49.193C77.1101 55.9944 65.4683 61.5081 51.1073 61.5081C36.7464 61.5081 25.1045 55.9944 25.1045 49.193C25.1045 42.3915 36.7464 36.8778 51.1073 36.8778C65.4683 36.8778 77.1101 42.3915 77.1101 49.193Z" fill="#C9AA74"/>
<path d="M77.1101 48.4685C77.1101 55.27 65.4683 60.7837 51.1073 60.7837C36.7464 60.7837 25.1045 55.27 25.1045 48.4685C25.1045 41.6671 36.7464 36.1534 51.1073 36.1534C65.4683 36.1534 77.1101 41.6671 77.1101 48.4685Z" fill="#C9AA74"/>
<path d="M77.1101 47.7441C77.1101 54.5456 65.4683 60.0592 51.1073 60.0592C36.7464 60.0592 25.1045 54.5456 25.1045 47.7441C25.1045 40.9427 36.7464 35.429 51.1073 35.429C65.4683 35.429 77.1101 40.9427 77.1101 47.7441Z" fill="#C9AA74"/>
<path d="M77.1101 47.0197C77.1101 53.8212 65.4683 59.3348 51.1073 59.3348C36.7464 59.3348 25.1045 53.8212 25.1045 47.0197C25.1045 40.2183 36.7464 34.7046 51.1073 34.7046C65.4683 34.7046 77.1101 40.2183 77.1101 47.0197Z" fill="#C9AA74"/>
<ellipse cx="51.1073" cy="46.4478" rx="26.0028" ry="11.7432" fill="#EEE5D4"/>
<path d="M56.9786 48.5691C56.9786 49.1922 56.5807 49.7191 55.7851 50.1499C55.0036 50.573 53.9451 50.8461 52.6095 50.9692V51.6269C52.6095 51.8346 52.4887 52 52.2472 52.1231C52.0198 52.2539 51.7144 52.3193 51.3307 52.3193C50.9613 52.3193 50.6558 52.2539 50.4143 52.1231C50.1728 52 50.052 51.8346 50.052 51.6269V51.0038C49.2705 50.9654 48.5104 50.8769 47.7715 50.7384C47.0469 50.5999 46.4075 50.423 45.8534 50.2076C45.6261 50.1307 45.4627 50.0461 45.3632 49.9538C45.278 49.8538 45.2354 49.7307 45.2354 49.5845C45.2354 49.3922 45.3419 49.223 45.555 49.0768C45.7824 48.9306 46.0381 48.8575 46.3223 48.8575C46.5922 48.8575 46.9261 48.9191 47.324 49.0422C47.9776 49.2499 48.5956 49.4037 49.1782 49.5037C49.7749 49.596 50.393 49.6422 51.0324 49.6422C51.8849 49.6422 52.5384 49.5576 52.9931 49.3883C53.4478 49.2114 53.6751 48.9652 53.6751 48.6498C53.6751 48.4575 53.5401 48.2998 53.2702 48.1767C53.0144 48.0537 52.6947 47.9575 52.3111 47.8883C51.9275 47.819 51.3734 47.7306 50.6487 47.6229C49.5973 47.4767 48.7306 47.3305 48.0486 47.1844C47.3666 47.0382 46.777 46.8074 46.2797 46.492C45.7966 46.1766 45.555 45.7535 45.555 45.2227C45.555 44.5996 45.96 44.065 46.7699 43.6188C47.5939 43.1726 48.6667 42.888 49.988 42.7649V42.1072C49.988 41.8995 50.1088 41.7341 50.3504 41.611C50.5919 41.4802 50.8974 41.4149 51.2668 41.4149C51.6504 41.4149 51.9559 41.4802 52.1832 41.611C52.4248 41.7341 52.5456 41.8995 52.5456 42.1072V42.7418C53.8243 42.8342 55.0249 43.0957 56.1474 43.5265C56.3605 43.6034 56.5097 43.6919 56.5949 43.7919C56.6944 43.8919 56.7441 44.0111 56.7441 44.1496C56.7441 44.3419 56.6305 44.5112 56.4031 44.6573C56.19 44.8035 55.9414 44.8766 55.6572 44.8766C55.5009 44.8766 55.3517 44.865 55.2096 44.842C55.0817 44.8189 54.897 44.7689 54.6555 44.6919C54.073 44.4919 53.5472 44.3419 53.0784 44.2419C52.6237 44.1419 52.0625 44.0919 51.3947 44.0919C50.6274 44.0919 50.0094 44.1842 49.5405 44.3689C49.0858 44.5535 48.8585 44.7996 48.8585 45.1074C48.8585 45.3228 48.9935 45.4997 49.2634 45.6382C49.5334 45.7689 49.8744 45.8728 50.2864 45.9497C50.6985 46.0266 51.2739 46.1151 52.0127 46.2151C53.0499 46.3536 53.8953 46.4959 54.5489 46.642C55.2167 46.7805 55.7851 47.0075 56.2539 47.3229C56.737 47.6306 56.9786 48.046 56.9786 48.5691Z" fill="#203D55"/>
<path d="M71.2381 38.3269C71.2381 45.1283 59.5962 50.642 45.2352 50.642C30.8743 50.642 19.2324 45.1283 19.2324 38.3269C19.2324 31.5254 30.8743 26.0118 45.2352 26.0118C59.5962 26.0118 71.2381 31.5254 71.2381 38.3269Z" fill="#C9AA74"/>
<path d="M71.2381 37.6025C71.2381 44.4039 59.5962 49.9176 45.2352 49.9176C30.8743 49.9176 19.2324 44.4039 19.2324 37.6025C19.2324 30.801 30.8743 25.2873 45.2352 25.2873C59.5962 25.2873 71.2381 30.801 71.2381 37.6025Z" fill="#C9AA74"/>
<path d="M71.2381 36.878C71.2381 43.6795 59.5962 49.1932 45.2352 49.1932C30.8743 49.1932 19.2324 43.6795 19.2324 36.878C19.2324 30.0766 30.8743 24.5629 45.2352 24.5629C59.5962 24.5629 71.2381 30.0766 71.2381 36.878Z" fill="#C9AA74"/>
<path d="M71.2381 36.1536C71.2381 42.9551 59.5962 48.4687 45.2352 48.4687C30.8743 48.4687 19.2324 42.9551 19.2324 36.1536C19.2324 29.3522 30.8743 23.8385 45.2352 23.8385C59.5962 23.8385 71.2381 29.3522 71.2381 36.1536Z" fill="#C9AA74"/>
<path d="M71.2381 35.4292C71.2381 42.2307 59.5962 47.7443 45.2352 47.7443C30.8743 47.7443 19.2324 42.2307 19.2324 35.4292C19.2324 28.6278 30.8743 23.1141 45.2352 23.1141C59.5962 23.1141 71.2381 28.6278 71.2381 35.4292Z" fill="#C9AA74"/>
<path d="M71.2381 34.7048C71.2381 41.5062 59.5962 47.0199 45.2352 47.0199C30.8743 47.0199 19.2324 41.5062 19.2324 34.7048C19.2324 27.9033 30.8743 22.3897 45.2352 22.3897C59.5962 22.3897 71.2381 27.9033 71.2381 34.7048Z" fill="#C9AA74"/>
<path d="M71.2381 33.9804C71.2381 40.7818 59.5962 46.2955 45.2352 46.2955C30.8743 46.2955 19.2324 40.7818 19.2324 33.9804C19.2324 27.1789 30.8743 21.6653 45.2352 21.6653C59.5962 21.6653 71.2381 27.1789 71.2381 33.9804Z" fill="#C9AA74"/>
<path d="M71.2381 33.256C71.2381 40.0574 59.5962 45.5711 45.2352 45.5711C30.8743 45.5711 19.2324 40.0574 19.2324 33.256C19.2324 26.4545 30.8743 20.9408 45.2352 20.9408C59.5962 20.9408 71.2381 26.4545 71.2381 33.256Z" fill="#C9AA74"/>
<path d="M71.2381 32.5315C71.2381 39.333 59.5962 44.8467 45.2352 44.8467C30.8743 44.8467 19.2324 39.333 19.2324 32.5315C19.2324 25.7301 30.8743 20.2164 45.2352 20.2164C59.5962 20.2164 71.2381 25.7301 71.2381 32.5315Z" fill="#C9AA74"/>
<path d="M71.2381 31.8071C71.2381 38.6086 59.5962 44.1222 45.2352 44.1222C30.8743 44.1222 19.2324 38.6086 19.2324 31.8071C19.2324 25.0057 30.8743 19.492 45.2352 19.492C59.5962 19.492 71.2381 25.0057 71.2381 31.8071Z" fill="#C9AA74"/>
<path d="M71.2381 31.0827C71.2381 37.8841 59.5962 43.3978 45.2352 43.3978C30.8743 43.3978 19.2324 37.8841 19.2324 31.0827C19.2324 24.2812 30.8743 18.7676 45.2352 18.7676C59.5962 18.7676 71.2381 24.2812 71.2381 31.0827Z" fill="#C9AA74"/>
<ellipse cx="45.2352" cy="30.5108" rx="26.0028" ry="11.7432" fill="#EEE5D4"/>
<path d="M51.1065 32.6321C51.1065 33.2552 50.7087 33.7821 49.913 34.2129C49.1315 34.636 48.073 34.9091 46.7374 35.0322V35.6899C46.7374 35.8976 46.6166 36.063 46.3751 36.1861C46.1478 36.3169 45.8423 36.3823 45.4587 36.3823C45.0893 36.3823 44.7838 36.3169 44.5422 36.1861C44.3007 36.063 44.1799 35.8976 44.1799 35.6899V35.0668C43.3985 35.0283 42.6383 34.9399 41.8995 34.8014C41.1748 34.6629 40.5355 34.486 39.9813 34.2706C39.754 34.1937 39.5906 34.1091 39.4912 34.0167C39.4059 33.9167 39.3633 33.7937 39.3633 33.6475C39.3633 33.4552 39.4698 33.2859 39.683 33.1398C39.9103 32.9936 40.1661 32.9205 40.4502 32.9205C40.7202 32.9205 41.0541 32.9821 41.4519 33.1052C42.1055 33.3129 42.7236 33.4667 43.3061 33.5667C43.9029 33.659 44.5209 33.7052 45.1603 33.7052C46.0128 33.7052 46.6664 33.6206 47.121 33.4513C47.5757 33.2744 47.803 33.0282 47.803 32.7128C47.803 32.5205 47.6681 32.3628 47.3981 32.2397C47.1424 32.1166 46.8227 32.0205 46.439 31.9513C46.0554 31.882 45.5013 31.7936 44.7767 31.6859C43.7252 31.5397 42.8585 31.3935 42.1765 31.2474C41.4945 31.1012 40.9049 30.8704 40.4076 30.555C39.9245 30.2396 39.683 29.8165 39.683 29.2857C39.683 28.6626 40.0879 28.128 40.8978 27.6818C41.7219 27.2356 42.7946 26.951 44.116 26.8279V26.1702C44.116 25.9625 44.2367 25.7971 44.4783 25.674C44.7198 25.5432 45.0253 25.4778 45.3947 25.4778C45.7784 25.4778 46.0838 25.5432 46.3112 25.674C46.5527 25.7971 46.6735 25.9625 46.6735 26.1702V26.8048C47.9522 26.8971 49.1528 27.1587 50.2753 27.5895C50.4884 27.6664 50.6376 27.7549 50.7229 27.8549C50.8223 27.9549 50.8721 28.0741 50.8721 28.2126C50.8721 28.4049 50.7584 28.5742 50.5311 28.7203C50.3179 28.8665 50.0693 28.9396 49.7851 28.9396C49.6288 28.9396 49.4796 28.928 49.3375 28.9049C49.2097 28.8819 49.025 28.8319 48.7834 28.7549C48.2009 28.5549 47.6752 28.4049 47.2063 28.3049C46.7516 28.2049 46.1904 28.1549 45.5226 28.1549C44.7554 28.1549 44.1373 28.2472 43.6684 28.4318C43.2137 28.6165 42.9864 28.8626 42.9864 29.1703C42.9864 29.3857 43.1214 29.5627 43.3914 29.7011C43.6613 29.8319 44.0023 29.9358 44.4144 30.0127C44.8264 30.0896 45.4018 30.1781 46.1407 30.2781C47.1779 30.4166 48.0233 30.5589 48.6769 30.705C49.3447 30.8435 49.913 31.0704 50.3819 31.3858C50.8649 31.6936 51.1065 32.109 51.1065 32.6321Z" fill="#203D55"/>
</g>
</svg>
