<svg width="330" height="346" viewBox="0 0 330 346" fill="none" xmlns="http://www.w3.org/2000/svg">
<path d="M134.449 0.0275401C91.4857 0.75704 25.0135 16.4589 5.8803 56.8102C-0.8022 70.9033 -0.349696 91.6219 0.554929 133.059C0.820929 145.238 1.2618 162.99 4.35868 185.016C10.7919 230.771 15.1713 261.92 31.7461 280.057C73.2773 325.503 223.298 324.19 287.362 242.372C322.308 197.739 327.685 134.249 295.73 81.7767C260.548 24.0059 191.966 -0.949085 134.449 0.0275401Z" fill="#F4F7FA"/>
<path d="M271.274 43.5137L41.1382 30.2003C35.8378 29.9415 31.0664 35.7256 31.0664 40.5824V336.925C31.0664 343.66 37.9467 345.016 43.247 344.475L271.274 321.187C275.439 320.762 278.802 316.95 278.802 312.672V51.6275C278.802 47.3493 275.439 43.7169 271.274 43.5137Z" fill="url(#paint0_linear_168_1090)"/>
<path d="M275.059 41.1596L44.4687 29.816C39.1683 29.5553 34.8516 33.3109 34.8516 38.2055V336.863C34.8516 341.758 39.1683 345.282 44.4687 344.736L275.059 321.002C279.224 320.574 282.587 316.732 282.587 312.421V49.3369C282.587 45.0254 279.224 41.3645 275.059 41.1596Z" fill="#D8DEE8"/>
<path d="M44.4681 340.686C41.6091 340.975 39.2773 339.065 39.2773 336.427V38.405C39.2773 35.7673 41.6091 33.7316 44.4681 33.8667L275.059 44.7592C277.31 44.8656 279.138 46.8498 279.138 49.1825V312.761C279.138 315.094 277.31 317.177 275.059 317.404L44.4681 340.686Z" fill="url(#paint1_linear_168_1090)"/>
<path d="M260.198 310.335L62.9727 329.338V54.3867L260.198 61.8146V310.335Z" fill="white"/>
<path opacity="0.3" d="M181.312 63.16L102.49 64.146L104.258 46.3701C104.392 44.0605 106.061 42.1644 108.26 41.8266L121.609 39.7752C123.18 39.5337 124.534 38.495 125.221 37.0034L126.668 33.8599L161.584 36.0159L181.312 63.16Z" fill="#97A6B7"/>
<path d="M223.406 51.6281C223.032 49.617 221.42 48.2054 219.39 48.1144L206.795 47.5499C201.079 47.2936 196.888 42.6494 197.098 36.7671L197.584 23.1356C197.673 20.6146 195.873 18.5946 193.399 18.4469L189.261 18.1998C186.105 18.0113 184.004 15.2296 184.447 12.013C185.221 6.39187 181.369 1.54087 175.787 1.1605C170.162 0.777122 164.911 5.075 164.074 10.7681C163.949 11.6141 163.663 12.45 163.198 13.196C161.899 15.2812 159.621 16.4292 157.39 16.296L153.121 16.0411C150.535 15.8866 148.077 17.702 147.422 20.2562L143.873 34.093C142.338 40.0771 136.548 44.4014 130.399 44.1259L116.583 43.5066C114.321 43.4052 112.1 44.724 111.058 46.7917L102.732 63.312C102.05 64.665 102.89 66.1265 104.376 66.1759L224.191 70.1555C225.502 70.1991 226.615 68.8915 226.373 67.5921L223.406 51.6281ZM174.089 12.9585C172.439 12.8562 171.293 11.4215 171.533 9.75412C171.774 8.08675 173.307 6.82225 174.957 6.92975C176.604 7.037 177.743 8.47125 177.503 10.1336C177.264 11.7956 175.737 13.0605 174.089 12.9585Z" fill="url(#paint2_linear_168_1090)"/>
<path d="M224.114 51.9976C223.741 49.9865 222.129 48.5749 220.099 48.4839L207.504 47.9194C201.787 47.6631 197.597 43.0189 197.806 37.1366L198.292 23.5051C198.382 20.9841 196.582 18.9641 194.108 18.8164L189.97 18.5693C186.814 18.3808 184.713 15.5991 185.156 12.3826C185.929 6.76138 182.078 1.9105 176.496 1.53013C170.871 1.14675 165.62 5.44463 164.783 11.1378C164.658 11.9838 164.372 12.8196 163.907 13.5656C162.607 15.6509 160.33 16.7989 158.099 16.6656L153.83 16.4106C151.244 16.2561 148.786 18.0715 148.131 20.6257L144.582 34.4625C143.047 40.4466 137.257 44.771 131.108 44.4954L117.292 43.8761C115.03 43.7748 112.809 45.0935 111.767 47.1612L103.441 63.6815C102.759 65.0345 103.599 66.496 105.085 66.5454L224.9 70.525C226.211 70.5685 227.324 69.261 227.082 67.9616L224.114 51.9976ZM174.798 13.328C173.147 13.2257 172.002 11.791 172.242 10.1236C172.482 8.45625 174.016 7.19175 175.666 7.29925C177.312 7.4065 178.451 8.84075 178.212 10.5031C177.973 12.1652 176.445 13.43 174.798 13.328Z" fill="#97A6B7"/>
<path opacity="0.5" d="M203.61 59.5891C192.922 52.9914 184.722 57.6694 178.061 50.228C170.93 42.2619 175.739 31.7746 168.361 26.826C163.638 23.6577 159.424 26.4521 153.931 25.5945C151.919 25.2805 149.772 24.4809 147.542 22.9224L144.582 34.4622C143.047 40.4465 137.257 44.7705 131.108 44.4952L117.292 43.8761C115.03 43.7747 112.809 45.0936 111.767 47.1612L103.441 63.6815C102.759 65.0344 103.599 66.4961 105.085 66.5452L213.972 70.162C211.229 65.8061 207.822 62.1894 203.61 59.5891Z" fill="white"/>
<path d="M204.557 97.5674L130.762 96.7578V87.9038L204.557 89.0397V97.5674Z" fill="#97A6B7"/>
<path d="M130.176 193.095L121.137 193.43V113.733L130.176 113.756V193.095Z" fill="url(#paint3_linear_168_1090)"/>
<path d="M147.423 192.454L138.539 192.784V138.487L147.423 138.399V192.454Z" fill="url(#paint4_linear_168_1090)"/>
<path d="M164.377 191.825L155.645 192.149V124.134L164.377 124.11V191.825Z" fill="url(#paint5_linear_168_1090)"/>
<path d="M181.042 191.206L172.457 191.525V137.831L181.042 137.748V191.206Z" fill="url(#paint6_linear_168_1090)"/>
<path d="M197.429 190.598L188.988 190.911V152.248L197.429 152.103V190.598Z" fill="url(#paint7_linear_168_1090)"/>
<path d="M213.543 190L205.242 190.308V113.942L213.543 113.963V190Z" fill="#D8DEE8"/>
<path d="M229.389 189.411L221.225 189.714V166.963L229.389 166.757V189.411Z" fill="#D8DEE8"/>
<path d="M244.976 188.832L236.945 189.131V128.857L244.976 128.814V188.832Z" fill="#D8DEE8"/>
<path d="M244.978 221.242L87.2051 229.808V221.485L244.978 213.561V221.242Z" fill="#D8DEE8"/>
<path d="M244.978 206.547L87.2051 213.885V205.562L244.978 198.866V206.547Z" fill="#D8DEE8"/>
<path d="M244.978 280.686L87.2051 294.219V285.896L244.978 273.005V280.686Z" fill="#D8DEE8"/>
<path opacity="0.5" d="M147.705 237.877V269.482L85.2422 274.224V241.625L147.705 237.877Z" fill="#D8DEE8"/>
<path d="M85.2422 260.656V274.224L147.705 269.482V244.991C144.135 243.857 139.842 243.376 136.565 245.725C129.697 250.651 130.573 253.19 123.409 252.37C117.801 251.725 111.56 251.198 106.746 255.272C103.763 257.797 102.228 260.395 97.9281 260.315C93.8801 260.241 89.1633 257.719 85.2422 260.656Z" fill="#D8DEE8"/>
<path d="M244.976 237.717L162.365 242.923V236.997L244.976 232.04V237.717Z" fill="#D8DEE8"/>
<path d="M244.978 249.739L162.367 255.471V249.894L244.978 244.396V249.739Z" fill="#D8DEE8"/>
<path d="M244.978 262.096L162.367 268.368V262.443L244.978 256.418V262.096Z" fill="#D8DEE8"/>
<path d="M106.424 120.856L86.8027 120.874V113.299L106.424 113.354V120.856Z" fill="#D8DEE8"/>
<path d="M106.424 139.391L86.8027 139.588V132.013L106.424 131.889V139.391Z" fill="#D8DEE8"/>
<path d="M106.424 157.484L86.8027 157.857V150.282L106.424 149.982V157.484Z" fill="#D8DEE8"/>
<path d="M106.424 176.019L86.8027 176.571V168.996L106.424 168.517V176.019Z" fill="#D8DEE8"/>
<path d="M106.424 194.111L86.8027 194.839V187.264L106.424 186.609V194.111Z" fill="#D8DEE8"/>
<path d="M320.31 211.82L319.975 325.307C319.958 330.871 315.459 335.933 309.82 336.51L226.852 345.003C220.462 345.657 215.232 341.239 215.232 335.252V213.098C215.232 207.428 219.872 202.749 225.76 202.183C226.135 202.146 226.517 202.134 226.902 202.132L310.178 201.735C315.837 201.708 320.327 206.216 320.31 211.82Z" fill="url(#paint8_linear_168_1090)"/>
<path d="M326.191 211.737L325.843 324.873C325.826 330.42 321.587 335.44 315.985 336.014L233.585 344.449C227.239 345.099 221.784 340.721 221.785 334.753L221.802 213.006C221.803 207.355 226.54 202.692 232.388 202.128C232.761 202.091 233.271 202.078 233.652 202.077L316.361 201.682C321.983 201.655 326.208 206.151 326.191 211.737Z" fill="url(#paint9_linear_168_1090)"/>
<g opacity="0.3">
<path d="M326.192 211.576L326.105 240.01L221.799 243.438L221.803 212.834C221.804 207.318 226.326 202.828 231.975 202.091C232.48 202.023 233.129 202.08 233.653 202.077L316.362 201.683C321.984 201.656 326.209 205.99 326.192 211.576Z" fill="url(#paint10_linear_168_1090)"/>
<path d="M326.132 231.271L326.096 243.087C315.976 246.287 297.352 248.876 275.982 249.7C266.543 250.063 257.419 250.051 249.173 249.71C238.192 249.254 228.92 248.217 221.799 246.748L221.801 234.032C224.48 233.373 226.943 232.761 229.864 232.184C236.216 230.93 243.862 229.874 252.217 229.096C259.682 228.4 267.784 227.929 276.14 227.736C286.893 227.489 296.877 227.731 305.458 228.36C306.126 228.408 306.792 228.46 307.442 228.513C309.494 228.681 311.465 228.872 313.339 229.085C314.002 229.16 314.655 229.237 315.294 229.319C316.763 229.504 318.026 229.705 319.363 229.916C321.927 230.321 324.2 230.774 326.132 231.271Z" fill="url(#paint11_linear_168_1090)"/>
</g>
<path d="M321.086 234.005C321.081 235.696 319.704 237.108 318.007 237.16L232.403 239.779C230.483 239.838 228.923 238.423 228.924 236.619L228.931 216.174C228.931 214.368 230.493 212.884 232.414 212.861L318.08 211.82C319.778 211.799 321.147 213.155 321.142 214.847L321.086 234.005Z" fill="white"/>
<path d="M319.139 233.633C319.135 234.702 318.264 235.594 317.19 235.626L232.005 238.135C230.792 238.171 229.808 237.277 229.809 236.138L229.816 215.787C229.816 214.647 230.802 213.71 232.015 213.695L317.255 212.611C318.329 212.597 319.197 213.454 319.193 214.524L319.139 233.633Z" fill="white"/>
<path d="M307.365 222.295C307.363 222.825 306.928 223.173 306.392 223.181L306.347 223.182C305.81 223.191 305.376 222.865 305.377 222.334L305.387 218.39C305.388 217.859 305.825 217.458 306.361 217.449L306.406 217.448C306.943 217.439 307.376 217.826 307.375 218.357L307.365 222.295Z" fill="url(#paint12_linear_168_1090)"/>
<path d="M315.258 222.156C315.257 222.683 314.826 223.045 314.296 223.053L314.251 223.054C313.721 223.063 313.291 222.722 313.293 222.194L313.304 218.262C313.305 217.734 313.737 217.323 314.267 217.314L314.312 217.314C314.842 217.305 315.27 217.701 315.269 218.229L315.258 222.156Z" fill="url(#paint13_linear_168_1090)"/>
<path d="M307.343 231.118C307.341 231.648 306.906 232.183 306.37 232.191L306.325 232.192C305.788 232.2 305.354 231.7 305.355 231.169L305.365 227.111C305.367 226.581 305.803 226.057 306.34 226.049L306.385 226.048C306.921 226.039 307.354 226.536 307.353 227.066L307.343 231.118Z" fill="url(#paint14_linear_168_1090)"/>
<path d="M315.234 230.959C315.233 231.486 314.802 231.654 314.272 232.072L314.228 232.073C313.697 232.081 313.268 231.537 313.27 231.01L313.28 226.773C313.282 226.245 313.713 225.522 314.244 225.514L314.288 225.513C314.818 225.504 315.247 226.201 315.245 226.728L315.234 230.959Z" fill="url(#paint15_linear_168_1090)"/>
<path opacity="0.3" d="M313.34 224.221C313.34 224.748 312.881 225.189 312.349 225.201L308.654 225.288C308.119 225.3 307.988 224.879 307.988 224.349V224.305C307.988 223.774 308.111 223.337 308.646 223.326L312.512 223.242C313.043 223.232 313.34 223.648 313.34 224.176V224.221Z" fill="url(#paint16_linear_168_1090)"/>
<path d="M313.34 216.004C313.34 216.532 312.892 216.97 312.36 216.978L308.659 217.041C308.124 217.05 307.988 216.626 307.988 216.096V216.052C307.988 215.521 308.121 215.087 308.657 215.079L312.517 215.019C313.049 215.012 313.34 215.431 313.34 215.96V216.004Z" fill="url(#paint17_linear_168_1090)"/>
<path d="M313.34 232.825C313.34 233.352 312.87 233.796 312.338 233.811L308.426 233.922C307.891 233.937 307.543 233.518 307.543 232.988V232.944C307.543 232.414 307.877 231.976 308.412 231.961L312.394 231.853C312.926 231.839 313.34 232.253 313.34 232.781V232.825H313.34Z" fill="url(#paint18_linear_168_1090)"/>
<path opacity="0.3" d="M282.365 332.116C282.026 334.009 281.468 335.923 280.631 337.735C280.334 338.378 279.997 339.05 279.627 339.736L233.585 344.449C227.239 345.099 221.784 340.721 221.785 334.753L221.802 212.833C221.803 207.317 226.325 202.735 231.974 201.998C232.112 202.036 232.316 202.078 232.454 202.121C238.397 203.918 244.871 207.271 248.736 213.543C251.151 217.457 252.586 222.522 252.265 229.095C252.183 230.794 251.992 232.596 251.663 234.508C251.471 235.618 251.28 236.753 251.085 237.91C250.841 239.355 250.601 240.832 250.368 242.335C249.997 244.74 249.655 247.208 249.38 249.701C249.117 252.092 248.917 254.507 248.817 256.915C248.799 257.379 248.783 257.846 248.771 258.311C248.733 259.816 248.737 261.315 248.793 262.801C248.829 263.818 248.891 264.828 248.977 265.829C249.468 271.463 250.794 276.822 253.449 281.471C255.456 284.982 258.476 287.653 261.646 290.12C262.482 290.769 263.328 291.405 264.169 292.039C267.053 294.212 269.799 296.469 272.243 299.004C272.303 299.066 272.364 299.13 272.422 299.192C273.604 300.434 274.714 301.743 275.732 303.144C276.863 304.699 277.811 306.345 278.605 308.064C278.912 308.724 279.194 309.397 279.456 310.078C279.908 311.247 280.297 312.449 280.635 313.676C280.788 314.226 280.937 314.784 281.079 315.35C281.086 315.371 281.092 315.393 281.096 315.416C281.669 317.658 282.163 320.002 282.468 322.386C282.878 325.606 282.938 328.901 282.365 332.116Z" fill="white"/>
<path d="M248.997 264.083C248.995 265.28 247.971 266.301 246.705 266.364L231.257 267.125C229.962 267.189 228.912 266.256 228.912 265.042L228.914 259.497C228.914 258.283 229.966 257.253 231.261 257.198L246.714 256.542C247.979 256.488 249.003 257.416 249.002 258.614L248.997 264.083Z" fill="url(#paint19_linear_168_1090)"/>
<path d="M273.965 262.89C273.963 264.067 272.973 265.069 271.751 265.129L256.836 265.865C255.587 265.926 254.573 265.009 254.574 263.816L254.58 258.369C254.581 257.175 255.597 256.165 256.847 256.112L271.766 255.478C272.988 255.426 273.976 256.338 273.974 257.515L273.965 262.89Z" fill="url(#paint20_linear_168_1090)"/>
<path d="M297.278 261.775C297.275 262.933 296.317 263.918 295.135 263.977L280.709 264.688C279.501 264.747 278.521 263.845 278.523 262.672L278.533 257.314C278.535 256.141 279.518 255.148 280.727 255.097L295.156 254.483C296.338 254.433 297.293 255.331 297.29 256.489L297.278 261.775Z" fill="url(#paint21_linear_168_1090)"/>
<path d="M320.617 260.66C320.613 261.799 319.686 262.767 318.543 262.823L304.599 263.51C303.431 263.568 302.486 262.68 302.488 261.527L302.501 256.26C302.504 255.107 303.455 254.131 304.623 254.081L318.57 253.489C319.713 253.44 320.635 254.324 320.632 255.462L320.617 260.66Z" fill="url(#paint22_linear_168_1090)"/>
<path d="M248.981 281.641C248.98 282.837 247.956 283.87 246.691 283.948L231.25 284.896C229.956 284.976 228.906 284.057 228.906 282.844L228.908 277.305C228.909 276.092 229.96 275.051 231.254 274.98L246.699 274.136C247.964 274.066 248.987 274.981 248.986 276.177L248.981 281.641Z" fill="url(#paint23_linear_168_1090)"/>
<path d="M273.936 280.145C273.935 281.32 272.945 282.334 271.724 282.409L256.816 283.325C255.567 283.402 254.553 282.498 254.555 281.307L254.56 275.864C254.562 274.672 255.577 273.65 256.827 273.582L271.738 272.767C272.96 272.7 273.947 273.599 273.945 274.776L273.936 280.145Z" fill="url(#paint24_linear_168_1090)"/>
<path d="M297.24 278.748C297.238 279.904 296.279 280.9 295.098 280.973L280.679 281.859C279.471 281.933 278.492 281.043 278.494 279.871L278.503 274.519C278.505 273.347 279.488 272.343 280.696 272.277L295.119 271.489C296.3 271.424 297.255 272.31 297.252 273.467L297.24 278.748Z" fill="url(#paint25_linear_168_1090)"/>
<path d="M320.568 277.349C320.564 278.487 319.637 279.465 318.495 279.535L304.557 280.392C303.39 280.463 302.445 279.588 302.447 278.436L302.46 273.174C302.463 272.022 303.413 271.035 304.581 270.972L318.522 270.21C319.664 270.147 320.586 271.019 320.583 272.156L320.568 277.349Z" fill="url(#paint26_linear_168_1090)"/>
<path d="M248.966 298.773C248.964 299.968 247.941 301.012 246.677 301.105L231.243 302.236C229.95 302.331 228.9 301.426 228.9 300.214L228.902 294.68C228.903 293.468 229.953 292.415 231.247 292.329L246.685 291.302C247.949 291.218 248.971 292.119 248.97 293.315L248.966 298.773Z" fill="url(#paint27_linear_168_1090)"/>
<path d="M273.91 296.982C273.908 298.157 272.919 299.182 271.698 299.271L256.797 300.364C255.548 300.455 254.536 299.564 254.537 298.374L254.543 292.937C254.544 291.746 255.559 290.713 256.808 290.63L271.713 289.638C272.934 289.557 273.921 290.444 273.919 291.619L273.91 296.982Z" fill="url(#paint28_linear_168_1090)"/>
<path d="M297.202 295.309C297.2 296.465 296.242 297.471 295.061 297.558L280.649 298.614C279.441 298.703 278.463 297.826 278.465 296.655L278.474 291.308C278.476 290.137 279.458 289.122 280.666 289.042L295.082 288.083C296.263 288.004 297.217 288.877 297.214 290.033L297.202 295.309Z" fill="url(#paint29_linear_168_1090)"/>
<path d="M320.521 293.635C320.517 294.771 319.591 295.759 318.449 295.843L304.517 296.865C303.35 296.95 302.405 296.087 302.408 294.935L302.421 289.679C302.424 288.527 303.373 287.531 304.541 287.453L318.476 286.526C319.617 286.45 320.539 287.31 320.536 288.447L320.521 293.635Z" fill="url(#paint30_linear_168_1090)"/>
<path d="M248.95 315.483C248.949 316.677 247.926 317.732 246.662 317.839L231.236 319.148C229.943 319.258 228.894 318.366 228.895 317.155L228.896 311.627C228.897 310.416 229.947 309.352 231.24 309.251L246.671 308.046C247.934 307.947 248.956 308.835 248.955 310.03L248.95 315.483Z" fill="url(#paint31_linear_168_1090)"/>
<path d="M273.884 313.403C273.882 314.577 272.893 315.612 271.673 315.715L256.778 316.98C255.531 317.086 254.518 316.208 254.52 315.018L254.525 309.586C254.527 308.396 255.541 307.352 256.789 307.255L271.688 306.091C272.908 305.996 273.894 306.87 273.892 308.044L273.884 313.403Z" fill="url(#paint32_linear_168_1090)"/>
<path d="M297.167 311.462C297.164 312.616 296.207 313.633 295.027 313.733L280.62 314.956C279.414 315.059 278.436 314.193 278.438 313.024L278.447 307.682C278.449 306.512 279.431 305.486 280.638 305.392L295.048 304.267C296.228 304.174 297.182 305.036 297.179 306.191L297.167 311.462Z" fill="url(#paint33_linear_168_1090)"/>
<path d="M248.934 333.397C248.933 334.59 247.91 335.656 246.648 335.779L231.229 337.279C229.937 337.405 228.888 336.527 228.889 335.317L228.891 329.794C228.891 328.585 229.941 327.509 231.233 327.392L246.656 325.995C247.919 325.881 248.94 326.756 248.939 327.949L248.934 333.397Z" fill="url(#paint34_linear_168_1090)"/>
<path d="M273.855 331.009C273.853 332.182 272.864 333.228 271.645 333.347L256.758 334.795C255.51 334.916 254.499 334.052 254.5 332.863L254.506 327.437C254.507 326.248 255.521 325.193 256.769 325.08L271.66 323.732C272.88 323.621 273.865 324.483 273.863 325.655L273.855 331.009Z" fill="url(#paint35_linear_168_1090)"/>
<path d="M297.127 328.78C297.124 329.933 296.167 330.961 294.988 331.075L280.588 332.476C279.382 332.594 278.404 331.742 278.406 330.573L278.415 325.237C278.417 324.068 279.399 323.031 280.605 322.922L295.009 321.618C296.189 321.511 297.142 322.36 297.139 323.513L297.127 328.78Z" fill="url(#paint36_linear_168_1090)"/>
<path d="M318.36 302.445L304.429 303.534C303.263 303.625 302.384 304.942 302.381 306.093L302.374 309.051L302.368 311.521L302.341 322.673L302.333 325.954L302.328 328.097C302.325 329.245 303.198 330.277 304.364 330.163L318.285 328.809C319.425 328.698 320.422 327.499 320.425 326.365L320.431 324.25L320.441 321.012L320.473 310.005L320.48 307.567L320.488 304.647C320.492 303.512 319.502 302.356 318.36 302.445Z" fill="url(#paint37_linear_168_1090)"/>
<path d="M249.859 264.04C249.858 265.237 248.834 266.258 247.571 266.32L232.141 267.08C230.848 267.144 229.798 266.212 229.799 264.999L229.801 259.457C229.801 258.244 230.852 257.215 232.145 257.16L247.579 256.504C248.843 256.45 249.865 257.378 249.864 258.575L249.859 264.04Z" fill="url(#paint38_linear_168_1090)"/>
<path d="M273.965 262.889C273.963 264.066 272.973 265.068 271.751 265.128L256.836 265.864C255.587 265.925 254.573 265.008 254.574 263.815L254.58 258.368C254.581 257.174 255.597 256.164 256.847 256.111L271.766 255.477C272.988 255.425 273.976 256.337 273.974 257.514L273.965 262.889Z" fill="url(#paint39_linear_168_1090)"/>
<path d="M298.084 261.737C298.082 262.893 297.124 263.878 295.944 263.936L281.535 264.647C280.328 264.706 279.349 263.804 279.352 262.632L279.361 257.278C279.363 256.105 280.345 255.112 281.552 255.061L295.965 254.449C297.145 254.399 298.099 255.296 298.096 256.454L298.084 261.737Z" fill="url(#paint40_linear_168_1090)"/>
<path d="M321.397 260.623C321.393 261.76 320.467 262.728 319.325 262.784L305.398 263.471C304.231 263.528 303.286 262.64 303.289 261.488L303.302 256.224C303.305 255.071 304.254 254.096 305.421 254.047L319.352 253.455C320.494 253.407 321.415 254.29 321.412 255.428L321.397 260.623Z" fill="url(#paint41_linear_168_1090)"/>
<path d="M249.843 281.589C249.842 282.785 248.819 283.817 247.556 283.894L232.134 284.842C230.842 284.921 229.793 284.003 229.793 282.791L229.795 277.255C229.795 276.043 230.845 275.002 232.138 274.931L247.565 274.088C248.828 274.019 249.85 274.933 249.849 276.129L249.843 281.589Z" fill="url(#paint42_linear_168_1090)"/>
<path d="M273.938 280.145C273.937 281.32 272.947 282.334 271.726 282.409L256.818 283.325C255.569 283.402 254.555 282.498 254.557 281.307L254.562 275.864C254.564 274.672 255.579 273.65 256.829 273.582L271.74 272.767C272.962 272.7 273.949 273.599 273.947 274.776L273.938 280.145Z" fill="url(#paint43_linear_168_1090)"/>
<path d="M298.046 278.7C298.044 279.855 297.087 280.851 295.907 280.923L281.505 281.808C280.298 281.883 279.32 280.993 279.322 279.822L279.332 274.473C279.334 273.302 280.315 272.298 281.522 272.232L295.928 271.445C297.108 271.38 298.061 272.265 298.059 273.421L298.046 278.7Z" fill="url(#paint44_linear_168_1090)"/>
<path d="M321.348 277.302C321.344 278.439 320.418 279.417 319.277 279.487L305.356 280.343C304.19 280.414 303.245 279.539 303.248 278.388L303.261 273.129C303.264 271.977 304.213 270.992 305.379 270.928L319.304 270.167C320.445 270.104 321.366 270.976 321.363 272.112L321.348 277.302Z" fill="url(#paint45_linear_168_1090)"/>
<path d="M249.826 298.711C249.825 299.906 248.803 300.949 247.54 301.041L232.125 302.171C230.833 302.266 229.785 301.361 229.785 300.15L229.787 294.62C229.788 293.408 230.837 292.357 232.129 292.271L247.548 291.245C248.811 291.161 249.832 292.061 249.831 293.256L249.826 298.711Z" fill="url(#paint46_linear_168_1090)"/>
<path d="M273.91 296.982C273.908 298.157 272.919 299.181 271.698 299.271L256.797 300.363C255.548 300.455 254.536 299.564 254.537 298.373L254.543 292.936C254.544 291.745 255.559 290.712 256.808 290.629L271.713 289.637C272.934 289.556 273.921 290.443 273.919 291.618L273.91 296.982Z" fill="url(#paint47_linear_168_1090)"/>
<path d="M298.007 295.251C298.004 296.406 297.047 297.412 295.868 297.498L281.472 298.554C280.266 298.642 279.289 297.765 279.291 296.595L279.3 291.251C279.302 290.081 280.284 289.067 281.49 288.986L295.889 288.028C297.069 287.95 298.022 288.823 298.019 289.978L298.007 295.251Z" fill="url(#paint48_linear_168_1090)"/>
<path d="M321.297 293.579C321.293 294.714 320.368 295.702 319.227 295.786L305.312 296.806C304.146 296.892 303.202 296.028 303.205 294.878L303.218 289.624C303.221 288.474 304.169 287.478 305.335 287.4L319.254 286.474C320.395 286.398 321.315 287.257 321.312 288.393L321.297 293.579Z" fill="url(#paint49_linear_168_1090)"/>
<path d="M249.811 315.411C249.81 316.604 248.788 317.658 247.526 317.765L232.118 319.073C230.827 319.183 229.779 318.291 229.779 317.081L229.781 311.556C229.782 310.346 230.831 309.282 232.122 309.182L247.534 307.978C248.796 307.879 249.817 308.767 249.816 309.961L249.811 315.411Z" fill="url(#paint50_linear_168_1090)"/>
<path d="M273.884 313.403C273.882 314.577 272.893 315.612 271.673 315.715L256.778 316.98C255.531 317.086 254.518 316.208 254.52 315.018L254.525 309.586C254.527 308.396 255.541 307.352 256.789 307.255L271.688 306.091C272.908 305.996 273.894 306.87 273.892 308.044L273.884 313.403Z" fill="url(#paint51_linear_168_1090)"/>
<path d="M297.971 311.394C297.969 312.548 297.012 313.564 295.833 313.664L281.444 314.886C280.239 314.988 279.262 314.124 279.264 312.955L279.273 307.616C279.275 306.446 280.256 305.422 281.461 305.327L295.855 304.203C297.034 304.111 297.986 304.972 297.983 306.126L297.971 311.394Z" fill="url(#paint52_linear_168_1090)"/>
<path d="M249.795 333.314C249.794 334.506 248.772 335.572 247.511 335.695L232.111 337.193C230.82 337.319 229.773 336.441 229.773 335.232L229.775 329.713C229.776 328.504 230.824 327.429 232.115 327.312L247.52 325.917C248.781 325.803 249.801 326.677 249.8 327.87L249.795 333.314Z" fill="url(#paint53_linear_168_1090)"/>
<path d="M273.857 331.009C273.855 332.182 272.866 333.228 271.647 333.347L256.76 334.795C255.512 334.916 254.501 334.052 254.502 332.863L254.508 327.437C254.509 326.248 255.523 325.193 256.771 325.08L271.662 323.732C272.881 323.621 273.867 324.483 273.865 325.655L273.857 331.009Z" fill="url(#paint54_linear_168_1090)"/>
<path d="M297.931 328.703C297.929 329.855 296.973 330.882 295.794 330.997L281.412 332.397C280.207 332.514 279.23 331.662 279.232 330.494L279.242 325.161C279.244 323.992 280.224 322.957 281.429 322.848L295.816 321.545C296.994 321.438 297.946 322.287 297.943 323.44L297.931 328.703Z" fill="url(#paint55_linear_168_1090)"/>
<path d="M319.169 302.382L305.255 303.469C304.09 303.56 303.183 304.879 303.181 306.029L303.173 308.985L303.167 311.454L303.14 322.599L303.132 325.878L303.127 328.02C303.124 329.168 304.024 330.196 305.189 330.083L319.093 328.73C320.232 328.619 321.2 327.424 321.203 326.291L321.209 324.177L321.219 320.941L321.251 309.94L321.258 307.503L321.267 304.585C321.27 303.45 320.309 302.293 319.169 302.382Z" fill="url(#paint56_linear_168_1090)"/>
<path d="M306.814 173.492C306.814 185.323 297.563 194.63 285.739 194.267C273.433 193.889 263.084 183.262 263.084 170.544C263.084 157.826 273.433 148.594 285.739 149.876C297.563 151.107 306.814 161.661 306.814 173.492Z" fill="url(#paint57_linear_168_1090)"/>
<path d="M310.007 172.472C310.007 184.303 300.756 193.61 288.932 193.247C276.626 192.869 266.277 182.242 266.277 169.524C266.277 156.806 276.627 147.574 288.932 148.856C300.756 150.087 310.007 160.641 310.007 172.472Z" fill="url(#paint58_linear_168_1090)"/>
<path d="M309.081 172.409C309.081 183.72 300.229 192.602 288.933 192.236C277.2 191.856 267.348 181.714 267.348 169.596C267.348 157.478 277.199 148.664 288.933 149.867C300.229 151.024 309.081 161.099 309.081 172.409Z" fill="url(#paint59_linear_168_1090)"/>
<path d="M308.414 172.365C308.414 183.302 299.849 191.88 288.932 191.514C277.606 191.133 268.107 181.338 268.107 169.647C268.107 157.957 277.606 149.442 288.932 150.589C299.849 151.694 308.414 161.428 308.414 172.365Z" fill="url(#paint60_linear_168_1090)"/>
<path d="M288.822 154.309C289.403 154.365 289.873 154.888 289.873 155.478V157.491C291.035 157.621 292.198 157.823 293.363 158.097C294.222 158.299 295.075 158.539 295.923 158.818C296.43 158.984 296.776 159.497 296.725 160.026L296.477 162.551C296.412 163.221 295.749 163.614 295.126 163.336C294.568 163.087 293.995 162.874 293.409 162.697C292.385 162.387 291.306 162.185 290.17 162.091L289.873 162.067V167.834C292.904 168.682 295.129 169.822 296.568 171.257C297.999 172.685 298.712 174.465 298.712 176.601C298.712 178.911 297.924 180.761 296.341 182.156C294.749 183.559 292.517 184.348 289.632 184.519V186.741C289.632 187.331 289.161 187.791 288.58 187.768L288.561 187.767C287.978 187.744 287.505 187.245 287.505 186.653V184.46L287.037 184.439C285.684 184.378 284.388 184.24 283.15 184.025C282.233 183.865 281.338 183.659 280.464 183.407C279.936 183.254 279.573 182.751 279.621 182.21L279.912 178.964C279.975 178.263 280.68 177.854 281.347 178.118C282.125 178.424 282.913 178.683 283.71 178.893C284.952 179.221 286.211 179.431 287.486 179.524L287.505 173.109C284.596 172.389 282.418 171.323 280.987 169.911C279.55 168.492 278.828 166.676 278.828 164.468C278.828 162.184 279.61 160.42 281.169 159.182C282.719 157.951 284.924 157.338 287.767 157.34V155.281C287.767 154.689 288.24 154.254 288.822 154.309ZM287.767 162.007C286.868 162.073 286.167 162.32 285.665 162.749C285.162 163.178 284.911 163.755 284.911 164.48C284.911 165.166 285.144 165.74 285.609 166.2C286.073 166.66 286.793 167.027 287.767 167.301V162.007ZM289.632 173.623V179.506C290.609 179.508 291.358 179.275 291.882 178.807C292.404 178.34 292.665 177.68 292.665 176.827C292.665 176.049 292.422 175.404 291.937 174.89C291.451 174.377 290.683 173.954 289.632 173.623Z" fill="url(#paint61_linear_168_1090)"/>
<path opacity="0.3" d="M285.406 175.043C286.065 168.542 292.04 165.789 291.26 159.809C290.779 156.123 287.986 153.017 284.869 150.592C275.417 151.583 268.107 159.41 268.107 169.647C268.107 181.337 277.606 191.133 288.932 191.513C290.032 191.55 291.106 191.493 292.15 191.356C287.652 186.88 284.841 180.628 285.406 175.043Z" fill="url(#paint62_linear_168_1090)"/>
<path opacity="0.3" d="M52.7188 233.27C56.8915 229.455 66.4076 231.793 76.4503 237.654C64.851 250.126 63.5702 258.232 64.9446 263.496C66.4977 269.446 71.2593 271.171 71.2256 277.673C71.184 285.663 63.9673 287.762 64.1005 296.218C64.1883 301.809 67.3575 301.759 68.0891 308.667C68.955 316.84 64.8082 319.645 66.1346 325.694C66.7052 328.296 68.3436 331.698 73.0246 335.21C72.6805 337.692 72.3278 340.149 71.9607 342.559C71.0355 342.586 70.0628 342.589 69.0471 342.558C68.3611 342.537 67.6962 342.502 67.0543 342.456C65.7706 339.008 64.2543 334.473 62.8998 329.058C61.476 323.363 60.6209 318.257 60.0147 313.374C57.8805 296.182 60.4337 294.689 58.6986 281.948C57.162 270.663 54.9392 270.217 52.3671 254.195C49.5765 236.811 51.6911 234.209 52.7188 233.27Z" fill="url(#paint63_linear_168_1090)"/>
<path d="M112.108 194.123L16.253 259.743C13.9343 261.339 10.728 260.822 9.09576 258.583L8.07013 257.178C6.43363 254.935 6.99976 251.818 9.33651 250.226L11.254 248.924L89.2713 195.884L105.307 184.981L112.108 194.123Z" fill="url(#paint64_linear_168_1090)"/>
<path d="M186.192 204.9C160.125 223.357 123.913 216.628 105.335 188.992C86.3109 160.692 93.4631 122.134 121.263 103.799C148.561 85.7948 184.647 94.7506 201.936 122.912C218.833 150.432 211.808 186.762 186.192 204.9ZM181.191 197.114C202.842 181.866 208.751 151.213 194.427 128.048C179.823 104.431 149.508 97.0616 126.668 112.216C103.478 127.603 97.4788 159.827 113.303 183.542C128.816 206.789 159.22 212.588 181.191 197.114Z" fill="url(#paint65_linear_168_1090)"/>
<path opacity="0.6" d="M112.108 194.123L16.253 259.743C13.9343 261.339 10.728 260.822 9.09576 258.583L8.07013 257.178C6.43363 254.935 6.99976 251.818 9.33651 250.226L11.2496 248.92L11.254 248.924C15.9631 253.656 19.0714 254.325 21.1539 253.798C26.0325 252.563 24.5878 245 31.9858 238.984C39.3038 233.035 45.2124 236.768 53.5113 230.15C58.5324 226.146 56.7397 224.482 61.8415 219.399C72.0089 209.267 82.5553 212.446 87.3891 205.004C88.6601 203.046 89.6366 200.196 89.2711 195.884L105.307 184.981L112.108 194.123Z" fill="#D8DEE8"/>
<path d="M188.971 206.91C162.905 225.367 126.692 218.638 108.114 191.002C89.0903 162.702 96.2423 124.144 124.042 105.809C151.341 87.8046 187.426 96.7604 204.716 124.921C221.612 152.442 214.587 188.772 188.971 206.91ZM183.971 199.124C205.621 183.876 211.53 153.223 197.206 130.058C182.602 106.441 152.288 99.0713 129.447 114.226C106.257 129.612 100.258 161.837 116.083 185.551C131.595 208.798 161.999 214.597 183.971 199.124Z" fill="url(#paint66_linear_168_1090)"/>
<path d="M187.207 204.162C162.586 221.563 128.427 215.157 110.938 189.071C93.0522 162.395 99.7961 126.084 125.959 108.792C151.677 91.7944 185.721 100.183 202.065 126.735C218.057 152.717 211.426 187.046 187.207 204.162ZM183.971 199.124C205.622 183.876 211.531 153.223 197.207 130.058C182.603 106.441 152.288 99.0714 129.448 114.226C106.257 129.612 100.259 161.837 116.083 185.551C131.596 208.798 162 214.597 183.971 199.124Z" fill="url(#paint67_linear_168_1090)"/>
<path d="M325.507 110.165C325.507 126.636 312.628 139.592 296.167 139.087C279.037 138.561 264.629 123.766 264.629 106.061C264.629 88.356 279.036 75.5036 296.167 77.2874C312.628 79.0015 325.507 93.6945 325.507 110.165Z" fill="url(#paint68_linear_168_1090)"/>
<path d="M329.956 108.745C329.956 125.215 317.077 138.172 300.616 137.667C283.486 137.141 269.078 122.346 269.078 104.641C269.078 86.9361 283.486 74.0837 300.616 75.8675C317.077 77.5814 329.956 92.2745 329.956 108.745Z" fill="url(#paint69_linear_168_1090)"/>
<path d="M328.665 108.658C328.665 124.403 316.342 136.768 300.617 136.259C284.282 135.73 270.566 121.61 270.566 104.741C270.566 87.8714 284.282 75.6013 300.617 77.2748C316.342 78.886 328.665 92.9125 328.665 108.658Z" fill="url(#paint70_linear_168_1090)"/>
<path d="M327.738 108.595C327.738 123.821 315.814 135.764 300.616 135.253C284.848 134.724 271.625 121.087 271.625 104.812C271.625 88.538 284.848 76.6837 300.616 78.2803C315.814 79.8193 327.738 93.3697 327.738 108.595Z" fill="url(#paint71_linear_168_1090)"/>
<path d="M300.46 83.4602C301.269 83.5371 301.923 84.2652 301.923 85.0866V87.89C303.54 88.0705 305.16 88.3516 306.781 88.7328C307.977 89.0138 309.165 89.3485 310.345 89.7364C311.052 89.9687 311.533 90.6825 311.461 91.4186L311.117 94.934C311.026 95.8666 310.104 96.4143 309.236 96.0272C308.459 95.6807 307.662 95.3839 306.845 95.1367C305.42 94.7056 303.918 94.4245 302.337 94.2941L301.923 94.26V102.288C306.142 103.469 309.241 105.057 311.243 107.054C313.236 109.042 314.229 111.519 314.229 114.493C314.229 117.709 313.131 120.285 310.927 122.227C308.711 124.18 305.604 125.278 301.587 125.516V128.61C301.587 129.431 300.932 130.071 300.122 130.039L300.096 130.038C299.285 130.006 298.626 129.311 298.626 128.487V125.435L297.974 125.405C296.091 125.32 294.287 125.128 292.564 124.828C291.287 124.606 290.041 124.32 288.824 123.968C288.089 123.756 287.584 123.055 287.651 122.302L288.056 117.784C288.144 116.807 289.125 116.238 290.054 116.605C291.137 117.032 292.233 117.392 293.343 117.684C295.072 118.14 296.825 118.433 298.6 118.563L298.626 109.632C294.577 108.63 291.545 107.146 289.552 105.18C287.551 103.205 286.547 100.677 286.547 97.6032C286.547 94.4225 287.636 91.9672 289.805 90.2441C291.964 88.5297 295.032 87.6769 298.991 87.679V84.8131C298.991 83.9887 299.649 83.3831 300.46 83.4602ZM298.991 94.1767C297.739 94.2678 296.764 94.6116 296.065 95.2085C295.365 95.8064 295.015 96.6098 295.015 97.6183C295.015 98.5737 295.339 99.3723 295.986 100.013C296.633 100.653 297.635 101.164 298.991 101.546V94.1767ZM301.587 110.348V118.537C302.948 118.54 303.991 118.215 304.719 117.564C305.446 116.913 305.809 115.995 305.809 114.807C305.809 113.724 305.472 112.826 304.796 112.112C304.119 111.396 303.051 110.808 301.587 110.348Z" fill="url(#paint72_linear_168_1090)"/>
<path opacity="0.3" d="M295.708 112.324C296.624 103.274 304.942 99.442 303.856 91.1169C303.187 85.9858 299.298 81.6615 294.96 78.2852C281.801 79.6652 271.625 90.5613 271.625 104.813C271.625 121.087 284.848 134.724 300.616 135.254C302.147 135.305 303.642 135.226 305.096 135.035C298.834 128.804 294.92 120.1 295.708 112.324Z" fill="url(#paint73_linear_168_1090)"/>
<defs>
<linearGradient id="paint0_linear_168_1090" x1="31.0664" y1="187.387" x2="278.802" y2="187.387" gradientUnits="userSpaceOnUse">
<stop stop-color="#444B8C"/>
<stop offset="0.9964" stop-color="#26264F"/>
</linearGradient>
<linearGradient id="paint1_linear_168_1090" x1="89.2624" y1="344.437" x2="329.551" y2="-235.572" gradientUnits="userSpaceOnUse">
<stop offset="0.0036" stop-color="#E38DDD"/>
<stop offset="1" stop-color="#9571F6"/>
</linearGradient>
<linearGradient id="paint2_linear_168_1090" x1="102.492" y1="35.6467" x2="226.407" y2="35.6467" gradientUnits="userSpaceOnUse">
<stop stop-color="#444B8C"/>
<stop offset="0.9964" stop-color="#26264F"/>
</linearGradient>
<linearGradient id="paint3_linear_168_1090" x1="121.137" y1="153.582" x2="130.176" y2="153.582" gradientUnits="userSpaceOnUse">
<stop stop-color="#FF9085"/>
<stop offset="1" stop-color="#FB6FBB"/>
</linearGradient>
<linearGradient id="paint4_linear_168_1090" x1="138.539" y1="165.592" x2="147.423" y2="165.592" gradientUnits="userSpaceOnUse">
<stop stop-color="#FF9085"/>
<stop offset="1" stop-color="#FB6FBB"/>
</linearGradient>
<linearGradient id="paint5_linear_168_1090" x1="155.645" y1="158.13" x2="164.377" y2="158.13" gradientUnits="userSpaceOnUse">
<stop stop-color="#FF9085"/>
<stop offset="1" stop-color="#FB6FBB"/>
</linearGradient>
<linearGradient id="paint6_linear_168_1090" x1="172.457" y1="164.636" x2="181.042" y2="164.636" gradientUnits="userSpaceOnUse">
<stop stop-color="#FF9085"/>
<stop offset="1" stop-color="#FB6FBB"/>
</linearGradient>
<linearGradient id="paint7_linear_168_1090" x1="188.988" y1="171.507" x2="197.429" y2="171.507" gradientUnits="userSpaceOnUse">
<stop stop-color="#FF9085"/>
<stop offset="1" stop-color="#FB6FBB"/>
</linearGradient>
<linearGradient id="paint8_linear_168_1090" x1="264.371" y1="509.654" x2="266.956" y2="317.341" gradientUnits="userSpaceOnUse">
<stop stop-color="#444B8C"/>
<stop offset="0.9964" stop-color="#26264F"/>
</linearGradient>
<linearGradient id="paint9_linear_168_1090" x1="270.602" y1="508.515" x2="273.178" y2="316.88" gradientUnits="userSpaceOnUse">
<stop stop-color="#009688"/>
<stop offset="0.9964" stop-color="#35658E"/>
</linearGradient>
<linearGradient id="paint10_linear_168_1090" x1="221.799" y1="222.56" x2="326.192" y2="222.56" gradientUnits="userSpaceOnUse">
<stop stop-color="#009688"/>
<stop offset="0.9964" stop-color="#35658E"/>
</linearGradient>
<linearGradient id="paint11_linear_168_1090" x1="221.799" y1="238.805" x2="326.132" y2="238.805" gradientUnits="userSpaceOnUse">
<stop stop-color="#009688"/>
<stop offset="0.9964" stop-color="#35658E"/>
</linearGradient>
<linearGradient id="paint12_linear_168_1090" x1="306.622" y1="214.724" x2="305.237" y2="246.308" gradientUnits="userSpaceOnUse">
<stop stop-color="#311944"/>
<stop offset="1" stop-color="#A03976"/>
</linearGradient>
<linearGradient id="paint13_linear_168_1090" x1="314.527" y1="214.587" x2="313.141" y2="246.203" gradientUnits="userSpaceOnUse">
<stop stop-color="#311944"/>
<stop offset="1" stop-color="#A03976"/>
</linearGradient>
<linearGradient id="paint14_linear_168_1090" x1="306.617" y1="223.131" x2="305.133" y2="256.96" gradientUnits="userSpaceOnUse">
<stop stop-color="#311944"/>
<stop offset="1" stop-color="#A03976"/>
</linearGradient>
<linearGradient id="paint15_linear_168_1090" x1="314.541" y1="222.399" x2="312.957" y2="258.516" gradientUnits="userSpaceOnUse">
<stop stop-color="#311944"/>
<stop offset="1" stop-color="#A03976"/>
</linearGradient>
<linearGradient id="paint16_linear_168_1090" x1="315.875" y1="224.497" x2="286.434" y2="223.206" gradientUnits="userSpaceOnUse">
<stop stop-color="#311944"/>
<stop offset="1" stop-color="#A03976"/>
</linearGradient>
<linearGradient id="paint17_linear_168_1090" x1="315.876" y1="216.262" x2="286.428" y2="214.971" gradientUnits="userSpaceOnUse">
<stop stop-color="#311944"/>
<stop offset="1" stop-color="#A03976"/>
</linearGradient>
<linearGradient id="paint18_linear_168_1090" x1="316.084" y1="233.136" x2="284.209" y2="231.738" gradientUnits="userSpaceOnUse">
<stop stop-color="#311944"/>
<stop offset="1" stop-color="#A03976"/>
</linearGradient>
<linearGradient id="paint19_linear_168_1090" x1="328.428" y1="212.015" x2="163.564" y2="303.727" gradientUnits="userSpaceOnUse">
<stop stop-color="#444B8C"/>
<stop offset="0.9964" stop-color="#3E4177"/>
</linearGradient>
<linearGradient id="paint20_linear_168_1090" x1="331.959" y1="222.974" x2="172.266" y2="311.81" gradientUnits="userSpaceOnUse">
<stop stop-color="#444B8C"/>
<stop offset="0.9964" stop-color="#3E4177"/>
</linearGradient>
<linearGradient id="paint21_linear_168_1090" x1="335.162" y1="233.254" x2="180.22" y2="319.447" gradientUnits="userSpaceOnUse">
<stop stop-color="#444B8C"/>
<stop offset="0.9964" stop-color="#3E4177"/>
</linearGradient>
<linearGradient id="paint22_linear_168_1090" x1="339.528" y1="242.899" x2="189.268" y2="326.488" gradientUnits="userSpaceOnUse">
<stop stop-color="#444B8C"/>
<stop offset="0.9964" stop-color="#3E4177"/>
</linearGradient>
<linearGradient id="paint23_linear_168_1090" x1="336.779" y1="225.047" x2="171.109" y2="317.207" gradientUnits="userSpaceOnUse">
<stop stop-color="#444B8C"/>
<stop offset="0.9964" stop-color="#3E4177"/>
</linearGradient>
<linearGradient id="paint24_linear_168_1090" x1="339.941" y1="235.896" x2="179.468" y2="325.165" gradientUnits="userSpaceOnUse">
<stop stop-color="#444B8C"/>
<stop offset="0.9964" stop-color="#3E4177"/>
</linearGradient>
<linearGradient id="paint25_linear_168_1090" x1="342.806" y1="246.072" x2="187.109" y2="332.685" gradientUnits="userSpaceOnUse">
<stop stop-color="#444B8C"/>
<stop offset="0.9964" stop-color="#3E4177"/>
</linearGradient>
<linearGradient id="paint26_linear_168_1090" x1="346.841" y1="255.607" x2="195.85" y2="339.602" gradientUnits="userSpaceOnUse">
<stop stop-color="#444B8C"/>
<stop offset="0.9964" stop-color="#3E4177"/>
</linearGradient>
<linearGradient id="paint27_linear_168_1090" x1="345.193" y1="237.614" x2="178.739" y2="330.211" gradientUnits="userSpaceOnUse">
<stop stop-color="#444B8C"/>
<stop offset="0.9964" stop-color="#3E4177"/>
</linearGradient>
<linearGradient id="paint28_linear_168_1090" x1="347.989" y1="248.361" x2="186.757" y2="338.053" gradientUnits="userSpaceOnUse">
<stop stop-color="#444B8C"/>
<stop offset="0.9964" stop-color="#3E4177"/>
</linearGradient>
<linearGradient id="paint29_linear_168_1090" x1="350.514" y1="258.441" x2="194.081" y2="345.463" gradientUnits="userSpaceOnUse">
<stop stop-color="#444B8C"/>
<stop offset="0.9964" stop-color="#3E4177"/>
</linearGradient>
<linearGradient id="paint30_linear_168_1090" x1="354.221" y1="267.873" x2="202.518" y2="352.264" gradientUnits="userSpaceOnUse">
<stop stop-color="#444B8C"/>
<stop offset="0.9964" stop-color="#3E4177"/>
</linearGradient>
<linearGradient id="paint31_linear_168_1090" x1="353.67" y1="249.72" x2="186.45" y2="342.743" gradientUnits="userSpaceOnUse">
<stop stop-color="#444B8C"/>
<stop offset="0.9964" stop-color="#3E4177"/>
</linearGradient>
<linearGradient id="paint32_linear_168_1090" x1="356.099" y1="260.373" x2="194.126" y2="350.476" gradientUnits="userSpaceOnUse">
<stop stop-color="#444B8C"/>
<stop offset="0.9964" stop-color="#3E4177"/>
</linearGradient>
<linearGradient id="paint33_linear_168_1090" x1="358.287" y1="270.362" x2="201.137" y2="357.784" gradientUnits="userSpaceOnUse">
<stop stop-color="#444B8C"/>
<stop offset="0.9964" stop-color="#3E4177"/>
</linearGradient>
<linearGradient id="paint34_linear_168_1090" x1="362.259" y1="262.977" x2="194.219" y2="356.456" gradientUnits="userSpaceOnUse">
<stop stop-color="#444B8C"/>
<stop offset="0.9964" stop-color="#3E4177"/>
</linearGradient>
<linearGradient id="paint35_linear_168_1090" x1="364.31" y1="273.52" x2="201.544" y2="364.065" gradientUnits="userSpaceOnUse">
<stop stop-color="#444B8C"/>
<stop offset="0.9964" stop-color="#3E4177"/>
</linearGradient>
<linearGradient id="paint36_linear_168_1090" x1="366.15" y1="283.405" x2="208.231" y2="371.254" gradientUnits="userSpaceOnUse">
<stop stop-color="#444B8C"/>
<stop offset="0.9964" stop-color="#3E4177"/>
</linearGradient>
<linearGradient id="paint37_linear_168_1090" x1="365.002" y1="286.332" x2="213.164" y2="370.798" gradientUnits="userSpaceOnUse">
<stop stop-color="#444B8C"/>
<stop offset="0.9964" stop-color="#3E4177"/>
</linearGradient>
<linearGradient id="paint38_linear_168_1090" x1="240.31" y1="250.812" x2="237.589" y2="312.832" gradientUnits="userSpaceOnUse">
<stop stop-color="#444B8C"/>
<stop offset="0.9964" stop-color="#26264F"/>
</linearGradient>
<linearGradient id="paint39_linear_168_1090" x1="264.743" y1="249.897" x2="262.074" y2="310.747" gradientUnits="userSpaceOnUse">
<stop stop-color="#444B8C"/>
<stop offset="0.9964" stop-color="#26264F"/>
</linearGradient>
<linearGradient id="paint40_linear_168_1090" x1="289.184" y1="248.981" x2="286.567" y2="308.665" gradientUnits="userSpaceOnUse">
<stop stop-color="#444B8C"/>
<stop offset="0.9964" stop-color="#26264F"/>
</linearGradient>
<linearGradient id="paint41_linear_168_1090" x1="312.802" y1="248.095" x2="310.234" y2="306.656" gradientUnits="userSpaceOnUse">
<stop stop-color="#444B8C"/>
<stop offset="0.9964" stop-color="#26264F"/>
</linearGradient>
<linearGradient id="paint42_linear_168_1090" x1="240.307" y1="268.307" x2="237.542" y2="331.333" gradientUnits="userSpaceOnUse">
<stop stop-color="#444B8C"/>
<stop offset="0.9964" stop-color="#26264F"/>
</linearGradient>
<linearGradient id="paint43_linear_168_1090" x1="264.729" y1="267.101" x2="262.017" y2="328.923" gradientUnits="userSpaceOnUse">
<stop stop-color="#444B8C"/>
<stop offset="0.9964" stop-color="#26264F"/>
</linearGradient>
<linearGradient id="paint44_linear_168_1090" x1="289.158" y1="265.894" x2="286.499" y2="326.517" gradientUnits="userSpaceOnUse">
<stop stop-color="#444B8C"/>
<stop offset="0.9964" stop-color="#26264F"/>
</linearGradient>
<linearGradient id="paint45_linear_168_1090" x1="312.764" y1="264.727" x2="310.156" y2="324.195" gradientUnits="userSpaceOnUse">
<stop stop-color="#444B8C"/>
<stop offset="0.9964" stop-color="#26264F"/>
</linearGradient>
<linearGradient id="paint46_linear_168_1090" x1="240.302" y1="285.376" x2="237.494" y2="349.387" gradientUnits="userSpaceOnUse">
<stop stop-color="#444B8C"/>
<stop offset="0.9964" stop-color="#26264F"/>
</linearGradient>
<linearGradient id="paint47_linear_168_1090" x1="264.712" y1="283.887" x2="261.959" y2="346.661" gradientUnits="userSpaceOnUse">
<stop stop-color="#444B8C"/>
<stop offset="0.9964" stop-color="#26264F"/>
</linearGradient>
<linearGradient id="paint48_linear_168_1090" x1="289.13" y1="282.396" x2="286.43" y2="343.937" gradientUnits="userSpaceOnUse">
<stop stop-color="#444B8C"/>
<stop offset="0.9964" stop-color="#26264F"/>
</linearGradient>
<linearGradient id="paint49_linear_168_1090" x1="312.724" y1="280.955" x2="310.077" y2="341.311" gradientUnits="userSpaceOnUse">
<stop stop-color="#444B8C"/>
<stop offset="0.9964" stop-color="#26264F"/>
</linearGradient>
<linearGradient id="paint50_linear_168_1090" x1="240.299" y1="302.023" x2="237.449" y2="366.997" gradientUnits="userSpaceOnUse">
<stop stop-color="#444B8C"/>
<stop offset="0.9964" stop-color="#26264F"/>
</linearGradient>
<linearGradient id="paint51_linear_168_1090" x1="264.697" y1="300.258" x2="261.903" y2="363.962" gradientUnits="userSpaceOnUse">
<stop stop-color="#444B8C"/>
<stop offset="0.9964" stop-color="#26264F"/>
</linearGradient>
<linearGradient id="paint52_linear_168_1090" x1="289.105" y1="298.49" x2="286.367" y2="360.931" gradientUnits="userSpaceOnUse">
<stop stop-color="#444B8C"/>
<stop offset="0.9964" stop-color="#26264F"/>
</linearGradient>
<linearGradient id="paint53_linear_168_1090" x1="240.296" y1="319.869" x2="237.401" y2="385.879" gradientUnits="userSpaceOnUse">
<stop stop-color="#444B8C"/>
<stop offset="0.9964" stop-color="#26264F"/>
</linearGradient>
<linearGradient id="paint54_linear_168_1090" x1="264.683" y1="317.809" x2="261.845" y2="382.513" gradientUnits="userSpaceOnUse">
<stop stop-color="#444B8C"/>
<stop offset="0.9964" stop-color="#26264F"/>
</linearGradient>
<linearGradient id="paint55_linear_168_1090" x1="289.077" y1="315.746" x2="286.296" y2="379.152" gradientUnits="userSpaceOnUse">
<stop stop-color="#444B8C"/>
<stop offset="0.9964" stop-color="#26264F"/>
</linearGradient>
<linearGradient id="paint56_linear_168_1090" x1="313.399" y1="288.631" x2="306.56" y2="444.56" gradientUnits="userSpaceOnUse">
<stop stop-color="#444B8C"/>
<stop offset="0.9964" stop-color="#26264F"/>
</linearGradient>
<linearGradient id="paint57_linear_168_1090" x1="277.455" y1="174.418" x2="251.952" y2="182.602" gradientUnits="userSpaceOnUse">
<stop stop-color="#FCB148"/>
<stop offset="0.0521" stop-color="#FDBA46"/>
<stop offset="0.1424" stop-color="#FFC244"/>
<stop offset="0.3183" stop-color="#FFC444"/>
<stop offset="0.4849" stop-color="#FDB946"/>
<stop offset="0.7754" stop-color="#F99C4D"/>
<stop offset="0.8658" stop-color="#F8924F"/>
<stop offset="1" stop-color="#F8924F"/>
</linearGradient>
<linearGradient id="paint58_linear_168_1090" x1="298.083" y1="149.032" x2="275.316" y2="199.261" gradientUnits="userSpaceOnUse">
<stop stop-color="#FFDB44"/>
<stop offset="1" stop-color="#FEEF06"/>
</linearGradient>
<linearGradient id="paint59_linear_168_1090" x1="293.897" y1="202.068" x2="289.504" y2="178.07" gradientUnits="userSpaceOnUse">
<stop stop-color="#FCB148"/>
<stop offset="0.0521" stop-color="#FDBA46"/>
<stop offset="0.1424" stop-color="#FFC244"/>
<stop offset="0.3183" stop-color="#FFC444"/>
<stop offset="0.4849" stop-color="#FDB946"/>
<stop offset="0.7754" stop-color="#F99C4D"/>
<stop offset="0.8658" stop-color="#F8924F"/>
<stop offset="1" stop-color="#F8924F"/>
</linearGradient>
<linearGradient id="paint60_linear_168_1090" x1="284.581" y1="163.224" x2="302.685" y2="201.655" gradientUnits="userSpaceOnUse">
<stop stop-color="#FCB148"/>
<stop offset="0.0521" stop-color="#FDBA46"/>
<stop offset="0.1424" stop-color="#FFC244"/>
<stop offset="0.3183" stop-color="#FFC444"/>
<stop offset="0.4849" stop-color="#FDB946"/>
<stop offset="0.7754" stop-color="#F99C4D"/>
<stop offset="0.8658" stop-color="#F8924F"/>
<stop offset="1" stop-color="#F8924F"/>
</linearGradient>
<linearGradient id="paint61_linear_168_1090" x1="283.862" y1="154.954" x2="292.965" y2="189.072" gradientUnits="userSpaceOnUse">
<stop stop-color="#FFDB44"/>
<stop offset="1" stop-color="#FEEF06"/>
</linearGradient>
<linearGradient id="paint62_linear_168_1090" x1="279.255" y1="165.711" x2="297.323" y2="204.065" gradientUnits="userSpaceOnUse">
<stop stop-color="#FCB148"/>
<stop offset="0.0521" stop-color="#FDBA46"/>
<stop offset="0.1424" stop-color="#FFC244"/>
<stop offset="0.3183" stop-color="#FFC444"/>
<stop offset="0.4849" stop-color="#FDB946"/>
<stop offset="0.7754" stop-color="#F99C4D"/>
<stop offset="0.8658" stop-color="#F8924F"/>
<stop offset="1" stop-color="#F8924F"/>
</linearGradient>
<linearGradient id="paint63_linear_168_1090" x1="78.2234" y1="287.027" x2="50.8687" y2="286.962" gradientUnits="userSpaceOnUse">
<stop stop-color="#444B8C"/>
<stop offset="0.9964" stop-color="#3E4177"/>
</linearGradient>
<linearGradient id="paint64_linear_168_1090" x1="7.13478" y1="222.825" x2="112.108" y2="222.825" gradientUnits="userSpaceOnUse">
<stop stop-color="#444B8C"/>
<stop offset="0.9964" stop-color="#26264F"/>
</linearGradient>
<linearGradient id="paint65_linear_168_1090" x1="208.493" y1="137.525" x2="97.3678" y2="172.231" gradientUnits="userSpaceOnUse">
<stop stop-color="#444B8C"/>
<stop offset="0.9964" stop-color="#26264F"/>
</linearGradient>
<linearGradient id="paint66_linear_168_1090" x1="187.436" y1="212.649" x2="143.931" y2="136.154" gradientUnits="userSpaceOnUse">
<stop stop-color="#444B8C"/>
<stop offset="0.9964" stop-color="#26264F"/>
</linearGradient>
<linearGradient id="paint67_linear_168_1090" x1="123.346" y1="100.84" x2="182.665" y2="203.123" gradientUnits="userSpaceOnUse">
<stop stop-color="#444B8C"/>
<stop offset="0.9964" stop-color="#26264F"/>
</linearGradient>
<linearGradient id="paint68_linear_168_1090" x1="284.635" y1="111.453" x2="249.131" y2="122.847" gradientUnits="userSpaceOnUse">
<stop stop-color="#FCB148"/>
<stop offset="0.0521" stop-color="#FDBA46"/>
<stop offset="0.1424" stop-color="#FFC244"/>
<stop offset="0.3183" stop-color="#FFC444"/>
<stop offset="0.4849" stop-color="#FDB946"/>
<stop offset="0.7754" stop-color="#F99C4D"/>
<stop offset="0.8658" stop-color="#F8924F"/>
<stop offset="1" stop-color="#F8924F"/>
</linearGradient>
<linearGradient id="paint69_linear_168_1090" x1="313.356" y1="76.1132" x2="281.661" y2="146.039" gradientUnits="userSpaceOnUse">
<stop stop-color="#FFDB44"/>
<stop offset="1" stop-color="#FEEF06"/>
</linearGradient>
<linearGradient id="paint70_linear_168_1090" x1="307.526" y1="149.947" x2="301.411" y2="116.537" gradientUnits="userSpaceOnUse">
<stop stop-color="#FCB148"/>
<stop offset="0.0521" stop-color="#FDBA46"/>
<stop offset="0.1424" stop-color="#FFC244"/>
<stop offset="0.3183" stop-color="#FFC444"/>
<stop offset="0.4849" stop-color="#FDB946"/>
<stop offset="0.7754" stop-color="#F99C4D"/>
<stop offset="0.8658" stop-color="#F8924F"/>
<stop offset="1" stop-color="#F8924F"/>
</linearGradient>
<linearGradient id="paint71_linear_168_1090" x1="294.559" y1="95.8698" x2="319.762" y2="149.372" gradientUnits="userSpaceOnUse">
<stop stop-color="#FCB148"/>
<stop offset="0.0521" stop-color="#FDBA46"/>
<stop offset="0.1424" stop-color="#FFC244"/>
<stop offset="0.3183" stop-color="#FFC444"/>
<stop offset="0.4849" stop-color="#FDB946"/>
<stop offset="0.7754" stop-color="#F99C4D"/>
<stop offset="0.8658" stop-color="#F8924F"/>
<stop offset="1" stop-color="#F8924F"/>
</linearGradient>
<linearGradient id="paint72_linear_168_1090" x1="293.554" y1="84.3568" x2="306.227" y2="131.854" gradientUnits="userSpaceOnUse">
<stop stop-color="#FFDB44"/>
<stop offset="1" stop-color="#FEEF06"/>
</linearGradient>
<linearGradient id="paint73_linear_168_1090" x1="287.144" y1="99.3324" x2="312.297" y2="152.727" gradientUnits="userSpaceOnUse">
<stop stop-color="#FCB148"/>
<stop offset="0.0521" stop-color="#FDBA46"/>
<stop offset="0.1424" stop-color="#FFC244"/>
<stop offset="0.3183" stop-color="#FFC444"/>
<stop offset="0.4849" stop-color="#FDB946"/>
<stop offset="0.7754" stop-color="#F99C4D"/>
<stop offset="0.8658" stop-color="#F8924F"/>
<stop offset="1" stop-color="#F8924F"/>
</linearGradient>
</defs>
</svg>
