<svg width="385" height="286" viewBox="0 0 385 286" fill="none" xmlns="http://www.w3.org/2000/svg">
<rect x="60.3594" y="47.5764" width="257.407" height="188.992" stroke="#C6C6C6" stroke-width="2" stroke-linejoin="round" stroke-dasharray="3 3"/>
<rect y="0.0162354" width="268.26" height="202.564" fill="#F1F1F1"/>
<rect x="6.56934" y="29.5795" width="255.121" height="168.621" fill="white"/>
<rect x="27.373" y="51.4788" width="211.323" height="122.633" rx="8" fill="#F1F1F1"/>
<rect x="244.172" y="13.1555" width="16.4241" height="4.37976" rx="2.18988" fill="#C4C4C4"/>
<rect x="43.2061" y="90.286" width="78.8672" height="4.75104" rx="2.37552" fill="white"/>
<rect x="43.2061" y="137.796" width="78.8672" height="4.75104" rx="2.37552" fill="white"/>
<rect x="138.227" y="90.286" width="78.8672" height="4.75104" rx="2.37552" fill="#5236FF"/>
<rect x="43.2061" y="82.6843" width="78.8672" height="4.75104" rx="2.37552" fill="white"/>
<rect x="43.2061" y="130.195" width="78.8672" height="4.75104" rx="2.37552" fill="#FFB422"/>
<rect x="138.227" y="82.6843" width="78.8672" height="4.75104" rx="2.37552" fill="white"/>
<rect x="43.2061" y="97.8877" width="78.8672" height="4.75104" rx="2.37552" fill="white"/>
<rect x="43.2061" y="145.398" width="78.8672" height="4.75104" rx="2.37552" fill="#FFB422"/>
<rect x="138.227" y="97.8877" width="78.8672" height="4.75104" rx="2.37552" fill="white"/>
<rect x="43.2061" y="105.489" width="44.6598" height="4.75104" rx="2.37552" fill="#5236FF"/>
<rect x="43.2061" y="153" width="44.6598" height="4.75104" rx="2.37552" fill="white"/>
<rect x="138.227" y="105.489" width="44.6598" height="4.75104" rx="2.37552" fill="white"/>
<circle cx="9.30669" cy="14.7978" r="2.73735" fill="#C4C4C4"/>
<circle cx="16.9717" cy="14.7978" r="2.73735" fill="#C4C4C4"/>
<circle cx="24.6358" cy="14.7978" r="2.73735" fill="#C4C4C4"/>
<g filter="url(#filter0_d_92_7345)">
<rect x="160.082" y="119.742" width="198.883" height="134.678" rx="15" fill="white"/>
</g>
<line x1="201.69" y1="187.667" x2="320.667" y2="187.667" stroke="#F1F1F1"/>
<line x1="199.991" y1="210.65" x2="318.968" y2="210.65" stroke="#F1F1F1"/>
<line x1="199.991" y1="176.175" x2="318.968" y2="176.175" stroke="#F1F1F1"/>
<line x1="199.991" y1="199.158" x2="318.968" y2="199.158" stroke="#F1F1F1"/>
<line x1="199.991" y1="164.683" x2="318.968" y2="164.683" stroke="#F1F1F1"/>
<line x1="208.989" y1="153.691" x2="208.989" y2="217.614" stroke="#F1F1F1"/>
<line x1="249.781" y1="153.691" x2="249.781" y2="217.614" stroke="#F1F1F1"/>
<line x1="290.573" y1="153.691" x2="290.573" y2="217.614" stroke="#F1F1F1"/>
<line x1="222.587" y1="152.973" x2="222.587" y2="216.896" stroke="#F1F1F1"/>
<line x1="263.379" y1="152.973" x2="263.379" y2="216.896" stroke="#F1F1F1"/>
<line x1="304.171" y1="152.973" x2="304.171" y2="216.896" stroke="#F1F1F1"/>
<line x1="236.185" y1="152.973" x2="236.185" y2="216.896" stroke="#F1F1F1"/>
<line x1="276.977" y1="152.973" x2="276.977" y2="216.896" stroke="#F1F1F1"/>
<line x1="317.769" y1="152.973" x2="317.769" y2="216.896" stroke="#F1F1F1"/>
<rect x="184.787" y="154.9" width="5.70124" height="2.85062" rx="1.42531" fill="#E0DBFF"/>
<rect x="185.737" y="211.913" width="5.70124" height="2.85062" rx="1.42531" fill="#E0DBFF"/>
<rect x="184.787" y="183.406" width="5.70124" height="2.85062" rx="1.42531" fill="#E0DBFF"/>
<rect x="197.14" y="234.718" width="5.70124" height="2.85062" rx="1.42531" transform="rotate(-90 197.14 234.718)" fill="#E0DBFF"/>
<rect x="225.646" y="234.718" width="5.70124" height="2.85062" rx="1.42531" transform="rotate(-90 225.646 234.718)" fill="#E0DBFF"/>
<rect x="254.152" y="234.718" width="5.70124" height="2.85062" rx="1.42531" transform="rotate(-90 254.152 234.718)" fill="#E0DBFF"/>
<rect x="282.658" y="234.718" width="5.70124" height="2.85062" rx="1.42531" transform="rotate(-90 282.658 234.718)" fill="#E0DBFF"/>
<rect x="311.165" y="234.718" width="5.70124" height="2.85062" rx="1.42531" transform="rotate(-90 311.165 234.718)" fill="#E0DBFF"/>
<rect x="184.787" y="169.153" width="5.70124" height="2.85062" rx="1.42531" fill="#E0DBFF"/>
<rect x="185.737" y="226.166" width="5.70124" height="2.85062" rx="1.42531" fill="#E0DBFF"/>
<rect x="184.787" y="197.66" width="5.70124" height="2.85062" rx="1.42531" fill="#E0DBFF"/>
<rect x="211.393" y="234.718" width="5.70124" height="2.85062" rx="1.42531" transform="rotate(-90 211.393 234.718)" fill="#E0DBFF"/>
<rect x="239.899" y="234.718" width="5.70124" height="2.85062" rx="1.42531" transform="rotate(-90 239.899 234.718)" fill="#E0DBFF"/>
<rect x="268.405" y="234.718" width="5.70124" height="2.85062" rx="1.42531" transform="rotate(-90 268.405 234.718)" fill="#E0DBFF"/>
<rect x="296.911" y="234.718" width="5.70124" height="2.85062" rx="1.42531" transform="rotate(-90 296.911 234.718)" fill="#E0DBFF"/>
<rect x="325.418" y="234.718" width="5.70124" height="2.85062" rx="1.42531" transform="rotate(-90 325.418 234.718)" fill="#E0DBFF"/>
<path d="M263.51 194.334C229.668 182.188 207.411 206.187 199.746 220.948C199.407 221.6 199.889 222.365 200.624 222.365H320.618C321.17 222.365 321.618 221.917 321.618 221.365V156.93C321.618 155.741 319.586 155.457 319.2 156.581C312.005 177.491 294.127 205.322 263.51 194.334Z" fill="#FFB422"/>
<path d="M189.538 147.299V231.867H331.594" stroke="#E0DBFF" stroke-width="3"/>
<defs>
<filter id="filter0_d_92_7345" x="144.082" y="108.742" width="240.883" height="176.678" filterUnits="userSpaceOnUse" color-interpolation-filters="sRGB">
<feFlood flood-opacity="0" result="BackgroundImageFix"/>
<feColorMatrix in="SourceAlpha" type="matrix" values="0 0 0 0 0 0 0 0 0 0 0 0 0 0 0 0 0 0 127 0" result="hardAlpha"/>
<feOffset dx="5" dy="10"/>
<feGaussianBlur stdDeviation="10.5"/>
<feComposite in2="hardAlpha" operator="out"/>
<feColorMatrix type="matrix" values="0 0 0 0 0.700272 0 0 0 0 0.700272 0 0 0 0 0.700272 0 0 0 0.25 0"/>
<feBlend mode="normal" in2="BackgroundImageFix" result="effect1_dropShadow_92_7345"/>
<feBlend mode="normal" in="SourceGraphic" in2="effect1_dropShadow_92_7345" result="shape"/>
</filter>
</defs>
</svg>
