<svg width="1910" height="1018" viewBox="0 0 1910 1018" fill="none" xmlns="http://www.w3.org/2000/svg">
<path d="M1 37.3651C95.326 -22.6139 231.853 -4.34095 299.605 77.3308C330.386 114.436 334.231 185.119 334.706 203.894C334.786 207.024 334.305 209.98 333.371 212.969C319.08 258.697 203.565 649.228 366.103 833.44C448.54 926.869 507.581 1014.71 645.525 1015.99C785.453 1017.28 846.706 927.568 931.342 833.44C1106.35 638.799 786.68 395.642 972.904 208.57C1069.54 111.494 1149.87 28.2721 1299.64 37.3651C1439.82 45.8757 1502.8 126.069 1585.46 222.072C1756.12 420.276 1376.51 679.596 1585.46 849.642C1684.97 930.621 1771.13 962.839 1909 970.62" stroke="#C9AA74" stroke-width="3" stroke-dasharray="25 25"/>
</svg>
