<?xml version="1.0" encoding="utf-8"?>
<svg viewBox="0.2718 0.7022 62.376 62.376" xmlns="http://www.w3.org/2000/svg">
  <g transform="matrix(0.9999999999999999, 0, 0, 0.9999999999999999, -150.77220153808594, -207.8587646484375)">
    <path d="M 182.232 270.937 C 199.456 270.937 213.42 256.974 213.42 239.749 C 213.42 222.525 199.456 208.561 182.232 208.561 C 165.007 208.561 151.044 222.525 151.044 239.749 C 151.044 256.974 165.007 270.937 182.232 270.937 Z" fill="#C9AA74"/>
    <path d="M 182.232 208.561 C 172.841 208.561 164.42 212.712 158.703 219.277 C 160.02 219.266 160.978 219.256 161.444 219.252 C 163.482 219.202 165.059 219.128 165.899 219.024 C 170.906 218.401 176.508 217.94 181.344 217.838 C 185.301 217.754 200.451 217.671 202.94 218.004 C 204.522 218.252 204.975 218.585 205.089 219.744 L 205.089 219.804 C 204.977 220.963 204.522 221.294 202.94 221.543 C 200.451 221.874 185.301 221.791 181.344 221.71 C 176.506 221.609 170.905 221.146 165.899 220.523 C 165.059 220.419 163.482 220.345 161.444 220.295 C 160.885 220.291 159.624 220.28 157.878 220.266 C 156.866 221.528 155.951 222.871 155.142 224.283 C 157.77 224.258 159.691 224.24 160.429 224.235 C 162.466 224.184 164.043 224.111 164.883 224.006 C 169.891 223.383 175.492 222.923 180.328 222.82 C 184.285 222.737 199.435 222.654 201.924 222.987 C 203.507 223.234 203.961 223.567 204.074 224.726 L 204.074 224.786 C 203.961 225.945 203.507 226.278 201.924 226.526 C 199.435 226.857 184.285 226.773 180.328 226.692 C 175.49 226.591 169.889 226.129 164.883 225.506 C 164.043 225.401 162.466 225.328 160.429 225.278 C 159.643 225.272 157.518 225.254 154.626 225.229 C 153.941 226.528 153.347 227.878 152.847 229.277 C 156.058 229.246 158.445 229.223 159.301 229.215 C 161.338 229.165 162.915 229.091 163.755 228.987 C 168.763 228.364 174.364 227.903 179.2 227.801 C 183.157 227.718 198.307 227.634 200.796 227.967 C 202.379 228.215 202.833 228.548 202.946 229.707 L 202.946 229.767 C 202.833 230.926 202.379 231.259 200.796 231.506 C 198.307 231.837 183.157 231.754 179.2 231.673 C 174.362 231.572 168.761 231.11 163.755 230.487 C 162.915 230.382 161.338 230.308 159.301 230.258 C 158.418 230.25 155.901 230.229 152.534 230.202 C 152.087 231.593 151.735 233.029 151.485 234.498 C 160.618 234.428 168.511 234.366 170.018 234.353 C 172.056 234.302 173.633 234.229 174.473 234.124 C 179.48 233.501 187.365 232.774 189.852 233.105 C 191.434 233.352 191.889 233.685 192.001 234.844 L 192.001 234.904 C 191.889 236.063 191.434 236.396 189.852 236.644 C 187.363 236.974 179.48 236.247 174.473 235.624 C 173.633 235.519 172.056 235.446 170.018 235.395 C 168.503 235.382 160.547 235.33 151.363 235.27 C 151.166 236.645 151.058 238.048 151.044 239.474 C 159.837 239.405 167.398 239.345 168.89 239.333 C 170.928 239.283 172.505 239.209 173.344 239.105 C 178.352 238.482 186.237 237.754 188.724 238.085 C 190.306 238.333 190.761 238.666 190.873 239.825 L 190.873 239.885 C 190.761 241.044 190.306 241.376 188.724 241.624 C 186.235 241.955 178.352 241.227 173.344 240.604 C 172.505 240.5 170.928 240.426 168.89 240.376 C 167.4 240.364 159.838 240.312 151.048 240.254 C 151.069 241.678 151.185 243.079 151.392 244.449 C 159.637 244.383 166.607 244.327 168.045 244.314 C 170.082 244.263 171.659 244.19 172.499 244.085 C 177.507 243.462 185.392 242.735 187.878 243.066 C 189.461 243.313 189.915 243.646 190.028 244.805 L 190.028 244.865 C 189.915 246.024 189.461 246.357 187.878 246.605 C 185.39 246.936 177.507 246.208 172.499 245.585 C 171.659 245.481 170.082 245.407 168.045 245.357 C 166.615 245.345 159.711 245.297 151.522 245.243 C 151.775 246.671 152.128 248.062 152.567 249.416 C 159.8 249.356 165.703 249.308 167.029 249.296 C 169.066 249.246 170.643 249.172 171.483 249.068 C 176.491 248.445 184.376 247.717 186.862 248.048 C 188.445 248.296 188.9 248.629 189.012 249.788 L 189.012 249.848 C 188.9 251.007 188.445 251.34 186.862 251.587 C 184.374 251.918 176.491 251.191 171.483 250.568 C 170.643 250.463 169.066 250.389 167.029 250.339 C 165.721 250.328 159.951 250.287 152.847 250.239 C 153.358 251.669 153.968 253.05 154.672 254.376 C 160.527 254.327 165.086 254.288 166.239 254.279 C 168.277 254.228 169.854 254.155 170.694 254.05 C 175.701 253.427 183.586 252.7 186.073 253.031 C 187.655 253.278 188.11 253.611 188.222 254.77 L 188.222 254.83 C 188.11 255.989 187.655 256.322 186.073 256.57 C 183.584 256.901 175.701 256.173 170.694 255.55 C 169.854 255.446 168.277 255.372 166.239 255.322 C 165.117 255.312 160.773 255.281 155.146 255.24 C 155.97 256.678 156.905 258.044 157.94 259.327 C 161.681 259.292 164.428 259.267 165.336 259.259 C 167.373 259.209 168.95 259.136 169.79 259.031 C 174.798 258.408 182.683 257.68 185.169 258.011 C 186.752 258.259 187.207 258.592 187.319 259.751 L 187.319 259.811 C 187.207 260.97 186.752 261.303 185.169 261.55 C 182.681 261.881 174.798 261.154 169.79 260.531 C 168.95 260.426 167.373 260.353 165.336 260.302 C 164.492 260.295 162.056 260.275 158.71 260.25 C 159.984 261.711 161.39 263.052 162.913 264.253 C 163.616 264.248 164.134 264.244 164.432 264.24 C 166.47 264.19 168.047 264.116 168.886 264.012 C 173.894 263.389 181.779 262.661 184.265 262.992 C 185.848 263.24 186.303 263.572 186.415 264.731 L 186.415 264.791 C 186.303 265.95 185.848 266.283 184.265 266.531 C 181.777 266.862 173.894 266.134 168.886 265.511 C 168.047 265.407 166.47 265.333 164.432 265.283 C 164.389 265.283 164.339 265.283 164.289 265.283 C 166.224 266.647 168.323 267.794 170.548 268.694 C 175.355 268.166 181.27 267.696 183.364 267.974 C 184.947 268.222 185.401 268.555 185.513 269.714 L 185.513 269.774 C 185.467 270.242 185.364 270.573 185.157 270.821 C 201.009 269.344 213.416 256.007 213.416 239.77 C 213.416 222.545 199.453 208.583 182.228 208.583 L 182.232 208.561 Z" fill="#232323"/>
  </g>
</svg>