<svg width="65" height="65" viewBox="0 0 65 65" fill="none" xmlns="http://www.w3.org/2000/svg">
<path d="M21.9993 8.55432V16.5543C21.9993 17.9688 21.4374 19.3254 20.4373 20.3256C19.4371 21.3258 18.0805 21.8877 16.666 21.8877H8.66602" stroke="#676673" stroke-width="5.33333" stroke-linecap="round" stroke-linejoin="round"/>
<path d="M43.332 56.5543V48.5543C43.332 47.1399 43.8939 45.7833 44.8941 44.7831C45.8943 43.7829 47.2509 43.221 48.6654 43.221H56.6654" stroke="#676673" stroke-width="5.33333" stroke-linecap="round" stroke-linejoin="round"/>
<path d="M21.9993 56.5543V48.5543C21.9993 47.1399 21.4374 45.7833 20.4373 44.7831C19.4371 43.7829 18.0805 43.221 16.666 43.221H8.66602" stroke="#676673" stroke-width="5.33333" stroke-linecap="round" stroke-linejoin="round"/>
<path d="M43.332 8.55432V16.5543C43.332 17.9688 43.8939 19.3254 44.8941 20.3256C45.8943 21.3258 47.2509 21.8877 48.6654 21.8877H56.6654" stroke="#676673" stroke-width="5.33333" stroke-linecap="round" stroke-linejoin="round"/>
</svg>
