<svg width="1920" height="924" viewBox="0 0 1920 924" fill="none" xmlns="http://www.w3.org/2000/svg">
<path d="M-147.921 97.5042C-179.376 58.223 -151.41 0.000244141 -101.086 0.000244141H1920V924H677.235C574.006 924 476.367 877.101 411.841 796.523L-147.921 97.5042Z" fill="#F9F8FF"/>
<path d="M-147.921 97.5042C-179.376 58.223 -151.41 0.000244141 -101.086 0.000244141H1920V924H677.235C574.006 924 476.367 877.101 411.841 796.523L-147.921 97.5042Z" fill="url(#paint0_linear_449_594)"/>
<mask id="mask0_449_594" style="mask-type:alpha" maskUnits="userSpaceOnUse" x="-162" y="0" width="2082" height="924">
<path d="M-147.921 97.5042C-179.376 58.223 -151.41 0.000244141 -101.086 0.000244141H1920V924H677.235C574.006 924 476.367 877.101 411.841 796.523L-147.921 97.5042Z" fill="#F9F8FF"/>
</mask>
<g mask="url(#mask0_449_594)">
<ellipse cx="529.475" cy="486.101" rx="529.475" ry="486.101" transform="matrix(0.940818 -0.338912 0.415999 0.909365 360.324 -125.452)" fill="url(#paint1_linear_449_594)" fill-opacity="0.14" style="mix-blend-mode:multiply"/>
<ellipse cx="432.513" cy="443.622" rx="432.513" ry="443.622" transform="matrix(0.285005 -0.958526 0.970218 0.242235 1037.86 1381.04)" fill="url(#paint2_linear_449_594)" fill-opacity="0.12" style="mix-blend-mode:multiply"/>
</g>
<defs>
<linearGradient id="paint0_linear_449_594" x1="225.937" y1="0.000198293" x2="1758.72" y2="1140.71" gradientUnits="userSpaceOnUse">
<stop stop-color="#27272A"/>
<stop offset="1" stop-color="#0D9488"/>
</linearGradient>
<linearGradient id="paint1_linear_449_594" x1="529.475" y1="0" x2="529.475" y2="972.201" gradientUnits="userSpaceOnUse">
<stop stop-color="#C9AA74"/>
<stop offset="1" stop-color="#EEE5D4"/>
</linearGradient>
<linearGradient id="paint2_linear_449_594" x1="432.513" y1="0" x2="432.513" y2="887.243" gradientUnits="userSpaceOnUse">
<stop stop-color="#C9AA74" stop-opacity="0.2"/>
<stop offset="1" stop-color="#EEE5D4"/>
</linearGradient>
</defs>
</svg>
