<svg width="64" height="64" viewBox="0 0 64 64" fill="none" xmlns="http://www.w3.org/2000/svg">
<path d="M60.0625 57.525L6.5 57.5L6.525 3.925C6.525 2.5125 5.3625 1.3875 3.9625 1.375C2.55 1.375 1.4 2.5125 1.4 3.925L1.375 60.05C1.375 60.725 1.65 61.375 2.125 61.85C2.575 62.3 3.1625 62.5625 3.8 62.5875C3.85 62.5875 3.8875 62.5875 3.9375 62.5875L60.0625 62.6125C61.475 62.6125 62.625 61.475 62.625 60.0625C62.625 58.6625 61.475 57.525 60.0625 57.525Z" fill="white"/>
<path d="M15.5332 50.1694L29.6207 38.4194L47.5707 37.4444C48.5207 37.3944 49.3582 36.8194 49.7582 35.9694L56.1832 22.1569L57.5582 25.1694C58.5707 27.1694 60.4332 26.6569 60.9582 26.4319C62.2582 25.8819 62.8082 24.3319 62.2207 23.0569L58.2457 14.3819C57.3832 12.5944 55.4832 12.7569 54.8207 13.1319L46.2832 17.1569C45.0082 17.7569 44.4582 19.2819 45.0582 20.5569C45.6582 21.8319 47.1957 22.3694 48.4707 21.7694L51.3457 20.4069L45.7582 32.4319L28.4832 33.3694C27.9332 33.3944 27.4082 33.6069 26.9832 33.9569L12.2457 46.2569C11.1582 47.1569 11.0332 48.7569 11.9207 49.8569C12.7957 50.9069 14.5082 51.0819 15.5332 50.1694Z" fill="white"/>
</svg>
