<svg width="64" height="64" viewBox="0 0 64 64" fill="none" xmlns="http://www.w3.org/2000/svg">
<path d="M21.3333 8V16C21.3333 17.4145 20.7714 18.771 19.7712 19.7712C18.771 20.7714 17.4145 21.3333 16 21.3333H8" stroke="white" stroke-width="5.33333" stroke-linecap="round" stroke-linejoin="round"/>
<path d="M42.6667 55.9998V47.9998C42.6667 46.5853 43.2287 45.2288 44.2288 44.2286C45.229 43.2284 46.5856 42.6665 48.0001 42.6665H56.0001" stroke="white" stroke-width="5.33333" stroke-linecap="round" stroke-linejoin="round"/>
<path d="M21.3333 55.9998V47.9998C21.3333 46.5853 20.7714 45.2288 19.7712 44.2286C18.771 43.2284 17.4145 42.6665 16 42.6665H8" stroke="white" stroke-width="5.33333" stroke-linecap="round" stroke-linejoin="round"/>
<path d="M42.6667 8V16C42.6667 17.4145 43.2287 18.771 44.2288 19.7712C45.229 20.7714 46.5856 21.3333 48.0001 21.3333H56.0001" stroke="white" stroke-width="5.33333" stroke-linecap="round" stroke-linejoin="round"/>
</svg>
