<svg width="64" height="64" viewBox="0 0 64 64" fill="none" xmlns="http://www.w3.org/2000/svg">
<path d="M31.3066 47.3329H47.0933C46.8533 47.5462 46.6133 47.7329 46.3733 47.9462L34.9866 56.4796C31.2266 59.2796 25.0933 59.2796 21.3066 56.4796L9.89328 47.9462C7.38661 46.0796 5.33325 41.9462 5.33325 38.8262V19.0661C5.33325 15.8128 7.81328 12.2128 10.8533 11.0661L24.1333 6.07947C26.3199 5.25281 29.9466 5.25281 32.1333 6.07947L45.3866 11.0661C47.9199 12.0261 50.0799 14.6928 50.7466 17.4128H31.2799C30.6933 17.4128 30.1599 17.4395 29.6533 17.4395C24.7199 17.7328 23.4399 19.5195 23.4399 25.1461V39.626C23.4666 45.7593 25.0399 47.3329 31.3066 47.3329Z" stroke="white" stroke-width="4" stroke-linecap="round" stroke-linejoin="round"/>
<path d="M23.4668 29.9199H58.6667" stroke="white" stroke-width="4" stroke-miterlimit="10" stroke-linecap="round" stroke-linejoin="round"/>
<path d="M58.6667 25.1194V39.9195C58.6133 45.8395 56.9867 47.3059 50.8267 47.3059H31.3069C25.0401 47.3059 23.4668 45.7328 23.4668 39.5728V25.0927C23.4668 19.4927 24.7468 17.706 29.6803 17.386C30.1869 17.386 30.7203 17.3594 31.3069 17.3594H50.8267C57.0933 17.386 58.6667 18.9327 58.6667 25.1194Z" stroke="white" stroke-width="4" stroke-linecap="round" stroke-linejoin="round"/>
<path d="M30.187 40.6929H33.7337" stroke="white" stroke-width="4" stroke-miterlimit="10" stroke-linecap="round" stroke-linejoin="round"/>
<path d="M39.3333 40.6929H48.0533" stroke="white" stroke-width="4" stroke-miterlimit="10" stroke-linecap="round" stroke-linejoin="round"/>
</svg>
