<svg width="24" height="24" viewBox="0 0 37 37" fill="none" xmlns="http://www.w3.org/2000/svg">
<path d="M18.7813 3.07706C15.5004 3.08093 12.355 4.38596 10.0351 6.70589C7.71517 9.02581 6.41013 12.1712 6.40626 15.4521C6.40233 18.1332 7.27812 20.7416 8.89926 22.8771C8.89926 22.8771 9.23676 23.3214 9.29189 23.3856L18.7813 34.5771L28.2751 23.3799C28.3246 23.3203 28.6633 22.8771 28.6633 22.8771L28.6644 22.8737C30.2847 20.7391 31.1601 18.132 31.1563 15.4521C31.1524 12.1712 29.8474 9.02581 27.5274 6.70589C25.2075 4.38596 22.0621 3.08093 18.7813 3.07706ZM18.7813 19.9521C17.8912 19.9521 17.0212 19.6881 16.2812 19.1937C15.5412 18.6992 14.9644 17.9964 14.6238 17.1741C14.2832 16.3519 14.1941 15.4471 14.3677 14.5742C14.5414 13.7012 14.9699 12.8994 15.5993 12.2701C16.2286 11.6407 17.0304 11.2122 17.9034 11.0385C18.7763 10.8649 19.6811 10.954 20.5033 11.2946C21.3256 11.6352 22.0284 12.212 22.5229 12.952C23.0173 13.692 23.2813 14.562 23.2813 15.4521C23.2798 16.6451 22.8052 17.7888 21.9616 18.6324C21.118 19.476 19.9743 19.9506 18.7813 19.9521Z" fill="white"/>
</svg>
